<?xml version="1.0" encoding="utf-8"?>
<!-- Generator: Adobe Illustrator 22.1.0, SVG Export Plug-In . SVG Version: 6.00 Build 0)  -->
<svg version="1.1" id="Capa_1" xmlns="http://www.w3.org/2000/svg" xmlns:xlink="http://www.w3.org/1999/xlink" x="0px" y="0px"
	 viewBox="0 0 512 435" style="enable-background:new 0 0 512 435;" xml:space="preserve">
<style type="text/css">
	.st0{fill:#FFF9EB;}
	.st1{fill:#D3CDBF;}
	.st2{fill:#FFCF5D;}
	.st3{fill:#FFB545;}
</style>
<path class="st0" d="M272.9,62.5c-5.8-0.2-11.2,1.1-16,3.4c-0.9-32.4-27.4-58.4-60-58.4c-21,0-39.5,10.8-50.2,27.2
	c-1.5-10.3-10.7-18-21.5-17.1c-9.4,0.8-17,8.2-18.1,17.6c-0.6,4.7,0.6,9.2,2.9,12.9c-0.1,0-0.2,0-0.3,0C96.5,50,86.9,61.5,86.9,74.7
	v6.1c-11.7,8-19.4,21.5-19.4,36.7l80.9,97L306.9,98.2C306.9,79.2,292,63.1,272.9,62.5z"/>
<g>
	<path class="st1" d="M271.9,62.6c-5.4,0-10.5,1.2-15,3.4c-0.8-29.4-22.7-53.6-51.2-57.8c-3.5,10,0.5,21.4,10,26.9
		c11.4,6.6,18.4,18.4,18.7,31.5v105.9l72.5-52.4V97.6C306.9,78.3,291.2,62.6,271.9,62.6z"/>
	<path class="st1" d="M126.9,17.6c-8.4,0-15.7,5.2-18.6,12.6h6.5c5.6,0,10.1,4.5,10.1,10.1c3.2,12.7,22,10.3,22-2.9v-3
		c-0.1,0.1-0.2,0.2-0.2,0.3C145.3,25.1,137,17.6,126.9,17.6z"/>
</g>
<path class="st2" d="M7.5,207.5v30c0,33.1,26.9,60,60,60l0,0v15c0,24.9,20.1,45,45,45h120c24.9,0,45-20.1,45-45v-195
	c0-8.3-6.7-15-15-15h-180c-8.3,0-15,6.7-15,15v30l0,0C34.4,147.5,7.5,174.4,7.5,207.5z M37.5,207.5c0-16.5,13.5-30,30-30v90
	c-16.5,0-30-13.5-30-30V207.5z"/>
<g>
	<path class="st3" d="M172.5,312.5c8.3,0,15-6.7,15-15v-150c0-8.3-6.7-15-15-15s-15,6.7-15,15v150
		C157.5,305.8,164.2,312.5,172.5,312.5z"/>
	<path class="st3" d="M112.6,312.5c8.3,0,15-6.7,15-15v-150c0-8.3-6.7-15-15-15s-15,6.7-15,15v150
		C97.6,305.8,104.3,312.5,112.6,312.5z"/>
	<path class="st3" d="M248.4,335V188c0-8.1-6.2-15-14.3-15.4c-8.6-0.4-15.7,6.5-15.7,15V305c0,16.6-13.4,30-30,30H73.5
		c7.8,13.4,22.3,22.5,39,22.5c129.7,0,121.8,0.2,126.4-0.5c13.8-2,25.7-10.3,32.6-22l0,0L248.4,335L248.4,335L248.4,335z"/>
</g>
<path class="st0" d="M410.5,132.5c-5.8-0.2-11.2,1.1-16,3.4c-0.9-32.4-27.4-58.4-60-58.4c-21,0-39.5,10.8-50.2,27.2
	c-1.5-10.3-10.7-18-21.5-17.1c-9.4,0.8-17,8.2-18.1,17.6c-0.6,4.7,0.6,9.2,2.9,12.9c-0.1,0-0.2,0-0.3,0
	c-13.1,1.9-22.7,13.4-22.7,26.7v6.1c-11.7,8-19.4,21.5-19.4,36.7V255c0,16.3,13.2,29.5,29.5,29.5H286l158.5-77v-39.3
	C444.5,149.2,429.6,133.1,410.5,132.5z"/>
<path class="st1" d="M409.5,132.6c-5.4,0-10.5,1.2-15,3.4c-0.8-29.4-22.7-53.6-51.2-57.8c-3.5,10,0.5,21.4,10,26.9
	c11.4,6.6,18.4,18.4,18.7,31.5c0.2,7.6,4.2,14.6,10.7,18.6s14.6,4.4,21.4,1.1c1.7-0.8,3.5-1.2,5.4-1.2c6.9,0,12.5,5.6,12.5,12.5
	c0,12.4,10.1,22.5,22.5,22.5v-22.5C444.5,148.3,428.8,132.6,409.5,132.6z"/>
<path class="st2" d="M444.5,217.5L444.5,217.5v-30c0-8.3-6.7-15-15-15h-180c-8.3,0-15,6.7-15,15v195c0,24.9,20.1,45,45,45h120
	c24.9,0,45-20.1,45-45v-15l0,0c33.1,0,60-26.9,60-60v-30C504.5,244.4,477.6,217.5,444.5,217.5z M474.5,307.5c0,16.5-13.5,30-30,30
	v-90c16.5,0,30,13.5,30,30V307.5z"/>
<g>
	<path class="st3" d="M279.5,382.5c-8.3,0-15-6.7-15-15v-150c0-8.3,6.7-15,15-15s15,6.7,15,15v150
		C294.5,375.8,287.8,382.5,279.5,382.5z"/>
	<path class="st3" d="M339.5,382.5c-8.3,0-15-6.7-15-15v-150c0-8.3,6.7-15,15-15s15,6.7,15,15v150
		C354.5,375.8,347.8,382.5,339.5,382.5z"/>
	<path class="st3" d="M444.5,217.5L444.5,217.5v-30c0-8.3-6.7-15-15-15H422c0,6.6,0,17.1,0,30h-22.5c-8.3,0-15,6.7-15,15v150
		c0,8.3,6.7,15,15,15H422v0c0,12.4-10.1,22.5-22.5,22.5h-159c7.8,13.4,22.3,22.5,39,22.5h120c24.9,0,45-20.1,45-45v-15l0,0
		c33.1,0,60-26.9,60-60v-30C504.5,244.4,477.6,217.5,444.5,217.5z M474.5,307.5c0,16.5-13.5,30-30,30v-90c16.5,0,30,13.5,30,30
		V307.5z"/>
</g>
<path d="M272,202.5c0,4.1,3.4,7.5,7.5,7.5c4.1,0,7.5,3.4,7.5,7.5v150c0,4.1-3.4,7.5-7.5,7.5s-7.5-3.4-7.5-7.5c0-4.1-3.4-7.5-7.5-7.5
	c-14.5,0-7.2,30,15,30c12.4,0,22.5-10.1,22.5-22.5v-150C302,195.3,272,188.1,272,202.5z"/>
<path d="M339.5,195c-4.1,0-7.5,3.4-7.5,7.5s3.4,7.5,7.5,7.5c4.1,0,7.5,3.4,7.5,7.5v150c0,4.1-3.4,7.5-7.5,7.5s-7.5-3.4-7.5-7.5
	c0-4.1-3.4-7.5-7.5-7.5c-14.5,0-7.2,30,15,30c12.4,0,22.5-10.1,22.5-22.5v-150C362,205.1,351.9,195,339.5,195z"/>
<path d="M392,202.5c0,4.1,3.4,7.5,7.5,7.5c4.1,0,7.5,3.4,7.5,7.5v150c0,4.1-3.4,7.5-7.5,7.5s-7.5-3.4-7.5-7.5c0-4.1-3.4-7.5-7.5-7.5
	c-14.5,0-7.2,30,15,30c12.4,0,22.5-10.1,22.5-22.5v-150C422,195.3,392,188.1,392,202.5z"/>
<path d="M452,210.4c0-24.3,1-28.4-3.9-35.6c2.3-1.3,3.9-3.7,3.9-6.6c0-23.2-18.5-42.5-41.3-43.2c-3.3-0.1-6.6,0.2-9.7,0.8
	c-7.3-42.3-52.6-67.7-93-50.4c-9.4-15.4-27.1-23.1-44.6-19.6c-9.3-53.6-76.3-75.2-114.9-35.4c-5.6-7-14.4-11.2-23.9-10.4
	c-16.3,1.4-27.9,16.8-24.6,33c-12.2,5.3-20.6,17.7-20.6,31.6c0,4.1,3.4,7.5,7.5,7.5s7.5-3.4,7.5-7.5c0-9.3,6.7-17.9,16.5-19.3
	c5.4-0.7,8.2-6.8,5.4-11.4c-5-8.1,0.6-18.3,9.5-19c6.6-0.6,12.5,4.1,13.5,10.7c1,6.8,9.9,8.8,13.7,3.1c27.8-42.5,95-24.6,96.4,27.3
	c0.1,2.5,1.4,4.9,3.6,6.2c5.9,3.6,8.1-2.6,19.8-2.3c9.1,0.3,17.4,5.1,22.2,12.8c-3.1,2.3-6.1,4.8-8.9,7.7
	c-13.3-16.8-39.8-12.7-47.3,7.4c-1.3,1.6-1.9,3.7-1.5,6c-0.4,3.2-0.3,6.2,0.3,9.3c-12.2,5.3-20.6,17.7-20.6,31.6v2.4
	c-12.2,9.8-19.4,24.7-19.4,40.4V255c0,17.8,12.6,32.7,29.4,36.2V350H112.5C91.8,350,75,333.3,75,312.5v-15c0-4.1-3.4-7.5-7.5-7.5
	C38.6,290,15,266.6,15,237.5v-30c0-28.7,23.2-52.5,52.5-52.5c2,0,3.9-0.8,5.3-2.2c2.9-2.9,2.2-3,2.2-35.3c0-4.1,3.4-7.5,7.5-7.5
	h132.1c4.1,0,7.5-3.4,7.5-7.5c0-4.1-3.4-7.5-7.5-7.5l0,0H82.5c-6,0-11.7,2.4-15.9,6.6c-4.3,4.2-6.6,9.9-6.6,15.9v22.9
	c-33.9,3.7-60,32.5-60,67.1v30c0,34.6,26.1,63.3,60,67.1c0,7.9-1.9,27.7,15.4,45c9.9,9.9,23.1,15.4,37.1,15.4H227v17.5
	c0,28.9,23.6,52.5,52.5,52.5h120c28.9,0,52.5-23.6,52.5-52.5v-7.9c33.7-3.7,60-32.4,60-67.1v-30C512,242.9,485.7,214.2,452,210.4z
	 M212.6,255v-67.5c0-12.2,6-23.6,16.1-30.5c2-1.4,3.3-3.7,3.3-6.2v-6.1c0-9.6,7-17.9,16.3-19.2c0,0,0.3,0,0.3,0
	c5.3-0.8,8.1-6.8,5.3-11.4c-5-8.1,0.6-18.3,9.5-19c6.6-0.6,12.5,4.1,13.5,10.7c1,6.8,9.9,8.8,13.7,3.1c27.8-42.5,95-24.6,96.4,27.3
	c0.1,2.5,1.4,4.9,3.6,6.2c2.2,1.3,4.9,1.5,7.1,0.4c3.9-1.9,8.2-2.8,12.6-2.6c14.1,0.4,25.7,12,26.6,26.3c-5.2-1.8,6.7-1.3-187.4-1.3
	c-12.4,0-22.5,10.1-22.5,22.5v88.2C218.6,272.6,212.6,264.5,212.6,255z M497,307.5c0,28.9-23.6,52.5-52.5,52.5
	c-4.1,0-7.5,3.4-7.5,7.5v15c0,20.7-16.8,37.5-37.5,37.5h-120c-20.7,0-37.5-16.8-37.5-37.5v-195c0-4.1,3.4-7.5,7.5-7.5h180
	c4.1,0,7.5,3.4,7.5,7.5v30c0,4.1,3.4,7.5,7.5,7.5c28.9,0,52.5,23.6,52.5,52.5V307.5z"/>
<path d="M444.5,240c-4.1,0-7.5,3.4-7.5,7.5v60c0,4.1,3.4,7.5,7.5,7.5c4.1,0,7.5-3.4,7.5-7.5v-51.2c8.6,3.1,15,11.3,15,21.2v30
	c0,12.3-10,22.5-22.5,22.5c-4.1,0-7.5,3.4-7.5,7.5c0,4.1,3.4,7.5,7.5,7.5c20.6,0,37.5-16.7,37.5-37.5v-30c0-10-3.9-19.4-11-26.5
	C463.9,243.9,454.5,240,444.5,240z"/>
<path d="M67.5,275c4.1,0,7.5-3.4,7.5-7.5c0-97.6,0.8-92.3-2.2-95.3c-1.4-1.4-3.3-2.2-5.3-2.2C46.9,170,30,186.7,30,207.5
	c0,31.3-1.5,38.7,6,50.3c2.2,3.5,6.8,4.5,10.4,2.2c3.4-2.2,4.5-6.8,2.2-10.4c-4.6-7.2-3.6-10.5-3.6-42.1c0-6,2.3-11.6,6.6-15.9
	c2.4-2.4,5.2-4.2,8.4-5.3v81.2C60,271.7,63.4,275,67.5,275z"/>
<path d="M172.5,140c4.1,0,7.5-3.4,7.5-7.5c0-14.5-30-7.2-30,15v150c0,12.4,10.1,22.5,22.5,22.5c22.4,0,29.3-30,15-30
	c-4.1,0-7.5,3.4-7.5,7.5c0,4.1-3.4,7.5-7.5,7.5s-7.5-3.4-7.5-7.5v-150C165,143.4,168.4,140,172.5,140z"/>
<path d="M112.6,140c4.1,0,7.5-3.4,7.5-7.5c0-14.5-30-7.2-30,15v150c0,12.4,10.1,22.5,22.5,22.5c22.4,0,29.3-30,15-30
	c-4.1,0-7.5,3.4-7.5,7.5c0,4.1-3.4,7.5-7.5,7.5s-7.5-3.4-7.5-7.5v-150C105.1,143.4,108.5,140,112.6,140z"/>
</svg>
