<?xml version="1.0" encoding="utf-8"?>
<!-- Generator: Adobe Illustrator 22.1.0, SVG Export Plug-In . SVG Version: 6.00 Build 0)  -->
<svg version="1.1" id="Capa_1" xmlns="http://www.w3.org/2000/svg" xmlns:xlink="http://www.w3.org/1999/xlink" x="0px" y="0px"
	 viewBox="0 0 512 430" style="enable-background:new 0 0 512 430;" xml:space="preserve">
<style type="text/css">
	.st0{fill:#C3C8D1;}
	.st1{fill:#B0B3B7;}
	.st2{fill:#E4EAF8;}
	.st3{fill:#D8DCE5;}
	.st4{fill:#FF5050;}
	.st5{fill:#ED3A3A;}
	.st6{fill:#FFC850;}
	.st7{fill:#F9B428;}
</style>
<path class="st0" d="M503,382.1L440.4,53v265l-84.8,84.8h129.1C496.3,402.8,505,392.9,503,382.1z"/>
<path class="st1" d="M440.4,53v265l-84.8,84.8h29.3l70.7-70.7c3.8-3.8,5.9-8.8,5.9-14.1V163.5L440.4,53z"/>
<path class="st2" d="M441.4,318V53c0-7.4-6-13.4-13.4-13.4H20.6c-7.4,0-13.4,6-13.4,13.4v356.6c0,7.4,6,13.4,13.4,13.4h315.7
	L441.4,318z"/>
<g>
	<path class="st3" d="M27.3,409.6V53c0-7.4,6-13.4,13.4-13.4h-20c-7.4,0-13.4,6-13.4,13.4v356.6c0,7.4,6,13.4,13.4,13.4h20
		C33.2,423,27.3,417,27.3,409.6z"/>
	<path class="st3" d="M441.4,318h-91.7c-7.4,0-13.4,6-13.4,13.4V423L441.4,318z"/>
</g>
<path class="st0" d="M356.3,331.4c0-7.4,6-13.4,13.4-13.4h-20c-7.4,0-13.4,6-13.4,13.4V423l20-20V331.4z"/>
<path class="st4" d="M428,38.6H20.6c-7.4,0-13.4,6-13.4,13.4v69h434.2V52C441.4,44.6,435.4,38.6,428,38.6z"/>
<path class="st5" d="M27.3,53c0-7.4,6-13.4,13.4-13.4h-20c-7.4,0-13.4,6-13.4,13.4v68h20L27.3,53L27.3,53z"/>
<g>
	<circle class="st6" cx="184.4" cy="198.2" r="23.1"/>
	<circle class="st6" cx="264.2" cy="198.2" r="23.1"/>
	<circle class="st6" cx="344" cy="198.2" r="23.1"/>
	<circle class="st6" cx="184.4" cy="272.8" r="23.1"/>
	<circle class="st6" cx="344" cy="272.8" r="23.1"/>
	<circle class="st6" cx="264.2" cy="272.8" r="23.1"/>
	<circle class="st6" cx="264.2" cy="347.4" r="23.1"/>
	<circle class="st6" cx="184.4" cy="347.4" r="23.1"/>
</g>
<g>
	<path class="st7" d="M181.4,198.2c0-9.2,5.3-17.1,13.1-20.8c-3-1.5-6.4-2.3-10-2.3c-12.8,0-23.1,10.3-23.1,23.1
		c0,12.8,10.3,23.1,23.1,23.1c3.6,0,7-0.8,10-2.3C186.7,215.3,181.4,207.3,181.4,198.2z"/>
	<path class="st7" d="M261.1,198.2c0-9.2,5.3-17.1,13.1-20.8c-3-1.5-6.4-2.3-10-2.3c-12.8,0-23.1,10.3-23.1,23.1
		c0,12.8,10.3,23.1,23.1,23.1c3.6,0,7-0.8,10-2.3C266.5,215.3,261.1,207.3,261.1,198.2z"/>
	<path class="st7" d="M340.9,198.2c0-9.2,5.3-17.1,13.1-20.8c-3-1.5-6.4-2.3-10-2.3c-12.8,0-23.1,10.3-23.1,23.1
		c0,12.8,10.3,23.1,23.1,23.1c3.6,0,7-0.8,10-2.3C346.2,215.3,340.9,207.3,340.9,198.2z"/>
	<path class="st7" d="M181.4,272.8c0-9.2,5.3-17.1,13.1-20.8c-3-1.5-6.4-2.3-10-2.3c-12.8,0-23.1,10.3-23.1,23.1
		c0,12.8,10.3,23.1,23.1,23.1c3.6,0,7-0.8,10-2.3C186.7,289.9,181.4,282,181.4,272.8z"/>
	<path class="st7" d="M340.9,272.8c0-9.2,5.3-17.1,13.1-20.8c-3-1.5-6.4-2.3-10-2.3c-12.8,0-23.1,10.3-23.1,23.1
		c0,12.8,10.3,23.1,23.1,23.1c3.6,0,7-0.8,10-2.3C346.2,289.9,340.9,282,340.9,272.8z"/>
	<path class="st7" d="M261.1,272.8c0-9.2,5.3-17.1,13.1-20.8c-3-1.5-6.4-2.3-10-2.3c-12.8,0-23.1,10.3-23.1,23.1
		c0,12.8,10.3,23.1,23.1,23.1c3.6,0,7-0.8,10-2.3C266.5,289.9,261.1,282,261.1,272.8z"/>
	<path class="st7" d="M261.1,347.4c0-9.2,5.3-17.1,13.1-20.8c-3-1.5-6.4-2.3-10-2.3c-12.8,0-23.1,10.3-23.1,23.1
		c0,12.8,10.3,23.1,23.1,23.1c3.6,0,7-0.8,10-2.3C266.5,364.5,261.1,356.6,261.1,347.4z"/>
	<path class="st7" d="M181.4,347.4c0-9.2,5.3-17.1,13.1-20.8c-3-1.5-6.4-2.3-10-2.3c-12.8,0-23.1,10.3-23.1,23.1
		c0,12.8,10.3,23.1,23.1,23.1c3.6,0,7-0.8,10-2.3C186.7,364.5,181.4,356.6,181.4,347.4z"/>
</g>
<path d="M184.7,167.1c-16.9,0-30.6,13.7-30.6,30.6s13.7,30.6,30.6,30.6s30.6-13.7,30.6-30.6S201.6,167.1,184.7,167.1z M184.7,213.2
	c-8.6,0-15.6-7-15.6-15.6s7-15.6,15.6-15.6s15.6,7,15.6,15.6S193.3,213.2,184.7,213.2z"/>
<path d="M264.5,228.3c16.9,0,30.6-13.7,30.6-30.6s-13.7-30.6-30.6-30.6s-30.6,13.7-30.6,30.6S247.6,228.3,264.5,228.3z M264.5,182.1
	c8.6,0,15.6,7,15.6,15.6s-7,15.6-15.6,15.6c-8.6,0-15.6-7-15.6-15.6S255.9,182.1,264.5,182.1z"/>
<path d="M344.2,228.3c16.9,0,30.6-13.7,30.6-30.6s-13.7-30.6-30.6-30.6s-30.6,13.7-30.6,30.6S327.3,228.3,344.2,228.3z M344.2,182.1
	c8.6,0,15.6,7,15.6,15.6s-7,15.6-15.6,15.6s-15.6-7-15.6-15.6S335.6,182.1,344.2,182.1z"/>
<path d="M184.7,241.7c-16.9,0-30.6,13.7-30.6,30.6s13.7,30.6,30.6,30.6s30.6-13.7,30.6-30.6S201.6,241.7,184.7,241.7z M184.7,287.9
	c-8.6,0-15.6-7-15.6-15.6s7-15.6,15.6-15.6s15.6,7,15.6,15.6S193.3,287.9,184.7,287.9z"/>
<path d="M344.2,302.9c16.9,0,30.6-13.7,30.6-30.6s-13.7-30.6-30.6-30.6s-30.6,13.7-30.6,30.6C313.6,289.2,327.3,302.9,344.2,302.9z
	 M344.2,256.7c8.6,0,15.6,7,15.6,15.6s-7,15.6-15.6,15.6s-15.6-7-15.6-15.6S335.6,256.7,344.2,256.7z"/>
<path d="M264.5,302.9c16.9,0,30.6-13.7,30.6-30.6s-13.7-30.6-30.6-30.6s-30.6,13.7-30.6,30.6S247.6,302.9,264.5,302.9z M264.5,256.7
	c8.6,0,15.6,7,15.6,15.6s-7,15.6-15.6,15.6c-8.6,0-15.6-7-15.6-15.6S255.9,256.7,264.5,256.7z"/>
<path d="M264.5,377.5c16.9,0,30.6-13.7,30.6-30.6s-13.7-30.6-30.6-30.6s-30.6,13.7-30.6,30.6S247.6,377.5,264.5,377.5z M264.5,331.3
	c8.6,0,15.6,7,15.6,15.6c0,8.6-7,15.6-15.6,15.6c-8.6,0-15.6-7-15.6-15.6C248.9,338.3,255.9,331.3,264.5,331.3z"/>
<path d="M184.7,316.3c-16.9,0-30.6,13.7-30.6,30.6s13.7,30.6,30.6,30.6s30.6-13.7,30.6-30.6C215.3,330,201.6,316.3,184.7,316.3z
	 M184.7,362.5c-8.6,0-15.6-7-15.6-15.6c0-8.6,7-15.6,15.6-15.6s15.6,7,15.6,15.6C200.3,355.5,193.3,362.5,184.7,362.5z"/>
<path d="M83.3,219.3c1.5,1.5,3.4,2.2,5.3,2.2s3.8-0.7,5.3-2.2l11-11l11,11c1.5,1.5,3.4,2.2,5.3,2.2c1.9,0,3.8-0.7,5.3-2.2
	c2.9-2.9,2.9-7.7,0-10.6l-11-11l11-11c2.9-2.9,2.9-7.7,0-10.6c-2.9-2.9-7.7-2.9-10.6,0l-11,11l-11-11c-2.9-2.9-7.7-2.9-10.6,0
	c-2.9,2.9-2.9,7.7,0,10.6l11,11l-11,11C80.4,211.6,80.4,216.4,83.3,219.3z"/>
<path d="M83.3,293.9c1.5,1.5,3.4,2.2,5.3,2.2s3.8-0.7,5.3-2.2l11-11l11,11c1.5,1.5,3.4,2.2,5.3,2.2c1.9,0,3.8-0.7,5.3-2.2
	c2.9-2.9,2.9-7.7,0-10.6l-11-11l11-11c2.9-2.9,2.9-7.7,0-10.6c-2.9-2.9-7.7-2.9-10.6,0l-11,11l-11-11c-2.9-2.9-7.7-2.9-10.6,0
	c-2.9,2.9-2.9,7.7,0,10.6l11,11l-11,11C80.4,286.2,80.4,291,83.3,293.9z"/>
<path d="M126.6,325.3c-2.9-2.9-7.7-2.9-10.6,0l-11,11l-11-11c-2.9-2.9-7.7-2.9-10.6,0c-2.9,2.9-2.9,7.7,0,10.6l11,11l-11,11
	c-2.9,2.9-2.9,7.7,0,10.6c1.5,1.5,3.4,2.2,5.3,2.2s3.8-0.7,5.3-2.2l11-11l11,11c1.5,1.5,3.4,2.2,5.3,2.2s3.8-0.7,5.3-2.2
	c2.9-2.9,2.9-7.7,0-10.6l-11-11l11-11C129.5,333,129.5,328.2,126.6,325.3z"/>
<path d="M511.6,380.2l-20.5-107.6c-0.8-4.1-4.7-6.7-8.8-6c-4.1,0.8-6.7,4.7-6,8.8L496.8,383c1.1,6-3.9,11.7-10.9,11.7H375l72-72
	c1.3-1.3,2.2-3.2,2.2-5.3V132.2l20.6,108.2c0.8,4.1,4.7,6.7,8.8,6c4.1-0.8,6.7-4.7,6-8.8L449.1,51.5c-0.5-11.1-9.6-19.9-20.8-19.9
	h-65.7V7.5c0-4.1-3.4-7.5-7.5-7.5s-7.5,3.4-7.5,7.5v24.1h-50.2V7.5c0-4.1-3.4-7.5-7.5-7.5s-7.5,3.4-7.5,7.5v24.1h-50.2V7.5
	c0-4.1-3.4-7.5-7.5-7.5s-7.5,3.4-7.5,7.5v24.1h-50.2V7.5c0-4.1-3.4-7.5-7.5-7.5s-7.5,3.4-7.5,7.5v24.1h-50.2V7.5
	c0-4.1-3.4-7.5-7.5-7.5s-7.5,3.4-7.5,7.5v24.1H20.9C9.4,31.6,0,41,0,52.5l0,0v356.6C0,420.7,9.4,430,20.9,430h186.2
	c4.1,0,7.5-3.4,7.5-7.5s-3.4-7.5-7.5-7.5H20.9c-3.2,0-5.9-2.6-5.9-5.9V129h419.2v181H350c-11.5,0-20.9,9.4-20.9,20.9V415h-87
	c-4.1,0-7.5,3.4-7.5,7.5s3.4,7.5,7.5,7.5h94.5c1.9,0,3.9-0.8,5.3-2.2l18.1-18.1h126C502.3,409.8,514.5,395.6,511.6,380.2z M15,114
	V52.5c0-3.2,2.6-5.9,5.9-5.9h65.7v33.7c0,4.1,3.4,7.5,7.5,7.5s7.5-3.4,7.5-7.5V46.6h50.2v33.7c0,4.1,3.4,7.5,7.5,7.5
	s7.5-3.4,7.5-7.5V46.6h50.2v33.7c0,4.1,3.4,7.5,7.5,7.5s7.5-3.4,7.5-7.5V46.6h50.2v33.7c0,4.1,3.4,7.5,7.5,7.5s7.5-3.4,7.5-7.5V46.6
	h50.2v33.7c0,4.1,3.4,7.5,7.5,7.5s7.5-3.4,7.5-7.5V46.6h65.7c3.2,0,5.9,2.6,5.9,5.9V114H15z M344.1,330.9c0-3.2,2.6-5.9,5.9-5.9
	h73.6c-7.5,7.5-71.9,71.9-79.5,79.5L344.1,330.9L344.1,330.9z"/>
</svg>
