<?xml version="1.0" encoding="utf-8"?>
<!-- Generator: Adobe Illustrator 22.1.0, SVG Export Plug-In . SVG Version: 6.00 Build 0)  -->
<svg version="1.1" id="Layer_1" xmlns="http://www.w3.org/2000/svg" xmlns:xlink="http://www.w3.org/1999/xlink" x="0px" y="0px"
	 viewBox="0 0 512 475.4" style="enable-background:new 0 0 512 475.4;" xml:space="preserve">
<style type="text/css">
	.st0{fill:#FF6376;}
	.st1{fill:#89AAED;}
	.st2{fill:#B5CCF8;}
	.st3{fill:#FDBA55;}
	.st4{fill:#FF9596;}
	.st5{fill:#FF608D;}
	.st6{fill:#866539;}
	.st7{fill:#FFD553;}
	.st8{fill:#3F4963;}
</style>
<g>
	<path class="st0" d="M228.6,187.6c0-23.1-18.7-70.3-41.8-70.3c-23.1,0-41.8,47.2-41.8,70.3s18.7,41.8,41.8,41.8
		C209.9,229.4,228.6,210.7,228.6,187.6z"/>
	<path class="st0" d="M361.4,187.6c0-23.1,18.7-70.3,41.8-70.3c23.1,0,41.8,47.2,41.8,70.3s-18.7,41.8-41.8,41.8
		C380.1,229.4,361.4,210.7,361.4,187.6z"/>
</g>
<path class="st1" d="M317.9,103.6c0-5.2-4.3-9.4-9.4-9.4h-26.9c-5.2,0-9.4,4.3-9.4,9.4v90.6c0,5.2,4.3,9.4,9.4,9.4h26.9
	c5.2,0,9.4-4.3,9.4-9.4V103.6z"/>
<g>
	<rect x="272.1" y="152.3" class="st2" width="45.8" height="16.1"/>
	<rect x="272.1" y="118.2" class="st2" width="45.8" height="16.1"/>
</g>
<path class="st3" d="M317.9,71.2c0-12.6-10.2-63.2-22.9-63.2c-12.6,0-22.9,50.5-22.9,63.2c0,12.6,10.3,22.9,22.9,22.9
	C307.6,94.1,317.9,83.9,317.9,71.2z"/>
<path class="st4" d="M503.9,223.3v-18.4c0-9.6-7.8-17.3-17.3-17.3H116.3c-7.7-21.6-28.3-37.1-52.5-37.1c-30.8,0-55.7,25-55.7,55.7
	c0,18,8.6,34,21.8,44.2v199c0,9.9,8,17.9,17.9,17.9h30.9V223.3H503.9z"/>
<path class="st5" d="M105.2,209.3c-21.7,0-39.4,17.7-39.4,39.4v218.7h21.5V256.8c11.5-5.4,20.9-14.6,26.5-26h390.1v-21.5H105.2
	L105.2,209.3z"/>
<path class="st6" d="M105.2,230.8c-9.9,0-17.9,8-17.9,17.9v218.7h398.7c9.9,0,17.9-8,17.9-17.9V230.8H105.2L105.2,230.8z"/>
<rect x="87.3" y="290.2" class="st7" width="416.6" height="117.9"/>
<g>
	<circle class="st8" cx="185.7" cy="328.6" r="14.6"/>
	<circle class="st8" cx="411.1" cy="328.6" r="14.6"/>
</g>
<g>
	<path class="st0" d="M201.4,379.7h-31.2c-4.5,0-8.1-3.6-8.1-8.1s3.6-8.1,8.1-8.1h31.2c4.5,0,8.1,3.6,8.1,8.1
		S205.8,379.7,201.4,379.7z"/>
	<path class="st0" d="M426.7,379.7h-31.2c-4.5,0-8.1-3.6-8.1-8.1s3.6-8.1,8.1-8.1h31.2c4.5,0,8.1,3.6,8.1,8.1
		S431.1,379.7,426.7,379.7z"/>
</g>
<g>
	<path class="st8" d="M277.2,369.6c-14.5,0-26.3-11.8-26.3-26.3c0-4.5,3.6-8.1,8.1-8.1c4.5,0,8.1,3.6,8.1,8.1
		c0,5.6,4.6,10.2,10.2,10.2s10.2-4.6,10.2-10.2c0-4.5,3.6-8.1,8.1-8.1c4.5,0,8.1,3.6,8.1,8.1C303.6,357.8,291.8,369.6,277.2,369.6z"
		/>
	<path class="st8" d="M313.8,369.6c-14.5,0-26.3-11.8-26.3-26.3c0-4.5,3.6-8.1,8.1-8.1c4.5,0,8.1,3.6,8.1,8.1
		c0,5.6,4.6,10.2,10.2,10.2s10.2-4.6,10.2-10.2c0-4.5,3.6-8.1,8.1-8.1c4.5,0,8.1,3.6,8.1,8.1C340.1,357.8,328.3,369.6,313.8,369.6z"
		/>
</g>
<path d="M486.6,179.6h-34.1c-1.5-12.2-6.1-26.8-12.6-39.4c-10.2-19.9-23.3-30.9-36.7-30.9c-13.4,0-26.5,11-36.7,30.9
	c-6.5,12.6-11.1,27.2-12.6,39.4H326v-76c0-5.4-2.5-10.3-6.4-13.5c4-5.2,6.4-11.7,6.4-18.8c0-7.1-2.6-23.5-7-38.6
	C312.4,10.4,304.8,0,295,0s-17.4,10.4-23.9,32.7c-4.4,15.1-7,31.5-7,38.6c0,7.1,2.4,13.6,6.4,18.8c-3.9,3.2-6.4,8.1-6.4,13.5v76
	h-27.9c-1.5-12.2-6.1-26.8-12.6-39.4c-10.2-19.9-23.3-30.9-36.7-30.9c-13.4,0-26.5,11-36.7,30.9c-6.5,12.6-11.1,27.2-12.6,39.4
	h-15.8c-10.3-22.4-32.9-37.1-57.9-37.1C28.6,142.5,0,171.1,0,206.3c0,18.6,7.9,35.9,21.8,48v195.2c0,14.3,11.6,25.9,25.9,25.9h438.3
	c14.3,0,25.9-11.6,25.9-25.9V204.9C512,190.9,500.6,179.6,486.6,179.6z M403.2,125.4c14,0,29.6,31.9,33,54.2h-66.1
	C373.5,157.2,389.1,125.4,403.2,125.4z M285.6,40.5c3.8-14,7.4-20.7,9.4-23.3c2,2.6,5.6,9.3,9.4,23.3c3.4,12.5,5.5,25.7,5.5,30.8
	c0,8.2-6.7,14.8-14.8,14.8c-8.2,0-14.8-6.7-14.8-14.8C280.2,66.2,282.3,53,285.6,40.5z M280.2,103.6c0-0.7,0.6-1.4,1.4-1.4h26.9
	c0.7,0,1.4,0.6,1.4,1.4v76h-29.7L280.2,103.6L280.2,103.6z M186.8,125.4c14,0,29.6,31.9,33,54.2h-66.1
	C157.2,157.2,172.8,125.4,186.8,125.4z M495.9,449.5c0,5.4-4.4,9.8-9.8,9.8H95.4V248.7c0-5.4,4.4-9.8,9.8-9.8h390.7L495.9,449.5
	L495.9,449.5L495.9,449.5z M495.9,222.8H105.2c-14.3,0-25.9,11.6-25.9,25.9v210.6H47.8c-5.4,0-9.8-4.4-9.8-9.8v-199
	c0-2.5-1.2-4.9-3.2-6.4c-11.9-9.1-18.7-22.9-18.7-37.8c0-26.3,21.4-47.7,47.7-47.7c20.1,0,38.2,12.7,44.9,31.7
	c1.1,3.2,4.2,5.4,7.6,5.4h370.3c5.1,0,9.3,4.2,9.3,9.3L495.9,222.8L495.9,222.8z M277.2,369.6c7.1,0,13.5-2.8,18.3-7.4
	c4.7,4.6,11.2,7.4,18.3,7.4c14.5,0,26.3-11.8,26.3-26.3c0-4.5-3.6-8.1-8.1-8.1c-4.5,0-8.1,3.6-8.1,8.1c0,5.6-4.6,10.2-10.2,10.2
	s-10.2-4.6-10.2-10.2c0-4.5-3.6-8.1-8.1-8.1c-4.5,0-8.1,3.6-8.1,8.1c0,5.6-4.6,10.2-10.2,10.2s-10.2-4.6-10.2-10.2
	c0-4.5-3.6-8.1-8.1-8.1c-4.5,0-8.1,3.6-8.1,8.1C250.9,357.8,262.7,369.6,277.2,369.6z M411.1,343.2c8.1,0,14.6-6.5,14.6-14.6
	c0-8.1-6.5-14.6-14.6-14.6s-14.6,6.5-14.6,14.6C396.5,336.7,403,343.2,411.1,343.2z M185.7,343.2c8.1,0,14.6-6.5,14.6-14.6
	c0-8.1-6.5-14.6-14.6-14.6c-8.1,0-14.6,6.5-14.6,14.6C171.1,336.7,177.7,343.2,185.7,343.2z"/>
</svg>
