<?xml version="1.0" encoding="utf-8"?>
<!-- Generator: Adobe Illustrator 22.1.0, SVG Export Plug-In . SVG Version: 6.00 Build 0)  -->
<svg version="1.1" id="Capa_1" xmlns="http://www.w3.org/2000/svg" xmlns:xlink="http://www.w3.org/1999/xlink" x="0px" y="0px"
	 viewBox="0 0 512 405" style="enable-background:new 0 0 512 405;" xml:space="preserve">
<style type="text/css">
	.st0{fill:#ED5565;}
	.st1{fill:#DA4453;}
	.st2{fill:#656D78;}
	.st3{fill:#FFCE54;}
</style>
<path class="st0" d="M504.5,157.5v220c0,11-9,20-20,20h-457c-11,0-20-9-20-20v-220c0-11,9-20,20-20h30h397h30
	C495.5,137.5,504.5,146.5,504.5,157.5z"/>
<path class="st1" d="M484.5,137.5h-30h0c11,0,20,9,20,20v220c0,11-9,20-20,20h30c11,0,20-9,20-20v-220
	C504.5,146.5,495.5,137.5,484.5,137.5z"/>
<path class="st2" d="M238.7,37.5c-1.7-2.9-2.7-6.4-2.7-10c0-11.1,9-20,20-20c11.1,0,20,8.9,20,20c0,3.7-1,7.1-2.7,10
	c-3.4,6-9.9,10-17.3,10C248.6,47.5,242.1,43.5,238.7,37.5z"/>
<path class="st3" d="M464.5,167.5h-417c0,5.5-4.5,10-10,10v180c5.5,0,10,4.5,10,10h417c0-5.5,4.5-10,10-10v-180
	C469,177.5,464.5,173,464.5,167.5z"/>
<path d="M503.9,138.1c-5.2-5.2-12.1-8.1-19.4-8.1H448L282.7,34.3c0.5-2.2,0.8-4.4,0.8-6.8C283.5,12.3,271.2,0,256,0
	c-15.2,0-27.5,12.3-27.5,27.5c0,2.3,0.3,4.6,0.8,6.8L64,130H27.5c-7.3,0-14.2,2.9-19.4,8.1S0,150.2,0,157.5v220
	c0,7.3,2.9,14.2,8.1,19.4s12.1,8.1,19.4,8.1h98.4c4.1,0,7.5-3.4,7.5-7.5c0-4.1-3.4-7.5-7.5-7.5H27.5c-3.3,0-6.4-1.3-8.8-3.7
	c-2.4-2.4-3.7-5.5-3.7-8.8v-220c0-3.3,1.3-6.4,3.7-8.8c2.4-2.4,5.5-3.7,8.8-3.7h457c3.3,0,6.4,1.3,8.8,3.7c2.4,2.4,3.7,5.5,3.7,8.8
	v220c0,3.3-1.3,6.4-3.7,8.8c-2.4,2.4-5.5,3.7-8.8,3.7H155.9c-4.1,0-7.5,3.4-7.5,7.5c0,4.1,3.4,7.5,7.5,7.5h328.6
	c7.3,0,14.2-2.9,19.4-8.1s8.1-12.1,8.1-19.4v-220C512,150.2,509.1,143.3,503.9,138.1z M256,15c6.9,0,12.5,5.6,12.5,12.5
	c0,6.9-5.6,12.5-12.5,12.5c-4.5,0-8.4-2.4-10.6-5.9c-0.1-0.1-0.1-0.2-0.2-0.3c-0.1-0.1-0.2-0.3-0.3-0.4c-0.9-1.7-1.4-3.7-1.4-5.8
	C243.5,20.6,249.1,15,256,15z M236.9,47.2c5,4.8,11.7,7.8,19.1,7.8c7.4,0,14.2-3,19.1-7.8l143,82.8H93.9L236.9,47.2z"/>
<path d="M400.2,160H47.5c-2,0-3.9,0.8-5.3,2.2c-1.4,1.4-2.2,3.3-2.2,5.3c0,1.4-1.1,2.5-2.5,2.5c-2,0-3.9,0.8-5.3,2.2
	c-1.4,1.4-2.2,3.3-2.2,5.3v180c0,2,0.8,3.9,2.2,5.3c1.4,1.4,3.3,2.2,5.3,2.2c1.4,0,2.5,1.1,2.5,2.5c0,2,0.8,3.9,2.2,5.3
	c1.4,1.4,3.3,2.2,5.3,2.2h417c2,0,3.9-0.8,5.3-2.2c1.4-1.4,2.2-3.3,2.2-5.3c0-1.4,1.1-2.5,2.5-2.5c2,0,3.9-0.8,5.3-2.2
	c1.4-1.4,2.2-3.3,2.2-5.3v-180c0-2-0.8-3.9-2.2-5.3c-1.4-1.4-3.3-2.2-5.3-2.2c-1.4,0-2.5-1.1-2.5-2.5c0-2-0.8-3.9-2.2-5.3
	c-1.4-1.4-3.3-2.2-5.3-2.2h-34.3c-4.1,0-7.5,3.4-7.5,7.5c0,4.1,3.4,7.5,7.5,7.5h28.5c1.7,3.6,4.7,6.6,8.3,8.3v168.4
	c-3.6,1.7-6.6,4.7-8.3,8.3H53.3c-1.7-3.6-4.7-6.6-8.3-8.3V183.3c3.6-1.7,6.6-4.7,8.3-8.3h346.9c4.1,0,7.5-3.4,7.5-7.5
	C407.7,163.4,404.4,160,400.2,160z"/>
<path d="M88.5,247.5v40c0,20.7,16.8,37.5,37.5,37.5s37.5-16.8,37.5-37.5v-40c0-20.7-16.8-37.5-37.5-37.5S88.5,226.8,88.5,247.5z
	 M148.5,247.5v40c0,12.4-10.1,22.5-22.5,22.5s-22.5-10.1-22.5-22.5v-40c0-12.4,10.1-22.5,22.5-22.5
	C138.4,225,148.5,235.1,148.5,247.5z"/>
<path d="M186,210c-4.1,0-7.5,3.4-7.5,7.5v100c0,4.1,3.4,7.5,7.5,7.5s7.5-3.4,7.5-7.5V285H216c20.7,0,37.5-16.8,37.5-37.5
	S236.7,210,216,210H186z M238.5,247.5c0,12.4-10.1,22.5-22.5,22.5h-22.5v-45H216C228.4,225,238.5,235.1,238.5,247.5z"/>
<path d="M326,225c4.1,0,7.5-3.4,7.5-7.5s-3.4-7.5-7.5-7.5h-50c-4.1,0-7.5,3.4-7.5,7.5v100c0,4.1,3.4,7.5,7.5,7.5h50
	c4.1,0,7.5-3.4,7.5-7.5c0-4.1-3.4-7.5-7.5-7.5h-42.5v-35H316c4.1,0,7.5-3.4,7.5-7.5c0-4.1-3.4-7.5-7.5-7.5h-32.5v-35H326z"/>
<path d="M362.3,213.5c-0.1-0.1-0.2-0.2-0.2-0.4c-0.1-0.1-0.1-0.2-0.2-0.3c-0.1-0.1-0.1-0.2-0.2-0.3c-0.1-0.1-0.2-0.2-0.3-0.3
	c-0.1-0.1-0.1-0.1-0.2-0.2c-0.1-0.1-0.2-0.2-0.3-0.3c-0.1-0.1-0.1-0.1-0.2-0.2c-0.1-0.1-0.2-0.2-0.3-0.3c-0.1-0.1-0.2-0.1-0.3-0.2
	c-0.1-0.1-0.2-0.1-0.3-0.2c-0.1-0.1-0.2-0.1-0.3-0.2c-0.1-0.1-0.2-0.1-0.3-0.1c-0.1-0.1-0.2-0.1-0.4-0.2c-0.1,0-0.2-0.1-0.3-0.1
	c-0.1,0-0.3-0.1-0.4-0.1c-0.1,0-0.2-0.1-0.3-0.1c-0.1,0-0.3-0.1-0.4-0.1c-0.1,0-0.2,0-0.4-0.1c-0.1,0-0.2,0-0.3,0
	c-0.1,0-0.3,0-0.4,0c-0.1,0-0.1,0-0.2,0c0,0-0.1,0-0.1,0c-0.2,0-0.3,0-0.5,0c-0.1,0-0.2,0-0.3,0c-0.1,0-0.3,0-0.4,0.1
	c-0.1,0-0.2,0-0.3,0.1c-0.1,0-0.2,0.1-0.4,0.1c-0.1,0-0.2,0.1-0.4,0.1c-0.1,0-0.2,0.1-0.3,0.1c-0.1,0-0.3,0.1-0.4,0.2
	c-0.1,0-0.2,0.1-0.3,0.1c-0.1,0.1-0.3,0.1-0.4,0.2c0,0-0.1,0-0.1,0.1c0,0-0.1,0.1-0.1,0.1c-0.1,0.1-0.2,0.2-0.4,0.2
	c-0.1,0.1-0.2,0.1-0.3,0.2c-0.1,0.1-0.2,0.1-0.3,0.2c-0.1,0.1-0.2,0.2-0.3,0.3c-0.1,0.1-0.1,0.1-0.2,0.2c-0.1,0.1-0.2,0.2-0.3,0.3
	c-0.1,0.1-0.1,0.2-0.2,0.2c-0.1,0.1-0.2,0.2-0.3,0.3c-0.1,0.1-0.1,0.2-0.2,0.3c-0.1,0.1-0.1,0.2-0.2,0.3c-0.1,0.1-0.1,0.2-0.2,0.3
	c-0.1,0.1-0.1,0.2-0.1,0.3c-0.1,0.1-0.1,0.3-0.2,0.4c0,0.1-0.1,0.2-0.1,0.3c0,0.1-0.1,0.3-0.1,0.4c0,0.1-0.1,0.2-0.1,0.3
	c0,0.1-0.1,0.3-0.1,0.4c0,0.1,0,0.2-0.1,0.4c0,0.1,0,0.2,0,0.3c0,0.1,0,0.3,0,0.4c0,0.1,0,0.1,0,0.2v100c0,4.1,3.4,7.5,7.5,7.5
	s7.5-3.4,7.5-7.5v-72.9l46.1,76.8c0,0,0,0.1,0.1,0.1c0.1,0.2,0.3,0.4,0.4,0.6c0,0.1,0.1,0.1,0.1,0.2c0.2,0.2,0.4,0.4,0.6,0.6
	c0.1,0.1,0.1,0.1,0.2,0.2c0.1,0.1,0.3,0.3,0.5,0.4c0.1,0.1,0.2,0.1,0.3,0.2c0.2,0.1,0.4,0.3,0.6,0.4c0,0,0.1,0.1,0.1,0.1
	c0.3,0.1,0.5,0.3,0.8,0.4c0.1,0,0.1,0,0.2,0.1c0.2,0.1,0.4,0.2,0.7,0.2c0.1,0,0.2,0,0.2,0.1c0.2,0.1,0.4,0.1,0.7,0.1
	c0.1,0,0.2,0,0.2,0c0.3,0,0.6,0.1,0.8,0.1c0,0,0,0,0,0c0,0,0.1,0,0.1,0c0.3,0,0.5,0,0.8-0.1c0.1,0,0.2,0,0.3,0
	c0.2,0,0.4-0.1,0.6-0.1c0.1,0,0.2,0,0.3-0.1c0.6-0.2,1.2-0.4,1.7-0.7c0,0,0.1,0,0.1,0c0,0,0.1-0.1,0.1-0.1c0.1-0.1,0.2-0.2,0.4-0.2
	c0.1-0.1,0.2-0.1,0.3-0.2c0.1-0.1,0.2-0.1,0.3-0.2c0.1-0.1,0.2-0.2,0.3-0.3c0.1-0.1,0.1-0.1,0.2-0.2c0.1-0.1,0.2-0.2,0.3-0.3
	c0.1-0.1,0.1-0.2,0.2-0.2c0.1-0.1,0.2-0.2,0.3-0.3c0.1-0.1,0.1-0.2,0.2-0.3c0.1-0.1,0.1-0.2,0.2-0.3c0.1-0.1,0.1-0.2,0.2-0.3
	c0.1-0.1,0.1-0.2,0.1-0.3c0.1-0.1,0.1-0.3,0.2-0.4c0-0.1,0.1-0.2,0.1-0.3c0-0.1,0.1-0.3,0.1-0.4c0-0.1,0.1-0.2,0.1-0.3
	c0-0.1,0.1-0.3,0.1-0.4c0-0.1,0-0.2,0.1-0.4c0-0.1,0-0.2,0-0.3c0-0.1,0-0.3,0-0.4c0-0.1,0-0.1,0-0.2v-100c0-4.1-3.4-7.5-7.5-7.5
	s-7.5,3.4-7.5,7.5v72.9l-46.1-76.8C362.4,213.6,362.4,213.6,362.3,213.5z"/>
</svg>
