<?xml version="1.0" encoding="utf-8"?>
<!-- Generator: Adobe Illustrator 22.1.0, SVG Export Plug-In . SVG Version: 6.00 Build 0)  -->
<svg version="1.1" id="Capa_1" xmlns="http://www.w3.org/2000/svg" xmlns:xlink="http://www.w3.org/1999/xlink" x="0px" y="0px"
	 viewBox="0 0 512 512" style="enable-background:new 0 0 512 512;" xml:space="preserve">
<style type="text/css">
	.st0{fill:#F56C6C;}
	.st1{fill:#DB4D4D;}
	.st2{fill:#E4DAD8;}
	.st3{fill:#F2EDEC;}
	.st4{fill:#FAD000;}
</style>
<path class="st0" d="M79.6,183.9c0-97.4,79-176.4,176.4-176.4s176.4,79,176.4,176.4c0,136.8-176.4,320.6-176.4,320.6
	S79.6,320.6,79.6,183.9z"/>
<path class="st1" d="M112.2,184.4c0-92.8,71.7-168.9,162.8-175.8c-6.2-0.7-12.6-1-19-1c-97.4,0-176.4,79-176.4,176.4
	C79.6,320.6,256,504.5,256,504.5s6.1-6.4,16.1-17.6C228.2,437.2,112.2,295.3,112.2,184.4z"/>
<circle class="st2" cx="256" cy="183.9" r="137.3"/>
<circle class="st3" cx="256" cy="183.9" r="112.7"/>
<g>
	<path class="st4" d="M204.4,104.2h-4v156.3c0,6.6,5.4,12,12,12l0,0c6.6,0,12-5.4,12-12v-68.1h16v-52.1
		C240.5,120.4,224.3,104.2,204.4,104.2z"/>
	<path class="st4" d="M272.5,144.3v8c0,7.5,5.1,13.7,12,15.5v92.7c0,6.6,5.4,12,12,12s12-5.4,12-12v-92.7c6.9-1.8,12-8,12-15.5v-8
		L272.5,144.3L272.5,144.3z"/>
</g>
<path d="M256,0C154.6,0,72.1,82.5,72.1,183.9c0,32.3,9.5,69.6,28.2,110.9c14.8,32.7,35.4,68,61.3,105
	c43.9,62.8,88.5,109.5,88.9,109.9c2.9,3,7.9,3,10.8,0c0.4-0.5,45-47.1,88.9-109.9c25.9-37,46.5-72.3,61.3-105
	c18.7-41.3,28.2-78.6,28.2-110.9C439.9,82.5,357.4,0,256,0z M338.1,391c-34.3,49.1-69.1,88.2-82.1,102.5
	c-13.1-14.3-47.8-53.3-82.1-102.5c-56.7-81.2-86.7-152.8-86.7-207.1C87.2,90.8,162.9,15,256,15s168.8,75.7,168.8,168.8
	C424.8,238.2,394.9,309.8,338.1,391z"/>
<path d="M358.9,82c-2.9-2.9-7.7-3-10.6-0.1c-2.9,2.9-3,7.7-0.1,10.6c24.2,24.5,37.6,56.9,37.6,91.3c0,71.6-58.2,129.8-129.8,129.8
	s-129.8-58.2-129.8-129.8S184.4,54.1,256,54.1c21.4,0,42.7,5.3,61.4,15.4c3.7,2,8.2,0.6,10.2-3.1c2-3.7,0.6-8.2-3.1-10.2
	C303.6,45,279.9,39.1,256,39.1c-79.8,0-144.8,65-144.8,144.8s65,144.8,144.8,144.8s144.8-65,144.8-144.8
	C400.8,145.5,385.9,109.3,358.9,82z"/>
<path d="M200.4,96.7c-4.1,0-7.5,3.4-7.5,7.5v156.3c0,10.8,8.8,19.5,19.5,19.5c10.8,0,19.5-8.8,19.5-19.5v-60.6h8.5
	c4.1,0,7.5-3.4,7.5-7.5v-52.1c0-24-19.6-43.6-43.6-43.6C204.4,96.7,200.4,96.7,200.4,96.7z M207.9,111.9
	c14.1,1.7,25.1,13.8,25.1,28.3v44.6h-8.5c-4.1,0-7.5,3.4-7.5,7.5v68.1c0,2.5-2,4.5-4.5,4.5c-2.5,0-4.5-2-4.5-4.5L207.9,111.9
	L207.9,111.9z"/>
<path d="M296.6,280.1c10.8,0,19.5-8.8,19.5-19.5v-87.7c7.3-4.1,12-11.9,12-20.5v-48.1c0-4.2-3.4-7.5-7.5-7.5s-7.5,3.4-7.5,7.5v32.6
	h-9v-32.6c0-4.2-3.4-7.5-7.5-7.5s-7.5,3.4-7.5,7.5v32.6h-9v-32.6c0-4.2-3.4-7.5-7.5-7.5c-4.1,0-7.5,3.4-7.5,7.5v48.1
	c0,8.7,4.7,16.4,12,20.5v87.7C277,271.3,285.8,280.1,296.6,280.1z M313.1,151.8v0.5c0,3.9-2.6,7.3-6.4,8.2c-3.3,0.9-5.6,3.8-5.6,7.3
	v92.7c0,2.5-2,4.5-4.5,4.5s-4.5-2-4.5-4.5v-92.7c0-3.4-2.3-6.4-5.6-7.3c-3.8-1-6.4-4.4-6.4-8.2v-0.5L313.1,151.8L313.1,151.8
	L313.1,151.8z"/>
</svg>
