<?xml version="1.0" encoding="utf-8"?>
<!-- Generator: Adobe Illustrator 22.1.0, SVG Export Plug-In . SVG Version: 6.00 Build 0)  -->
<svg version="1.1" id="Capa_1" xmlns="http://www.w3.org/2000/svg" xmlns:xlink="http://www.w3.org/1999/xlink" x="0px" y="0px"
	 viewBox="0 0 512 463.9" style="enable-background:new 0 0 512 463.9;" xml:space="preserve">
<style type="text/css">
	.st0{fill:#F3F1F1;}
	.st1{fill:#E6E3E2;}
	.st2{fill:#C4A0DE;}
	.st3{fill:#AE85CC;}
	.st4{fill:#A89C9A;}
	.st5{fill:#9B8E8B;}
	.st6{fill:#CDC6C5;}
	.st7{fill:#FFC44F;}
	.st8{fill:#FFB357;}
</style>
<rect x="7.5" y="7.5" class="st0" width="497" height="448.9"/>
<rect x="7.5" y="7.5" class="st1" width="32.1" height="448.9"/>
<rect x="7.5" y="7.5" class="st2" width="497" height="64.1"/>
<rect x="7.5" y="7.5" class="st3" width="32.1" height="64.1"/>
<path class="st4" d="M280,408.3H232c-13.3,0-24-10.8-24-24l0,0c0-13.3,10.8-24,24-24H280c13.3,0,24,10.8,24,24l0,0
	C304.1,397.5,293.3,408.3,280,408.3z"/>
<path class="st5" d="M288.1,392.3H240c-13.3,0-24-10.8-24-24l0,0c0-0.7,0-1.3,0.1-2c-5,4.4-8.1,10.8-8.1,18l0,0
	c0,13.3,10.8,24,24,24H280c12.6,0,23-9.7,24-22.1C299.8,390,294.2,392.3,288.1,392.3z"/>
<rect x="127.8" y="167.8" class="st6" width="256.5" height="160.3"/>
<polygon class="st7" points="317,252.9 351,377.6 385.1,343.6 441.7,400.3 464.4,377.6 407.7,320.9 441.7,286.9 "/>
<polygon class="st8" points="384.3,320.1 360.5,340.8 334.6,257.7 317,252.9 351,377.6 385.1,343.6 441.7,400.3 453.1,388.9 "/>
<path d="M504.5,0H7.5C3.4,0,0,3.4,0,7.5v448.9c0,4.1,3.4,7.5,7.5,7.5h497c4.1,0,7.5-3.4,7.5-7.5V7.5C512,3.4,508.6,0,504.5,0z
	 M15,448.9V79.2h50.3c4.2,0,7.5-3.4,7.5-7.5c0-4.1-3.4-7.5-7.5-7.5H15V15H497v49.1H100c-4.2,0-7.5,3.4-7.5,7.5
	c0,4.1,3.4,7.5,7.5,7.5H497v369.7L15,448.9L15,448.9z"/>
<path d="M280,352.7H232c-17.4,0-31.6,14.2-31.6,31.6s14.2,31.6,31.6,31.6H280c17.4,0,31.6-14.2,31.6-31.6S297.5,352.7,280,352.7z
	 M280,400.8H232c-9.1,0-16.5-7.4-16.5-16.5s7.4-16.5,16.5-16.5H280c9.1,0,16.5,7.4,16.5,16.5S289.2,400.8,280,400.8z"/>
<path d="M439.4,47.1h1c4.1,0,7.5-3.4,7.5-7.5s-3.4-7.5-7.5-7.5h-1c-4.1,0-7.5,3.4-7.5,7.5S435.2,47.1,439.4,47.1z"/>
<path d="M471.4,47.1h1c4.1,0,7.5-3.4,7.5-7.5s-3.4-7.5-7.5-7.5h-1c-4.1,0-7.5,3.4-7.5,7.5S467.3,47.1,471.4,47.1z"/>
<path d="M406.3,47.1h1c4.1,0,7.5-3.4,7.5-7.5s-3.4-7.5-7.5-7.5h-1c-4.1,0-7.5,3.4-7.5,7.5S402.1,47.1,406.3,47.1z"/>
<path d="M418.4,320.9l28.7-28.7c4-4,2.1-11.1-3.3-12.6l-51.9-14.2v-97.7c0-4.1-3.4-7.5-7.5-7.5H127.8c-4.2,0-7.5,3.4-7.5,7.5v160.3
	c0,4.1,3.4,7.5,7.5,7.5h204.1l12,43.9c1.5,5.5,8.6,7.3,12.6,3.3l28.7-28.7l51.4,51.4c2.9,2.9,7.7,2.9,10.6,0l22.7-22.7
	c2.9-2.9,2.9-7.7,0-10.6L418.4,320.9z M135.3,320.6V175.3h241.5v86.1L319,245.7c-5.5-1.5-10.7,3.7-9.2,9.2l17.9,65.7L135.3,320.6
	L135.3,320.6z M441.7,389.7l-51.4-51.4c-2.9-2.9-7.7-2.9-10.6,0l-24.9,24.9l-27.1-99.5l99.5,27.1l-24.9,24.9
	c-2.9,2.9-2.9,7.7,0,10.6l51.4,51.4L441.7,389.7z"/>
<path d="M127.8,143.3h160.3c4.1,0,7.5-3.4,7.5-7.5s-3.4-7.5-7.5-7.5H127.8c-4.2,0-7.5,3.4-7.5,7.5S123.6,143.3,127.8,143.3z"/>
<path d="M312.1,143.3h80.2c4.1,0,7.5-3.4,7.5-7.5s-3.4-7.5-7.5-7.5h-80.2c-4.1,0-7.5,3.4-7.5,7.5S308,143.3,312.1,143.3z"/>
</svg>
