<?xml version="1.0" encoding="utf-8"?>
<!-- Generator: Adobe Illustrator 22.1.0, SVG Export Plug-In . SVG Version: 6.00 Build 0)  -->
<svg version="1.1" id="Layer_1" xmlns="http://www.w3.org/2000/svg" xmlns:xlink="http://www.w3.org/1999/xlink" x="0px" y="0px"
	 viewBox="0 0 512 446.6" style="enable-background:new 0 0 512 446.6;" xml:space="preserve">
<style type="text/css">
	.st0{fill:#027372;}
	.st1{fill:#02ACAB;}
	.st2{fill:#81E3E2;}
	.st3{fill:#42C8C6;}
</style>
<polygon class="st0" points="102.5,203.7 150.6,438.5 503.8,8.2 "/>
<polygon class="st1" points="252,336.8 150.6,438.5 167.8,290.6 232.5,292.4 "/>
<g>
	<polygon class="st2" points="503.8,8.2 114.1,260.4 8.2,200.7 	"/>
	<polygon class="st2" points="503.8,8.2 503.3,9.6 298.8,362.5 167.8,290.6 	"/>
</g>
<polygon class="st3" points="298.8,362.5 503.3,9.6 364,398.3 "/>
<path d="M509.5,2.3c-2.3-2.2-5.7-2.9-8.7-1.8L5.2,193.1c-2.9,1.1-5,3.9-5.2,7s1.4,6.1,4.1,7.7l102.7,57.9l35.7,174.3
	c0.2,1.2,0.7,2.4,1.4,3.4c0.1,0.1,0.1,0.2,0.2,0.3c1.3,1.6,3,2.7,5.1,3c0.3,0,0.5,0.1,0.8,0.1c0.2,0,0.3,0,0.5,0
	c1.6,0,3-0.4,4.3-1.2c0.4-0.3,0.8-0.6,1.2-0.9c0.1-0.1,0.2-0.2,0.3-0.3l77.3-77.5c3.2-3.2,3.2-8.4,0-11.6c-3.2-3.2-8.4-3.2-11.6,0
	L161.4,416l13.1-112.4L360,405.4c1.9,1,3.9,1.2,5.8,0.8c0.2-0.1,0.4-0.1,0.6-0.2c1.9-0.6,3.5-1.9,4.6-3.7c0.1-0.1,0.1-0.2,0.1-0.3
	c0.2-0.4,0.4-0.8,0.5-1.2l139.8-390C512.6,7.9,511.8,4.6,509.5,2.3z M27.2,202L432.4,44.7L113.8,250.8L27.2,202z M162.7,284.3
	c-0.8,0.6-1.4,1.4-1.9,2.3c-0.1,0.1-0.1,0.2-0.2,0.4c-0.5,1-0.8,2-0.9,3l-11.3,97.1l-25.1-122.7l275.1-178L162.7,284.3z
	 M359.5,386.5l-177.3-97.3L485.9,33.9L359.5,386.5z"/>
</svg>
