<?xml version="1.0" encoding="utf-8"?>
<!-- Generator: Adobe Illustrator 22.1.0, SVG Export Plug-In . SVG Version: 6.00 Build 0)  -->
<svg version="1.1" id="Layer_1" xmlns="http://www.w3.org/2000/svg" xmlns:xlink="http://www.w3.org/1999/xlink" x="0px" y="0px"
	 viewBox="0 0 512 512" style="enable-background:new 0 0 512 512;" xml:space="preserve">
<style type="text/css">
	.st0{fill:#FDDD85;}
	.st1{fill:#F07B52;}
	.st2{fill:#DD6140;}
</style>
<path class="st0" d="M341.2,216.4V92.7c0-47.1-38.1-85.2-85.2-85.2l0,0c-47.1,0-85.2,38.1-85.2,85.2v123.7h35.3V90.8
	c0-27.6,22.4-49.9,49.9-49.9l0,0c27.6,0,49.9,22.4,49.9,49.9v125.6L341.2,216.4L341.2,216.4z"/>
<path class="st1" d="M390.6,504.5H121.4c-13.9,0-25.1-11.2-25.1-25.1V241.5c0-13.9,11.2-25.1,25.1-25.1h269.2
	c13.9,0,25.1,11.2,25.1,25.1v237.8C415.7,493.2,404.5,504.5,390.6,504.5z"/>
<path class="st2" d="M415.7,241.5v237.8c0,13.9-11.2,25.1-25.1,25.1h-49.7c13.9,0,25.1-11.3,25.1-25.1V241.5
	c0-13.9-11.2-25.1-25.1-25.1h49.7C404.5,216.4,415.7,227.7,415.7,241.5z"/>
<path d="M390.6,208.9h-41.9v-54.6c0-4.1-3.4-7.5-7.5-7.5s-7.5,3.4-7.5,7.5v54.6h-20.2V90.8c0-31.7-25.8-57.4-57.4-57.4
	s-57.4,25.8-57.4,57.4v118.1h-20.2V92.7c0-42.8,34.9-77.7,77.7-77.7s77.7,34.9,77.7,77.7v11.6c0,4.1,3.4,7.5,7.5,7.5
	s7.5-3.4,7.5-7.5V92.7C348.7,41.6,307.1,0,256,0s-92.7,41.6-92.7,92.7v116.2h-41.9c-18,0-32.6,14.6-32.6,32.6v180.1
	c0,4.1,3.4,7.5,7.5,7.5s7.5-3.4,7.5-7.5V241.5c0-9.7,7.9-17.6,17.6-17.6h49.4h35.3h99.9h35.3h49.4c9.7,0,17.6,7.9,17.6,17.6v237.8
	c0,9.7-7.9,17.6-17.6,17.6H121.4c-9.7,0-17.6-7.9-17.6-17.6v-3.7c0-4.1-3.4-7.5-7.5-7.5s-7.5,3.4-7.5,7.5v3.7
	c0,18,14.6,32.6,32.6,32.6h269.2c18,0,32.6-14.6,32.6-32.6V241.5C423.2,223.5,408.6,208.9,390.6,208.9z M213.6,90.8
	c0-23.4,19-42.4,42.4-42.4c23.4,0,42.4,19,42.4,42.4v118.1h-84.9L213.6,90.8L213.6,90.8z"/>
<path d="M231.1,411.1c-0.2,0-0.3,0-0.5,0c-2.2-0.1-4.2-1.2-5.5-3l-35.4-46.5c-2.5-3.3-1.9-8,1.4-10.5c3.3-2.5,8-1.9,10.5,1.4
	l30.1,39.6l79.1-81c2.9-3,7.7-3,10.6-0.1c3,2.9,3,7.7,0.1,10.6l-85.2,87.2C235,410.2,233.1,411.1,231.1,411.1z"/>
</svg>
