<?xml version="1.0" encoding="utf-8"?>
<!-- Generator: Adobe Illustrator 22.1.0, SVG Export Plug-In . SVG Version: 6.00 Build 0)  -->
<svg version="1.1" id="Capa_1" xmlns="http://www.w3.org/2000/svg" xmlns:xlink="http://www.w3.org/1999/xlink" x="0px" y="0px"
	 viewBox="0 0 512 512" style="enable-background:new 0 0 512 512;" xml:space="preserve">
<style type="text/css">
	.st0{fill:#975D50;}
	.st1{fill:#B1786B;}
	.st2{fill:#FDCE6E;}
	.st3{fill:#FDFA7B;}
	.st4{fill:#FEFDCA;}
	.st5{fill:#FFFFFF;}
	.st6{fill:#CB9385;}
	.st7{fill:#FFCFB2;}
</style>
<g>
	<path class="st0" d="M427.3,258.5l-66.3-21.8v212.6h93.9c0,0,0-78.7,0-89.9C454.8,322.6,444.8,288.1,427.3,258.5z"/>
	<path class="st1" d="M381.1,236.7l-252.8,0l-43.6,21.8c-17.5,29.6-27.5,64.1-27.5,101v65.4H415c0,0,0-42.5,0-65.4
		C415,313.2,402.4,270.5,381.1,236.7z"/>
	<path class="st0" d="M256,160.7c-72.9,0-136.7,39.3-171.3,97.8c1.7-0.2,3.5-0.3,5.5-0.3c27.6,0,27.6,21.8,55.2,21.8
		c27.6,0,27.6-21.8,55.2-21.8c27.6,0,27.6,21.8,55.2,21.8c27.6,0,27.6-21.8,55.2-21.8c27.6,0,27.6,21.8,55.2,21.8
		c27.6,0,27.6-21.8,55.2-21.8c2,0,3.8,0.1,5.6,0.3C392.7,200,328.9,160.7,256,160.7z"/>
	<path class="st2" d="M443.9,433l-56.3,70.8h32.7c18,0,37.3-14,43-31l13.3-39.8H443.9z"/>
	<path class="st3" d="M35.4,433l13.3,39.8c5.7,17.1,25,31,43,31h295.9c18,0,37.3-14,43-31l13.3-39.8H35.4z"/>
	<path class="st4" d="M487.5,416.7h-463c-9,0-16.3,7.3-16.3,16.3c0,9,7.3,16.3,16.3,16.3h463c9,0,16.3-7.3,16.3-16.3
		C503.8,424,496.5,416.7,487.5,416.7z"/>
	<path class="st5" d="M503.8,182.5c0-12-9.8-21.8-21.8-21.8c-1.5,0-5.8,0-10.9,0c0-5.1,0-9.4,0-10.9c0-12-9.8-21.8-21.8-21.8
		s-21.8,9.8-21.8,21.8v23.7l-27.2,27.2l0,30.8l30.8,0l27.2-27.2H482C494.1,204.2,503.8,194.5,503.8,182.5z"/>
	<path class="st6" d="M418.2,307.9l13-76.4l-30.8-30.8l-76.4,13c-38.6,6.5-68,40.1-68,80.5c0,45.1,36.6,81.7,81.7,81.7
		C378.1,375.8,411.7,346.4,418.2,307.9z"/>
	<path class="st7" d="M266.8,98.1c0.1,17.1,4.9,26,9.3,33.8c1.5,2.7,4.3,4.2,7.2,4.2c1.3,0,2.7-0.3,3.9-1c4-2.2,5.4-7.1,3.2-11.1
		c-3.9-7-7.2-13.1-7.2-26c0-12.9,3.3-19,7.1-26.1c4.3-7.9,9.1-16.8,9.1-33.9c-0.1-17.1-4.9-26-9.3-33.8c-2.2-4-7.1-5.4-11.1-3.2
		c-4,2.2-5.4,7.1-3.2,11.1c3.9,7,7.2,13.1,7.3,26c0,12.9-3.3,19-7.1,26.1C271.6,72.1,266.7,81,266.8,98.1z"/>
	<path class="st7" d="M212.3,98.3c0.1,17.1,4.9,26,9.3,33.8c1.5,2.7,4.3,4.2,7.2,4.2c1.3,0,2.7-0.3,3.9-1c4-2.2,5.4-7.1,3.2-11.1
		c-3.9-7-7.2-13.1-7.2-26c0-12.9,3.3-19,7.1-26.1c4.3-7.9,9.1-16.8,9.1-33.9c-0.1-17.1-4.9-26-9.3-33.8c-2.2-4-7.1-5.4-11.1-3.2
		c-4,2.2-5.4,7.1-3.2,11.1c3.9,7,7.2,13.1,7.3,26s-3.3,19-7.1,26.1C217.1,72.3,212.3,81.2,212.3,98.3z"/>
	<circle cx="103.5" cy="343.1" r="8.2"/>
	<circle cx="136.2" cy="375.8" r="8.2"/>
	<path d="M487.5,408.5H463v-49c0-36.4-9.6-72.1-27.7-103.4l3.5-20.7l22.9-23H482c16.5,0,30-13.4,30-30s-13.4-30-30-30h-2.7v-2.7
		c0-16.5-13.4-30-30-30c-16.5,0-30,13.4-30,30v20.3L396.5,193l-14.3,2.4c-36.4-28.1-80-42.9-126.2-42.9
		c-75.4,0-141.5,40.5-177.7,100.9c-0.4,0.6-0.8,1.2-1.1,1.9C59.3,285.9,49,321.5,49,359.5V384c0,4.5,3.7,8.2,8.2,8.2
		s8.2-3.7,8.2-8.2v-24.5c0-33.8,8.9-65.6,24.3-93.1c0.2,0,0.4,0,0.5,0c11,0,16.1,4,22.6,9.1c7.1,5.6,16,12.6,32.7,12.6
		s25.5-7,32.7-12.6c6.5-5.1,11.6-9.1,22.6-9.1c11,0,16.1,4,22.6,9.1c5.9,4.7,13,10.3,24.8,12.1c-0.2,2.2-0.3,4.4-0.3,6.6
		c0,49.6,40.3,89.9,89.9,89.9c44,0,81.3-31.4,88.6-74.8l4.4-26.1c10.5,23.9,15.9,49.9,15.9,76.3v49H24.5C11,408.5,0,419.5,0,433
		c0,13.5,11,24.5,24.5,24.5H35l6,17.9c6.8,20.5,29.1,36.6,50.8,36.6h328.6c21.6,0,43.9-16.1,50.8-36.6l6-17.9h10.5
		c13.5,0,24.5-11,24.5-24.5C512,419.5,501,408.5,487.5,408.5z M233.4,262.7c-7.1-5.6-16-12.6-32.7-12.6s-25.5,7-32.7,12.6
		c-6.5,5.1-11.6,9.1-22.6,9.1c-11,0-16.1-4-22.6-9.1c-5.7-4.5-12.5-9.9-23.5-11.8c34.5-49.5,91.8-82,156.5-82
		c37.3,0,72.7,10.5,103.4,30.4l-36.8,6.2c-35.6,6-63.2,32.3-71.9,65.9C243.2,270.3,238.8,266.9,233.4,262.7z M337.7,367.7
		c-40.5,0-73.5-33-73.5-73.5c0-4.3,0.4-8.5,1.1-12.6c0-0.2,0.1-0.3,0.1-0.5c5.4-30.1,29-54.1,60-59.4l72.3-12.3l4.7,4.7
		c1.6,1.6,3.7,2.4,5.8,2.4c2.1,0,4.2-0.8,5.8-2.4c3.2-3.2,3.2-8.4,0-11.6l-1.9-1.9l21.4-21.4c1.5-1.5,2.4-3.6,2.4-5.8v-23.7
		c0-7.5,6.1-13.6,13.6-13.6s13.6,6.1,13.6,13.6v10.9c0,4.5,3.7,8.2,8.2,8.2H482c7.5,0,13.6,6.1,13.6,13.6c0,7.5-6.1,13.6-13.6,13.6
		h-23.7c-2.2,0-4.2,0.9-5.8,2.4l-27.2,27.2c-1.2,1.2-2,2.7-2.3,4.4l-13,76.4C404.2,341.9,373.7,367.7,337.7,367.7z M487.5,441.2
		h-16.1c0,0-0.1,0-0.1,0h-365c-4.5,0-8.2,3.7-8.2,8.2c0,4.5,3.7,8.2,8.2,8.2h353.6l-4.2,12.7c-4.6,13.8-20.7,25.4-35.3,25.4H91.7
		c-14.5,0-30.7-11.6-35.3-25.4l-4.2-12.7h21.3c4.5,0,8.2-3.7,8.2-8.2c0-4.5-3.7-8.2-8.2-8.2h-49c-4.5,0-8.2-3.7-8.2-8.2
		s3.7-8.2,8.2-8.2h463c4.5,0,8.2,3.7,8.2,8.2S492,441.2,487.5,441.2z"/>
	<circle cx="338.2" cy="326.3" r="8.2"/>
</g>
</svg>
