<?xml version="1.0" encoding="utf-8"?>
<!-- Generator: Adobe Illustrator 22.1.0, SVG Export Plug-In . SVG Version: 6.00 Build 0)  -->
<svg version="1.1" id="Capa_1" xmlns="http://www.w3.org/2000/svg" xmlns:xlink="http://www.w3.org/1999/xlink" x="0px" y="0px"
	 viewBox="0 0 512 512" style="enable-background:new 0 0 512 512;" xml:space="preserve">
<style type="text/css">
	.st0{fill:#E4DAD8;}
	.st1{fill:#F2EDEC;}
	.st2{fill:#CAB5B1;}
	.st3{fill:#956B64;}
	.st4{fill:#FBA761;}
	.st5{fill:#FBDC40;}
	.st6{fill:#F56C6C;}
</style>
<rect x="99.7" y="135.8" class="st0" width="376.7" height="368.7"/>
<rect x="35.6" y="135.8" class="st1" width="384.8" height="368.7"/>
<path class="st2" d="M227.9,175.8c22.1,0,40.1-17.9,40.1-40.1h-80.2C187.9,157.9,205.8,175.8,227.9,175.8z"/>
<g>
	<circle class="st3" cx="155.8" cy="183.9" r="12"/>
	<circle class="st3" cx="300.1" cy="183.9" r="12"/>
</g>
<path class="st4" d="M227.9,360.2V272v-24c-62,0-112.2,50.2-112.2,112.2S166,472.4,227.9,472.4s112.2-50.2,112.2-112.2h-24H227.9z"
	/>
<path class="st5" d="M227.9,272c-48.7,0-88.2,39.5-88.2,88.2s39.5,88.2,88.2,88.2s88.2-39.5,88.2-88.2h-88.2V272z"/>
<path class="st4" d="M260,215.9v24c48.7,0,88.2,39.5,88.2,88.2h24C372.2,266.2,322,215.9,260,215.9z"/>
<path class="st5" d="M348.2,328.1c0-48.7-39.5-88.2-88.2-88.2v88.2H348.2z"/>
<g>
	<circle class="st6" cx="195.9" cy="320.1" r="12"/>
	<circle class="st6" cx="292.1" cy="288.1" r="12"/>
	<path class="st6" d="M308.1,324.1c-6.6,0-12,5.4-12,12h24C320.1,329.5,314.7,324.1,308.1,324.1z"/>
	<circle class="st6" cx="179.9" cy="368.2" r="12"/>
	<circle class="st6" cx="227.9" cy="408.3" r="12"/>
	<path class="st6" d="M259.1,360.2c-1.9,2.1-3.1,4.9-3.1,8c0,6.6,5.4,12,12,12s12-5.4,12-12c0-3.1-1.2-5.9-3.1-8H259.1z"/>
</g>
<path d="M476.4,128.3H371.7V55.6c0-30.7-24.9-55.6-55.6-55.6H268c-18.9,0-35.7,9.5-45.7,24h-18.4c-30.7,0-55.6,24.9-55.6,55.6v48.6
	H35.6c-4.1,0-7.5,3.4-7.5,7.5v56.6c0,4.1,3.4,7.5,7.5,7.5s7.5-3.4,7.5-7.5v-49.1h105.2v22.5c-7.1,3-12,9.9-12,18
	c0,10.8,8.8,19.5,19.5,19.5s19.5-8.8,19.5-19.5c0-8.1-5-15.1-12-18v-22.5H181c3.6,22.7,23.3,40.1,47,40.1s43.4-17.4,47-40.1h17.6
	v22.5c-7.1,3-12,9.9-12,18c0,10.8,8.8,19.5,19.5,19.5c10.8,0,19.5-8.8,19.5-19.5c0-8.1-5-15.1-12-18v-22.5h105.2V497H43.1V228.4
	c0-4.1-3.4-7.5-7.5-7.5s-7.5,3.4-7.5,7.5v276c0,4.1,3.4,7.5,7.5,7.5h440.9c4.2,0,7.5-3.4,7.5-7.5V135.8
	C483.9,131.6,480.6,128.3,476.4,128.3z M155.8,188.4c-2.5,0-4.5-2-4.5-4.5s2-4.5,4.5-4.5s4.5,2,4.5,4.5S158.3,188.4,155.8,188.4z
	 M300.1,188.4c-2.5,0-4.5-2-4.5-4.5s2-4.5,4.5-4.5s4.5,2,4.5,4.5S302.6,188.4,300.1,188.4z M163.3,79.7c0-22.4,18.2-40.6,40.6-40.6
	h11c-1.6,5.2-2.5,10.8-2.5,16.5v72.6h-49.1V79.7z M227.9,168.3c-15.4,0-28.3-10.7-31.7-25h63.4C256.2,157.6,243.3,168.3,227.9,168.3
	z M227.4,128.3V55.6c0-5.9,1.3-11.5,3.5-16.5h21c22.4,0,40.6,18.2,40.6,40.6v48.6L227.4,128.3L227.4,128.3z M252,24h-9.4
	c7-5.6,15.8-9,25.5-9h48.1c22.4,0,40.6,18.2,40.6,40.6v72.6h-49.1V79.7C307.6,49,282.7,24,252,24z M468.9,497h-41.1V143.3h41.1
	L468.9,497L468.9,497z"/>
<path d="M235.5,248c0-4.1-3.4-7.5-7.5-7.5c-66,0-119.7,53.7-119.7,119.7s53.7,119.7,119.7,119.7s119.7-53.7,119.7-119.7
	c0-4.1-3.4-7.5-7.5-7.5H235.5V248z M227.9,464.9c-57.7,0-104.7-47-104.7-104.7c0-55.2,42.9-100.6,97.2-104.4v9
	c-49.3,3.8-88.2,45.2-88.2,95.4c0,52.8,42.9,95.7,95.7,95.7c50.2,0,91.5-38.9,95.4-88.2h9C328.5,422,283.2,464.9,227.9,464.9z
	 M272.5,367.7c0,0.2,0,0.3,0,0.5c0,2.5-2,4.5-4.5,4.5s-4.5-2-4.5-4.5c0-0.2,0-0.3,0-0.5H272.5z M248.5,367.7c0,0.2,0,0.3,0,0.5
	c0,10.8,8.8,19.5,19.5,19.5s19.5-8.8,19.5-19.5c0-0.2,0-0.3,0-0.5h20.7c-3.8,41-38.4,73.1-80.3,73.1c-44.5,0-80.7-36.2-80.7-80.7
	c0-41.9,32.2-76.5,73.1-80.3v80.3c0,4.1,3.4,7.5,7.5,7.5L248.5,367.7L248.5,367.7z"/>
<path d="M372.2,336.2c4.2,0,7.5-3.4,7.5-7.5c0-66-53.7-119.7-119.7-119.7c-4.2,0-7.5,3.4-7.5,7.5v112.2c0,4.1,3.4,7.5,7.5,7.5H372.2
	z M326.1,321.1c-3-7.1-9.9-12-18-12s-15.1,5-18,12h-22.5v-72.8c38.5,3.6,69.2,34.3,72.8,72.8H326.1z M364.4,321.1h-9
	c-3.7-46.8-41.1-84.2-87.9-87.9v-9C319.3,227.9,360.8,269.4,364.4,321.1z"/>
<path d="M195.9,339.7c10.8,0,19.5-8.8,19.5-19.5c0-10.8-8.8-19.5-19.5-19.5s-19.5,8.8-19.5,19.5
	C176.3,330.9,185.1,339.7,195.9,339.7z M195.9,315.6c2.5,0,4.5,2,4.5,4.5s-2,4.5-4.5,4.5s-4.5-2-4.5-4.5S193.4,315.6,195.9,315.6z"
	/>
<path d="M292.1,268.5c-10.8,0-19.5,8.8-19.5,19.5c0,10.8,8.8,19.5,19.5,19.5c10.8,0,19.5-8.8,19.5-19.5
	C311.6,277.3,302.8,268.5,292.1,268.5z M292.1,292.6c-2.5,0-4.5-2-4.5-4.5s2-4.5,4.5-4.5s4.5,2,4.5,4.5S294.6,292.6,292.1,292.6z"/>
<path d="M179.9,348.7c-10.8,0-19.5,8.8-19.5,19.5c0,10.8,8.8,19.5,19.5,19.5s19.5-8.8,19.5-19.5
	C199.4,357.4,190.6,348.7,179.9,348.7z M179.9,372.7c-2.5,0-4.5-2-4.5-4.5s2-4.5,4.5-4.5s4.5,2,4.5,4.5S182.3,372.7,179.9,372.7z"/>
<path d="M208.4,408.3c0,10.8,8.8,19.5,19.5,19.5s19.5-8.8,19.5-19.5c0-10.8-8.8-19.5-19.5-19.5S208.4,397.5,208.4,408.3z
	 M232.5,408.3c0,2.5-2,4.5-4.5,4.5s-4.5-2-4.5-4.5s2-4.5,4.5-4.5S232.5,405.8,232.5,408.3z"/>
</svg>
