<?xml version="1.0" encoding="utf-8"?>
<!-- Generator: Adobe Illustrator 22.1.0, SVG Export Plug-In . SVG Version: 6.00 Build 0)  -->
<svg version="1.1" id="Objects" xmlns="http://www.w3.org/2000/svg" xmlns:xlink="http://www.w3.org/1999/xlink" x="0px" y="0px"
	 viewBox="0 0 314.3 263.9" style="enable-background:new 0 0 314.3 263.9;" xml:space="preserve">
<style type="text/css">
	.st0{fill:#F3F3F3;}
	.st1{fill:#F8D5C9;}
	.st2{fill:#A4C639;}
	.st3{opacity:0.1;}
	.st4{fill:#F0C419;}
	.st5{fill:#D36BC5;}
	.st6{fill:#DADADA;}
	.st7{fill:#E2413E;}
	.st8{fill:#28384F;}
	.st9{fill:#FFFFFF;}
	.st10{fill:#33AEFF;}
</style>
<path class="st0" d="M288.6,67.8H169.8c-4.6,0-8.3-3.7-8.3-8.2s3.7-8.3,8.3-8.3h17.4c11.8,0,21.4-9.6,21.4-21.4v0
	c0-11.8-9.6-21.4-21.4-21.4H41.4C29.6,8.4,20,18,20,29.8v0c0,11.8,9.6,21.4,21.4,21.4H103c4.6,0,8.3,3.7,8.3,8.3s-3.7,8.2-8.3,8.2
	H86.3c-14.2,0-25.8,11.5-25.8,25.8l0,0c0,14.2,11.5,25.8,25.8,25.8h108.5c4.6,0,8.3,3.7,8.3,8.3c0,4.4-3.5,8.1-7.9,8.2H23.3
	C10.4,135.7,0,146.2,0,159l0,0c0,12.9,10.4,23.3,23.3,23.3h50.9c4.6,0,8.3,3.7,8.3,8.3c0,4.1-3.1,7.6-7,8.1h-8.3
	c-12.9,0-23.3,10.4-23.3,23.3c0,12.9,10.4,23.3,23.3,23.3h163.4c12.9,0,23.3-10.4,23.3-23.3c0-12.9-10.4-23.3-23.3-23.3h-14.2
	c-4-0.6-7-4-7-8.1c0-4.6,3.7-8.3,8.3-8.3h50.7c12.9,0,23.3-10.4,23.3-23.3l0,0c0-12.9-10.4-23.3-23.3-23.3h-7
	c-4.4-0.2-7.9-3.8-7.9-8.2c0-4.6,3.7-8.3,8.3-8.3h27c14.2,0,25.8-11.5,25.8-25.8l0,0C314.3,79.3,302.8,67.8,288.6,67.8z M159,190.6
	c0,4.1-3.1,7.6-7,8.1h-12.2c-4-0.6-7-4-7-8.1c0-4.6,3.7-8.3,8.3-8.3h9.7C155.3,182.3,159,186,159,190.6z"/>
<path class="st1" d="M235.2,263.9h-156c-4.1,0-7.5-3.4-7.5-7.5v0c0-4.1,3.4-7.5,7.5-7.5h156c4.1,0,7.5,3.4,7.5,7.5v0
	C242.7,260.6,239.3,263.9,235.2,263.9z"/>
<path class="st1" d="M52.8,263.9H34.6c-4.1,0-7.5-3.4-7.5-7.5v0c0-4.1,3.4-7.5,7.5-7.5h18.2c4.1,0,7.5,3.4,7.5,7.5v0
	C60.3,260.6,56.9,263.9,52.8,263.9z"/>
<path class="st1" d="M258,263.9h0.5c-4.1,0-7.5-3.4-7.5-7.5v0c0-4.1,3.4-7.5,7.5-7.5H258c4.1,0,7.5,3.4,7.5,7.5v0
	C265.5,260.6,262.2,263.9,258,263.9z"/>
<g>
	<g>
		<path class="st2" d="M149.4,144.6l-8.1-0.1l-0.1,14.3l-19.7-0.1l0.1-14.3L92,144.2l0.1-14.7l31-44.8l18.5,0.1l-0.3,44.7l8.1,0.1
			L149.4,144.6z M121.6,129.5l0.1-8.6c0-1.6,0.1-3.8,0.2-6.5c0.1-2.7,0.2-4.2,0.3-4.3l-0.6,0c-1.2,2.6-2.5,5-3.9,7.3l-8.3,12.1
			L121.6,129.5z"/>
	</g>
	<path class="st3" d="M141.2,144.5l8.1,0.1l0.1-14.9l-8.1-0.1l0.1-14.7c-0.9,0.8-1.8,1.6-2.6,2.6c-4.8,5.8-7.8,15.2-8.8,28.3
		c-0.4,4.7-0.4,9,0,12.9l11.1,0.1L141.2,144.5z"/>
	<g>
		<path class="st4" d="M188.1,150c-1,13-3.9,22.4-8.8,28.2c-4.8,5.7-11.8,8.2-20.8,7.5c-8.8-0.7-15.2-4.4-19.2-11
			c-4-6.7-5.5-16.3-4.5-28.8c1-13.1,3.9-22.6,8.8-28.3c4.8-5.8,11.8-8.3,20.8-7.6c8.8,0.7,15.2,4.4,19.2,11.1
			C187.6,127.7,189.1,137.4,188.1,150z M154.7,147.4c-0.6,8.3-0.6,14.1,0.2,17.3c0.8,3.2,2.4,4.9,4.9,5.1c2.5,0.2,4.4-1.3,5.6-4.4
			c1.3-3.1,2.2-8.8,2.9-16.9c0.6-8.2,0.6-13.9-0.2-17.3c-0.8-3.4-2.4-5.1-4.9-5.3c-2.5-0.2-4.3,1.3-5.6,4.3
			C156.3,133.3,155.4,139,154.7,147.4z"/>
	</g>
	<path class="st3" d="M183.6,121c-1.3-2.2-2.8-4-4.6-5.6l-8.2,15.9l1.8,14.6l15.8-2C188.5,134.2,186.9,126.6,183.6,121z"/>
	<g>
		<path class="st5" d="M233,135.4l-8.1,1l1.8,14.2l-19.6,2.5l-1.8-14.2l-29.3,3.7l-1.8-14.6l24.9-48.4l18.3-2.3l5.6,44.4l8.1-1
			L233,135.4z M203.5,124.1l-1.1-8.5c-0.2-1.6-0.4-3.8-0.6-6.5c-0.2-2.7-0.3-4.2-0.3-4.3l-0.6,0.1c-0.8,2.7-1.8,5.3-3,7.7l-6.6,13.1
			L203.5,124.1z"/>
	</g>
	<g>
		<g>
			<path class="st6" d="M227.8,200.2H98L82.9,97.5h163.9L227.8,200.2z M104.3,192.9h117.4l16.3-88H91.3L104.3,192.9z"/>
		</g>
		<g>
			<rect x="92.2" y="127.8" class="st6" width="145" height="4"/>
		</g>
		<g>
			<rect x="98.3" y="166.2" class="st6" width="133" height="4"/>
		</g>
		<g>
			<rect x="162.7" y="101.2" class="st6" width="4" height="95.4"/>
		</g>
		<g>
			<g>
				
					<rect x="120.8" y="100.9" transform="matrix(0.9947 -0.1033 0.1033 0.9947 -14.7219 13.4838)" class="st6" width="4" height="95.9"/>
			</g>
			<g>
				
					<rect x="157.7" y="146.9" transform="matrix(0.1221 -0.9925 0.9925 0.1221 32.8634 334.9235)" class="st6" width="96.1" height="4"/>
			</g>
		</g>
		<g>
			<polygon class="st6" points="84.5,107.3 67,89.9 43.8,89.9 43.8,77.4 72.2,77.4 93.3,98.5 			"/>
		</g>
		<g>
			<path class="st6" d="M219.4,234.8H100.7c-13,0-23.6-10.6-23.6-23.6c0-13,10.6-23.6,23.6-23.6h0.5v12.5h-0.5
				c-6.1,0-11.1,5-11.1,11.1c0,6.1,5,11.1,11.1,11.1h118.7V234.8z"/>
		</g>
		<g>
			<path class="st7" d="M58.7,89.9H36.2c-3.4,0-6.2-2.8-6.2-6.2c0-3.4,2.8-6.2,6.2-6.2h22.5c3.4,0,6.2,2.8,6.2,6.2
				C64.9,87.1,62.1,89.9,58.7,89.9z"/>
		</g>
		<g>
			
				<ellipse transform="matrix(0.1554 -0.9878 0.9878 0.1554 -48.2022 412.215)" class="st8" cx="217" cy="234.3" rx="22.1" ry="22.1"/>
		</g>
		<g>
			
				<ellipse transform="matrix(0.155 -0.9879 0.9879 0.155 -48.1324 412.3189)" class="st9" cx="217" cy="234.3" rx="11.1" ry="11.1"/>
		</g>
		<g>
			
				<ellipse transform="matrix(0.1613 -0.9869 0.9869 0.1613 -146.6126 296.0746)" class="st8" cx="100.9" cy="234.3" rx="22.1" ry="22.1"/>
		</g>
		<g>
			
				<ellipse transform="matrix(0.1607 -0.987 0.987 0.1607 -146.5779 296.2136)" class="st9" cx="100.9" cy="234.3" rx="11.1" ry="11.1"/>
		</g>
	</g>
	<g>
		<path class="st4" d="M103.9,39.4c0,1.6-1.3,2.8-2.8,2.8c-1.6,0-2.8-1.3-2.8-2.8s1.3-2.8,2.8-2.8C102.7,36.6,103.9,37.9,103.9,39.4
			z"/>
	</g>
	<g>
		<circle class="st10" cx="173" cy="87.1" r="3.5"/>
	</g>
	<g>
		<circle class="st2" cx="264.9" cy="70.5" r="2.8"/>
	</g>
	<g>
		<circle class="st4" cx="108.8" cy="155.8" r="2.8"/>
	</g>
	<g>
		<circle class="st5" cx="171.9" cy="3" r="2.8"/>
	</g>
	<g>
		<circle class="st7" cx="288" cy="119.3" r="2.8"/>
	</g>
	<g>
		<circle class="st2" cx="179.9" cy="216.4" r="2.8"/>
	</g>
	<g>
		<circle class="st7" cx="26.3" cy="54" r="2.8"/>
	</g>
	<g>
		<path class="st2" d="M62.3,108.4c0,2.1-1.7,3.8-3.8,3.8s-3.8-1.7-3.8-3.8s1.7-3.8,3.8-3.8S62.3,106.3,62.3,108.4z"/>
	</g>
	<g>
		<path class="st7" d="M190.8,19.6c0,1-0.8,1.8-1.8,1.8s-1.8-0.8-1.8-1.8c0-1,0.8-1.8,1.8-1.8S190.8,18.6,190.8,19.6z"/>
	</g>
	<g>
		<circle class="st5" cx="98.3" cy="90.6" r="1.8"/>
	</g>
	<g>
		<path class="st10" d="M257.8,132c0,1.2-1,2.2-2.2,2.2c-1.2,0-2.2-1-2.2-2.2c0-1.2,1-2.2,2.2-2.2
			C256.8,129.8,257.8,130.8,257.8,132z"/>
	</g>
	<g>
		<circle class="st5" cx="142.3" cy="209.4" r="2.2"/>
	</g>
	<g>
		<path class="st8" d="M111.3,9H110V7.7c0-0.9-0.7-1.6-1.6-1.6c-0.9,0-1.6,0.7-1.6,1.6V9h-1.3c-0.9,0-1.6,0.7-1.6,1.6
			c0,0.9,0.7,1.6,1.6,1.6h1.3v1.3c0,0.9,0.7,1.6,1.6,1.6c0.9,0,1.6-0.7,1.6-1.6v-1.3h1.3c0.9,0,1.6-0.7,1.6-1.6
			C112.9,9.7,112.2,9,111.3,9z"/>
	</g>
	<g>
		<path class="st8" d="M251.8,166.7h-1.3v-1.3c0-0.9-0.7-1.6-1.6-1.6c-0.9,0-1.6,0.7-1.6,1.6v1.3h-1.3c-0.9,0-1.6,0.7-1.6,1.6
			c0,0.9,0.7,1.6,1.6,1.6h1.3v1.3c0,0.9,0.7,1.6,1.6,1.6c0.9,0,1.6-0.7,1.6-1.6v-1.3h1.3c0.9,0,1.6-0.7,1.6-1.6
			C253.3,167.4,252.6,166.7,251.8,166.7z"/>
	</g>
	<g>
		<path class="st8" d="M256.3,37.8h-1.3v-1.3c0-0.9-0.7-1.6-1.6-1.6c-0.9,0-1.6,0.7-1.6,1.6v1.3h-1.3c-0.9,0-1.6,0.7-1.6,1.6
			s0.7,1.6,1.6,1.6h1.3v1.3c0,0.9,0.7,1.6,1.6,1.6c0.9,0,1.6-0.7,1.6-1.6V41h1.3c0.9,0,1.6-0.7,1.6-1.6S257.1,37.8,256.3,37.8z"/>
	</g>
	<g>
		<path class="st8" d="M72.1,142.8h-1.3v-1.3c0-0.9-0.7-1.6-1.6-1.6c-0.9,0-1.6,0.7-1.6,1.6v1.3h-1.3c-0.9,0-1.6,0.7-1.6,1.6
			c0,0.9,0.7,1.6,1.6,1.6h1.3v1.3c0,0.9,0.7,1.6,1.6,1.6c0.9,0,1.6-0.7,1.6-1.6V146h1.3c0.9,0,1.6-0.7,1.6-1.6
			C73.7,143.5,73,142.8,72.1,142.8z"/>
	</g>
	<g>
		<path class="st5" d="M69.2,54.5c-0.6,0-1.1-0.2-1.6-0.5l-9.1-6c-1.4-0.9-1.8-2.8-0.9-4.2c0.9-1.4,2.8-1.8,4.2-0.9l9.1,6
			c1.4,0.9,1.8,2.8,0.9,4.2C71.2,54,70.2,54.5,69.2,54.5z"/>
	</g>
	<g>
		<path class="st2" d="M227.2,28.3c-0.6,0-1.2-0.2-1.7-0.5c-1.4-1-1.7-2.8-0.7-4.2l8.1-11.5c1-1.4,2.8-1.7,4.2-0.7
			c1.4,1,1.7,2.8,0.7,4.2l-8.1,11.5C229.1,27.9,228.1,28.3,227.2,28.3z"/>
	</g>
	<g>
		<path class="st5" d="M281.7,90.1c-1.3,0-2.5-0.9-2.9-2.2c-0.4-1.6,0.5-3.2,2.1-3.7l12.7-3.4c1.6-0.4,3.2,0.5,3.7,2.1
			c0.4,1.6-0.5,3.2-2.1,3.7L282.4,90C282.2,90.1,281.9,90.1,281.7,90.1z"/>
	</g>
	<g>
		<path class="st2" d="M263,200.6c-0.6,0-1.2-0.2-1.8-0.6l-10.3-7.5c-1.3-1-1.6-2.8-0.7-4.2c1-1.3,2.8-1.6,4.2-0.7l10.3,7.5
			c1.3,1,1.6,2.8,0.7,4.2C264.8,200.1,263.9,200.6,263,200.6z"/>
	</g>
	<g>
		<path class="st4" d="M51.7,185.3c-0.9,0-1.9-0.4-2.4-1.3c-1-1.3-0.7-3.2,0.7-4.2l10.6-7.6c1.3-1,3.2-0.7,4.2,0.7
			c1,1.3,0.7,3.2-0.7,4.2l-10.6,7.6C52.9,185.2,52.3,185.3,51.7,185.3z"/>
	</g>
	<g>
		<path class="st4" d="M147.2,22.6c-1.4,0-2.6-1-2.9-2.4l-3.6-16.6c-0.3-1.6,0.7-3.2,2.3-3.6c1.6-0.3,3.2,0.7,3.6,2.3l3.6,16.6
			c0.3,1.6-0.7,3.2-2.3,3.6C147.7,22.6,147.5,22.6,147.2,22.6z"/>
	</g>
	<g>
		<path class="st2" d="M20,129.6c-1.3,0-2.5-0.8-2.9-2.1c-0.5-1.6,0.4-3.3,2-3.8l12.7-4c1.6-0.5,3.3,0.4,3.8,2
			c0.5,1.6-0.4,3.3-2,3.8l-12.7,4C20.6,129.5,20.3,129.6,20,129.6z"/>
	</g>
	<g>
		<path class="st4" d="M289,149.6c-0.2,0-0.4,0-0.6-0.1l-11.3-2.2c-1.6-0.3-2.7-1.9-2.4-3.5c0.3-1.6,1.9-2.7,3.5-2.4l11.3,2.2
			c1.6,0.3,2.7,1.9,2.4,3.5C291.7,148.6,290.4,149.6,289,149.6z"/>
	</g>
	<g>
		<path class="st8" d="M111.1,75.5c-2.9,0.7-5.3,0.4-7.3-0.8c-2-1.2-3.3-3.2-3.9-6c-0.7-2.9-0.5-5.4,0.7-7.3
			c1.1-1.9,3.1-3.2,5.8-3.8c2.6-0.6,4.8-0.4,6.5,0.6c1.7,1,2.9,2.8,3.5,5.4l0.6,2.7l-10.7,2.5c0.3,1,0.8,1.6,1.6,2
			c0.8,0.4,1.8,0.5,2.9,0.2c1.1-0.2,2-0.6,2.8-1c0.8-0.4,1.7-1,2.6-1.7l1,4.3c-0.8,0.7-1.7,1.3-2.7,1.7
			C113.7,74.8,112.5,75.2,111.1,75.5z M107.5,61.7c-0.7,0.2-1.2,0.5-1.6,1.1c-0.4,0.6-0.5,1.3-0.4,2.3l5.2-1.2
			c-0.2-0.8-0.6-1.5-1.2-1.8C109,61.6,108.3,61.5,107.5,61.7z"/>
	</g>
	<g>
		<path class="st8" d="M142.2,44.1c0.5,0,1,0.1,1.5,0.3l0.3,0.1l-1,5.8c-0.5-0.2-1.2-0.3-2.1-0.4c-1.3-0.1-2.3,0.1-3,0.7
			c-0.7,0.6-1,1.4-1.1,2.6l-0.7,8.8l-6.1-0.5l1.5-17.8l4.6,0.4l0.7,2.9l0.3,0c0.6-0.9,1.4-1.6,2.3-2.1
			C140.3,44.2,141.2,44,142.2,44.1z"/>
	</g>
	<g>
		<path class="st8" d="M168.8,53c0.5-0.1,1-0.2,1.5-0.2l0.4,0l0.5,5.8c-0.5,0-1.2,0-2.1,0.2c-1.3,0.2-2.2,0.7-2.7,1.4
			c-0.5,0.7-0.6,1.6-0.4,2.8l1.6,8.6l-6.1,1.1l-3.3-17.6l4.5-0.8l1.5,2.6l0.3-0.1c0.3-1,0.9-1.9,1.7-2.7
			C167.1,53.6,167.9,53.2,168.8,53z"/>
	</g>
	<g>
		<path class="st8" d="M231.7,54.7c0.5,0,1,0,1.5,0.1l0.3,0.1l-0.4,5.8c-0.5-0.1-1.2-0.2-2.1-0.1c-1.3,0-2.3,0.4-2.9,1
			c-0.6,0.6-0.9,1.5-0.8,2.7l0.3,8.8l-6.2,0.2L221,55.3l4.6-0.1l1.1,2.8l0.3,0c0.5-1,1.2-1.7,2.1-2.4
			C229.9,55,230.8,54.7,231.7,54.7z"/>
	</g>
	<g>
		<path class="st8" d="M205.4,55c-0.3,4.1-1.2,7-2.7,8.8c-1.5,1.8-3.7,2.6-6.5,2.4c-2.7-0.2-4.7-1.3-6-3.4c-1.3-2.1-1.7-5.1-1.5-9
			c0.3-4.1,1.2-7,2.7-8.8c1.5-1.8,3.7-2.6,6.5-2.4c2.7,0.2,4.7,1.3,6,3.4C205.1,48,205.6,51,205.4,55z M194.9,54.2
			c-0.2,2.6-0.2,4.4,0.1,5.4c0.3,1,0.8,1.5,1.5,1.6c0.8,0.1,1.4-0.4,1.8-1.4c0.4-1,0.7-2.7,0.9-5.3c0.2-2.5,0.1-4.3-0.1-5.4
			c-0.3-1-0.8-1.6-1.5-1.7c-0.8-0.1-1.3,0.4-1.7,1.4C195.4,49.8,195.1,51.6,194.9,54.2z"/>
	</g>
</g>
</svg>
