<?xml version="1.0" encoding="utf-8"?>
<!-- Generator: Adobe Illustrator 22.1.0, SVG Export Plug-In . SVG Version: 6.00 Build 0)  -->
<svg version="1.1" id="OBJECTS" xmlns="http://www.w3.org/2000/svg" xmlns:xlink="http://www.w3.org/1999/xlink" x="0px" y="0px"
	 viewBox="0 0 500 500" style="enable-background:new 0 0 500 500;" xml:space="preserve">
<style type="text/css">
	.st0{fill-rule:evenodd;clip-rule:evenodd;fill:#FFC700;}
	.st1{fill-rule:evenodd;clip-rule:evenodd;fill:#E36000;}
	.st2{fill-rule:evenodd;clip-rule:evenodd;fill:#4C8B90;}
	.st3{fill-rule:evenodd;clip-rule:evenodd;fill:#654C51;}
	.st4{fill-rule:evenodd;clip-rule:evenodd;fill:#FFE3D1;}
	.st5{fill-rule:evenodd;clip-rule:evenodd;fill:#FF4500;}
	.st6{fill-rule:evenodd;clip-rule:evenodd;fill:#4D382E;}
	.st7{fill-rule:evenodd;clip-rule:evenodd;fill:#FF7400;}
	.st8{fill-rule:evenodd;clip-rule:evenodd;fill:#B8BAC2;}
	.st9{fill-rule:evenodd;clip-rule:evenodd;fill:#FFED00;}
	.st10{fill-rule:evenodd;clip-rule:evenodd;fill:#959F9F;}
	.st11{fill-rule:evenodd;clip-rule:evenodd;fill:#FFFFFF;}
	.st12{fill-rule:evenodd;clip-rule:evenodd;fill:#9C97A4;}
	.st13{fill-rule:evenodd;clip-rule:evenodd;fill:#FFA6AE;}
	.st14{fill:#F3F3F3;}
	.st15{fill-rule:evenodd;clip-rule:evenodd;fill:#FF901B;}
	.st16{fill-rule:evenodd;clip-rule:evenodd;fill:#FFFFBF;}
	.st17{fill-rule:evenodd;clip-rule:evenodd;fill:#FFDE22;}
	.st18{fill-rule:evenodd;clip-rule:evenodd;}
	.st19{fill:#FFFFFF;}
	.st20{font-family:'Metropolis-Regular';}
	.st21{font-size:18px;}
</style>
<path class="st0" d="M252.9,293.3c0.4,0.2,0.8,0.4,1.2,0.6c1.1,0.4,2.2,0.9,3.3,1c4.9,0.5,9.8,1.6,14.6,2.6c1.8,0.4,3.5,1.1,5.2,1.7
	c3,1.1,6.1,1.6,9.2,2.1c3.1,0.5,6.2,0.9,9.3,1.4c1.1,0.2,2.3,0.2,3.5,0.3c2.3,0.2,4.6,0.3,6.8,1.2c0.5,0.2,1.1,0.1,1.7,0.2
	c2,0.3,3.5,1.3,4.2,3.1c0.9,2.5,2.5,4.1,4.5,5.6c2.8,2.1,5.4,4.3,8.3,6.2c2.7,1.7,5.4,3.5,7.8,5.6c2.4,2.1,4.9,4.2,7.2,6.5
	c2.4,2.5,4.4,5.3,5.9,8.5c1.3,2.9,2.6,5.9,3.9,8.8c0.2,0.5,0.6,1,0.1,1.8c-0.4-0.5-0.8-1-1.2-1.5c-0.4-0.5-0.9-1-1.3-1.5
	c-1.5-1.9-3-3.7-4.5-5.6c-0.7-0.9-1.5-1.7-2.5-2.3c-1-0.6-1.8-1.4-2.7-2.2c-2.6-2.5-5.6-4.6-8.8-6.3c-2.5-1.3-5.1-2.4-7.8-3.2
	c-2.5-0.7-4.9-1.5-7.4-2.1c-3.6-0.8-7.4-0.7-11.1-0.8c-3-0.1-5.9-0.3-8.9-0.4c-1.5,0-3,0-4.4,0.4c-5.4,1.5-10.5,3.9-15.3,6.8
	c-0.6,0.4-1.2,0.9-1.8,1.4c-1.9,1.9-3.9,3.8-5.7,5.8c-1.2,1.4-2.2,2.9-3.1,4.4c-1.2,2.1-2.3,4.2-3.3,6.4c-1.5,3.1-2.6,6.4-3,9.9
	c-0.2,2-0.7,3.9-1.3,5.8c-0.6,1.8-1.2,3.6-1.2,5.5c0,0.6-0.2,1.3-0.4,2c-4.1,0.3-7.7,2.4-11.5,3.6c-2.1,0.7-4.1,1.3-6.3,1
	c-3.5-0.5-7.1-0.7-10.5-1.8c-5.7-1.7-11.4-3.4-17.1-5.1c-2-0.6-3.9-1.3-5.8-2.2c-2.3-1-4.6-1.9-6.9-2.6c-4.7-1.4-9.3-2.8-14-4.2
	c-0.8-0.2-1.6-0.4-2.3-0.8c-2.1-1.2-4.5-1.7-6.7-2.5c-3.4-1.2-6.8-2.5-10.2-3.8c-0.8-0.3-1.6-0.9-2.3-1.4c-1.3-1-2.6-2.1-3.9-3
	c-4.5-3.2-7.6-7.5-10.5-12c-0.9-1.5-1.7-3-2.1-4.7c-0.8-2.6-1.5-5.2-2.3-7.8c-0.8-2.4-1.2-5-1.5-7.5c-0.3-2.6-0.5-5.2-0.7-7.9
	c-0.3-5.1-0.7-10.2-2.2-15.2c-0.4-1.6-0.7-3.2-0.8-4.9c-0.3-3.4-1-6.7-2.3-9.9c-1.3-3.2-2.6-6.4-5-9.1c-0.4-0.4-0.8-0.9-1-1.4
	c-0.7-1.3-1.7-2.2-3-2.8c-0.8-0.3-1.1-0.9-1.3-1.7c-0.6-2-0.6-3.8,0.6-5.7c1.7-2.5,3-5.3,4.8-7.8c2.4-3.5,5.1-6.6,8.3-9.5
	c4.2-3.9,8.7-7.3,13.1-10.9c3.6-3,7.2-6,10.9-9c1.2-1,2.5-1.9,3.7-2.9c1-0.8,2.1-1.7,3-2.5c1.8-1.6,3.6-3.2,5.7-4.4
	c0.3-0.2,0.6-0.3,0.8-0.6c2.4-2.3,5.3-3.9,8.2-5.5c0.7-0.4,1.5-0.7,2.3-1c0.8-0.3,1.6-0.3,2.4-0.1c3.8,1.2,7.6,2.2,11.4,3.4
	c0.9,0.3,1.7,0.7,2.5,1.1c1.6,0.8,1.7,1.5,0.4,2.9c-0.7,0.8-1.5,1.5-2.4,2.2c-2.2,1.8-4.5,3.7-6.7,5.4c-2.9,2.3-5.6,4.9-8.1,7.6
	c-2.7,2.9-5.4,5.8-8.1,8.7c-1.4,1.4-2.9,2.7-4.3,4.1c-1.4,1.5-2.8,3-4.1,4.7c-2.4,3-4.8,6.1-7.1,9.2c-0.9,1.2-1.6,2.5-2.4,3.7
	c-1.2,1.9-2.5,3.7-3.8,5.5c-2.3,3.4-4,7-4.9,11c-0.3,1.3-0.6,2.6-1.1,3.8c-1.3,4-1.7,8-1.7,12.2c0,5.4,0.8,10.7,1.7,16
	c0.5,2.9,1.2,5.8,2.2,8.6c1,2.6,1.7,5.3,2.5,8c0.1,0.2,0.1,0.5,0.2,0.7c1.7,2.3,2.6,5.1,4.2,7.5c0.2,0.3,0.5,0.6,0.8,1
	c1.2,1.6,2.3,3.2,3.5,4.8c0.3,0.4,0.5,0.8,0.9,1.2c0.7,0.6,1.2,1.3,1.6,2.2c0.5,1.3,1.4,2.2,2.6,2.9c0.8,0.5,1.7,1.1,2.4,1.7
	c1.8,1.4,3.7,2.4,5.9,3c3.3,1,6.7,1.9,10.1,2.6c3.1,0.6,6.1,1.2,9.2,2.1c3.3,0.9,6.8,1.4,10.2,2.1c0.4,0.1,0.8,0.1,1.2,0.2
	c3.1,1,6.3,1.1,9.6,1.1c1.6,0,3.1,0.1,4.7,0.1c1.1,0.1,2.1-0.3,3-1c0.8-0.6,1.7-1.1,2.4-1.7c0.7-0.6,1.4-1.2,2-1.8
	c1-1,1.9-2.1,2.9-3.1c2.2-2.3,4-4.8,5.3-7.7c1.5-3.5,3.1-6.9,4.9-10.2c1.4-2.6,2.9-5.2,4.1-7.9c2.7-5.9,4.7-12,5.7-18.4
	c0.4-2.4,0.5-4.9,0.8-7.4c0.1-0.9,0.1-1.8,0.2-2.7C251.7,294.4,252,293.7,252.9,293.3z M184.1,216.5c-0.8,0.3-1.3,0.3-1.5,0.5
	c-0.7,0.6-1.4,1.2-2,1.8c-2.7,2.7-5.4,5.4-8.1,8c-2.6,2.4-5.3,4.7-7.9,7.2c-1.3,1.2-2.5,2.6-3.7,4c-2.2,2.4-4.4,4.9-6.6,7.3
	c-2,2.2-4.1,4.3-6.2,6.4c-3.4,3.4-6,7.4-8.1,11.8c-0.2,0.4-0.4,0.8-0.3,1.2c0,0.4,0.2,0.8,0.5,1c0.3,0.3,1,0.2,1.3-0.3
	c0.6-0.9,1.2-1.8,1.6-2.8c1.3-3,3.3-5.5,5.4-7.9c2.4-2.7,5-5.3,7.5-7.9c1.7-1.8,3.5-3.5,5-5.5c2.7-3.4,5.7-6.4,8.9-9.3
	C174.8,227.3,179.7,222.5,184.1,216.5z M253.3,350.8c1-0.9,1.5-2.1,1.8-3.4c0.4-2.2,1.3-4.3,2.4-6.2c0.7-1.2,1.4-2.4,2.1-3.7
	c0.1-0.3,0.4-0.6-0.1-0.9c-0.2,0.1-0.6,0.2-0.7,0.4c-1.7,2-3.4,4.1-4.5,6.5c-0.8,1.8-1.2,3.7-1.7,5.7
	C252.4,349.7,252.4,350.5,253.3,350.8z M247.8,361c-0.3,0.7-1.4,1.2-1.2,2.2c0.2,0.8,0.1,1.8,1.2,2.4c0-0.6,0-1,0-1.4
	c0-0.4-0.1-0.8-0.2-1.2c0.5-0.3,1-0.5,1.4-0.8c0.3-0.3,0.6-0.7,0.5-1c-0.1-0.8-0.3-1.6-0.6-2.4c-0.2-0.6-0.3-1.4-1.2-1.9
	C247.1,358.4,247.9,359.6,247.8,361z M266.8,310.4c-0.1-0.1-0.2-0.1-0.4-0.2c-0.2,0.3-0.3,0.6-0.5,0.8c-0.4,0.6-1,1.2-0.4,2
	c0,0.1,0.1,0.1,0.2,0.1c0.9-0.2,0.7-1,1-1.5C266.8,311.2,266.7,310.8,266.8,310.4z M264.3,306.7c-0.9,0.5-1.3,1-1.2,2
	C264,308.3,264.3,307.8,264.3,306.7z"/>
<path class="st0" d="M354.6,375.1c-0.2,3.9-0.4,8.2-1.7,12.3c-0.1,0.3-0.2,0.6-0.2,1c-0.1,3-1.4,5.7-2.2,8.6
	c-0.1,0.5-0.3,0.9-0.6,1.4c-0.2,0.3-0.4,0.6-0.7,0.6c-1.6,0.3-3.1,1-4.8,0.4c-3.5-1.1-7.1-2.2-10.7-3.2c-5.6-1.6-11.1-3.1-16.7-4.6
	c-1-0.3-2-0.5-2.9-1.2c-0.8-0.6-2-0.8-3-1.1c-4-1.2-8.1-2.3-12.1-3.4c-1.9-0.5-3.8-1-5.8-1.4c-3.3-0.6-6.7-1.1-9.9-2.3
	c-2.1-0.7-4.2-1.5-6.5-1.5c-0.6,0-1.1-0.3-1.7-0.4c-3.5-1-7-2-10.4-3.1c-1.7-0.5-3.4-1.2-5.1-1.9c-0.6-0.2-1.2-0.4-1.9-0.4
	c-0.8,0-1.2-0.4-1.2-1.2c-0.1-1.8-0.1-3.6,0.4-5.4c1.1-3.7,2.3-7.4,3.2-11.2c1-4.1,2.5-8,4.2-11.8c1.1-2.3,2-4.7,3.6-6.7
	c0.6-0.8,1.1-1.6,2.3-1.6c0.3,0,0.7-0.4,1-0.7c2.5-2.6,5.7-4.2,8.9-5.8c1.8-0.9,3.6-1.6,5.4-2.4c3.5-1.5,7.1-2.1,10.9-1.9
	c2.6,0.1,5.1,0.4,7.6,0.6c1.4,0.1,2.8,0.3,4.2,0.4c2.8,0.1,5.6,0.5,8.2,1.4c0.9,0.3,1.9,0.7,2.8,0.9c3.2,0.7,6.3,2,9.2,3.6
	c2.4,1.3,4.6,2.9,6.6,4.7c1.4,1.3,2.9,2.4,4.3,3.7c0.4,0.4,0.9,0.8,1.2,1.2c2.1,2.6,4.2,5.1,6.2,7.7c0.9,1.2,1.6,2.7,2.3,4.1
	c0.9,1.9,1.7,3.8,2.5,5.7c0.9,2.2,1.6,4.5,1.9,6.9c0,0.2,0,0.5,0.1,0.7C354.8,370,354.5,372.4,354.6,375.1z M268.1,370.1
	c0.8-0.6,0.8-1.2,0.8-1.9c0.1-1.6,0.1-3.1,0.2-4.7c0.2-3.2,1.4-6.2,2.4-9.3c1-3,2.4-5.8,4.4-8.2c0.4-0.5,0.8-1.1,1.4-1.9
	c-1.8,0.8-2.3,1.3-2.9,2.7c-0.5,1.2-1.1,2.3-2.2,2.9c-1.1,0.6-1.7,1.5-2.2,2.6c-0.9,2.2-1.9,4.4-2.6,6.7c-1,2.9-1,5.8-0.5,8.8
	C267,368.6,267.2,369.5,268.1,370.1z"/>
<path class="st1" d="M325.5,237.9c1.8-0.4,3.5,0,5.2,0.5c3.7,1.1,7.4,2.2,11.1,3.3c6.8,2.1,13.6,4.1,20.4,6.2
	c0.8,0.2,1.6,0.4,2.4,0.8c6.6,2.8,13.6,4.5,20.5,6.7c1.3,0.4,2.6,0.7,3.8,1.1c2.5,1,5,2.1,7.5,3.2c0.4,0.2,0.8,0.6,1.2,0.9
	c0.7,0.7,1.4,1.4,2.1,2c0.8,0.7,1.2,1.5,1.2,2.6c0,2.3-0.5,4.4-0.9,6.6c-0.7,4.1-1.9,8-3.2,11.9c-1.3,3.8-2.8,7.6-4.2,11.4
	c-0.4,1.2-0.9,2.3-1.3,3.5c-0.7,1.8-1.4,3.5-2,5.3c-0.9,2.7-1.7,5.3-2.6,8c0.3,2.1-0.7,4-1.2,5.9c-0.1,0.2-0.2,0.4-0.3,0.8
	c-1.9,1-3.8,0.5-5.7,0c-3.2-0.8-6.3-1.9-9.5-2.8c-1.5-0.5-3-0.7-4.6-1c-2.3-0.4-4.7-1.1-6.9-2c-2.1-0.8-4.2-1.5-6.3-2.1
	c-8.9-2.6-17.9-5.2-26.8-7.9c-3.9-1.1-7.8-2.3-11.6-3.4c-0.3-0.1-0.6-0.2-0.9-0.4c-0.6-0.8-0.6-1.7-0.3-2.6c0.3-1,0.3-2.1,0.2-3.2
	c-0.2-2.2,0.2-4.4,0.7-6.6c0.5-2.2,0.9-4.5,1.3-6.8c0.5-2.6,1-5.2,1.6-7.8c0.5-2.2,1.3-4.4,1.9-6.7c1.1-3.6,2.2-7.1,3.2-10.7
	c0.5-1.9,1.1-3.8,1.4-5.8C323.3,245.2,324.6,241.6,325.5,237.9z"/>
<path class="st2" d="M229.2,274.5c-0.9-0.5-1.4-0.9-2-1.2c-0.2-0.1-0.5,0-0.7,0.2c-0.2,0.1-0.3,0.5-0.2,0.6c0.2,0.5,0.5,1,0.7,1.5
	c-0.3,0.8-0.6,1.5-0.9,2.4c-0.5,0.4-1.3,0.8-1.9,1.3c-1.1,0.9-1.8,2-2.2,3.4c-0.9,3.1-1.9,6.1-4.2,8.6c-1.8,1.9-2.7,4.3-4.1,6.5
	c-1.9,3.2-3.6,6.5-5.7,9.6c-1.6,2.3-2.8,4.8-4.2,7.3c-2.9,5-6.2,9.7-10,14.2c-0.3,0.3-0.6,0.6-0.9,0.9c-0.3-0.1-0.7,0-1-0.2
	c-1.4-0.9-2.8-1.8-4-2.9c-1.6-1.4-3.2-2.9-4.7-4.4c-1.9-2.1-3.8-4.4-4.6-7.2c-0.5-1.7,0.2-3,2-3.7c0.3-0.1,0.6-0.2,1-0.3
	c0.1-1.2,0.9-2,1.8-2.8c1.9-1.8,3.6-3.6,5.5-5.4c0.8-0.8,1.9-1.3,2.7-2.2c0.7-0.9,1-2,1.7-3c2.4-3.5,4.5-7.3,7.1-10.8
	c1.5-2.1,2.8-4.5,4-6.8c1.4-2.7,2.8-5.4,4.7-7.8c0.3-0.4,0.5-1,0.9-1.1c2.1-0.9,2.9-2.8,4.2-4.4c1.7-2.2,3.1-4.7,4.7-7
	c1.5-2.3,3.1-4.5,4.5-6.8c1.6-2.5,4-2.9,6.7-2.8c1.1,0,2.1,0.1,3.2,0.2c1,0.1,2,0.2,2.9,0.3c3.9,0.7,7.7,1.7,11.5,2.9
	c0.6,0.2,1.3,0.4,1.9,0.5c2.2,0.2,4.2,0.9,6.3,1.5c3.1,0.9,6.2,1.8,9.3,2.6c3.7,1,7.5,2,11.2,3c4,1,7.9,2.5,11.6,4.3
	c1.1,0.5,2.3,1,2.8,2.3c-0.5,2.1-1.3,4.1-3.4,5.2c-0.4,0.2-0.8,0.6-1,1c-0.5,1.2-1.5,1.6-2.7,1.9c-0.9,0.2-1.7,0.6-2.6,0.8
	c-1.1,0.3-2.2,0.4-3.4,0.1c-2.2-0.5-4.6-0.6-6.8-1.2c-2.2-0.5-4.3-1.3-6.4-2c-0.9-0.3-1.7-0.8-2.5-1c-0.7-0.2-1.4-0.2-2.2-0.2
	c-0.7,0-1.3,0.1-2,0.1c-3.6-0.3-7.2-0.6-10.8-1c-2-0.2-3.9-0.6-5.8-1.1c-2.7-0.8-5.4-0.8-8.1-0.6c-2.6,0.2-2.6,0.2-3.2,2.6
	C229.9,273.1,229.5,273.7,229.2,274.5z"/>
<path class="st0" d="M144.5,342.8c-1.1,0.5-1.9,0.6-2.8,0.1c-0.6-0.4-1.4-0.5-2.1-0.7c-0.9-0.2-1.8-0.4-2.6-0.6
	c-2.4-0.5-4.5-1.6-6.4-3.2c-0.8-0.7-1.8-1.1-2.6-1.9c-1-1-2-2.2-2.8-3.4c-2-3.2-3.9-6.5-5.7-9.8c-0.3-0.6-0.6-1.2-0.8-1.8
	c-0.9-2.6-2.1-5-3.9-7.1c-1.1-1.2-2.1-2.6-3.1-3.9c-1.4-1.8-2.8-3.5-4.5-4.9c-3-2.6-5.8-5.4-8.8-8c-2-1.7-4.1-3.3-6.3-4.8
	c-1.7-1.2-3.6-1.9-5.6-2.5c-1.7-0.5-3.3-1.5-5-2.1c-1.6-0.6-2.9-1.6-3.9-2.8c-0.5-2.3,0.3-4.1,1.9-5.6c1.3-1.2,2.7-2.4,4.1-3.6
	c0.6-0.5,1.4-1,1.8-1.6c1.1-1.5,2.6-2.2,4.3-2.8c2.7-1,5.3-2.3,8.3-2.3c0.3,0,0.7-0.1,1-0.2c2.6-1.1,5.3-1.2,8-1.7
	c0.2,0,0.3-0.1,0.5-0.1c3.5,0.2,6.9,0,10.4,0.6c2,0.4,4,0.8,6,1.4c1,0.3,1.7,0.8,2.4,1.6c2.4,2.7,3.8,5.9,5.1,9.2
	c1.4,3.6,2.1,7.3,2.8,11c0.2,1.1,0.4,2.1,0.7,3.1c1,3.5,1.4,7.1,1.8,10.7c0.3,2.5,0.6,5.1,0.5,7.6c0,2.4,0.5,4.7,0.7,7.1
	c0.2,3.3,1.4,6.4,2.4,9.6c0.7,2.1,1.2,4.3,1.9,6.4c0.6,1.8,1.3,3.6,1.9,5.4C144.2,341.5,144.3,342.1,144.5,342.8z M125.1,281.6
	c0.1-1-0.4-1.3-0.9-1.5c-2-0.9-4.2-1.6-6.4-1.9c-4.9-0.8-9.9-0.2-14.8,0.2c-2.1,0.2-4.2,0.6-6.3,1.1c-2.3,0.5-4.6,1.2-6.9,1.8
	c-0.6,0.2-1.1,0.3-1.6,0.6c-0.4,0.2-0.9,0.5-1.2,0.8c-0.2,0.2-0.4,0.6-0.3,0.8c0.1,0.2,0.5,0.3,0.8,0.4c0.2,0,0.5-0.1,0.7-0.2
	c3.1-0.8,6.2-1.7,9.3-2.5c4.8-1.1,9.8-1.4,14.7-1.5c3.1-0.1,6.1,0.3,9,1.1C122.4,281.2,123.6,281.6,125.1,281.6z"/>
<path class="st3" d="M87.9,294.2c2.7,0.1,4.3,1.3,5.8,2.6c1.4,1.2,2.9,2.2,4.2,3.4c2,1.8,4,3.7,6,5.5c0.2,0.2,0.4,0.5,0.6,0.8
	c-1,0.8-2.1,0.9-3.3,1c-0.7,0-1.2,0.3-1.8,0.6c-1.8,0.9-3.5,1.7-5.3,2.6c-1.9,0.8-3.3,2.1-4.5,3.8c-0.2,0.3-0.4,0.8-0.7,1
	c-2.1,1.7-2.6,4.2-2.9,6.6c-0.3,2.4-0.5,4.9-0.3,7.4c0.3,4.7,2,8.9,5.4,12.2c1.7,1.7,3.6,3.2,5.4,4.7c0.6,0.5,1.2,0.9,1.9,1.1
	c2.6,0.7,5.3,1.4,7.9,2c1.3,0.3,2.6,0.1,3.9-0.2c4.5-1.2,8.6-3.4,12.2-6.4c0.8-0.7,1.4-1.6,2.1-2.4c0.5-0.6,0.9-1.1,1.3-1.7
	c1.3,0.2,2.1,1,2.8,1.7c2.2,2.1,4.7,3.3,7.6,3.8c1.2,0.2,2.4,0.5,3.6,0.8c0.6,0.2,1.2,0.4,1.9,0.6c0,1.6-0.3,3-1.2,4.2
	c-0.8,1.2-1.6,2.5-2.4,3.7c-0.3,0.5-0.6,1-1.1,1.4c-1.5,1.1-2.8,2.6-4,4c-0.8,1-1.9,1.6-3,2.2c-1.4,0.8-2.7,1.9-4.3,2.5
	c-2.7,1-5.5,1.8-8.2,2.7c-0.9,0.3-1.9,0.3-2.9,0.4c-1.8,0.1-3.6,0.1-5.4,0.2c-4,0.1-7.9-0.8-11.7-1.7c-1.1-0.2-2.1-0.8-3.2-1.2
	c-0.2-0.1-0.3-0.2-0.4-0.2c-3.9-1.5-7.3-3.7-10.7-6c-1.6-1.1-3-2.3-4.5-3.5c-0.2-0.2-0.3-0.4-0.5-0.6c-1.9-2.9-4.3-5.4-6.3-8.3
	c-0.3-0.5-0.6-1-0.9-1.5c-0.6-0.9-1.1-1.9-1.6-2.8c-1-1.5-1.9-3.1-2.2-4.9c-0.4-2.1-1.3-4.1-1.2-6.3c0.2-5.1,0.8-10.2,2.8-15
	c0.8-1.8,1.5-3.6,2.4-5.4c0.6-1.3,1.4-2.4,2.3-3.5c1.8-2.3,3.9-4.3,6.1-6.1c1.5-1.2,2.9-2.5,4.5-3.5
	C85.5,295.5,86.9,294.8,87.9,294.2z M121.3,355c-0.1-0.1-0.2-0.3-0.2-0.4c-0.6,0.3-1.3,0.6-1.9,1c-2.1,1.2-4.4,1.9-6.8,1.9
	c-1.1,0-2.1,0.2-3.2,0.2c-1.4,0-2.8,0.1-4.2,0c-1.8-0.2-3.6-0.6-5.3-1c-1-0.2-1-0.2-2.3,0.1c2.2,0.9,4.2,1.8,6.2,2.6
	c0.7,0.3,1.6,0.4,2.4,0.3c2.6-0.2,5.3-0.4,7.9-0.8C116.8,358.4,119.2,356.9,121.3,355z M76.8,316.9c1.2-1.7,2.4-3.5,3.7-5.2
	c3.2-4.2,6.8-7.9,11.5-10.3c0.5-0.3,1-0.6,1.4-1c0.2-0.2,0.2-0.5,0.3-0.8c-1.4,0-1.4,0-2.3,0.4c-4.5,2.2-8.2,5.5-11.3,9.5
	C78.5,311.6,77.2,314,76.8,316.9z M84.4,348.8c-0.3-0.9-1-1.4-1.5-1.9c-3.3-3.3-5.9-7.1-7.7-11.4c-0.8-1.9-1.4-3.9-2.1-5.8
	c-0.1-0.4-0.2-0.8-0.8-0.9c-0.3,2.1,0.2,4.1,0.9,6c1.7,4.5,4.3,8.3,7.7,11.7C82.5,348.1,82.8,348.3,84.4,348.8z M129.4,350.4
	c1.1-0.6,1-1.4,0.7-2.2c-0.1-0.4-0.2-1-1-0.8C128.8,348.4,128.9,349.3,129.4,350.4z M132.2,345.5c0,1.2,0,1.2,0.8,2.4
	c0.1-0.5,0.4-0.8,0.3-1.1C133.2,346.2,133.2,345.4,132.2,345.5z M127.4,350.3c-0.1-0.2-0.2-0.4-0.3-0.6c0,0-0.2,0-0.3,0.1
	c0.1,0.3,0.2,0.5,0.3,0.8C127.1,350.5,127.2,350.4,127.4,350.3z"/>
<path class="st4" d="M288.4,128.7c1.1,0.3,1.9,0.5,2.6,0.7c2.7,0.9,5.4,1.4,8.2,1.6c4,0.2,7.8,1.2,11.7,2.1
	c3.7,0.8,7.4,1.5,11.1,2.4c3,0.7,5.9,1.6,8.8,2.5c1.2,0.3,1.9,1,2.2,2.4c0.4,2.1,0.3,4.1,0.4,6.2c0,0.5,0,1-0.1,1.5
	c-0.2,2.1,0.3,4.1,1.7,5.8c0.8,1,0.8,2,0.4,3.2c-1.1,3.1-2.4,6.1-3.8,9.1c-0.7,1.4-1.5,2.5-2.6,3.6c-2.2,2.1-4.3,4.3-6.7,6.3
	c-5.8,4.9-12.4,6.2-19.7,4.2c-3.1-0.9-6.1-2-8.8-3.9c-2-1.4-3.7-3-5.3-4.8c-2.2-2.4-3.1-5.4-3.7-8.5c-0.5-2.8-0.8-5.6-1.1-8.3
	c-0.3-3.2,0.1-6.4,0.5-9.6c0.5-4.1,1.2-8.2,2.5-12.1C287.2,131.6,287.7,130.3,288.4,128.7z M293.1,161.3c1.6,1.5,2,3.2,2.2,5
	c0.2,1.5,0.8,2.9,1.6,4.1c0.7,1,1.4,2,2.1,3.1c1.9,2.8,4.7,3.9,7.9,3.7c3.3-0.2,6.6-0.9,8.9-3.7c2-1.3,3-3.2,3.7-5.4
	c0.2-0.7,0.5-1.4,0.7-2.1c0.5-1.5,0.9-3,1.4-4.5c0.1-0.2,0.3-0.4,0.4-0.5c0.6,0,1.1,0.5,1.8-0.2c0-0.2,0-0.6-0.2-0.8
	c-1-1.3-2.4-1.9-4-2.2c-0.6-0.1-1.2-0.1-1.6,0.5c-0.8,1.1-2,1.4-3.2,1.7c-2.5,0.7-5.1,1.2-7.6,2.1c-2.3,0.8-4.7,0.5-7.1,0.6
	c-0.5,0-1-0.2-1.4-0.4c-1.5-0.5-3.1-0.6-4.4-1.4C294.1,160.7,293.7,161,293.1,161.3z M295.6,146.4c-0.1,0.6-0.1,0.9-0.1,1.2
	c0,0.8,0.3,1.3,0.8,1.4c0.5,0.1,1.1-0.2,1.3-0.9c0.5-1.7,0.7-3.4-0.2-5c-0.9-1.5-2-2-3.7-1.5c-1.8,0.5-3.7,3.7-3.3,5.5
	c0,0.2,0.3,0.5,0.5,0.5c0.3,0,0.7,0,0.9-0.2c0.3-0.5,0.5-1,0.8-1.5c0.4-0.7,0.8-1.4,1.3-2c0.4-0.5,1.4-0.2,1.6,0.5
	C295.6,145.1,295.6,145.9,295.6,146.4z M303.2,154c0.2-0.6,0.4-1.4,0.6-2.2c0.5-1.9,1.1-3.8,1.6-5.7c0.1-0.5,0.1-1.1,0.1-1.7
	c0-0.5-0.9-0.7-1.2-0.4c-0.3,0.4-0.6,0.8-0.8,1.2c-0.9,2.6-1.7,5.3-2.6,8c-0.4,1.3,0.1,2.2,0.7,3.2c0.7,1,1.7,1,2.8,1
	C304.6,156,303.4,155.3,303.2,154z M316.8,148.3c0.8,1,0.7,2.1,0.7,3.1c0,0.6-0.2,1.2-0.1,1.7c0.1,0.3,0.5,0.7,0.8,0.8
	c0.2,0.1,0.7-0.1,0.9-0.3c0.3-0.3,0.4-0.7,0.5-1.1c0.5-1.6,0.2-3.1-0.3-4.6c-0.6-1.7-2-2.4-3.7-1.7c-0.5,0.2-1.1,0.5-1.5,0.8
	c-1.4,1-1.6,2.4-1.6,3.9c0,0.3,0.5,0.7,0.8,0.8c0.3,0.1,0.8-0.2,1-0.5c0.2-0.3,0.2-0.8,0.3-1.2C314.8,149.1,315.5,148.4,316.8,148.3
	z M297.4,137.5c0.3-2.1,0.2-2.5-1-2.9c-1.5-0.5-2.9-0.3-4.4-0.1c-0.2,0-0.4,0.2-0.6,0.4c-0.4,0.3-0.6,0.9-0.3,1.3
	c0.2,0.4,0.6,0.6,1.1,0.4C293.9,136.1,295.6,136.2,297.4,137.5z M323.2,141.4c-1-0.9-2-1.5-3.3-1.5c-1.2,0-2.4,0-3.7,0.1
	c-0.2,0-0.5,0.6-0.6,0.9c0,0.2,0.3,0.5,0.5,0.8c0.1,0.1,0.3,0.1,0.5,0.1c2,0.1,4.1,0.2,6.1,0.2C322.8,142,323,141.7,323.2,141.4z"/>
<path class="st3" d="M263.9,379.2c1.8,0.3,3.6,0.9,5.4,1.5c1.7,0.6,3.5,1.1,5.2,1.6c1.8,0.5,3.7,0.8,5.6,1.2c0.1,0.4,0.2,0.7,0.2,1
	c-0.2,2,0.2,4,0.6,5.9c0.9,4.3,2.9,7.9,6.2,10.7c2.2,1.9,4.5,3.6,6.8,5.4c0.5,0.4,1,0.7,1.5,0.9c4,1.5,8.2,2.6,12.6,1.7
	c3.4-0.7,6.7-1.8,9.7-3.7c0.7-0.4,1.4-0.8,2.1-1.2c2.3-1.3,4.1-3,5.4-5.3c0.4-0.8,1-1.5,1.4-2.1c1.1-0.4,2,0,2.8,0.2
	c3.2,0.8,6.4,1.7,9.6,2.6c2.3,0.6,4.7,1.1,7,1.7c0.4,0.1,0.8,0.2,1.3,0.4c-0.2,0.5-0.3,1-0.5,1.4c-2.4,3.9-5,7.6-8.1,10.9
	c-1.1,1.1-2.3,2.1-3.6,3c-2.2,1.6-4.4,3.2-6.7,4.6c-3.3,2-7,3-10.7,3.7c-2.4,0.4-4.7,0.8-7.1,1.3c-2.8,0.5-5.6,0.6-8.4,0.1
	c-0.2,0-0.5-0.1-0.7-0.1c-2.7,0.2-5.2-0.8-7.6-1.8c-4.3-1.7-8.4-3.7-12.3-6.4c-3.1-2.2-6.1-4.5-8.9-7.1c-1.5-1.4-2.9-2.9-3.7-4.9
	c-0.1-0.2-0.2-0.5-0.3-0.7c-3.1-4.5-4.8-9.5-5.9-14.8c-0.2-0.8-0.4-1.6-0.5-2.4c-0.1-0.4-0.2-0.8-0.2-1.2
	C261.9,385.5,263,381,263.9,379.2z M322.8,414.6c-1.3,0.2-1.9,0.6-2.6,1c-2.5,1.3-5.2,2-8.1,2c-0.5,0-1,0-1.5,0.1
	c-4.5,0.6-8.9,0.2-13.2-1c-0.9-0.2-1.7-0.5-2.9-0.1c0.5,0.3,0.9,0.5,1.2,0.6c1.1,0.4,2.2,0.8,3.2,1.2c2.7,1.1,5.5,1.8,8.4,1.4
	c1.8-0.2,3.6-0.3,5.4-0.4c3.4-0.2,6.4-1.6,9-3.6C322.1,415.6,322.3,415.2,322.8,414.6z M267.4,387.7c-0.3,3.4,0.6,6.5,2.2,9.5
	c2.2,4.3,5.4,7.8,9.1,10.9c0.5,0.4,1,0.8,2,0.6c-2-2.2-4.1-4.1-5.8-6.2c-1.8-2.2-3.3-4.5-4.5-7.1
	C269.3,392.9,268.4,390.2,267.4,387.7z M331.6,406.9c-0.9,0.8-0.7,1.5-0.6,2.1c0.1,0.5,0.4,1,0.7,1.5c0.1,0.2,0.7,0.1,0.8-0.2
	c0.1-0.4,0.3-1,0.2-1.4C332.4,408.3,332,407.7,331.6,406.9z M335.8,408.3c0.8-0.9,0.5-1.6,0.1-2.2c-0.3-0.5-0.7-1-1.5-0.5
	C334.7,406.5,334.9,407.5,335.8,408.3z M328.6,409.7c-0.1,0-0.1,0.1-0.2,0.1c-0.2,0.4-0.1,0.8,0.3,1c0.1,0.1,0.3,0,0.4-0.1
	c-0.1-0.3-0.1-0.6-0.2-0.9C328.9,409.8,328.7,409.8,328.6,409.7z"/>
<path class="st5" d="M296.8,260.5c0.1,1,0.2,1.9,0.3,2.7c0.1,0.9-0.4,1.6-1.2,2c-0.8,0.4-1.6,0.8-2.6,1.3c-0.8,0.1-1.6-0.4-2.3-1
	c-2.8-2.3-6.1-3.6-9.5-4.7c-6.1-1.9-12.1-3.7-18.2-5.5c-2.9-0.9-5.8-1.9-8.5-3.2c-0.9-0.4-1.8-0.8-2.9-1.3c0.5-0.5,0.8-0.8,1.1-1.1
	c1.1-1,2.2-2,3.4-2.9c1-0.9,1.9-1.9,2.3-3.2c0.6-1.7,1.8-2.7,3.5-3.4c0.7,0.2,1.4,0.4,2.2,0.6c1.3,0.3,2.6,0.6,3.9,0.8
	c1.7,0.3,3.3-0.1,4.6-1.2c0.8-0.7,1.7-1.3,2.7-1.8c2.6-1.4,4.7-3.3,6.7-5.4c2.4-2.6,4.9-5.1,7.4-7.7c0.4-0.4,0.8-0.8,1.3-1.2
	c2.8-2.4,5.6-4.9,8.5-7.4c0.3,0.4,0.5,0.8,0.8,1.1c1.1,1.3,2.5,1.5,3.9,0.5c0.7-0.5,1.4-1.1,2.1-1.8c1.6-1.6,3.3-3.3,4.8-5
	c0.8-0.8,1.5-1.8,2.1-2.7c1.1-1.6,2.2-3.3,3.2-5c0.6-1,1.2-2.1,1.8-3.2c0.6,0.2,0.4,0.7,0.4,1c0,4.8-1.1,9.5-2.3,14.1
	c-0.6,2-1.2,3.9-1.8,5.9c-1.4,5.3-2.7,10.5-4.4,15.7c-0.7,2.1-1.4,4.2-2.5,6.2c-1.6,2.8-3.2,5.6-4.9,8.3c-0.2,0.4-0.4,0.7-0.7,1.1
	C300.5,255.8,299,258.4,296.8,260.5z"/>
<path class="st4" d="M221.5,74c2.1,0.9,3.5,2.1,4.6,3.7c1.2,1.9,2.3,3.8,2.9,6c0.3,1.1,0.7,2,1.5,2.8c0.4,0.4,0.8,0.5,1.3,0.3
	c0.5-0.3,0.7-0.7,0.6-1.2c-0.2-0.5-0.4-1.1-0.6-1.6c-0.7-1.4-1-2.8-0.9-4.3c0.1-2.6,0.2-5.1,0.4-7.7c0.1-1.5,0.5-3.1,1.7-4.3
	c1,1.6,1.4,3.3,1.6,5c0.4,3.2,0.7,6.4,1,9.6c0.1,0.7,0.1,1.5,0.2,2.2c0.1,0.9,0.4,1.7,1.5,2c0.5,0.1,0.9,0.6,1.2,0.9
	c0.6-0.1,0.6-0.5,0.6-0.8c0.4-3.2,0.7-6.4,1.1-9.6c0.4-3.1,1.3-6.1,2.8-8.9c0.2-0.3,0.3-0.6,0.5-0.8c0.1-0.1,0.3-0.2,0.5-0.4
	c0.1,0.3,0.4,0.5,0.4,0.8c0.2,1.6,0.5,3.1,0.4,4.7c0,4-0.1,7.9-0.3,11.9c-0.1,1.8-0.7,3.5-1,5.3c-1.1,0.7-2.1,1.4-3.2,2.1
	c-2.2,1.5-3.3,3.6-3.6,6.2c-0.1,0.7,0,1.3,0.7,1.8c0.9-1,1.1-2.4,1.7-3.5c0.7-1.2,1.7-2.2,2.9-3c1.1-0.7,2.1-1.7,3.6-1.8
	c0.2,0.2,0.3,0.5,0.6,0.7c0.3,0.3,0.8,0.4,1.1,0c0.3-0.5,0.6-1,0.8-1.5c1-2.3,2.5-4.3,4.2-6.1c1.4-1.4,3.1-1.6,5-1.3
	c-0.4,2-0.9,3.7-2.2,5.1c-1.4,1.6-2.7,3.3-4.1,4.9c-2.8,3.2-4.3,7-5.3,11c-0.4,1.6,0.2,3.1,0.7,4.6c1,2.9,2.2,5.7,3.8,8.3
	c2.5,4.1,4.9,8.2,7.3,12.3c0.6,1.1,1.3,2.1,2,3.1c1.9,2.8,3.7,5.7,5.2,8.7c3.1,6,6.9,11.4,11.3,16.5c0.5,0.6,0.9,1.2,1.3,1.7
	c-2.2,3.1-4.4,6.1-6.6,9.2c-0.6-0.5-1.2-0.9-1.6-1.5c-1.2-1.6-2.4-3.2-3.5-4.8c-1-1.4-2-2.8-2.9-4.3c-0.9-1.6-1.8-3.2-2.5-4.8
	c-0.7-1.6-1.8-2.9-2.6-4.5c-2.5-4.7-4.9-9.5-7.4-14.3c-1.6-2.9-3.3-5.7-5-8.6c-2.3-3.8-4.4-7.5-6.2-11.6c-0.6-1.4-1.3-2.7-2.1-3.9
	c-0.4-0.6-0.4-1.2-0.2-1.9c-1.9-0.1-3.4-1.2-5-2c-1.8-0.8-3.1-2.2-4.3-3.6c-1.6-1.9-2-4.1-2.1-6.5c0-0.3,0.3-0.7,0.5-1.1
	c-1.2-1.5-2.7-2.7-4.4-3.5c-1.6-0.8-2.7-2.1-3.8-3.5c-0.8-1-1-2.1,0-3.2c1.5,0,2.8,0.7,4,1.7c1.1,0.9,2.5,1.3,3.8,1.8
	c0.5,0.2,1,0.1,1.3-0.4c0-0.8-0.8-1.2-1.2-1.8c-0.4-0.6-0.9-1.2-1.4-1.7C221.3,81.7,220.8,78.1,221.5,74z"/>
<path class="st4" d="M291.8,207.1c1.9,1.2,4,3.8,6.2,7.6c-0.4,0.3-0.8,0.7-1.3,1.1c-3.4,2.5-6.4,5.4-9.3,8.6c-3,3.4-6.1,6.8-9.8,9.4
	c-2.2,1.6-4.5,3-6.8,4.4c-0.5,0.3-1.1,0.5-1.6,0.7c-1.2,0.5-2.4,0.6-3.6,0.1c-0.1,0-0.2,0-0.2-0.1c-2-0.9-4.2-0.5-6.2-1.6
	c-1.8-1-3.8-1.6-5.7-2.4c-1.3-0.5-2.6-1.1-3.8-1.8c-2-1.1-4-2.2-6.2-3c-0.7-0.2-1.3-0.7-2-1.1c-1.9-1.2-3.9-2.2-6.1-2.8
	c-2.4-0.6-4-2.2-5.5-4.1c-0.4-0.4-0.6-1-1.1-1.3c-1.2-0.8-1.6-2.1-1.7-3.4c-0.1-0.6-0.1-1.2,0-1.7c0.1-1.6,0-3.1-1-4.4
	c0.4-1.1,1.7-0.2,2.1-1c-0.1-0.1-0.2-0.4-0.3-0.4c-2.7-0.5-5.4-0.7-8.1,0c-1.8,0.4-3.3,1.4-4.9,2.4c-1.6,1-2.3,2.5-2.4,4.4
	c-0.1,1.1-0.4,2.3-0.7,3.4c-0.3,1.1-0.7,1.2-1.9,0.9c-0.4-0.1-0.8-0.3-1.2-0.4c-0.2-0.6-0.5-1.2-0.7-1.8c-0.4-0.8-0.3-1.6-0.1-2.4
	c1-3.6,2.1-7.2,4.2-10.2c0.8-1.2,2-2.2,3.1-3.2c0.6-0.6,1.4-0.9,1.8-1.6c-0.4-0.7-0.9-0.4-1.3-0.3c-2.3,0.7-4,2.3-5.3,4.3
	c-1.5,2.2-2.8,4.5-3.4,7.1c-0.1,0.5-0.3,0.9-0.5,1.3c-0.6,0.1-0.7-0.2-0.7-0.5c-0.2-1.7-0.1-3.3,0.4-4.9c0.6-2.4,1.7-4.5,3-6.5
	c1.6-2.5,4.1-3.7,7-4.2c0.6-0.1,1.3-0.3,1.9-0.6c1.5-0.6,3-0.8,4.6-0.3c2.2,0.8,4.4,1.4,6.6,2.2c1.2,0.4,2.2,1.1,3.1,2
	c2.9,3,4.2,6.6,3.9,10.8c0,0.4-0.1,0.8-0.2,1.2c-0.1,1.7,0.4,2.9,2.1,3.5c1.3,0.5,2.4,1.4,3.5,2.3c1,0.8,1.9,1.6,2.9,2.3
	c0.9,0.7,1.9,1.3,2.9,1.8c4.1,1.9,8.3,3.7,12.4,5.6c1.8,0.8,3.7,1,5.5,0.3c2-0.7,3.9-1.5,5.7-2.9c2.5-2,4.9-4.1,7.2-6.4
	c0.8-0.8,1.6-1.6,2.5-2.4c3.6-2.9,7-6,10.1-9.5C291.2,207.6,291.5,207.4,291.8,207.1z"/>
<path class="st5" d="M289.5,206.1c-2,2.3-4.1,4.3-6.3,6.2c-2.4,2-4.7,4.1-7.1,6.2c-0.1,0.1-0.3,0.1-0.6,0.2c0.1-0.8,0.6-1.4,0.9-2
	c0.4-0.7,0.8-1.4,1.3-2.1c0.4-0.6,0.7-1.3,1.1-1.9c0.4-0.6,0.7-1.3,1.1-2c0.3-0.7,0.7-1.3,1-2c0.4-0.7,0.8-1.5,1.1-2.2
	c0.3-0.7,0.7-1.3,1-2c0.3-0.7,0.7-1.3,1-2c0.4-0.7,0.8-1.5,1.2-2.2c0.4-0.7,0.7-1.3,1.1-2c0.4-0.6,0.8-1.3,1.1-1.9
	c0.4-0.6,0.8-1.2,1.2-1.9c0.4-0.7,0.8-1.4,1.2-2.2c0.4-0.6,0.7-1.3,1.1-1.9c-0.6-1.1-1.5-1.7-2.5-2c-2.7-0.8-5.1-2.2-7.6-3.6
	c-1.3-0.8-2.6-1.8-3.8-2.7c-1.8-1.3-3.5-2.7-5.3-4.1c-1.4-1-2.8-2.1-4-3.5c0.7-0.8,1.3-1.6,1.9-2.3c1.4-1.5,2.9-2.9,4-4.7
	c0.2-0.3,0.5-0.7,0.8-1c1.9-1.9,3.3-4.1,4.5-6.5c0.1-0.1,0.2-0.2,0.4-0.4c1.3,1.3,2.6,2.7,3.8,3.9c0.5,1.9,0.9,3.8,1.5,5.6
	c0.4,1.1,0.9,2.1,1.6,3.1c2.9,3.9,6.6,6.9,11.2,8.7c4.2,1.7,8.5,2.8,13,2.4c0.4,0,0.8,0,1.1,0c0.8,0.6,1.6,1.1,2.3,1.7
	c2.2,2,3.8,4.3,3.5,7.5c-0.4,4.1-1.4,8-3.8,11.4c-0.7,0.9-1.3,1.9-1.8,2.9c-1,2.1-2.5,3.6-4.1,5.2c-1.2,1.2-2.4,2.5-3.6,3.8
	c-0.5,0.5-0.9,1-1.7,1c-0.6-0.8-1.2-1.6-1.8-2.5c-1.4-2-2.8-4.1-4.2-6.1c-0.8-1.2-1.8-2.2-3-2.9c-0.8-0.5-1.4-1-1.7-2
	c-0.1-0.5-0.6-0.9-0.9-1.4c0.6-1.4,1.8-2.2,2.8-3.1c2.2-2,4.7-3.7,6.9-5.6c0.6-0.5,1.2-1.1,1.7-1.8c0.1-0.2,0.1-0.7,0-0.9
	c-0.2-0.4-0.7-0.4-1.1-0.3c-0.1,0-0.2,0.1-0.2,0.1c-2.2,1.6-4.5,3.1-6.6,4.8c-1.3,1-2.5,2.2-3.8,3.2c-1.2,1-1.9,2.3-2.6,3.6
	c-0.4,0.7-0.3,1.4,0.3,2C288.6,204.7,289,205.4,289.5,206.1z"/>
<path class="st6" d="M306.8,301.4c-0.9-0.1-1.8-0.1-2.7-0.2c-1.6-0.2-3.1-0.4-4.7-0.6c-5-0.7-10-1.4-14.9-2c-2.8-0.4-5.5-1.2-8.1-2
	c-2.4-0.7-5-1-7.5-1.6c-4.1-0.9-8.3-1.4-12.3-2.7c-1.2-0.4-2.4-1-3.7-1.5c-0.8-0.3-1.7-0.7-2.5-0.9c-3.7-1-6.2-6.5-4.1-10.4
	c0.5-1,1.2-2,2-2.8c1.3-1.5,3.2-2.1,5.1-2c2.6,0.1,5.3,0.3,7.9,0.5c0.8,0.1,1.6,0.3,2.4,0.6c2.8,1.2,5.7,2.2,8.8,2.5
	c1.7,0.2,3.3,0.8,5.1,1c3.8,0.4,7.6,1.2,11.5,1.8c1.1,0.2,2.1,0.4,3.1,0.7c4.3,1.3,8.7,2.7,13,4c2.6,0.8,3.9,2.9,5,5.1
	c0.2,0.4,0.1,1,0.1,1.5c0,0.9-0.2,1.8-0.1,2.7c0.1,1.5-0.4,2.8-1.3,3.9C308.1,299.8,307.4,300.6,306.8,301.4z"/>
<path class="st7" d="M408.4,253c-0.3,1.6-0.4,2.8-0.6,4c-0.4,2.4-1.7,4.4-3.7,6c-2.4-3.3-5.8-5.1-9.5-6.7c-6.8-3-14.1-4.6-21.1-6.9
	c-2.1-0.7-4.2-1.5-6.3-2.2c-1.4-0.5-2.8-1-4.2-1.5c-9.6-2.9-19.3-5.8-28.9-8.8c-2.6-0.8-5.2-1.5-8-1.5c-0.1,0-0.3-0.1-0.5-0.3
	c0-1.2,0.2-2.4,0.6-3.6c0.3-1,0.6-2.1,0.9-3.1c0.3-1.3,1.1-2,2.3-2.2c2.3-0.5,4.6-0.5,6.9,0c2.8,0.6,5.6,1.2,8.5,1.8
	c0.6,0.1,1.3,0.2,1.9,0.4c9.5,2.6,19.1,5.1,28.6,8.2c1.1,0.4,2.1,0.9,3.2,1.3c0.7,0.3,1.4,0.6,2.1,0.8c2.8,0.9,5.7,1.8,8.5,2.7
	c3.3,1,6.4,2.5,9.5,4.1c2.7,1.5,5,3.5,7.5,5.1C406.9,251.3,407.6,252.3,408.4,253z"/>
<path class="st8" d="M167.1,329.4c2,2.9,4.8,5,7.4,7.2c1.4,1.1,3.2,1.9,4.9,2.3c1.9,0.4,3.6,1.1,5.3,1.9c3.4,1.6,6.7,3.2,10.4,4
	c2.8,0.6,5.5,1.7,8.3,2.5c2.8,0.8,5.5,1.7,8.3,2.5c3.8,1,7.7,1.7,11.7,1c0.6-0.1,1.3-0.1,2-0.1c0.2,0,0.4,0.1,0.7,0.2
	c-0.6,1.3-0.6,1.5-1.4,1.8c-1.3,0.6-2.6,1.1-3.9,1.6c-0.5,0.2-1,0.3-1.4,0.3c-3-0.1-6-0.1-8.9-0.5c-2.9-0.4-5.8-1.4-8.7-1.8
	c-4.4-0.6-8.5-2.2-12.8-3c-4.7-0.9-9.3-2-13.9-3.5c-2.2-0.7-4.1-1.7-5.6-3.4c-1.5-1.6-3.3-3-4.9-4.6c-1.6-1.6-3-3.2-3.9-5.4
	c-0.5-1.3-1.7-2.2-2.4-3.4c-1.8-3.1-3.4-6.2-4.3-9.7c-0.6-2.2-1.3-4.2-1.8-6.4c-1.1-4.5-2.5-8.9-2.8-13.5c-0.2-3.5-0.3-6.9-0.2-10.4
	c0-3,0.4-6.1,1.4-9c0.6-1.9,1.2-3.8,1.8-5.7c1.2-3.8,2.8-7.4,5.3-10.6c1.3-1.7,2.4-3.5,3.5-5.4c0.9-1.7,2.1-3.2,3.2-4.7
	c2.3-3,4.6-6,6.9-9.1c0.3-0.5,0.7-0.9,1.2-1.2c1.3-0.8,2.2-1.9,3.3-3c4.2-4.4,8.3-8.8,12.5-13.1c1.6-1.7,3.3-3.2,5.1-4.7
	c2.9-2.5,5.9-5,8.9-7.5c0.4-0.4,1-0.6,1.5-0.8c0.1,0,0.3,0.1,0.4,0.2c0.1,0.1,0.1,0.3,0.1,0.4c-0.1,0.3-0.3,0.6-0.5,0.8
	c-0.4,0.6-1,1.2-1.2,1.8c-0.5,1.6-1.6,2.7-2.7,3.8c-2.9,2.8-5.8,5.6-8.7,8.4c-3.4,3.2-6.9,6.4-10.3,9.7c-0.4,0.4-0.8,0.8-1.2,1.3
	c-1.6,1.9-3.3,3.7-4.9,5.6c-1.5,1.8-2.9,3.8-4.4,5.6c-1.3,1.6-2.6,3.2-3.9,4.8c-0.9,1.2-1.7,2.4-2.5,3.7c-0.3,0.4-0.4,0.9-0.8,1.3
	c-2.4,2.9-3.7,6.4-5.4,9.7c-0.3,0.5-0.4,1.1-0.5,1.6c-1.3,4.2-2.5,8.4-3.7,12.6c-0.3,1.2-0.5,2.4-0.6,3.6c-0.2,3.7-0.4,7.4,0,11.1
	c0.2,2.1,0.5,4.3,1.2,6.3c1.1,3.3,2.3,6.7,3.5,10c0.2,0.5,0.4,1.1,0.5,1.7c0.8,2.9,2.1,5.4,4.3,7.3c0.3,0.3,0.7,0.5,0.8,0.9
	c0.8,1.8,2.3,2.5,4.1,2.9C166.9,329.3,167,329.4,167.1,329.4z"/>
<path class="st0" d="M214.3,195.6c-3.1,0.8-5,2.8-6.7,5.1c-1.4,2-2.6,4.2-3.1,6.7c-0.2,0.6-0.4,1.3-0.7,2.1
	c-1.4-1.6-3.2-1.8-4.9-2.3c-3.6-1-7.2-2.3-10.9-3.3c-4.1-1.1-7.9-2.7-11.8-4.4c-1.1-0.5-2.3-0.9-3.3-1.4c-0.1-0.6,0.3-0.6,0.6-0.6
	c3.1,0,5.2-1.9,7.2-3.9c1.7-1.8,3.1-3.8,4.5-5.9c1.5-2.3,2.7-4.7,4.1-7c0.5-0.8,0.8-1.8,1.1-2.7c0.9-2.8,1.8-5.6,2.7-8.6
	c2,1.1,3.8,2.4,5.6,3.7c3.5,2.6,6.5,5.6,8.7,9.4c0.5,0.8,1.1,1.5,1.6,2.2c2,2.6,3.7,5.4,4.4,8.8
	C213.6,194.1,213.9,194.8,214.3,195.6z"/>
<path class="st2" d="M239,248.9c-0.4,0-0.8,0-1.2-0.1c-3.2-0.7-6.5-0.8-9.8-0.8c-2.8,0-4.9,1.3-6.4,3.6c-1,1.5-2,3-3.1,4.5
	c-1.1,1.5-2.2,2.9-3.3,4.3c-2.8,3.8-5.7,7.5-8.4,11.3c-1.3,1.9-2.5,3.9-3.6,5.9c-1.8,3.6-3.9,7-6.3,10.3c-2.5,3.5-4.7,7.2-7,10.8
	c-1,1.6-2,3-3.5,4.1c-1.8,1.4-3.3,2.9-4.7,4.7c-0.2,0.3-0.6,0.6-0.8,0.8c-3-2.4-7.1-7.6-7.9-10.2c0.4-0.3,0.9-0.6,1.3-0.9
	c1.4-0.9,2.6-1.9,3.7-3.2c1.9-2.3,4.2-4.2,6.5-6c1.4-1.1,2.7-2.4,4-3.7c0.9-0.9,1.7-1.8,2.5-2.7c0.4-0.5,0.9-1,1.3-1.5
	c2.1-4,5.5-7,8.2-10.5c0.9-1.2,1.8-2.3,2.6-3.6c1.8-3,3.6-5.9,5.6-8.8c1.7-2.5,3.4-5.1,5.3-7.4c1.7-2,3.7-3.5,6.1-4.6
	c1.4-0.6,2.8-0.9,4.3-0.7C229.4,245.1,234.2,247,239,248.9z"/>
<path class="st8" d="M101,316.6c-1.1,1.6-2.1,3.2-3.1,4.8c-1.5,2.2-2.3,4.7-2.8,7.3c-0.4,2.3,0.1,4.5,1.6,6.3c3,3.5,6.9,5,11.5,4.5
	c1.1-0.1,2.3-0.6,3.2-1.3c1.8-1.3,3.4-2.8,5.1-4.3c0.6-0.5,0.9-1.2,1-1.9c0.2-1.7,0.4-3.4,0.7-5.1c0-0.2,0.1-0.5,0.2-0.7
	c0.2,0.1,0.4,0.1,0.5,0.2c2,3.5,4.1,6.9,5.6,10.9c-0.6,1.5-1.6,2.8-2.6,4.1c-0.3,0.4-0.8,0.8-1.3,1.1c-2.2,1.1-4.4,2.2-6.7,3.2
	c-4.1,1.9-8.3,1.9-12.5,0.4c-0.7-0.2-1.4-0.5-2-1c-2.1-1.7-4.2-3.5-6.2-5.3c-3.3-3-4.8-6.9-4.9-11.2c0-2.5,0.2-4.9,0.5-7.4
	c0.1-0.9,0.6-1.7,1-2.5c0.5-0.8,1.1-1.6,1.8-2.3c1.5-1.5,3.1-2.9,4.7-4.3c1-0.9,2.2-1.5,3.5-1.8c1.4-0.3,2.9-0.7,4.3-1.1
	c1.6-0.4,3.1,0,4.3,1.2c0.5,0.5,1.1,1,1.6,1.6c0.9,1.1,1.7,2.3,2.7,3.9c-2.3-0.1-4.3,0-6.2-0.3C104.4,315.3,102.7,315.6,101,316.6z"
	/>
<path class="st9" d="M182.8,163.5c0.1,1.4,0.1,2.3,0.2,3.3c0,1.1-0.3,2.1-0.8,3.1c-0.6,1.4-1.2,2.9-1.7,4.3c-1,2.9-2.4,5.6-4,8.2
	c-0.7,1.1-1.5,2.2-2.1,3.4c-1.2,2.3-3.1,3.8-5.3,5c-0.3,0.2-0.8,0.2-1.2,0.2c-0.5,0-1-0.1-1.5-0.2c-2.8-0.6-2.6-0.2-3.7-3.3
	c-0.8-2.1-0.6-4.2,0.1-6.3c0.6-2,1-4,2.1-5.8c0-0.1,0.1-0.1,0.1-0.2c0.3-2.8,2.4-4.6,3.9-6.7c2-2.9,5.1-4.4,8.2-5.7
	C179,162,181.2,162.1,182.8,163.5z"/>
<path class="st8" d="M283.5,384.7c1.3-0.1,2.4,0.6,3.5,0.8c1.1,0.2,2.2,0.4,3.5,0.7c0,0.5,0,0.9-0.1,1.2c-0.4,2.7,0.5,4.9,2.3,6.8
	c2.2,2.4,5.1,3.6,8.2,4.2c4.3,0.9,8-0.2,11-3.5c0.6-0.6,1.1-1.2,1.7-1.8c2.4-0.2,7.3,1.1,10.3,2.8c-0.1,0.4-0.1,0.9-0.3,1.3
	c-0.7,1.2-1.5,2.4-2.3,3.5c-0.3,0.4-0.8,0.8-1.4,1c-2.1,1-4.2,2-6.3,2.9c-3,1.3-6.1,1.9-9.4,1.9c-2.3,0-4.4-0.6-6.5-1.2
	c-0.6-0.2-1.2-0.5-1.8-0.9c-3.3-2.3-6.6-4.7-9.2-7.8c-2.8-3.4-3.9-7.4-3.3-11.8C283.3,384.9,283.4,384.8,283.5,384.7z"/>
<path class="st7" d="M189.6,330.9c-1,1.8-2.4,3-3.9,4.2c-3-1.3-6-2.6-8.6-4.6c-2.1-1.6-3.7-3.7-5.5-5.7c-0.9-1-1.9-2-2.8-3.1
	c-0.9-1.1-1.8-2.2-2.6-3.3c-0.4-0.6-0.8-1.3-1.2-1.8c-2.1-2.4-3.4-5.2-4.9-8c-0.2-0.4-0.5-0.9-0.6-1.4c-0.1-0.5-0.2-1.2,0-1.7
	c0.5-1.4,1.1-2.8,2.5-3.6c0.9,0,1.6,0.4,2.2,0.9c2.3,1.7,4.7,3.3,6.5,5.7c-0.6,1.8-2,3.3-1.7,5.5c0.5-0.2,0.9-0.3,1.1-0.6
	c0.4-0.4,0.6-1,0.9-1.5c0.3-0.6,0.6-1.1,1-1.8c1.1,0.3,1.6,1.2,2.2,1.9c-0.4,0.6-0.8,1.1-1.1,1.7c-0.3,0.7-0.6,1.4-0.8,2.1
	c-0.2,0.6,0.1,1.1,0.5,1.2c0.6,0.1,0.9-0.2,1.2-0.6c0.3-0.4,0.5-0.9,0.7-1.3c0.2-0.3,0.4-0.7,0.8-1.1c0.3,0.3,0.6,0.5,0.7,0.7
	c0.4,0.8,0.8,1.6,1.2,2.4c0.8,1.6,2.4,2.8,2.6,4.7c1.4,1.8,2.8,3.6,4.7,5C186.2,328.2,187.8,329.5,189.6,330.9z"/>
<path class="st10" d="M98.4,329.3c0-0.6,0-1.2,0-1.7c0-3.2,1.4-5.9,3.6-8.2c1.3-1.4,3.2-1.6,4.9-2c2.4,0.7,4.9,1.2,6.4,3.4
	c0.7,0.9,1.3,1.9,1.8,3c1.6,3,0.9,5.9-0.4,8.8c-0.9,1.9-5.3,4.6-7.4,4.5c-3-0.1-5.8-1-8.1-3.3c-0.7-0.7-1-1.5-0.9-2.4
	C98.4,330.6,98.4,330,98.4,329.3C98.4,329.3,98.4,329.3,98.4,329.3z"/>
<path class="st8" d="M184.8,162.1c1.5,0.5,2.4,1.3,3.4,2c0.3,0.2,0.5,0.6,0.7,1c0.1,0.2,0,0.6,0.2,0.7c1.4,1.2,1,2.6,0.7,4.1
	c0,0.2-0.1,0.3-0.1,0.5c-0.3,1.9-0.4,3.8-0.9,5.6c-0.5,1.8-1.5,3.5-2.2,5.2c-0.1,0.2-0.2,0.5-0.3,0.7c-1.6,1.8-2.5,4.1-3.7,6.1
	c-0.4,0.7-0.9,1.4-1.5,1.9c-2.1,2-4.5,3.6-7.1,4.9c-0.9,0.4-1.7,0.5-2.6,0.4c-2-0.3-2.4-0.5-3.9-1.5c0.4,0,0.6,0,0.8,0
	c1.5,0.2,2.5-0.4,3.5-1.4c1.1-1.2,2.3-2.4,3.4-3.6c2.1-2.2,3.9-4.7,5.1-7.5c0.6-1.4,1.5-2.8,2.2-4.1c0.6-1,1-2.1,1.2-3.2
	c0.3-1.8,0.8-3.5,1.1-5.3c0.1-0.8,0-1.6,0-2.4C184.8,164.8,184.8,163.6,184.8,162.1z"/>
<path class="st7" d="M159.1,301.3c-1.9-2.7-3-5.7-3.4-8.9c-0.2-1.2-0.1-2.3,0.2-3.4c0.3-0.9,0.5-1.9,0.8-2.8c0.4-1,1-1.3,2.1-1.1
	c1.6,0.4,2.8,1,3.8,2.5c1.1,1.7,2.6,3.2,3.3,5.3c-0.4,0.2-0.8,0.5-1.2,0.8c-0.6,0.4-1.3,0.7-1.9,1.2c-0.7,0.5-1.1,1.3-0.9,2.2
	c0.1,0.4,0.4,0.7,0.7,0.9c0.4,0.3,0.8,0,1-0.4c0.7-1.4,2-1.9,3.3-2.2c0.8,0.4,0.9,1,0.6,1.7c-0.3,0.7-0.6,1.4-0.8,2.1
	c-0.2,0.7,0.1,1.3,0.7,1.7c0.3,0.2,0.9,0.2,1.1,0c0.5-0.4,0.8-1,1.3-1.6c0.4,0.4,0.8,0.6,1.1,1c1.9,3.4,4.5,6.3,7.1,9.1
	c0.3,0.4,0.6,0.7,1,1.2c-0.6,0.9-1.2,1.8-1.9,2.9c-0.3-1.4-1-2.2-2-2.9c-1-0.6-1.8-1.5-1.7-2.8c-1.5-0.6-1.6-0.6-2.7-1.8
	c-1.8-1.9-3.9-3.3-5.9-4.9c-0.4-0.3-1-0.6-1.5-0.8c-1.3-0.5-2.6-0.5-3.7,0.6C159.6,300.9,159.4,301.1,159.1,301.3z"/>
<path class="st8" d="M320.9,306.6c0.1-1.6,0.1-1.6,0.8-2.6c0.4,0.1,0.9,0.2,1.4,0.3c9.2,2.8,18.5,5.5,27.7,8.4
	c2.4,0.8,4.8,1.8,7.1,2.8c1.5,0.6,3,1.3,4.5,1.9c0,1.1,0,1.1-0.6,2.4c-0.4-0.1-0.9-0.1-1.4-0.2c-5.8-1.7-11.5-3.5-17.3-5.2
	c-0.6-0.2-1.1-0.3-1.6-0.6c-3.2-1.6-6.7-2.4-10-3.5c-1.6-0.5-3.1-1.2-4.6-1.8c-1-0.4-2-0.7-3-1.1
	C322.9,307.2,321.9,306.9,320.9,306.6z"/>
<path class="st8" d="M330.2,132.9c-3.7,0.2-7.2-0.8-10.6-2.1c-1.4-0.5-2.2-1.7-2.7-3.1c-0.3-0.8-0.6-1.7-0.8-2.6
	c-0.7-3.1-0.1-5.9,2.1-8.3c1-1.1,2.5-1.5,3.8-1.4c3.4,0.2,6.9,0.4,10.2,1.5c2.3,0.7,4.2,1.9,5.9,3.5c1.5,1.4,1.9,4.3,1,6.2
	c-0.4,0.9-0.9,1.8-1.3,2.7c-1.1,2.4-3,3.7-5.7,3.6C331.5,132.9,330.9,132.9,330.2,132.9z M325.3,117.4c-0.9,0.1-1.8,0.2-2.7,0.1
	c-1.3-0.1-2.1,0.6-2.6,1.6c-1.1,2.3-2.1,4.7-1.5,7.4c0.2,1.1,0.8,1.8,1.9,2c2,0.5,4,1,6,1.5c2.3,0.6,4.6,0.4,6.9,0.5
	c1.6,0.1,2.3-0.3,2.8-1.8c0.5-1.3,0.9-2.7,1.2-4c0.4-1.8-0.3-3.5-1.9-4.4c-1.5-0.8-3.1-1.5-4.7-2.2
	C328.9,117.3,327.1,117.3,325.3,117.4z"/>
<path class="st8" d="M297.1,125.8c-3.3,0-6.6-0.2-9.7-1.3c-2.2-0.8-3.4-2.4-4.5-4.3c-0.2-0.4-0.2-1-0.1-1.4c0.6-2.7,1.7-5.2,3.5-7.3
	c1.6-1.8,3.6-2.9,6.1-2.9c2.7,0,5.5,0.1,8.1,0.9c1.5,0.5,3.1,1.2,4.5,1.9c1.3,0.7,2.1,1.9,2.1,3.4c0,1.6-0.1,3.1-0.6,4.6
	c-0.9,2.8-2.8,4.7-5.3,5.9c-0.7,0.3-1.3,0.6-2.1,0.4C298.4,125.7,297.8,125.8,297.1,125.8z M295.6,110c-1.7-0.2-3.3,0.2-4.8,0.5
	c-3.9,0.9-6.4,4.2-6,8.1c0.2,2,0.5,2.3,2.3,3c3.1,1.1,6.3,1.7,9.6,2.3c2.2,0.4,4.4-0.1,5.9-1.7c1.6-1.7,2.7-3.9,3.1-6.3
	c0.2-1-0.1-2-0.9-2.7c-0.5-0.5-1.1-1-1.8-1.3C300.5,111.1,298.1,110,295.6,110z"/>
<path class="st10" d="M293.4,386.7c0.9,0.2,1.6,0.3,2.3,0.5c4.1,1.2,8.2,2.3,12.4,3.5c1,0.3,2,0.6,3,1.4c-0.3,0.4-0.4,0.7-0.7,1
	c-1,0.7-2,1.4-3.1,2c-1.7,1-3.6,1.2-5.5,0.6c-1.3-0.4-2.5-0.7-3.8-1.1c-1.6-0.5-2.9-1.6-3.9-2.9
	C293.2,390.3,292.8,388.7,293.4,386.7z"/>
<path class="st4" d="M213.9,221c0.5-2,1-3.9,1.6-5.9c1.5-1.2,3.2-2.1,5-3c1.3-0.6,3.3,0,4.2,1.2c0.3,0.4,0.5,1,0.4,1.4
	c-0.4,1.5-0.6,3.1-1.5,4.4c-1.4,1.9-3.4,3.1-5.7,3.7C216.1,223.1,215.4,222.7,213.9,221z"/>
<path class="st11" d="M158.4,309.9c0.9,0.6,1,1.4,1.4,2.1c0.6,1.1,1.1,2.2,1.7,3.3c1.2,1.9,2.5,3.7,3.8,5.5c0.4,0.5,0.8,1.1,1.3,1.5
	c2.1,1.8,3.7,4,5.4,6.1c2.5,3,5.5,5.4,9.2,6.9c0.4,0.2,0.8,0.5,1.3,0.7c-0.5,0.7-1.1,0.6-1.6,0.5c-1-0.3-2.1-0.5-3.1-0.9
	c-0.9-0.4-1.8-0.9-2.5-1.5c-1.5-1.3-3-2.6-4.4-3.9c-0.2-0.2-0.5-0.5-0.7-0.7c-2.3-2.9-4.6-5.8-6.8-8.8c-2.1-2.9-4-6.1-4.7-9.7
	C158.4,310.7,158.4,310.3,158.4,309.9z"/>
<path class="st8" d="M340.4,130.7c0.1-1.6,0.7-2.9,1.1-4.4c1.5,0.1,2.9,0.1,4.2,0.2c0.7,0,1.5,0.1,2.2,0.1c0.8,0,1.4,0.2,2.1,0.9
	c-0.1,1.1,0,2.4-0.6,3.6c-1.5,0.6-3-0.3-4.6-0.2C343.4,130.9,341.9,130.8,340.4,130.7z"/>
<g>
	<path class="st7" d="M347.8,124.4c-2.1,0.2-4.1,0-6.1-0.3c-0.4-1-0.7-1.9-1-2.8c-1.1-2.9-3.3-4.5-6-5.5c-3.2-1.2-6.4-2-9.9-2
		c-2.7,0-5.2,0.4-7.4,2.1c-1,0.8-2.1,1.6-3.3,2.4c-1.4-0.3-3-0.7-4.5-1.1c-0.1-0.4-0.2-0.7-0.2-1c0.3-2.4-0.9-4.1-2.4-5.7
		c-1.1-1.2-2.4-1.8-4-2.3c-2.5-0.7-4.9-1.3-7.5-1.4c-1.1-0.1-2.3-0.2-3.3-0.3c-0.4-0.6-0.1-1,0.1-1.3c2.4-3.1,5.3-5.6,8.7-7.6
		c2.7-1.6,5.7-2.2,8.7-2.5c4-0.4,8.1-0.7,12.1,0.1c0.7,0.1,1.5,0.3,2.2,0.5c3.3,1,6.6,2,9.9,3c0.9,0.3,1.7,0.6,2.5,1.1
		c3.8,2.4,7.1,5.4,9.3,9.4c0.7,1.2,1.1,2.5,1.5,3.9c0.8,3.4,0.9,6.8,0.7,10.3C348,123.7,347.9,124,347.8,124.4z"/>
	<path class="st7" d="M331,135.4c0.7-0.2,1-0.3,1.3-0.3c1.2-0.1,2.5-0.4,3.7-0.4c0.6,0,1.1-0.2,1.5-0.6c0.8-0.9,1.8-1.1,2.9-1.1
		c2.4,0,4.8,0,7.2,0.6c0.1,0.6,0.2,1.2,0.2,1.7c-0.1,2.8-0.2,5.6-0.7,8.3c-0.4,2.5-1.2,4.9-1.9,7.4c-0.5,1.8-1.6,3.2-3.3,4.1
		c-0.7,0.4-1.4,0.3-2.1-0.1c-2.6-1.7-3.8-4.1-3.9-7c-0.1-1.5,0-3-0.1-4.4c-0.1-1.5-0.3-2.9-0.6-4.4c-0.3-1.6-1.3-2.8-2.9-3.3
		C331.8,135.9,331.6,135.7,331,135.4z"/>
	<path class="st7" d="M317.1,132c-6.1-0.8-11.7-2.9-17.9-3.1c0.8-0.9,1.7-0.8,2.5-1.2c0.8-0.4,1.6-0.8,2.4-1.3
		c0.7-0.5,1.3-1,1.9-1.6c0.6-0.6,1.1-1.4,1.8-2.2c1.8,0.5,3.8,0.4,5.7,0.9c0.7,3.9,0.7,3.9,3.4,7.6C316.9,131.3,317,131.4,317.1,132
		z"/>
	<path class="st7" d="M283.2,125.3c1.8,0.2,2.3,1.6,2.9,2.8c-0.7,2.1-1.3,4.1-2,6.1c-0.6,1.9-0.6,4.1-1.5,6c-1-0.9-1.4-1.9-1.4-3.1
		c0-2.6,0.3-5.1,0.8-7.6C282.4,128.1,282.8,126.7,283.2,125.3z"/>
</g>
<path class="st12" d="M331.9,321.8c-0.4-0.4-0.9-0.8-1.5-1.3c1.6-1.4,3.5-1.6,5.2-2.4c1.7-0.8,3.4-1.6,5.1-2.4
	c1.5,0.7,3.1,0.8,4.7,1.8C340.9,319,336.6,320.4,331.9,321.8z"/>
<path class="st11" d="M157.7,303.9c-0.5,1-0.9,2-1.4,3.2c-0.9-1.1-0.9-2.3-1.2-3.3c-0.2-1-0.4-2.1-0.6-3.1c-0.2-1.1-0.3-2.2-0.4-3.7
	c1.2,1.2,1.2,2.5,1.8,3.5C156.6,301.4,157.1,302.6,157.7,303.9z"/>
<path class="st8" d="M308.5,120.8c0.3-0.7,0.4-1.1,0.6-1.6c1.4,0,2.8,0.3,4,0.8c0.2,0.1,0.4,0.4,0.3,0.6c-0.1,0.2-0.4,0.6-0.6,0.6
	C311.5,121.1,310.1,121.1,308.5,120.8z"/>
<path class="st13" d="M297.2,163.8c0.7,0.8,1.1,1.5,1.7,1.9c0.6,0.5,1.4,0.8,2.1,1.2c4,2.5,7.9,1.7,11.8-0.1
	c1.4-0.6,2.7-1.5,4.1-2.3c0.3-0.2,0.7-0.3,1.3-0.6c-0.7,2.9-1.6,5.4-3.2,7.5c-1.5,2.1-3.7,3.2-6.2,3.9c-0.2,0.1-0.5,0.1-0.7,0.1
	c-3.6-0.3-6.8-1.3-8.8-4.6c-0.8-1.3-1.5-2.7-2.2-4.1c-0.2-0.5-0.3-1.1-0.3-1.7C296.9,164.8,297.1,164.4,297.2,163.8z"/>
<path class="st11" d="M318.5,161.2c-0.4,0.4-0.5,0.8-0.8,1c-2,1.2-3.9,2.4-6,3.5c-1.8,0.9-3.7,1.3-5.7,1.4c-0.6,0-1.2-0.1-1.7-0.3
	c-1.1-0.4-2.1-1-3.1-1.5c0.1-0.7,0.7-0.6,1-0.5c2.8,0.4,5.4-0.4,8-1.2c2.4-0.8,4.9-1.5,7.3-2.3C317.7,161.1,317.9,161.2,318.5,161.2
	z"/>
<path class="st6" d="M334.7,122.7c0.5,1.5,0.3,2.6-0.1,3.7c-0.4,1.2-1.3,1.9-2.6,2c-1.1,0-2.1,0-3.2-0.1c-2.1-0.1-4.1-0.4-6-1.1
	c-0.4-0.2-0.8-0.3-1.1-0.5c-1-0.6-1.4-1.4-1.2-2.5c0.2-0.9,0.5-1.7,0.7-2.6c0.2-1.3,1-2,2.3-2.1c2.4-0.2,4.8-0.2,7,0.8
	C332,120.9,333.3,121.8,334.7,122.7z"/>
<path class="st6" d="M297.8,121.8c-0.3,0-0.5,0-0.7,0c-3.1-0.7-6.3-1-9.3-2.2c-0.7-0.3-1-0.8-1.1-1.5c-0.1-0.9,0.1-1.9,0.6-2.6
	c1-1.6,2.2-2.9,4.3-3.3c3.7-0.7,7,0.2,10.3,1.5c0.2,0.1,0.4,0.2,0.6,0.4c0.9,0.6,1.1,1.1,0.9,2.1c-0.2,0.6-0.4,1.2-0.7,1.8
	c-0.2,0.4-0.5,0.7-0.6,1C301.4,120.9,300.5,121.5,297.8,121.8z"/>
<g>
	<path class="st14" d="M418,394.6c2.9-1.2,5.2-3.1,5.3-6.2c0.1-3.5-3.9-5.8-6.8-6.3c-2.1-0.4-4.2-0.2-6.4,0.1
		c2.1-3.1,3.5-6.6,1.2-9.7c-3.1-4.2-8.6-3.9-13.3-2.9c-5.7,1.2-9.7,6.2-9.8,11.9c0,0.9,0.2,2,0.6,2.9c0,0,0,0-0.1,0
		c-5.1,0.1-10.4,0.5-15.5,0c-3.9-0.4-7.7-1.3-11.6,0.1c-1.9,0.7-1.2,3.6,0.8,3.1c2-0.5,4.1-0.4,6.1-0.1c-1.7,0-3.3,0-5,0
		c-2.9,0-2.8,4.4,0,4.4c5,0,10,0.4,15,0.8c3.1,0.2,6.3,0.7,9.5,0.8c0.2,3.4,2.3,7.5,4,9.5c4.3,5.2,12.6,6.4,19,6.8
		c4.6,0.3,13-0.1,13.7-6.2C425.5,398.5,422,396.2,418,394.6z"/>
	<path class="st14" d="M483,302.3c-12-1.6-24.3-0.6-36.4-0.2c-12.8,0.4-25.7,0.5-38.4,1.4c-1.9,0.1-1.9,2.8,0,3
		c12.1,0.8,24.3,0.2,36.4-0.1c12.8-0.4,25.7,0,38.4-1.7C484.6,304.4,484.6,302.4,483,302.3z"/>
	<path class="st14" d="M493.6,322.8c-10-4.2-23.1-2.7-33.7-2.6c-6.1,0.1-12.1,0.1-18.2,0.1c-4.4,0-9.9-0.8-14.1,0.9
		c-1.9,0.8-1.2,3.8,0.9,3.1c4.5-1.3,10.5-0.1,15.2-0.1c5.4,0,10.8,0.1,16.2,0.1c5.5,0,11,0,16.5,0.1c5.5,0.2,11.1,1.2,16.5,0.6
		C494,325,494.9,323.3,493.6,322.8z"/>
	<path class="st14" d="M479.2,339.9c-7-2.8-14.6-2.5-22-2.5c-8.6,0-17.1,0-25.7,0c-8.7,0-17.4,0.1-26.2-0.1
		c-5.8-0.1-13.9-1.8-19.4,0.7c-1.7,0.8-0.5,3.7,1.3,3c2.4-0.9,5.4-0.3,7.9-0.2c4.1,0.2,8.1,0.4,12.2,0.5c8,0.2,16.1,0.2,24.1,0.2
		c15.7,0,31.7-0.8,47.4,0.7C480.4,342.5,480.4,340.4,479.2,339.9z"/>
	<path class="st14" d="M488.1,356.1c-12.1-2.2-25.3-0.9-37.5-0.8c-6.4,0-12.8-0.3-19.3-0.7c-4.3-0.2-10-1.2-13.9,0.8
		c-1.6,0.8-0.5,3.4,1.2,2.8c4.8-1.5,11.5,0,16.5,0.3c5.9,0.4,11.7,0.7,17.6,0.7c11.6,0.1,24,1.2,35.4-0.8
		C489.3,358.3,489.3,356.4,488.1,356.1z"/>
	<path class="st14" d="M479.9,368.7c-9.6-0.4-20.1,1.5-29.6-0.2c-4.6-0.8-11.6-2.9-15.7,0c-1.7,1.2-0.2,3.6,1.6,2.7
		c4.9-2.3,13,1,18.3,1.1c8.6,0.3,17.2-0.1,25.7-1.4C481.6,370.8,481.2,368.7,479.9,368.7z"/>
</g>
<path class="st14" d="M437.3,74.5c-2.3-5.7-11.9-8.1-17.7-5.3c-1.3-5.5-5.8-10.7-11.6-10c-5.8,0.8-7.1,7.8-6.6,13.1
	c-4,0-9.2,0-12.1,2.7c-3.2,3-1.6,7.6,1.7,9.8c3.2,2.2,12.8,4.9,17.9,2.7c0.2,0.2,0.5,0.4,0.7,0.6c4.6,3.5,11.2,2.1,13.7-2.8
	C429.8,85.4,440.7,82.5,437.3,74.5z"/>
<path class="st14" d="M127.3,52.9c-4-2.5-9.1-2.6-13.5-1c-0.6-4.1-5.3-7.2-10-7.2c-7.3,0-10,7.9-7.4,13.6c-4.1-1.1-8.9-0.2-12.2,2.3
	c-3.6,2.7-5.3,9.3-2.1,12.9c2.5,2.8,10.3,4.3,14.6,2.3c1.7,1.4,3.7,2.5,5.1,3.1c3.9,1.5,8.3-0.4,10.5-3.6c7.7,5,26.1-1.7,16.2-11.8
	C131.2,60.4,131.5,55.5,127.3,52.9z"/>
<path class="st14" d="M182.5,95c-2.1-0.4-4.7,0-6.7,1.1c-3.1-5.6-15.5-3.4-15.2,3.9c-0.6,0-1.3,0.1-1.8,0.1c-0.9,0.1-2,0.2-2.9,0.5
	c-6.9-0.1-13.1,5.8-7,12.6c4.8,5.3,15.9,4.6,21.8,0.2c2.8,1.4,6.4,1.6,9.2,1.1c6-1.1,7.5-3.6,7.5-9.4c0-2.2,1-4.1,0.4-6.2
	C187.2,96.6,184.4,95.3,182.5,95z"/>
<path class="st15" d="M315.1,98.3c-0.5,0.3-0.5,1.1,0,1.4c3.5,1.9,8.9,1.8,12.8,2.8c2.6,0.6,5.1,1.6,7.4,2.9c2.5,1.4,3,3.2,4.5,5.3
	c0.5,0.7,1.8,0.9,2.3,0C347.2,101.2,320.7,95.4,315.1,98.3z"/>
<path class="st15" d="M344.5,116.4c-0.1-0.3-0.2-0.6-0.2-0.9c0-0.1,0-0.2-0.1-0.4c0,0,0-0.1,0-0.1c-0.1-0.9-0.7-1.7-1.7-1.7
	c-1,0-1.6,0.8-1.7,1.7c-0.1,1,0,2.3,0.8,3C343,119.2,344.9,118.1,344.5,116.4z"/>
<path class="st15" d="M398.6,250.4c-0.9-3-4.1-4-6.6-5.5c-4.1-2.5-8.5-4.1-13-5.6c-4.7-1.6-9.5-2.9-14.3-4.2
	c-5.1-1.4-10.7-1.7-15.6-3.9c-1.3-0.6-2.5,1.2-1.1,2c3.4,1.9,6.9,2.8,10.7,3.6c5.4,1.2,10.7,3,16,4.6c4.9,1.5,9.7,3.2,14.3,5.7
	c2.9,1.6,5.9,4.8,9.4,4.2C398.5,251,398.7,250.7,398.6,250.4z"/>
<path class="st15" d="M404.6,254.5c-0.1-0.1-0.3-0.2-0.4-0.3c0,0,0,0,0,0c0,0,0,0-0.1-0.1c0.3,0.3-0.4-0.6-0.2-0.2
	c-0.4-0.6-1.5-0.8-1.9,0c-0.3,0.7-0.3,1.4,0.2,2c0.6,0.8,1.7,1.4,2.7,0.8c0.2-0.2,0.5-0.4,0.4-0.7
	C405.4,255.5,405.1,254.9,404.6,254.5z"/>
<path class="st16" d="M175,169.5C175,169.5,175,169.6,175,169.5C175.1,169.6,175.1,169.5,175,169.5z"/>
<path class="st16" d="M180.2,164.8c-0.8-0.7-2.2,0.2-1.5,1.2c0.9,1.3-3.7,8-4.6,9.3c-1.8,2.7-5.2,5.8-6,8.9c-0.1,0.5,0.1,1,0.6,1.1
	c3.8,1,7.5-6.5,8.9-8.9C179.2,173.9,183.3,167.5,180.2,164.8z"/>
<path class="st16" d="M168.1,187C168.1,187,168.1,187,168.1,187c-0.3-0.3-0.8-0.3-1.1,0c0,0,0,0,0,0c-0.8,0.5-0.5,2,0.6,2
	C168.6,189,168.9,187.5,168.1,187z"/>
<path class="st17" d="M203.6,179.7c-1.9-1.5-5.8-6.3-8.6-5.1c-1,0.4-0.4,1.9,0.5,1.9c-1,0,0.9,1.3,1.4,1.8c1.2,1.2,2.5,2.4,3.7,3.5
	c1.6,1.5,2.8,3.1,3.7,5c1.1,2.1,1,4.6,2.3,6.6c0.4,0.6,1.3,0.7,1.7,0C210.8,189.2,207.1,182.5,203.6,179.7z"/>
<path class="st17" d="M209,196c-1.3,0-1.3,2,0,2C210.3,198,210.3,196,209,196z"/>
<path class="st17" d="M172.5,218.1c-8.7,5.2-16.9,11-24.9,17.4c-3.6,2.9-7,6.1-10.3,9.3c-2.7,2.6-5.7,4.1-6.7,8
	c-0.2,0.9,1,1.7,1.6,0.9c2.2-2.5,5-4.4,7.5-6.5c3.6-2.8,6.8-6.4,10.3-9.4c7.5-6.3,15.2-12.7,23.5-18
	C174.7,219.2,173.7,217.4,172.5,218.1z"/>
<path class="st17" d="M131.5,257.5c0-0.8-0.6-1.4-1.4-1.4c-0.8,0-1.4,0.6-1.4,1.4c0,0.4,0,0.8-0.1,1.1c0,0-0.1,0.3-0.1,0.3
	c-0.1,0.3-0.1,0.5-0.2,0.8c-0.1,1.3,1.6,1.8,2.4,1C131.6,259.9,131.5,258.6,131.5,257.5z"/>
<path class="st17" d="M119.8,271.7c-6.1-2.5-12.2-2.9-18.7-2c-3.2,0.5-6.2,1.6-9,3.2c-3.1,1.8-5.8,4.5-9.4,5.2
	c-1.7,0.4-0.9,2.8,0.7,2.5c5.7-1,9.7-5.6,15.2-7.2c6.7-2,14.2-1.1,21-0.2C120.5,273.5,120.5,272,119.8,271.7z"/>
<path class="st17" d="M125,273.4c-0.5-0.4-1.2-0.4-1.8-0.3c-0.5,0.1-0.9,0.3-1.2,0.7c-0.4,0.3-0.4,1,0,1.3c0.2,0.4,0.6,0.6,1.1,0.7
	c0.6,0.2,1.4,0.1,1.9-0.3C125.8,275,125.8,274.1,125,273.4z"/>
<path class="st17" d="M167.1,345.5c-4.5-4.1-8.9-7.2-12.3-12.4c-3.2-4.9-5.4-10.6-6.6-16.3c-0.2-0.9-1.5-0.5-1.4,0.4
	c1.8,10.5,7.1,27.3,19.5,29.6C167.1,346.9,167.8,346,167.1,345.5z"/>
<path class="st17" d="M218.1,360.1c-6.3-2.3-13.1-3.4-19.7-4.7c-6-1.3-12.2-3.4-18.4-3.2c-0.4,0-0.5,0.6-0.1,0.7
	c12.5,3.5,25.2,6.4,38.1,8.1C218.5,361,218.5,360.3,218.1,360.1z"/>
<path class="st17" d="M340.4,335.8c-6.1-9.4-17.2-13-25.1-20.6c-0.4-0.4-1,0.2-0.6,0.6c6.9,8.5,17.3,12.9,25,20.5
	C340.1,336.7,340.7,336.2,340.4,335.8z"/>
<path class="st17" d="M347.9,361.8c-2.1-9.8-13.2-17.4-21.6-21.6c-9.9-4.9-21.2-6.8-31.9-3.9c-0.3,0.1-0.2,0.5,0.1,0.5
	c10.4-0.5,20.8,1.5,30.2,6.1c4.5,2.2,8.5,5.1,12.2,8.5c3.7,3.4,6.1,7.7,9.5,11.3C347,363.4,348.1,362.6,347.9,361.8z"/>
<path class="st17" d="M351.3,371.5c-0.2-1.3-0.5-2.7-1-3.9c-0.3-0.7-1.3-0.4-1.5,0.2c-0.5,1.2-0.4,2.4-0.3,3.7
	c0.1,1,0.1,2.3,1.1,2.8c0.3,0.2,0.6,0.2,0.9,0C351.5,373.7,351.4,372.5,351.3,371.5z"/>
<path class="st17" d="M267.5,352C267.5,352,267.5,352.1,267.5,352C267.6,352.1,267.6,352,267.5,352z"/>
<path class="st17" d="M281.4,336.4c-2.9,0.6-5.4,2.2-7.8,3.9c-2.2,1.5-4.3,3.5-4.7,6.2c-0.2,1.3,2,1.5,2.3,0.3
	c1.2-4.8,7.7-6.1,10.8-9.4C282.4,337,282,336.3,281.4,336.4z"/>
<g>
	<path class="st18" d="M260.5,378.6c-0.8-0.3-1.4-0.5-1.9-0.6c-1.3-0.3-2.5-1-3.4-1.9c-0.6-0.5-1.3-0.8-2-0.6c-1,0.2-2,0.4-2.9,0.7
		c-2.5,0.9-4.9,1.8-7.4,2.8c-2.4,1-4.9,1.3-7.5,1c-4.1-0.4-8.2-1.1-12.1-2.3c-4-1.3-8.1-2.4-12.1-3.7c-1.6-0.5-3.2-1.3-4.8-2
		c-0.7-0.3-1.3-0.7-2-0.9c-5.8-2.1-11.7-4-17.6-5.8c-1.9-0.6-3.8-1.1-5.7-1.7c-1.2-0.4-2.4-1-3.7-1.4c-1.9-0.7-3.8-1.2-5.6-1.9
		c-1.2-0.4-2.5-0.9-3.7-1.4c-1.4-0.5-2.8-1.1-4.2-1.6c-2.1-0.6-4-1.6-5.7-2.9c-2-1.6-4.1-3.1-6.1-4.7c-1.3-1.1-2.4-2.3-3.4-3.5
		c-0.7-0.8-1.4-1.1-2.4-0.8c-0.6,0.1-1.1,0.4-1.4,1c-0.2,0.4-0.5,0.9-0.7,1.3c-1.8,4.7-4.5,8.7-8.2,12.1c-2.3,2.1-4.9,3.6-7.4,5.3
		c-0.7,0.5-1.7,0.8-2.5,1c-2.1,0.3-3.9,1.2-5.9,1.8c-2,0.6-4,1-6.1,0.9c-1.6-0.1-3.3,0-5,0c-1.9,0-3.8-0.2-5.7-0.6
		c-1-0.2-2-0.3-3-0.3c-2.6,0-5-0.7-7.3-2.1c-0.1,0-0.1-0.1-0.2-0.1c-4.1-1.5-7.6-3.9-11.1-6.3c-2.2-1.5-4.3-3.1-5.8-5.3
		c-0.3-0.4-0.7-0.7-1.1-1c-1.5-1.3-2.8-2.8-3.8-4.5c-0.3-0.5-0.7-0.9-1.1-1.4c-1.5-1.6-2.5-3.5-3.1-5.6c-0.7-2.6-1.6-5.2-2.5-7.8
		c-0.4-1.3-0.7-2.7-0.7-4.1c0-0.2,0-0.3,0-0.5c-0.4-4.1,0.4-8,1.7-11.9c0.7-2,1.3-3.9,2-5.9c0.8-2.3,1.9-4.4,3.4-6.3
		c2.4-2.9,5-5.5,8.1-7.6c2.3-1.6,4.7-3,7.1-4.6c-0.1-0.8-0.9-0.6-1.3-0.9c-0.5-0.3-1-0.6-1.5-0.8c-0.8-0.4-1.6-0.9-2.5-1.1
		c-2.5-0.8-4.1-2.7-5.9-4.4c-0.3-0.3-0.5-0.8-0.8-1.3c1.1-3.2,3.2-5.6,5.6-7.8c3.1-2.8,6.4-5.1,10.1-7.1c2.7-1.4,5.5-2.2,8.4-2.8
		c2.2-0.5,4.3-1.1,6.6-1.3c2.4-0.3,4.8-0.7,7.3-0.4c2.8,0.3,5.6,0.6,8.3,1.1c0.3,0,0.6,0,1.1,0c-0.1-0.6-0.2-1.1-0.2-1.5
		c-0.1-0.9-0.3-1.8-0.1-2.7c0.2-1,1-1.9,1.2-2.9c0.2-1.1,0.6-1.8,1.2-2.6c1.7-2.4,3.3-4.7,4.9-7.1c0.9-1.3,1.6-2.7,2.6-3.9
		c1.3-1.6,2.8-3,4.3-4.4c6-5.7,12.8-10.4,19.1-15.8c3.6-3.1,7.1-6.1,10.7-9.3c2.1-1.9,4.3-3.5,6.6-5.2c2.9-2.1,5.9-3.9,8.9-5.8
		c0.2-0.1,0.4-0.3,0.6-0.5c0,0,0-0.1,0.1-0.4c-0.5-0.5-1.2-0.6-1.9-0.9c-0.6-0.3-1.2-0.6-1.8-0.9c-1.7-0.7-3.4-1.3-5-2.1
		c-1.8-0.9-3.5-1.9-5.2-2.9c-0.3-0.2-0.6-0.4-0.7-0.6c-0.7-1.1-1.8-1.7-2.8-2.4c-1.4-0.9-2.3-2.1-2.5-3.8c-0.1-0.8-0.5-1.6-0.9-2.3
		c-0.6-1.2-0.7-2.5-0.6-3.8c0.3-3,1.1-5.8,2.2-8.6c1.1-2.7,2.5-5.4,4.3-7.8c0.3-0.5,0.8-0.9,1.2-1.2c0.8-0.7,1.6-1.4,2.4-2.1
		c0.2-0.2,0.5-0.5,0.8-0.6c1.9-1,3.8-2,5.7-2.9c0.6-0.3,1.3-0.3,1.9-0.4c1.4-0.1,2.8-0.4,3.9-1.3c3.6,0.6,6.4,2.3,8.5,5.2
		c0.5,0.7,1.1,1.3,1.7,1.7c1.3,1,2.7,1.9,4,2.9c2.2,1.6,4.4,3.2,6.5,4.9c1.9,1.5,3.3,3.4,4.7,5.4c1.1,1.6,2.2,3.1,3.3,4.6
		c1.5,2.2,2.9,4.4,3.6,7c0.1,0.6,0.3,1.1,0.6,1.6c1.2,2.5,1.7,2.4,3.6,1.9c1.4-0.4,2.8-0.3,4.1,0.2c2,0.7,4.1,1.3,6.1,1.9
		c1.6,0.5,3,1.3,3.9,2.9c0,0.1,0.1,0.1,0.1,0.2c1,1.4,2.3,2.7,3,4.2c0.7,1.4,1,3.1,1.4,4.7c0.1,0.2,0.2,0.5,0.2,0.7
		c-0.1,1.5,0.6,2.9,1,4.3c0.3,1,0.9,1.7,1.8,2.3c5,3.7,10.6,6.4,16.3,8.9c1.2,0.5,2.5,0.9,3.6,1.6c1.2,0.8,2.5,0.9,3.8,0.4
		c1.9-0.6,3.7-1.3,5.2-2.7c0.6-0.6,1.3-1,2.1-1.6c-0.3-2.2,1-3.9,1.9-5.6c3-5.7,6.1-11.3,9.3-16.9c1.2-2.2,2.7-4.4,4-6.5
		c0.5-0.8,0.9-1.5,1.3-2.2c-0.5-0.9-1.3-1-2-1.3c-2-0.9-4-1.7-5.9-2.6c-1.8-0.9-3.4-2-4.9-3.3c-1.5-1.3-3.1-2.4-4.7-3.7
		c-1.4-1.1-2.9-2.2-4.2-3.4c-1.4-1.2-1.5-2.3-0.5-3.9c0.3-0.5,0.7-0.9,1.1-1.4c0.4-0.4,0.8-0.9,1.2-1.4c-0.3-0.4-0.5-0.8-0.8-1.2
		c-1.8-2.5-3.7-5-5.5-7.6c-0.8-1.1-1.4-2.4-2.1-3.7c-3.2-5.9-6.6-11.7-9.6-17.6c-2.6-5.1-5.4-10-8.3-14.9c-1.8-3.1-3.3-6.4-5-9.7
		c-1.1-2.1-2.2-4.2-3.3-6.1c-0.4-0.2-0.5-0.3-0.6-0.3c-3-0.3-5.1-2-7.1-4.1c-2.7-2.7-3.4-5.9-2.8-9.5c0-0.1,0-0.2-0.1-0.4
		c-0.9-0.4-1.9-1-2.9-1.5c-2.3-1.1-3.8-2.9-5-5c-0.8-1.4-0.4-4.3,0.7-5.3c0.3-0.3,0.7-0.4,1.1-0.4c0.6,0,1.1,0.1,1.7,0.3
		c0.5,0.1,0.9,0.2,1.7,0.4c-0.3-1-0.5-1.7-0.7-2.3c-0.9-2.5-0.8-5-0.5-7.6c0.2-1.2,0.8-1.7,2-1.8c1-0.1,2,0.1,2.8,0.7
		c1.5,1.1,3,2.1,4,3.7c0.2,0.3,0.4,0.4,0.8,0.7c0.5-1.4,0.4-2.8,0.4-4.1c0-1.7,0.4-3.3,1.1-4.8c0.3-0.6,0.6-1.2,1-1.7
		c1.2-1.5,3.3-1.2,4,0.5c0.6,1.6,1.1,3.3,1.5,5c0.4,1.8,0.5,3.6,0.8,5.4c0.1,0.5,0.2,0.9,0.5,1.4c0.3-2.8,0.9-5.4,1.8-8
		c0.6-1.9,1.5-3.7,2.6-5.3c0.2-0.3,0.5-0.7,0.8-1c0.9-0.9,2-0.9,2.7,0.2c0.4,0.5,0.7,1.2,0.8,1.8c0.3,1,0.4,2.1,0.5,3.2
		c0.3,4.6,0.2,9.2-0.1,13.9c-0.1,1-0.4,1.9-0.6,2.9c-0.2,0.7-0.4,1.4-0.6,2.1c0.8,0.4,1.2,0.1,1.5-0.5c1-1.4,2-2.8,3-4.3
		c1.3-1.9,3.3-2.7,5.5-2.8c1,0,2,0.2,2.9,0.5c1,0.3,1.3,1,1.1,1.9c-0.6,2.3-1.2,4.6-2.9,6.4c-2,2.2-3.8,4.6-5.8,6.8
		c-2.8,3.1-3.3,6.7-2.9,10.6c0,0.2,0.1,0.5,0.2,0.7c1.4,2.9,2.4,5.9,4.2,8.7c2.6,4,5,8.2,7.5,12.3c0.3,0.6,0.7,1.1,1.1,1.7
		c2.5,3.4,4.6,7.1,6.6,10.8c2.8,5.2,6.2,9.9,10,14.5c0.6,0.7,1.1,1.6,2.4,1.5c0.3,0,0.7,0.4,1,0.7c0.3,0.3,0.6,0.7,1.2,1.4
		c-0.1-3-0.4-5.5-0.3-8.1c0-2.5,0.4-5.1,0.6-7.5c-0.7-0.8-1.5-1.5-2-2.3c-1.4-1.8-1.5-3.9-1.3-6.1c0.3-3.2,0.8-6.4,2-9.4
		c0.3-0.8,0.5-1.6,0.8-2.4c-0.4-0.8-0.8-1.6-1.2-2.4c-0.4-0.7-0.4-1.4-0.3-2.2c0.8-3.3,2.1-6.4,4.5-9c0.2-0.2,0.3-0.4,0.5-0.5
		c2.4-1.2,3.6-3.6,5.1-5.6c2.7-3.5,5.9-6.3,9.8-8.5c2.7-1.5,5.5-2.1,8.5-2.5c2.5-0.3,4.9-0.3,7.4-0.5c3.1-0.2,6.1,0.3,9,1.2
		c3.1,0.9,6.2,1.9,9.2,2.8c1.4,0.4,2.8,1.1,4,1.9c3.8,2.6,7.1,5.6,9.4,9.7c0.9,1.5,1.6,3.1,1.8,4.8c0,0.1,0,0.2,0,0.2
		c1.2,3.5,0.9,7.2,0.8,10.8c0,0.4,0,0.8,0,1.3c0.3,0.3,0.7,0.6,1.1,1c0.6,0.6,0.9,1.3,0.7,2.2c-0.3,1.7-0.3,3.4-1.2,5
		c-0.3,0.5-0.3,1.3-0.4,1.9c-0.3,2.1-0.8,4.2-1,6.4c-0.2,2.1-0.5,4.1-1.1,6.1c-0.5,1.6-1,3.1-1.5,4.7c-0.6,2.3-2.1,3.9-4.1,5.1
		c-1.2,0.8-2.6,1.1-4,0.3c-0.3-0.1-0.6-0.2-1-0.4c-0.2,0.5-0.4,0.9-0.6,1.3c-1.2,2.7-2.3,5.5-3.5,8.2c-0.8,1.8-1.9,3.3-3.3,4.6
		c-2.1,2-4.1,4-6.2,6c-2.4,2.2-5.2,3.8-8.2,5c-0.5,0.2-1,0.4-1.7,0.8c0.5,0.4,0.9,0.6,1.2,0.8c0.5,0.4,1.1,0.8,1.5,1.3
		c1.5,2.1,2.7,4.4,3,7c0.3,2.9,0.3,5.8,0.3,8.7c0.1,4.2-0.7,8.4-1.4,12.5c-1.4,8.2-4.3,15.9-6.4,23.9c-1.3,4.9-3.8,9.1-6.2,13.4
		c-2,3.6-4.4,6.9-7,10.2c-0.2,0.3-0.4,0.5-0.6,0.9c0.3,0.7,0.5,1.4,0.8,2.1c0.4,1.1-0.1,2-1.2,2.3c-0.4,0.1-0.8,0.1-1.2,0.1
		c-0.3,0-0.7,0.1-1,0.1c-0.8,1.1-1.6,2.3-3.2,2.5c-0.3,0-0.6,0.5-0.8,0.9c-0.4,0.7-0.7,1.5-1,2.3c-1,2.1-2.2,3.9-4.1,5.2
		c-0.2,0.1-0.3,0.4-0.5,0.5c0,0.6,0.5,0.7,0.8,0.8c1.5,0.3,3.1,0.6,4.6,0.9c1,0.2,2.1,0.2,2.9,1.2c0.3,0.4,1,0.4,1.6,0.6
		c2.6,0.8,5.2,1.7,7.8,2.3c2.2,0.5,3.9,1.6,5.4,3.3c0.1,0.1,0.3,0.2,0.5,0.3c0.8-0.8,0.9-1.9,1.1-2.9c0.5-2.5,0.9-5,1.4-7.5
		c1.4-7.6,4.1-14.8,6.2-22.1c0.7-2.4,1.2-4.8,1.9-7.2c0.6-2.1,1.3-4.3,1.9-6.4c0.3-1,0.5-2,0.5-3.1c-0.1-2.4,0.2-4.8,0.9-7.1
		c0.3-1.2,0.5-2.4,0.9-4c0.7-1.1,2.2-1.8,3.8-2.2c2.6-0.6,5.2-0.7,7.8-0.1c2.5,0.6,5,1,7.5,1.5c1.5,0.3,3.1,0.7,4.6,1.1
		c2.6,0.6,5.1,1.3,7.7,1.9c2,0.5,4,1,6,1.6c5.9,1.8,11.9,3.6,17.8,5.4c0.9,0.3,1.9,0.5,2.8,0.9c2.5,1.3,5.2,2,7.9,2.8
		c2.8,0.9,5.4,2.1,7.9,3.5c1,0.6,2.1,1.1,3,1.7c2.3,1.5,4.6,3.1,6.9,4.7c0.9,0.6,1.3,1.4,1.4,2.5c0.1,3.7-0.2,7.3-2.4,10.4
		c-1.1,1.6-2.3,3.2-4.6,3.2c-0.7,4.9-1.8,9.7-3.1,14.3c-1.6,5.6-3.7,11.1-5.9,16.5c-0.4,1-0.7,2-1.1,3c-0.6,1.5-1.2,3.1-1.7,4.6
		c-0.8,2.3-1.4,4.6-2.1,6.9c-0.7,2.5-1.3,4.9-2,7.4c-0.3,1.4-1.3,2.1-2.6,2.4c-1.7,0.4-3.5,0.3-5.1-0.1c-2.1-0.6-4.1-1.1-6.3-1.4
		c-2-0.3-4-1.1-5.9-1.7c-0.7-0.2-1.4-0.5-2.2-0.9c-0.2,0.5-0.4,0.9-0.6,1.3c-0.2,0.6-0.4,1.3-0.6,1.9c-0.6,1.7-1.4,2.2-3.2,1.8
		c-0.9-0.2-1.8-0.5-2.6-0.7c-1.3-0.4-2.7-0.7-4-1.3c-3.1-1.4-6.1-1-9.2-0.1c-3.3,1-6.6,2.1-9.9,3.2c-0.2,0.1-0.4,0.2-0.7,0.4
		c1,1.4,2.1,2.6,3.4,3.5c2.6,1.9,4.8,4.3,6.6,7c1.1,1.6,2,3.2,2.9,4.9c1.5,3.1,2.9,6.3,4.3,9.5c0.4,0.9,0.5,1.9,0.7,2.9
		c0.8,3.1,1.9,6.2,2.5,9.3c0.7,4,1.8,7.9,1.7,12c0,2.6,0.2,5.1,0,7.7c-0.2,2.2-0.5,4.4-1.2,6.6c-0.2,0.5-0.4,1.1-0.4,1.7
		c-0.2,3-1.4,5.8-2.1,8.6c-0.3,1.3-1,2.4-2.1,3.3c-0.6,0.4-0.9,0.9-1.1,1.6c-0.7,2-1.8,3.9-3.1,5.6c-1.6,2.2-2.9,4.6-4.9,6.5
		c-1.2,1.2-2.4,2.5-3.8,3.6c-2.3,1.9-4.7,3.6-6.9,5.7c-0.8,0.8-2,1.4-3.1,1.9c-3.8,1.8-7.9,2.9-12.1,3.5c-5,0.8-10.1,0.7-15.1,0.1
		c-2.8-0.4-5.5-1.2-8.1-2.3c-2.2-0.9-4.4-1.9-6.5-3c-3.5-1.8-6.6-4-9.8-6.3c-3.2-2.2-5.7-5-8.2-7.9c-1.6-1.9-3-3.9-3.8-6.3
		c-0.9-2.8-1.9-5.4-2.7-8.2c-0.6-2.1-0.8-4.2-1.3-6.3c-0.6-2.5-0.7-4.9-0.1-7.4C260.5,380.4,260.4,379.6,260.5,378.6z M252.9,293.3
		c-0.9,0.4-1.2,1-1.3,1.8c-0.1,0.9-0.1,1.8-0.2,2.7c-0.2,2.5-0.4,4.9-0.8,7.4c-1.1,6.4-3.1,12.5-5.7,18.4c-1.2,2.7-2.7,5.3-4.1,7.9
		c-1.8,3.3-3.4,6.8-4.9,10.2c-1.3,2.9-3.1,5.4-5.3,7.7c-1,1-1.9,2.1-2.9,3.1c-0.6,0.6-1.3,1.3-2,1.8c-0.8,0.6-1.7,1.1-2.4,1.7
		c-0.9,0.7-1.8,1-3,1c-1.6-0.1-3.1-0.2-4.7-0.1c-3.2,0-6.4-0.2-9.6-1.1c-0.4-0.1-0.8-0.1-1.2-0.2c-3.4-0.7-6.8-1.2-10.2-2.1
		c-3-0.8-6.1-1.4-9.2-2.1c-3.4-0.7-6.7-1.6-10.1-2.6c-2.2-0.6-4.2-1.6-5.9-3c-0.8-0.6-1.6-1.2-2.4-1.7c-1.2-0.7-2.1-1.6-2.6-2.9
		c-0.4-0.9-0.9-1.6-1.6-2.2c-0.4-0.3-0.6-0.8-0.9-1.2c-1.2-1.6-2.3-3.2-3.5-4.8c-0.2-0.3-0.6-0.6-0.8-1c-1.5-2.4-2.4-5.2-4.2-7.5
		c-0.1-0.2-0.2-0.5-0.2-0.7c-0.8-2.7-1.5-5.4-2.5-8c-1-2.8-1.7-5.7-2.2-8.6c-0.8-5.3-1.7-10.6-1.7-16c0-4.2,0.4-8.2,1.7-12.2
		c0.4-1.2,0.8-2.5,1.1-3.8c0.9-4,2.6-7.6,4.9-11c1.3-1.8,2.5-3.7,3.8-5.5c0.8-1.2,1.5-2.6,2.4-3.7c2.3-3.1,4.7-6.2,7.1-9.2
		c1.3-1.6,2.7-3.2,4.1-4.7c1.4-1.4,2.9-2.7,4.3-4.1c2.7-2.9,5.5-5.8,8.1-8.7c2.5-2.7,5.2-5.3,8.1-7.6c2.3-1.8,4.5-3.6,6.7-5.4
		c0.8-0.7,1.6-1.4,2.4-2.2c1.2-1.4,1.1-2-0.4-2.9c-0.8-0.4-1.6-0.8-2.5-1.1c-3.8-1.2-7.6-2.3-11.4-3.4c-0.8-0.3-1.6-0.2-2.4,0.1
		c-0.8,0.3-1.5,0.6-2.3,1c-2.8,1.7-5.8,3.2-8.2,5.5c-0.2,0.2-0.5,0.4-0.8,0.6c-2.1,1.2-3.9,2.8-5.7,4.4c-1,0.9-2,1.7-3,2.5
		c-1.2,1-2.5,1.9-3.7,2.9c-3.6,3-7.2,6-10.9,9c-4.4,3.6-8.9,7.1-13.1,10.9c-3.1,2.9-5.9,6-8.3,9.5c-1.7,2.5-3.1,5.3-4.8,7.8
		c-1.2,1.8-1.2,3.7-0.6,5.7c0.2,0.8,0.5,1.3,1.3,1.7c1.3,0.6,2.3,1.5,3,2.8c0.3,0.5,0.6,1,1,1.4c2.4,2.6,3.7,5.9,5,9.1
		c1.2,3.2,2,6.5,2.3,9.9c0.1,1.6,0.4,3.3,0.8,4.9c1.4,5,1.9,10.1,2.2,15.2c0.1,2.6,0.4,5.3,0.7,7.9c0.3,2.5,0.7,5.1,1.5,7.5
		c0.8,2.6,1.6,5.2,2.3,7.8c0.5,1.7,1.2,3.2,2.1,4.7c2.9,4.5,6,8.9,10.5,12c1.4,0.9,2.6,2,3.9,3c0.7,0.5,1.5,1.1,2.3,1.4
		c3.4,1.3,6.8,2.6,10.2,3.8c2.2,0.8,4.6,1.3,6.7,2.5c0.7,0.4,1.5,0.6,2.3,0.8c4.7,1.4,9.3,2.8,14,4.2c2.4,0.7,4.7,1.6,6.9,2.6
		c1.9,0.9,3.8,1.6,5.8,2.2c5.7,1.7,11.4,3.4,17.1,5.1c3.4,1,7,1.3,10.5,1.8c2.2,0.3,4.2-0.4,6.3-1c3.8-1.3,7.4-3.3,11.5-3.6
		c0.2-0.8,0.4-1.4,0.4-2c0.1-1.9,0.7-3.7,1.2-5.5c0.6-1.9,1.1-3.8,1.3-5.8c0.4-3.5,1.5-6.8,3-9.9c1.1-2.1,2.1-4.3,3.3-6.4
		c0.9-1.6,1.9-3.1,3.1-4.4c1.8-2,3.8-3.9,5.7-5.8c0.5-0.5,1.1-1,1.8-1.4c4.8-2.9,9.9-5.3,15.3-6.8c1.4-0.4,2.9-0.4,4.4-0.4
		c3,0,5.9,0.3,8.9,0.4c3.7,0.1,7.5,0,11.1,0.8c2.5,0.6,4.9,1.4,7.4,2.1c2.7,0.8,5.3,1.8,7.8,3.2c3.2,1.7,6.2,3.8,8.8,6.3
		c0.8,0.8,1.7,1.6,2.7,2.2c1,0.7,1.8,1.4,2.5,2.3c1.5,1.9,3,3.7,4.5,5.6c0.4,0.5,0.9,1,1.3,1.5c0.4,0.5,0.8,1,1.2,1.5
		c0.5-0.8,0.1-1.3-0.1-1.8c-1.3-2.9-2.6-5.9-3.9-8.8c-1.4-3.2-3.4-6.1-5.9-8.5c-2.3-2.3-4.7-4.3-7.2-6.5c-2.4-2.1-5.1-3.9-7.8-5.6
		c-2.9-1.9-5.6-4.1-8.3-6.2c-2-1.5-3.6-3.2-4.5-5.6c-0.6-1.8-2.2-2.8-4.2-3.1c-0.6-0.1-1.2,0-1.7-0.2c-2.2-0.9-4.5-1-6.8-1.2
		c-1.2-0.1-2.3-0.1-3.5-0.3c-3.1-0.4-6.2-0.8-9.3-1.4c-3.1-0.5-6.2-1-9.2-2.1c-1.7-0.6-3.4-1.3-5.2-1.7c-4.8-1-9.7-2.1-14.6-2.6
		c-1.1-0.1-2.2-0.7-3.3-1C253.7,293.8,253.3,293.5,252.9,293.3z M354.6,375.1c-0.1-2.7,0.2-5.1-1-7.2c-0.1-0.2-0.1-0.5-0.1-0.7
		c-0.3-2.4-1-4.7-1.9-6.9c-0.8-1.9-1.6-3.8-2.5-5.7c-0.7-1.4-1.3-2.9-2.3-4.1c-2-2.6-4.1-5.2-6.2-7.7c-0.4-0.4-0.8-0.8-1.2-1.2
		c-1.4-1.2-2.9-2.4-4.3-3.7c-2-1.8-4.3-3.4-6.6-4.7c-2.9-1.6-5.9-2.9-9.2-3.6c-1-0.2-1.9-0.5-2.8-0.9c-2.7-1-5.4-1.3-8.2-1.4
		c-1.4-0.1-2.8-0.2-4.2-0.4c-2.5-0.2-5.1-0.5-7.6-0.6c-3.7-0.1-7.4,0.4-10.9,1.9c-1.8,0.8-3.7,1.5-5.4,2.4c-3.2,1.5-6.4,3.1-8.9,5.8
		c-0.3,0.3-0.7,0.7-1,0.7c-1.2-0.1-1.7,0.8-2.3,1.6c-1.7,2-2.6,4.4-3.6,6.7c-1.8,3.8-3.2,7.7-4.2,11.8c-0.9,3.8-2.1,7.5-3.2,11.2
		c-0.5,1.8-0.5,3.6-0.4,5.4c0,0.8,0.4,1.2,1.2,1.2c0.7,0,1.3,0.2,1.9,0.4c1.7,0.6,3.4,1.3,5.1,1.9c3.5,1.1,7,2.1,10.4,3.1
		c0.6,0.2,1.1,0.4,1.7,0.4c2.3,0.1,4.4,0.8,6.5,1.5c3.2,1.1,6.5,1.7,9.9,2.3c2,0.4,3.9,0.8,5.8,1.4c4,1.1,8.1,2.3,12.1,3.4
		c1,0.3,2.2,0.5,3,1.1c0.9,0.7,1.9,0.9,2.9,1.2c5.6,1.6,11.1,3.1,16.7,4.6c3.6,1,7.1,2,10.7,3.2c1.7,0.6,3.2-0.1,4.8-0.4
		c0.3,0,0.5-0.4,0.7-0.6c0.2-0.4,0.5-0.9,0.6-1.4c0.8-2.9,2.1-5.6,2.2-8.6c0-0.3,0.1-0.6,0.2-1C354.2,383.2,354.4,379,354.6,375.1z
		 M325.5,237.9c-1,3.7-2.2,7.3-2.9,11c-0.4,1.9-0.9,3.9-1.4,5.8c-1,3.6-2.1,7.1-3.2,10.7c-0.7,2.2-1.4,4.4-1.9,6.7
		c-0.6,2.6-1.1,5.2-1.6,7.8c-0.4,2.3-0.8,4.6-1.3,6.8c-0.5,2.2-0.9,4.4-0.7,6.6c0.1,1.1,0.1,2.1-0.2,3.2c-0.3,0.9-0.2,1.8,0.3,2.6
		c0.3,0.1,0.6,0.3,0.9,0.4c3.9,1.2,7.7,2.3,11.6,3.4c8.9,2.6,17.9,5.3,26.8,7.9c2.1,0.6,4.2,1.3,6.3,2.1c2.2,0.9,4.5,1.5,6.9,2
		c1.5,0.3,3.1,0.6,4.6,1c3.2,1,6.3,2,9.5,2.8c1.9,0.5,3.8,1,5.7,0c0.1-0.3,0.3-0.5,0.3-0.8c0.6-2,1.5-3.8,1.2-5.9
		c0.9-2.7,1.7-5.4,2.6-8c0.6-1.8,1.3-3.5,2-5.3c0.4-1.2,0.9-2.3,1.3-3.5c1.4-3.8,2.9-7.5,4.2-11.4c1.3-3.9,2.5-7.9,3.2-11.9
		c0.4-2.2,1-4.3,0.9-6.6c0-1.1-0.4-1.9-1.2-2.6c-0.7-0.6-1.4-1.4-2.1-2c-0.4-0.3-0.7-0.7-1.2-0.9c-2.5-1.1-5-2.2-7.5-3.2
		c-1.2-0.5-2.5-0.7-3.8-1.1c-6.8-2.2-13.8-3.9-20.5-6.7c-0.8-0.3-1.6-0.5-2.4-0.8c-6.8-2.1-13.6-4.1-20.4-6.2
		c-3.7-1.1-7.4-2.3-11.1-3.3C329,237.9,327.4,237.5,325.5,237.9z M205.2,218.2c-3.1,4.2-6.7,7.3-10.4,10.3c-0.8,0.7-1.5,1.5-2.3,2.2
		c-1.5,1.4-2.9,2.9-4.6,4.1c-4,2.9-7.4,6.3-10.6,10c-3.6,4.1-6.6,8.6-9.7,13.1c-0.6,0.9-1.3,1.7-1.9,2.6c-0.4,0.6-0.9,1.2-1.3,1.8
		c-1.3,2.3-1.9,4.9-3.6,7c-0.1,0.1-0.1,0.3-0.2,0.5c-0.9,2.6-2.3,4.9-2.8,7.6c-0.1,0.5-0.5,1-0.7,1.6c-0.4,1-0.7,2-1.1,3
		c-0.2,0.5-0.2,1.1-0.4,1.7c0.3,0,0.6,0,0.6-0.1c0.9-0.9,1.9-0.8,3-0.5c0.7,0.2,1.5,0.3,2.1,0.7c0.7,0.4,1.5,0.8,2,1.4
		c1.3,1.8,3,3.3,3.9,5.4c0.2,0.5,0.6,0.9,1.2,1.1c1.5,0.5,1.5,0.8,0.5,2.3c-0.1,0.1,0,0.3,0,0.6c0.3,0.1,0.8,0.5,1,0.4
		c1.1-0.6,2.1-0.2,2.9,0.5c1.3-0.6,2.3-1.4,3.2-2.4c1.7-1.8,3.3-3.7,5.3-5.2c4.3-3.1,8-6.9,10.6-11.5c0.2-0.3,0.3-0.6,0.6-0.8
		c1.3-1.5,2.6-3,3.9-4.5c1.8-2.1,3.6-4.1,5-6.5c0.8-1.4,1.6-2.7,2.4-4c1.2-1.8,2.5-3.5,3.5-5.4c1.6-2.8,3.5-5.2,5.6-7.6
		c1.9-2.1,4.2-3.7,6.9-4.7c1.4-0.5,2.9-0.9,4.4-0.7c2.4,0.3,4.7,0.7,7,1.4c2.3,0.8,4.7,1.5,7.1,2.2c3.1,0.9,6.2,1.7,9.1,3.2
		c0.3,0.2,0.6,0.2,0.9,0.4c0.8,0.3,1.6,0.3,2.3-0.3c1.3-1,2.7-1.9,4.1-2.8c0.7-0.5,1.1-1.1,1.4-2c0.3-1,0.7-2,1.1-3
		c0.5-0.2,0.9-0.4,1.4-0.6c0.5-0.2,1-0.4,0.9-1c-0.1-0.3-0.5-0.7-0.8-0.8c-1.2-0.5-2.5-0.9-3.7-1.3c-3-0.9-5.9-2.2-8.6-3.8
		c-0.6-0.4-1.3-0.8-2-1c-2.2-0.7-4.2-1.9-6.2-3.1c-1.9-1.2-3.9-2.3-6.1-2.7c-2-0.4-3.5-1.4-4.7-3c-0.8-0.9-1.5-1.9-2.7-2.5
		c-0.5,0.3-0.9,0.5-1.3,0.8c-1.5,1.2-3.2,1.9-5.1,2.5c-1.3,0.5-2.7,0.4-3.8-0.3c-1.5-1-3.2-1.3-4.8-1.7c-0.2-0.1-0.5-0.1-0.7-0.1
		c-1.2-0.3-2.1-1-2.6-2.1C206.1,219.8,205.7,219.2,205.2,218.2z M233.1,272.1c-1,2.1-2.9,3.6-3.7,5.6c-1.1,0.7-1.6,2.1-2.9,2.6
		c-0.6,0.2-1.1,0.8-1.4,1.4c-0.8,1.5-1.7,3.1-2.2,4.7c-0.5,1.9-1.4,3.6-2.6,5c-1.9,2.2-3.2,4.8-4.7,7.3c-2,3.3-3.6,6.9-6,10
		c-0.2,0.3-0.4,0.6-0.5,0.8c-1.5,2.6-2.9,5.2-4.4,7.7c-1.3,2.1-2.6,4.2-4.1,6.2c-1.6,2-2.4,4.5-4.2,6.4c-0.7,0.7-1,1.9-1.7,2.3
		c-0.8,0.4-1.9,0.1-2.9,0.1c-1.7,2.6-3.9,4.6-6.7,6.2c1.9,1.3,4,1.7,5.8,2.7c3.5,0.7,6.9,1.8,10.1,3.3c0.1,0.1,0.3,0.1,0.5,0.1
		c3.6,1.1,7.1,2.2,10.7,3.2c2.1,0.6,4.2,0.9,6.3,1.2c0.6,0.1,1.1-0.1,1.7-0.1c1.2-0.1,2.5-0.2,3.7-0.2c0.8,0,1.7,0,2.5,0
		c1.2-0.1,2.2-0.5,3-1.5c1-1.4,2.2-2.7,3.3-4c0.8-1,1.5-2.2,1.9-3.4c0.6-1.8,1.4-3.5,2.2-5.2c1.1-2.7,2.7-5.1,4-7.7
		c3.3-6,5.4-12.5,7.4-19.1c1-3.3,1.2-6.6,1.3-10c0.1-2-0.3-3.9-1-5.8c-3-1.7-3.3-2-4.8-5.1c0-0.1-0.1-0.2-0.1-0.2
		c-1.3-2.3-1.2-4.6,0-6.9c0.9-1.6,2-3,3-4.6c0.2-0.3,0.6-0.6,0.3-1.1c-2.6-0.6-5.2-1.3-7.9-1.7C237,272,235.1,271.8,233.1,272.1z
		 M229.2,274.5c0.3-0.8,0.6-1.4,0.8-2c0.7-2.4,0.7-2.5,3.2-2.6c2.7-0.2,5.4-0.1,8.1,0.6c1.9,0.5,3.9,0.9,5.8,1.1
		c3.6,0.4,7.2,0.7,10.8,1c0.6,0.1,1.3-0.1,2-0.1c0.7,0,1.5,0,2.2,0.2c0.9,0.2,1.7,0.7,2.5,1c2.1,0.7,4.2,1.5,6.4,2
		c2.2,0.5,4.6,0.7,6.8,1.2c1.2,0.3,2.3,0.2,3.4-0.1c0.9-0.2,1.7-0.6,2.6-0.8c1.2-0.3,2.2-0.7,2.7-1.9c0.2-0.4,0.6-0.8,1-1
		c2.1-1.1,2.9-3,3.4-5.2c-0.5-1.3-1.7-1.8-2.8-2.3c-3.7-1.7-7.6-3.2-11.6-4.3c-3.8-1-7.5-2-11.2-3c-3.1-0.8-6.2-1.7-9.3-2.6
		c-2.1-0.6-4.1-1.3-6.3-1.5c-0.6-0.1-1.3-0.3-1.9-0.5c-3.8-1.3-7.6-2.2-11.5-2.9c-1-0.2-2-0.3-2.9-0.3c-1.1-0.1-2.1-0.1-3.2-0.2
		c-2.7-0.1-5.1,0.3-6.7,2.8c-1.5,2.3-3,4.5-4.5,6.8c-1.6,2.3-3,4.8-4.7,7c-1.2,1.6-2.1,3.6-4.2,4.4c-0.4,0.2-0.6,0.7-0.9,1.1
		c-1.9,2.4-3.3,5.1-4.7,7.8c-1.2,2.3-2.5,4.7-4,6.8c-2.5,3.5-4.6,7.2-7.1,10.8c-0.6,0.9-1,2.1-1.7,3c-0.7,0.9-1.8,1.4-2.7,2.2
		c-1.9,1.8-3.6,3.6-5.5,5.4c-0.8,0.8-1.6,1.6-1.8,2.8c-0.4,0.1-0.7,0.2-1,0.3c-1.7,0.6-2.5,1.9-2,3.7c0.8,2.8,2.7,5.1,4.6,7.2
		c1.4,1.6,3,3.1,4.7,4.4c1.2,1.1,2.7,1.9,4,2.9c0.2,0.2,0.6,0.1,1,0.2c0.3-0.3,0.6-0.6,0.9-0.9c3.7-4.4,7.1-9.1,10-14.2
		c1.4-2.4,2.6-5,4.2-7.3c2.1-3.1,3.8-6.4,5.7-9.6c1.3-2.2,2.3-4.6,4.1-6.5c2.3-2.5,3.3-5.5,4.2-8.6c0.4-1.4,1.1-2.5,2.2-3.4
		c0.6-0.5,1.4-0.9,1.9-1.3c0.4-0.9,0.6-1.7,0.9-2.4c-0.2-0.5-0.5-1-0.7-1.5c-0.1-0.2,0.1-0.5,0.2-0.6c0.2-0.1,0.5-0.2,0.7-0.2
		C227.8,273.6,228.3,274,229.2,274.5z M144.5,342.8c-0.2-0.7-0.3-1.2-0.5-1.8c-0.6-1.8-1.3-3.6-1.9-5.4c-0.7-2.1-1.2-4.3-1.9-6.4
		c-1-3.1-2.2-6.2-2.4-9.6c-0.1-2.4-0.7-4.8-0.7-7.1c0-2.6-0.3-5.1-0.5-7.6c-0.4-3.6-0.8-7.2-1.8-10.7c-0.3-1-0.5-2.1-0.7-3.1
		c-0.7-3.7-1.4-7.4-2.8-11c-1.3-3.3-2.7-6.5-5.1-9.2c-0.7-0.8-1.4-1.3-2.4-1.6c-2-0.6-4-1-6-1.4c-3.4-0.6-6.9-0.4-10.4-0.6
		c-0.2,0-0.3,0-0.5,0.1c-2.7,0.5-5.4,0.6-8,1.7c-0.3,0.1-0.6,0.2-1,0.2c-3,0.1-5.6,1.3-8.3,2.3c-1.6,0.6-3.2,1.4-4.3,2.8
		c-0.5,0.6-1.2,1.1-1.8,1.6c-1.4,1.2-2.7,2.4-4.1,3.6c-1.6,1.5-2.5,3.3-1.9,5.6c1,1.3,2.3,2.2,3.9,2.8c1.7,0.7,3.3,1.7,5,2.1
		c2,0.5,3.9,1.3,5.6,2.5c2.1,1.5,4.3,3.1,6.3,4.8c3,2.6,5.8,5.4,8.8,8c1.7,1.5,3.1,3.2,4.5,4.9c1,1.3,2,2.6,3.1,3.9
		c1.9,2.1,3.1,4.5,3.9,7.1c0.2,0.6,0.5,1.2,0.8,1.8c1.9,3.3,3.8,6.6,5.7,9.8c0.8,1.2,1.8,2.4,2.8,3.4c0.7,0.8,1.8,1.2,2.6,1.9
		c1.9,1.5,4,2.6,6.4,3.2c0.9,0.2,1.8,0.4,2.6,0.6c0.7,0.2,1.5,0.4,2.1,0.7C142.6,343.3,143.4,343.3,144.5,342.8z M87.9,294.2
		c-1,0.6-2.5,1.2-3.7,2.1c-1.6,1.1-3,2.3-4.5,3.5c-2.2,1.9-4.3,3.9-6.1,6.1c-0.9,1.1-1.7,2.3-2.3,3.5c-0.8,1.8-1.6,3.6-2.4,5.4
		c-2,4.8-2.7,9.8-2.8,15c-0.1,2.2,0.8,4.2,1.2,6.3c0.3,1.8,1.2,3.4,2.2,4.9c0.6,0.9,1.1,1.8,1.6,2.8c0.3,0.5,0.6,1,0.9,1.5
		c1.9,2.9,4.4,5.3,6.3,8.3c0.1,0.2,0.3,0.4,0.5,0.6c1.5,1.2,2.9,2.4,4.5,3.5c3.4,2.3,6.9,4.6,10.7,6c0.2,0.1,0.3,0.2,0.4,0.2
		c1.1,0.4,2.1,1,3.2,1.2c3.9,0.9,7.7,1.8,11.7,1.7c1.8-0.1,3.6-0.1,5.4-0.2c1-0.1,2-0.1,2.9-0.4c2.8-0.8,5.5-1.6,8.2-2.7
		c1.5-0.6,2.8-1.6,4.3-2.5c1.1-0.6,2.2-1.2,3-2.2c1.2-1.5,2.5-2.9,4-4c0.4-0.3,0.7-0.9,1.1-1.4c0.8-1.2,1.6-2.5,2.4-3.7
		c0.9-1.3,1.2-2.6,1.2-4.2c-0.7-0.2-1.3-0.5-1.9-0.6c-1.2-0.3-2.4-0.6-3.6-0.8c-2.9-0.5-5.5-1.8-7.6-3.8c-0.8-0.7-1.6-1.5-2.8-1.7
		c-0.4,0.5-0.9,1.1-1.3,1.7c-0.7,0.8-1.3,1.8-2.1,2.4c-3.6,3.1-7.6,5.2-12.2,6.4c-1.3,0.3-2.6,0.5-3.9,0.2c-2.6-0.6-5.3-1.3-7.9-2
		c-0.7-0.2-1.4-0.6-1.9-1.1c-1.8-1.5-3.7-3.1-5.4-4.7c-3.4-3.3-5.1-7.5-5.4-12.2c-0.2-2.4,0-5,0.3-7.4c0.3-2.4,0.8-4.9,2.9-6.6
		c0.3-0.2,0.4-0.7,0.7-1c1.2-1.6,2.6-2.9,4.5-3.8c1.8-0.8,3.6-1.7,5.3-2.6c0.6-0.3,1.2-0.5,1.8-0.6c1.1-0.1,2.2-0.2,3.3-1
		c-0.2-0.3-0.4-0.6-0.6-0.8c-2-1.8-4-3.7-6-5.5c-1.4-1.2-2.9-2.2-4.2-3.4C92.2,295.5,90.7,294.3,87.9,294.2z M288.4,128.7
		c-0.6,1.6-1.2,2.9-1.6,4.2c-1.3,3.9-1.9,8-2.5,12.1c-0.4,3.2-0.8,6.4-0.5,9.6c0.3,2.8,0.6,5.6,1.1,8.3c0.6,3.1,1.5,6.1,3.7,8.5
		c1.6,1.8,3.3,3.4,5.3,4.8c2.7,1.8,5.7,3,8.8,3.9c7.3,2,13.9,0.7,19.7-4.2c2.3-2,4.5-4.2,6.7-6.3c1.1-1,2-2.2,2.6-3.6
		c1.4-3,2.8-6,3.8-9.1c0.4-1.2,0.4-2.2-0.4-3.2c-1.4-1.7-1.8-3.6-1.7-5.8c0-0.5,0.1-1,0.1-1.5c-0.1-2.1,0-4.1-0.4-6.2
		c-0.3-1.4-1-2-2.2-2.4c-2.9-0.8-5.8-1.7-8.8-2.5c-3.7-0.9-7.4-1.6-11.1-2.4c-3.9-0.8-7.7-1.9-11.7-2.1c-2.8-0.1-5.6-0.7-8.2-1.6
		C290.2,129.2,289.4,129,288.4,128.7z M263.9,379.2c-0.9,1.8-2,6.3-1.9,8c0,0.4,0.1,0.8,0.2,1.2c0.2,0.8,0.4,1.6,0.5,2.4
		c1.1,5.3,2.8,10.3,5.9,14.8c0.1,0.2,0.3,0.4,0.3,0.7c0.8,2,2.3,3.4,3.7,4.9c2.7,2.6,5.7,4.9,8.9,7.1c3.8,2.7,8,4.7,12.3,6.4
		c2.4,1,4.9,2,7.6,1.8c0.2,0,0.5,0.1,0.7,0.1c2.8,0.5,5.6,0.4,8.4-0.1c2.4-0.4,4.7-0.8,7.1-1.3c3.8-0.7,7.4-1.6,10.7-3.7
		c2.3-1.4,4.5-3,6.7-4.6c1.3-0.9,2.5-1.9,3.6-3c3.1-3.3,5.7-7,8.1-10.9c0.2-0.4,0.3-0.8,0.5-1.4c-0.6-0.2-0.9-0.3-1.3-0.4
		c-2.3-0.6-4.7-1.1-7-1.7c-3.2-0.8-6.4-1.7-9.6-2.6c-0.9-0.2-1.7-0.6-2.8-0.2c-0.4,0.6-1,1.3-1.4,2.1c-1.3,2.3-3.1,4-5.4,5.3
		c-0.7,0.4-1.4,0.8-2.1,1.2c-3,1.9-6.2,2.9-9.7,3.7c-4.4,0.9-8.5-0.2-12.6-1.7c-0.5-0.2-1-0.5-1.5-0.9c-2.3-1.8-4.6-3.5-6.8-5.4
		c-3.3-2.8-5.3-6.5-6.2-10.7c-0.4-1.9-0.8-3.9-0.6-5.9c0-0.3-0.1-0.6-0.2-1c-1.9-0.4-3.8-0.7-5.6-1.2c-1.8-0.4-3.5-1-5.2-1.6
		C267.5,380.1,265.7,379.5,263.9,379.2z M296.8,260.5c2.2-2.2,3.7-4.7,5.2-7.3c0.2-0.4,0.4-0.7,0.7-1.1c1.6-2.8,3.3-5.5,4.9-8.3
		c1.1-1.9,1.8-4,2.5-6.2c1.7-5.2,3-10.5,4.4-15.7c0.5-2,1.2-3.9,1.8-5.9c1.3-4.6,2.4-9.3,2.3-14.1c0-0.3,0.2-0.8-0.4-1
		c-0.6,1.1-1.1,2.2-1.8,3.2c-1,1.7-2.1,3.3-3.2,5c-0.6,0.9-1.4,1.9-2.1,2.7c-1.6,1.7-3.2,3.3-4.8,5c-0.6,0.6-1.4,1.2-2.1,1.8
		c-1.4,1-2.8,0.8-3.9-0.5c-0.3-0.4-0.5-0.8-0.8-1.1c-2.9,2.5-5.7,5-8.5,7.4c-0.4,0.4-0.9,0.8-1.3,1.2c-2.5,2.6-4.9,5.1-7.4,7.7
		c-2,2.1-4.2,4-6.7,5.4c-0.9,0.5-1.8,1.1-2.7,1.8c-1.4,1.1-2.9,1.5-4.6,1.2c-1.3-0.2-2.6-0.5-3.9-0.8c-0.8-0.2-1.6-0.4-2.2-0.6
		c-1.8,0.7-3,1.7-3.5,3.4c-0.4,1.3-1.3,2.3-2.3,3.2c-1.1,1-2.3,1.9-3.4,2.9c-0.3,0.3-0.6,0.7-1.1,1.1c1.1,0.5,2,0.8,2.9,1.3
		c2.7,1.4,5.6,2.4,8.5,3.2c6.1,1.8,12.2,3.6,18.2,5.5c3.4,1.1,6.7,2.4,9.5,4.7c0.7,0.6,1.5,1.1,2.3,1c0.9-0.5,1.7-0.9,2.6-1.3
		c0.8-0.4,1.3-1,1.2-2C297,262.4,296.9,261.6,296.8,260.5z M221.5,74c-0.7,4.2-0.1,7.7,2.6,10.7c0.5,0.5,1,1.1,1.4,1.7
		c0.4,0.6,1.2,0.9,1.2,1.8c-0.3,0.5-0.8,0.6-1.3,0.4c-1.3-0.5-2.6-0.9-3.8-1.8c-1.2-0.9-2.5-1.6-4-1.7c-1,1.1-0.8,2.1,0,3.2
		c1.1,1.4,2.2,2.6,3.8,3.5c1.7,0.9,3.2,2.1,4.4,3.5c-0.2,0.4-0.5,0.8-0.5,1.1c0.1,2.3,0.5,4.6,2.1,6.5c1.2,1.5,2.6,2.8,4.3,3.6
		c1.6,0.8,3.1,1.9,5,2c-0.1,0.7-0.1,1.3,0.2,1.9c0.8,1.2,1.5,2.6,2.1,3.9c1.7,4,3.9,7.8,6.2,11.6c1.7,2.8,3.4,5.7,5,8.6
		c2.5,4.7,5,9.5,7.4,14.3c0.8,1.5,1.9,2.9,2.6,4.5c0.7,1.7,1.6,3.3,2.5,4.8c0.9,1.5,1.9,2.9,2.9,4.3c1.1,1.6,2.3,3.2,3.5,4.8
		c0.4,0.6,1,1,1.6,1.5c2.2-3.1,4.4-6.1,6.6-9.2c-0.4-0.6-0.9-1.1-1.3-1.7c-4.3-5.1-8.2-10.6-11.3-16.5c-1.6-3-3.3-5.9-5.2-8.7
		c-0.7-1-1.4-2.1-2-3.1c-2.5-4.1-4.9-8.2-7.3-12.3c-1.6-2.6-2.8-5.4-3.8-8.3c-0.5-1.4-1.1-2.9-0.7-4.6c1-4,2.5-7.8,5.3-11
		c1.4-1.6,2.7-3.4,4.1-4.9c1.3-1.4,1.9-3.1,2.2-5.1c-2-0.4-3.7-0.2-5,1.3c-1.7,1.8-3.2,3.8-4.2,6.1c-0.2,0.5-0.5,1.1-0.8,1.5
		c-0.3,0.4-0.7,0.4-1.1,0c-0.2-0.2-0.4-0.5-0.6-0.7c-1.5,0.1-2.5,1.1-3.6,1.8c-1.2,0.8-2.1,1.8-2.9,3c-0.7,1.1-0.9,2.5-1.7,3.5
		c-0.7-0.5-0.8-1.2-0.7-1.8c0.3-2.6,1.4-4.7,3.6-6.2c1-0.7,2.1-1.4,3.2-2.1c0.4-1.7,0.9-3.5,1-5.3c0.2-4,0.3-7.9,0.3-11.9
		c0-1.6-0.3-3.1-0.4-4.7c0-0.3-0.3-0.5-0.4-0.8c-0.3,0.2-0.4,0.3-0.5,0.4c-0.2,0.3-0.4,0.5-0.5,0.8c-1.6,2.8-2.4,5.8-2.8,8.9
		c-0.4,3.2-0.7,6.4-1.1,9.6c0,0.3,0,0.7-0.6,0.8c-0.3-0.3-0.7-0.8-1.2-0.9c-1.1-0.3-1.4-1.1-1.5-2c-0.1-0.7-0.1-1.5-0.2-2.2
		c-0.3-3.2-0.6-6.4-1-9.6c-0.2-1.7-0.6-3.4-1.6-5c-1.2,1.3-1.6,2.8-1.7,4.3c-0.2,2.5-0.3,5.1-0.4,7.7c-0.1,1.5,0.2,3,0.9,4.3
		c0.3,0.5,0.4,1.1,0.6,1.6c0.2,0.5-0.1,1-0.6,1.2c-0.5,0.3-0.9,0.1-1.3-0.3c-0.8-0.8-1.2-1.7-1.5-2.8c-0.6-2.2-1.6-4.1-2.9-6
		C225,76,223.5,74.9,221.5,74z M291.8,207.1c-0.4,0.3-0.6,0.5-0.9,0.7c-3.1,3.4-6.5,6.5-10.1,9.5c-0.9,0.7-1.7,1.5-2.5,2.4
		c-2.3,2.3-4.7,4.4-7.2,6.4c-1.7,1.4-3.7,2.2-5.7,2.9c-1.9,0.7-3.7,0.5-5.5-0.3c-4.1-1.9-8.3-3.7-12.4-5.6c-1-0.5-2-1.1-2.9-1.8
		c-1-0.7-1.9-1.6-2.9-2.3c-1.1-0.9-2.1-1.8-3.5-2.3c-1.6-0.7-2.2-1.8-2.1-3.5c0-0.4,0.1-0.8,0.2-1.2c0.3-4.2-1-7.8-3.9-10.8
		c-0.9-0.9-1.9-1.6-3.1-2c-2.2-0.8-4.4-1.4-6.6-2.2c-1.6-0.6-3.1-0.4-4.6,0.3c-0.6,0.2-1.2,0.5-1.9,0.6c-2.9,0.4-5.3,1.7-7,4.2
		c-1.3,2-2.4,4.1-3,6.5c-0.4,1.6-0.5,3.3-0.4,4.9c0,0.3,0.1,0.7,0.7,0.5c0.1-0.4,0.3-0.8,0.5-1.3c0.7-2.6,1.9-4.9,3.4-7.1
		c1.3-1.9,3-3.5,5.3-4.3c0.4-0.1,0.9-0.4,1.3,0.3c-0.4,0.7-1.2,1.1-1.8,1.6c-1.1,1-2.2,2-3.1,3.2c-2.1,3.1-3.3,6.6-4.2,10.2
		c-0.2,0.8-0.2,1.6,0.1,2.4c0.3,0.6,0.5,1.2,0.7,1.8c0.4,0.2,0.8,0.3,1.2,0.4c1.2,0.3,1.6,0.2,1.9-0.9c0.3-1.1,0.6-2.2,0.7-3.4
		c0.2-1.9,0.9-3.3,2.4-4.4c1.5-1,3.1-1.9,4.9-2.4c2.7-0.7,5.4-0.5,8.1,0c0.1,0,0.2,0.2,0.3,0.4c-0.4,0.9-1.7-0.1-2.1,1
		c1,1.2,1.1,2.8,1,4.4c0,0.6,0,1.2,0,1.7c0.1,1.3,0.5,2.6,1.7,3.4c0.5,0.3,0.7,0.9,1.1,1.3c1.5,1.8,3.1,3.4,5.5,4.1
		c2.2,0.6,4.1,1.6,6.1,2.8c0.6,0.4,1.3,0.8,2,1.1c2.2,0.8,4.2,1.9,6.2,3c1.2,0.7,2.5,1.2,3.8,1.8c1.9,0.8,3.9,1.4,5.7,2.4
		c2,1.1,4.2,0.7,6.2,1.6c0.1,0,0.2,0,0.2,0.1c1.2,0.5,2.4,0.4,3.6-0.1c0.5-0.2,1.1-0.4,1.6-0.7c2.3-1.4,4.6-2.9,6.8-4.4
		c3.7-2.6,6.8-6,9.8-9.4c2.8-3.2,5.9-6,9.3-8.6c0.4-0.3,0.9-0.7,1.3-1.1C295.8,210.9,293.8,208.3,291.8,207.1z M289.5,206.1
		c-0.5-0.7-0.9-1.4-1.4-2c-0.6-0.7-0.7-1.3-0.3-2c0.8-1.3,1.4-2.6,2.6-3.6c1.3-1,2.4-2.2,3.8-3.2c2.2-1.6,4.4-3.2,6.6-4.8
		c0.1,0,0.1-0.1,0.2-0.1c0.4-0.1,0.9-0.1,1.1,0.3c0.1,0.2,0.2,0.7,0,0.9c-0.5,0.6-1.1,1.3-1.7,1.8c-2.3,1.9-4.8,3.5-6.9,5.6
		c-1,0.9-2.3,1.7-2.8,3.1c0.3,0.4,0.8,0.9,0.9,1.4c0.3,1,0.9,1.6,1.7,2c1.3,0.7,2.2,1.7,3,2.9c1.4,2,2.8,4.1,4.2,6.1
		c0.6,0.9,1.3,1.7,1.8,2.5c0.9,0,1.3-0.5,1.7-1c1.2-1.3,2.4-2.5,3.6-3.8c1.6-1.6,3.1-3.1,4.1-5.2c0.5-1,1.2-2,1.8-2.9
		c2.4-3.4,3.4-7.3,3.8-11.4c0.3-3.2-1.3-5.5-3.5-7.5c-0.7-0.6-1.5-1.1-2.3-1.7c-0.3,0-0.7,0-1.1,0c-4.6,0.4-8.8-0.7-13-2.4
		c-4.5-1.9-8.2-4.8-11.2-8.7c-0.7-0.9-1.2-2-1.6-3.1c-0.6-1.8-1-3.6-1.5-5.6c-1.2-1.2-2.5-2.6-3.8-3.9c-0.2,0.2-0.3,0.2-0.4,0.4
		c-1.2,2.4-2.6,4.6-4.5,6.5c-0.3,0.3-0.6,0.6-0.8,1c-1.1,1.7-2.6,3.2-4,4.7c-0.7,0.7-1.3,1.5-1.9,2.3c1.3,1.4,2.6,2.4,4,3.5
		c1.8,1.3,3.5,2.7,5.3,4.1c1.2,0.9,2.5,2,3.8,2.7c2.4,1.4,4.8,2.8,7.6,3.6c1,0.3,1.9,0.9,2.5,2c-0.4,0.7-0.8,1.3-1.1,1.9
		c-0.4,0.7-0.8,1.5-1.2,2.2c-0.4,0.6-0.8,1.2-1.2,1.9c-0.4,0.6-0.8,1.3-1.1,1.9c-0.4,0.6-0.7,1.3-1.1,2c-0.4,0.7-0.8,1.5-1.2,2.2
		c-0.3,0.7-0.7,1.3-1,2c-0.3,0.7-0.7,1.3-1,2c-0.4,0.7-0.8,1.5-1.1,2.2c-0.3,0.7-0.7,1.3-1,2c-0.3,0.7-0.7,1.3-1.1,2
		c-0.4,0.6-0.7,1.3-1.1,1.9c-0.4,0.7-0.9,1.4-1.3,2.1c-0.3,0.6-0.8,1.2-0.9,2c0.3-0.1,0.5-0.1,0.6-0.2c2.4-2.1,4.7-4.2,7.1-6.2
		C285.4,210.4,287.5,208.4,289.5,206.1z M306.8,301.4c0.7-0.8,1.3-1.5,1.9-2.3c0.9-1.1,1.4-2.4,1.3-3.9c-0.1-0.9,0.1-1.8,0.1-2.7
		c0-0.5,0.1-1-0.1-1.5c-1.1-2.3-2.4-4.3-5-5.1c-4.3-1.3-8.7-2.7-13-4c-1-0.3-2.1-0.5-3.1-0.7c-3.8-0.6-7.6-1.4-11.5-1.8
		c-1.7-0.2-3.4-0.8-5.1-1c-3.1-0.3-5.9-1.4-8.8-2.5c-0.7-0.3-1.6-0.6-2.4-0.6c-2.6-0.2-5.3-0.4-7.9-0.5c-2-0.1-3.8,0.5-5.1,2
		c-0.8,0.9-1.4,1.8-2,2.8c-2.1,3.9,0.4,9.4,4.1,10.4c0.9,0.2,1.7,0.6,2.5,0.9c1.2,0.5,2.4,1,3.7,1.5c4,1.4,8.2,1.9,12.3,2.7
		c2.5,0.5,5.1,0.8,7.5,1.6c2.7,0.8,5.3,1.7,8.1,2c5,0.6,10,1.3,14.9,2c1.6,0.2,3.1,0.4,4.7,0.6C304.9,301.3,305.8,301.3,306.8,301.4
		z M408.4,253c-0.8-0.8-1.5-1.8-2.5-2.3c-2.6-1.6-4.8-3.7-7.5-5.1c-3.1-1.6-6.2-3.1-9.5-4.1c-2.8-0.8-5.7-1.8-8.5-2.7
		c-0.7-0.2-1.4-0.5-2.1-0.8c-1.1-0.4-2.1-0.9-3.2-1.3c-9.4-3.1-19-5.5-28.6-8.2c-0.6-0.2-1.3-0.3-1.9-0.4c-2.8-0.6-5.6-1.2-8.5-1.8
		c-2.3-0.5-4.6-0.6-6.9,0c-1.2,0.3-2.1,0.9-2.3,2.2c-0.2,1-0.6,2.1-0.9,3.1c-0.3,1.2-0.6,2.4-0.6,3.6c0.2,0.1,0.4,0.3,0.5,0.3
		c2.8,0.1,5.4,0.7,8,1.5c9.6,2.9,19.3,5.8,28.9,8.8c1.4,0.4,2.8,1,4.2,1.5c2.1,0.7,4.2,1.5,6.3,2.2c7,2.4,14.3,3.9,21.1,6.9
		c3.6,1.6,7.1,3.4,9.5,6.7c2-1.5,3.2-3.5,3.7-6C408,255.9,408.2,254.6,408.4,253z M347.8,124.4c0.1-0.4,0.2-0.7,0.2-1
		c0.2-3.5,0-6.9-0.7-10.3c-0.3-1.4-0.8-2.7-1.5-3.9c-2.3-4-5.5-7-9.3-9.4c-0.8-0.5-1.6-0.8-2.5-1.1c-3.3-1-6.6-2-9.9-3
		c-0.7-0.2-1.4-0.3-2.2-0.5c-4-0.8-8-0.5-12.1-0.1c-3,0.3-6,0.9-8.7,2.5c-3.4,2-6.3,4.4-8.7,7.6c-0.2,0.3-0.6,0.6-0.1,1.3
		c1,0.1,2.1,0.3,3.3,0.3c2.6,0.1,5,0.7,7.5,1.4c1.5,0.5,2.9,1.1,4,2.3c1.5,1.6,2.7,3.3,2.4,5.7c0,0.3,0.1,0.6,0.2,1
		c1.6,0.4,3.1,0.7,4.5,1.1c1.2-0.9,2.2-1.6,3.3-2.4c2.2-1.7,4.8-2.1,7.4-2.1c3.4,0,6.7,0.8,9.9,2c2.7,1,4.9,2.6,6,5.5
		c0.3,0.9,0.7,1.8,1,2.8C343.7,124.3,345.7,124.6,347.8,124.4z M167.1,329.4c-0.1,0-0.1-0.1-0.2-0.1c-1.7-0.4-3.3-1.1-4.1-2.9
		c-0.2-0.4-0.5-0.6-0.8-0.9c-2.3-2-3.6-4.5-4.3-7.3c-0.1-0.6-0.3-1.1-0.5-1.7c-1.2-3.3-2.3-6.7-3.5-10c-0.7-2-1-4.1-1.2-6.3
		c-0.3-3.7-0.2-7.4,0-11.1c0.1-1.2,0.2-2.5,0.6-3.6c1.2-4.2,2.5-8.4,3.7-12.6c0.2-0.6,0.3-1.1,0.5-1.6c1.7-3.3,3-6.8,5.4-9.7
		c0.3-0.4,0.5-0.9,0.8-1.3c0.8-1.2,1.6-2.5,2.5-3.7c1.3-1.6,2.6-3.2,3.9-4.8c1.5-1.9,2.9-3.8,4.4-5.6c1.6-1.9,3.2-3.8,4.9-5.6
		c0.4-0.4,0.8-0.9,1.2-1.3c3.4-3.2,6.9-6.4,10.3-9.7c2.9-2.8,5.8-5.6,8.7-8.4c1.1-1.1,2.2-2.2,2.7-3.8c0.2-0.7,0.8-1.2,1.2-1.8
		c0.2-0.3,0.4-0.5,0.5-0.8c0.1-0.1,0-0.3-0.1-0.4c-0.1-0.1-0.3-0.2-0.4-0.2c-0.5,0.3-1,0.5-1.5,0.8c-3,2.5-6,5-8.9,7.5
		c-1.7,1.5-3.5,3.1-5.1,4.7c-4.2,4.3-8.3,8.7-12.5,13.1c-1,1.1-2,2.2-3.3,3c-0.5,0.3-0.8,0.8-1.2,1.2c-2.3,3-4.6,6-6.9,9.1
		c-1.1,1.5-2.3,3-3.2,4.7c-1,1.9-2.1,3.7-3.5,5.4c-2.5,3.2-4.1,6.8-5.3,10.6c-0.6,1.9-1.1,3.8-1.8,5.7c-1,2.9-1.4,6-1.4,9
		c-0.1,3.5,0,6.9,0.2,10.4c0.3,4.7,1.8,9.1,2.8,13.5c0.5,2.2,1.3,4.3,1.8,6.4c0.9,3.5,2.5,6.6,4.3,9.7c0.7,1.2,1.9,2.2,2.4,3.4
		c0.9,2.1,2.3,3.8,3.9,5.4c1.6,1.6,3.4,2.9,4.9,4.6c1.6,1.7,3.5,2.7,5.6,3.4c4.5,1.6,9.2,2.6,13.9,3.5c4.3,0.9,8.4,2.4,12.8,3
		c2.9,0.4,5.8,1.4,8.7,1.8c2.9,0.4,5.9,0.4,8.9,0.5c0.5,0,1-0.1,1.4-0.3c1.3-0.5,2.6-1,3.9-1.6c0.8-0.4,0.9-0.5,1.4-1.8
		c-0.2-0.1-0.4-0.2-0.7-0.2c-0.7,0-1.3,0-2,0.1c-4,0.7-7.9,0-11.7-1c-2.8-0.8-5.5-1.7-8.3-2.5c-2.8-0.8-5.4-1.8-8.3-2.5
		c-3.6-0.8-7-2.4-10.4-4c-1.7-0.8-3.4-1.5-5.3-1.9c-1.7-0.4-3.5-1.2-4.9-2.3C171.8,334.4,169.1,332.3,167.1,329.4z M214.3,195.6
		c-0.3-0.8-0.7-1.5-0.9-2.2c-0.7-3.3-2.3-6.1-4.4-8.8c-0.6-0.7-1.1-1.4-1.6-2.2c-2.2-3.7-5.2-6.8-8.7-9.4c-1.8-1.3-3.6-2.6-5.6-3.7
		c-0.9,3-1.8,5.8-2.7,8.6c-0.3,0.9-0.6,1.9-1.1,2.7c-1.5,2.3-2.6,4.7-4.1,7c-1.4,2.1-2.8,4.1-4.5,5.9c-1.9,2-4.1,3.8-7.2,3.9
		c-0.3,0-0.7,0-0.6,0.6c1.1,0.4,2.2,0.9,3.3,1.4c3.8,1.7,7.7,3.3,11.8,4.4c3.7,1,7.2,2.3,10.9,3.3c1.7,0.5,3.5,0.7,4.9,2.3
		c0.3-0.9,0.5-1.5,0.7-2.1c0.6-2.4,1.7-4.7,3.1-6.7C209.2,198.4,211.1,196.4,214.3,195.6z M239,248.9c-4.9-1.8-9.6-3.7-14.7-4.4
		c-1.5-0.2-3,0.1-4.3,0.7c-2.4,1.1-4.4,2.6-6.1,4.6c-1.9,2.4-3.6,4.9-5.3,7.4c-1.9,2.9-3.8,5.8-5.6,8.8c-0.8,1.3-1.7,2.4-2.6,3.6
		c-2.7,3.5-6.1,6.5-8.2,10.5c-0.3,0.6-0.8,1-1.3,1.5c-0.8,0.9-1.6,1.9-2.5,2.7c-1.3,1.3-2.5,2.6-4,3.7c-2.4,1.8-4.6,3.7-6.5,6
		c-1.1,1.3-2.4,2.3-3.7,3.2c-0.5,0.3-0.9,0.6-1.3,0.9c0.8,2.6,4.9,7.8,7.9,10.2c0.3-0.3,0.6-0.5,0.8-0.8c1.3-1.8,2.9-3.4,4.7-4.7
		c1.5-1.1,2.6-2.5,3.5-4.1c2.3-3.6,4.5-7.3,7-10.8c2.4-3.3,4.5-6.7,6.3-10.3c1-2.1,2.2-4,3.6-5.9c2.7-3.8,5.6-7.6,8.4-11.3
		c1.1-1.5,2.2-2.9,3.3-4.3c1.1-1.5,2-3,3.1-4.5c1.6-2.2,3.6-3.6,6.4-3.6c3.3,0,6.6,0,9.8,0.8C238.2,248.8,238.6,248.8,239,248.9z
		 M101,316.6c1.7-1,3.4-1.3,5.4-1.1c1.9,0.2,3.9,0.2,6.2,0.3c-1-1.5-1.8-2.8-2.7-3.9c-0.5-0.6-1-1.1-1.6-1.6
		c-1.2-1.2-2.7-1.5-4.3-1.2c-1.4,0.3-2.9,0.7-4.3,1.1c-1.3,0.3-2.5,0.9-3.5,1.8c-1.6,1.4-3.2,2.8-4.7,4.3c-0.7,0.7-1.3,1.5-1.8,2.3
		c-0.5,0.8-1,1.6-1,2.5c-0.3,2.5-0.5,4.9-0.5,7.4c0.1,4.4,1.6,8.2,4.9,11.2c2,1.8,4.1,3.6,6.2,5.3c0.6,0.5,1.3,0.7,2,1
		c4.2,1.5,8.4,1.4,12.5-0.4c2.3-1,4.5-2.1,6.7-3.2c0.5-0.3,1-0.6,1.3-1.1c1-1.3,1.9-2.7,2.6-4.1c-1.5-3.9-3.6-7.4-5.6-10.9
		c-0.1-0.1-0.3-0.1-0.5-0.2c-0.1,0.2-0.1,0.5-0.2,0.7c-0.2,1.7-0.5,3.4-0.7,5.1c-0.1,0.8-0.4,1.4-1,1.9c-1.7,1.4-3.3,3-5.1,4.3
		c-0.9,0.7-2.1,1.1-3.2,1.3c-4.6,0.5-8.5-1-11.5-4.5c-1.5-1.8-2-3.9-1.6-6.3c0.5-2.6,1.3-5.1,2.8-7.3C99,319.8,100,318.2,101,316.6z
		 M182.8,163.5c-1.7-1.5-3.8-1.5-5.7-0.7c-3.1,1.3-6.2,2.8-8.2,5.7c-1.5,2.1-3.6,3.9-3.9,6.7c0,0.1-0.1,0.2-0.1,0.2
		c-1.1,1.8-1.5,3.8-2.1,5.8c-0.6,2.1-0.8,4.2-0.1,6.3c1.1,3,0.9,2.7,3.7,3.3c0.5,0.1,1,0.2,1.5,0.2c0.4,0,0.8,0,1.2-0.2
		c2.2-1.1,4.1-2.6,5.3-5c0.6-1.2,1.4-2.2,2.1-3.4c1.6-2.6,3.1-5.3,4-8.2c0.5-1.5,1.1-2.9,1.7-4.3c0.4-1,0.8-2,0.8-3.1
		C183,165.9,182.9,164.9,182.8,163.5z M283.5,384.7c-0.1,0.1-0.2,0.2-0.2,0.2c-0.5,4.4,0.5,8.4,3.3,11.8c2.6,3.1,6,5.4,9.2,7.8
		c0.5,0.4,1.2,0.7,1.8,0.9c2.1,0.7,4.3,1.2,6.5,1.2c3.3,0.1,6.4-0.6,9.4-1.9c2.1-0.9,4.2-1.9,6.3-2.9c0.5-0.2,1-0.6,1.4-1
		c0.8-1.1,1.6-2.3,2.3-3.5c0.2-0.4,0.2-0.9,0.3-1.3c-3-1.6-7.9-2.9-10.3-2.8c-0.5,0.6-1.1,1.2-1.7,1.8c-3,3.3-6.7,4.4-11,3.5
		c-3.1-0.7-6-1.9-8.2-4.2c-1.8-1.9-2.7-4.1-2.3-6.8c0.1-0.4,0.1-0.8,0.1-1.2c-1.3-0.2-2.4-0.5-3.5-0.7
		C285.8,385.3,284.7,384.6,283.5,384.7z M189.6,330.9c-1.8-1.4-3.4-2.7-5-3.9c-1.9-1.4-3.3-3.2-4.7-5c-0.2-1.9-1.8-3.1-2.6-4.7
		c-0.4-0.8-0.7-1.6-1.2-2.4c-0.1-0.2-0.4-0.4-0.7-0.7c-0.3,0.5-0.6,0.8-0.8,1.1c-0.3,0.4-0.5,0.9-0.7,1.3c-0.3,0.4-0.6,0.8-1.2,0.6
		c-0.4-0.1-0.7-0.6-0.5-1.2c0.2-0.7,0.5-1.4,0.8-2.1c0.3-0.6,0.7-1.1,1.1-1.7c-0.7-0.7-1.1-1.6-2.2-1.9c-0.4,0.7-0.6,1.2-1,1.8
		c-0.3,0.5-0.5,1-0.9,1.5c-0.2,0.2-0.6,0.3-1.1,0.6c-0.3-2.3,1.1-3.8,1.7-5.5c-1.7-2.4-4.2-4-6.5-5.7c-0.7-0.5-1.4-0.9-2.2-0.9
		c-1.4,0.9-1.9,2.2-2.5,3.6c-0.2,0.5-0.1,1.1,0,1.7c0.1,0.5,0.3,0.9,0.6,1.4c1.5,2.7,2.8,5.6,4.9,8c0.5,0.5,0.8,1.2,1.2,1.8
		c0.8,1.1,1.7,2.2,2.6,3.3c0.9,1.1,1.9,2.1,2.8,3.1c1.8,2,3.4,4,5.5,5.7c2.6,2,5.6,3.3,8.6,4.6C187.2,333.9,188.5,332.7,189.6,330.9
		z M98.4,329.3C98.4,329.3,98.4,329.3,98.4,329.3c0,0.7,0,1.3,0,2c-0.1,1,0.2,1.8,0.9,2.4c2.2,2.2,5,3.1,8.1,3.3
		c2.1,0.1,6.5-2.6,7.4-4.5c1.3-2.8,2-5.8,0.4-8.8c-0.5-1-1.1-2-1.8-3c-1.6-2.2-4.1-2.7-6.4-3.4c-1.8,0.4-3.6,0.6-4.9,2
		c-2.2,2.3-3.6,4.9-3.6,8.2C98.4,328.1,98.4,328.7,98.4,329.3z M331,135.4c0.6,0.3,0.9,0.5,1.1,0.6c1.7,0.5,2.6,1.6,2.9,3.3
		c0.3,1.5,0.5,2.9,0.6,4.4c0.1,1.5,0,3,0.1,4.4c0.2,3,1.4,5.4,3.9,7c0.7,0.4,1.4,0.5,2.1,0.1c1.7-0.9,2.8-2.3,3.3-4.1
		c0.7-2.5,1.5-4.9,1.9-7.4c0.5-2.8,0.7-5.6,0.7-8.3c0-0.6-0.1-1.1-0.2-1.7c-2.4-0.6-4.8-0.7-7.2-0.6c-1.1,0-2.1,0.2-2.9,1.1
		c-0.4,0.5-0.9,0.6-1.5,0.6c-1.2,0-2.5,0.2-3.7,0.4C331.9,135.1,331.7,135.2,331,135.4z M184.8,162.1c0,1.5,0,2.7,0,4
		c0,0.8,0.1,1.7,0,2.4c-0.3,1.8-0.8,3.5-1.1,5.3c-0.2,1.2-0.6,2.2-1.2,3.2c-0.8,1.4-1.6,2.7-2.2,4.1c-1.3,2.8-3.1,5.3-5.1,7.5
		c-1.1,1.2-2.3,2.4-3.4,3.6c-0.9,1-2,1.7-3.5,1.4c-0.2,0-0.4,0-0.8,0c1.5,1.1,2,1.2,3.9,1.5c0.9,0.2,1.8,0,2.6-0.4
		c2.6-1.3,5-2.8,7.1-4.9c0.6-0.6,1.1-1.2,1.5-1.9c1.2-2.1,2.1-4.3,3.7-6.1c0.2-0.2,0.2-0.4,0.3-0.7c0.8-1.7,1.7-3.4,2.2-5.2
		c0.5-1.8,0.6-3.7,0.9-5.6c0-0.2,0.1-0.3,0.1-0.5c0.3-1.5,0.7-2.9-0.7-4.1c-0.1-0.1-0.1-0.5-0.2-0.7c-0.2-0.4-0.4-0.8-0.7-1
		C187.3,163.4,186.3,162.6,184.8,162.1z M159.1,301.3c0.3-0.2,0.5-0.4,0.8-0.6c1.1-1.1,2.3-1.1,3.7-0.6c0.5,0.2,1.1,0.5,1.5,0.8
		c2,1.6,4.2,3,5.9,4.9c1.1,1.2,1.1,1.2,2.7,1.8c-0.1,1.3,0.7,2.1,1.7,2.8c1,0.7,1.7,1.4,2,2.9c0.7-1.1,1.3-2,1.9-2.9
		c-0.4-0.4-0.6-0.8-1-1.2c-2.7-2.8-5.2-5.7-7.1-9.1c-0.2-0.4-0.7-0.6-1.1-1c-0.5,0.6-0.8,1.2-1.3,1.6c-0.2,0.2-0.8,0.2-1.1,0
		c-0.6-0.3-0.9-1-0.7-1.7c0.2-0.7,0.5-1.4,0.8-2.1c0.3-0.7,0.1-1.3-0.6-1.7c-1.3,0.4-2.6,0.9-3.3,2.2c-0.2,0.4-0.6,0.7-1,0.4
		c-0.3-0.2-0.6-0.6-0.7-0.9c-0.2-0.9,0.2-1.6,0.9-2.2c0.6-0.5,1.3-0.8,1.9-1.2c0.4-0.3,0.8-0.5,1.2-0.8c-0.6-2.2-2.1-3.6-3.3-5.3
		c-1-1.5-2.2-2.1-3.8-2.5c-1.1-0.3-1.8,0-2.1,1.1c-0.3,0.9-0.5,1.9-0.8,2.8c-0.3,1.1-0.4,2.2-0.2,3.4
		C156.1,295.6,157.2,298.6,159.1,301.3z M337.9,314.6c-0.6-0.3-0.9-0.4-1.2-0.5c-5.4-1.3-10.4-3.7-15.7-5.3c-1.7-0.5-2-1-1.8-2.7
		c0.1-0.9,0.3-1.8,0.5-2.8c-3-1.1-6.1-1.9-9.1-3c-0.6,0.7-0.9,1.4-1,2.2c2.2,1.3,3.8,3,4.7,5.3c0.4,1,1,1.9,1.9,2.5
		c0.9,0.6,1.8,1.2,2.6,1.9c2.8,2.7,6.2,4.6,9.3,6.8c1.6-0.7,3.2-1.4,4.8-2.1C334.5,316.3,336.1,315.8,337.9,314.6z M320.9,306.6
		c1,0.3,2,0.6,2.9,0.9c1,0.3,2,0.7,3,1.1c1.5,0.6,3,1.2,4.6,1.8c3.4,1.1,6.8,1.9,10,3.5c0.5,0.3,1.1,0.4,1.6,0.6
		c5.8,1.8,11.5,3.5,17.3,5.2c0.4,0.1,0.9,0.1,1.4,0.2c0.7-1.3,0.6-1.3,0.6-2.4c-1.5-0.6-3-1.3-4.5-1.9c-2.4-1-4.7-2-7.1-2.8
		c-9.2-2.9-18.4-5.6-27.7-8.4c-0.5-0.1-0.9-0.2-1.4-0.3C321,305,321,305,320.9,306.6z M330.2,132.9c0.7,0,1.3,0,2,0
		c2.7,0.1,4.5-1.2,5.7-3.6c0.4-0.9,0.9-1.8,1.3-2.7c0.9-1.9,0.5-4.7-1-6.2c-1.7-1.6-3.6-2.8-5.9-3.5c-3.3-1.1-6.8-1.2-10.2-1.5
		c-1.4-0.1-2.8,0.3-3.8,1.4c-2.2,2.4-2.8,5.2-2.1,8.3c0.2,0.9,0.5,1.7,0.8,2.6c0.5,1.4,1.3,2.6,2.7,3.1
		C323,132.1,326.5,133.1,330.2,132.9z M297.1,125.8c0.7,0,1.3-0.1,2,0c0.8,0.1,1.5-0.1,2.1-0.4c2.6-1.2,4.4-3.1,5.3-5.9
		c0.5-1.5,0.6-3.1,0.6-4.6c0-1.5-0.8-2.7-2.1-3.4c-1.5-0.7-3-1.4-4.5-1.9c-2.6-0.9-5.3-1-8.1-0.9c-2.5,0-4.5,1.1-6.1,2.9
		c-1.9,2.1-2.9,4.6-3.5,7.3c-0.1,0.5-0.1,1.1,0.1,1.4c1.1,1.9,2.3,3.5,4.5,4.3C290.5,125.6,293.8,125.8,297.1,125.8z M293.4,386.7
		c-0.7,2-0.3,3.6,0.7,5c1,1.4,2.3,2.4,3.9,2.9c1.2,0.4,2.5,0.7,3.8,1.1c1.9,0.6,3.8,0.4,5.5-0.6c1.1-0.6,2.1-1.3,3.1-2
		c0.3-0.2,0.5-0.6,0.7-1c-1-0.8-2-1.1-3-1.4c-4.1-1.2-8.2-2.4-12.4-3.5C295.1,387,294.4,386.9,293.4,386.7z M213.9,221
		c1.5,1.8,2.2,2.1,3.9,1.7c2.3-0.5,4.3-1.7,5.7-3.7c0.9-1.3,1.1-2.9,1.5-4.4c0.1-0.4-0.1-1-0.4-1.4c-0.9-1.2-2.8-1.8-4.2-1.2
		c-1.8,0.8-3.5,1.8-5,3C215,217,214.5,218.9,213.9,221z M317.1,132c-0.2-0.5-0.2-0.7-0.3-0.8c-2.7-3.7-2.7-3.7-3.4-7.6
		c-1.8-0.6-3.8-0.4-5.7-0.9c-0.6,0.8-1.2,1.5-1.8,2.2c-0.6,0.6-1.2,1.1-1.9,1.6c-0.7,0.5-1.6,0.9-2.4,1.3c-0.7,0.4-1.7,0.3-2.5,1.2
		C305.4,129.1,311.1,131.2,317.1,132z M158.4,309.9c0,0.4,0,0.8,0.1,1.1c0.8,3.6,2.6,6.8,4.7,9.7c2.2,3,4.5,5.9,6.8,8.8
		c0.2,0.3,0.4,0.5,0.7,0.7c1.5,1.3,2.9,2.7,4.4,3.9c0.8,0.6,1.6,1.1,2.5,1.5c1,0.4,2,0.6,3.1,0.9c0.5,0.1,1.1,0.2,1.6-0.5
		c-0.5-0.3-0.8-0.5-1.3-0.7c-3.6-1.6-6.6-3.9-9.2-6.9c-1.7-2.1-3.3-4.3-5.4-6.1c-0.5-0.4-0.9-1-1.3-1.5c-1.3-1.8-2.6-3.6-3.8-5.5
		c-0.7-1-1.2-2.2-1.7-3.3C159.4,311.3,159.3,310.5,158.4,309.9z M340.4,130.7c1.6,0.1,3,0.2,4.5,0.2c1.5,0,3,0.8,4.6,0.2
		c0.5-1.2,0.5-2.5,0.6-3.6c-0.6-0.7-1.3-0.9-2.1-0.9c-0.7,0-1.5-0.1-2.2-0.1c-1.4-0.1-2.8-0.1-4.2-0.2
		C341,127.8,340.4,129.1,340.4,130.7z M283.2,125.3c-0.4,1.4-0.9,2.8-1.2,4.2c-0.6,2.5-0.8,5-0.8,7.6c0,1.2,0.3,2.2,1.4,3.1
		c0.9-2,0.9-4.1,1.5-6c0.7-2,1.3-4.1,2-6.1C285.6,126.9,285,125.6,283.2,125.3z M331.9,321.8c4.6-1.5,9-2.9,13.5-4.3
		c-1.6-1-3.2-1.1-4.7-1.8c-1.7,0.8-3.4,1.6-5.1,2.4c-1.7,0.8-3.6,1-5.2,2.4C331,321,331.5,321.5,331.9,321.8z M157.7,303.9
		c-0.6-1.3-1.1-2.5-1.7-3.5c-0.6-1-0.6-2.3-1.8-3.5c0.2,1.5,0.3,2.6,0.4,3.7c0.2,1,0.3,2.1,0.6,3.1c0.2,1,0.3,2.2,1.2,3.3
		C156.8,305.9,157.3,304.9,157.7,303.9z M308.5,120.8c1.6,0.3,3,0.3,4.4,0.4c0.2,0,0.5-0.3,0.6-0.6c0.1-0.1-0.2-0.5-0.3-0.6
		c-1.3-0.5-2.6-0.9-4-0.8C308.9,119.6,308.8,120,308.5,120.8z"/>
	<path class="st18" d="M422.3,383.5c-0.2-0.9-0.7-1.2-1.4-1.5c-1.3-0.5-2.6-1-4-1.3c-1.8-0.4-3.7-0.6-5.6-0.9
		c-0.8-0.1-1.7-0.1-2.1-1c-0.4-1,0.4-1.5,0.9-2.1c0.4-0.5,0.9-1,1.3-1.5c0.9-1.5,0.7-3-0.5-4.3c-1-1.1-2.3-1.6-3.7-1.8
		c-2-0.3-3.9-0.3-5.9-0.1c-0.2,0-0.3,0.1-0.5,0.1c-3.9,0.3-6.3,2.4-7.8,5.9c-0.7,1.7-1.1,3.3,0,4.9c0.1,0.1,0,0.3,0,0.5
		c-1.2,0.4-1.6,0.2-2-0.6c-0.5-1-0.6-2.1-0.5-3.1c0.4-4.5,3.7-8.5,8.1-9.6c3.1-0.8,6.2-1,9.3-0.4c1.8,0.4,3.5,1.1,4.8,2.4
		c1.8,1.9,2.2,4.2,1.1,6.6c-0.3,0.6-0.6,1.1-1,1.9c1.8,0.3,3.5,0.6,5.2,1c1.4,0.4,2.8,0.9,4.2,1.4c0.5,0.2,1,0.6,1.4,1
		c1.2,1.1,1.4,2.7,0.5,4c-0.5,0.7-1.1,1.2-1.6,1.9c-0.4,0.4-0.8,0.8-1.2,1.4c0.4,0.5,0.7,0.9,1,1.4c1.3,1.7,2.7,3.4,4,5
		c2.4,3,1.4,8.8-1.2,11.2c-1.8,1.6-3.6,2.8-5.9,3.5c-4.4,1.3-8.8,1.5-13.2,0.1c-2.6-0.8-5.1-1.8-7.7-2.8c-0.2-0.1-0.4-0.4-0.6-0.6
		c0.4-0.6,0.9-0.3,1.2-0.2c1.5,0.6,3.1,1.1,4.6,1.8c1.9,0.8,3.8,1.1,5.8,0.8c2.6-0.3,5.2-0.6,7.8-1.1c2.2-0.4,4.1-1.6,5.9-3
		c2.2-1.8,2.8-6.6,1-8.6c-1.3-1.4-2.3-3-3.5-4.5c-0.3-0.4-0.7-0.7-1-1.1c-1-1.3-1-2.4,0.1-3.6c0.6-0.7,1.3-1.3,1.9-2
		C421.8,384.3,422,383.9,422.3,383.5z"/>
	<path class="st18" d="M485.2,332.8c0.3,0.6,0,0.9-0.4,1c-0.6,0.1-1.3,0.1-2,0.1c-3.2,0-6.4,0-9.7,0c-1.8,0-3.6,0-5.4,0.2
		c-5.3,0.6-10.7,0.6-16.1,0.7c-10.4,0.2-20.8-0.1-31.2-0.7c-3.9-0.2-7.9-0.8-11.8-1.2c-0.5-0.1-1-0.4-1.8-0.7c0.5-0.3,0.7-0.6,1-0.6
		c1.1-0.1,2.3-0.2,3.5-0.2c1,0,2,0.1,3,0.2c16.4,1,32.8,1,49.2,0.9c6.4,0,12.7,0,19.1,0C483.4,332.6,484.4,332.4,485.2,332.8z"/>
	<path class="st18" d="M442.8,301.7c-9.7,0.3-19.5,0.7-29.2,0.3c-2.1-0.1-4.1-0.4-6.2-0.6c-0.2,0-0.4,0-0.5-0.1
		c-0.2-0.2-0.6-0.4-0.6-0.7c0-0.2,0.3-0.6,0.6-0.6c1.2-0.1,2.5-0.4,3.7-0.3c8.1,0.5,16.2,0.2,24.3,0c5.1-0.1,10.2-0.3,15.4-0.4
		c3.4-0.1,6.8-0.2,10.2-0.2c2.1,0,4.1,0.2,6.2,0.3c2.4,0.1,4.8,0.3,7.2,0.5c0.3,0,0.7,0.1,1,0.2c0.1,0,0.2,0.3,0.2,0.4
		c0,0.1-0.1,0.4-0.2,0.4c-0.4,0.1-0.8,0.2-1.2,0.3c-1.3,0-2.6,0-4-0.1C460.6,300.8,451.7,301.5,442.8,301.7z"/>
	<path class="st18" d="M487.7,353.8c-0.8,0.5-1.5,0.2-2.2,0.1c-3.5-0.6-7-0.8-10.6-1c-10.1-0.6-20.3-0.6-30.4-0.6
		c-4,0-8.1-0.3-12.1-0.8c-0.4-0.1-0.8-0.3-1.1-0.4c-0.3-0.1-0.2-0.7,0-0.8c0.4-0.2,0.8-0.4,1.1-0.4c1.3-0.1,2.6-0.1,4,0
		c1.7,0,3.5,0.2,5.2,0.2c4.8,0,9.6,0.1,14.4,0c5.6-0.1,11.2,0.4,16.8,0.8c0.4,0,0.8,0.1,1.2,0.1c4.2-0.1,8.2,0.9,12.2,1.8
		c0.5,0.1,0.9,0.3,1.4,0.5C487.7,353.2,487.7,353.6,487.7,353.8z"/>
	<path class="st18" d="M491.9,317.1c-1.5,0.4-2.8,0.8-4.3,0.8c-3.4,0.1-6.8,0.2-10.1,0.2c-7.8,0-15.7,0-23.5-0.1
		c-3.9-0.1-7.7-0.4-11.6-0.7c-0.6,0-1.3-0.3-1.9-0.5c-0.1,0-0.2-0.3-0.2-0.4c0-0.1,0.1-0.4,0.2-0.4c0.9-0.2,1.8-0.5,2.6-0.5
		c2.2-0.1,4.5,0,6.7,0c2.6,0.1,5.3,0.3,7.9,0.3c9.4,0.1,18.8,0.1,28.2,0.1c1.9,0,3.8,0.3,5.6,0.8
		C491.7,316.6,491.7,316.8,491.9,317.1z"/>
	<path class="st18" d="M448.8,368.6c-6.6-0.4-13.2-0.8-19.7-1.2c-0.8-0.1-1.6-0.3-2.4-0.6c-0.4-0.1-0.6-0.6-0.5-1
		c0.1-0.3,0.4-0.5,0.7-0.6c0.3-0.1,0.6-0.1,1,0c4.3,0.3,8.6,0.4,12.8,0.8c5.2,0.4,10.4,0.5,15.6,0.4c3.9-0.1,7.7-0.3,11.6-0.4
		c0.7,0,1.5,0,2.2,0.1c0.2,0,0.4,0.3,0.4,0.5c0,0.2-0.2,0.5-0.3,0.6c-0.5,0.2-1.1,0.3-1.7,0.3c-2.7,0.2-5.5,0.2-8.1,0.6
		C456.5,368.5,452.6,368.4,448.8,368.6z"/>
	<path class="st18" d="M378.3,385.8c-4.5,0.2-8.9-0.4-13.3-1c-0.2,0-0.5-0.1-0.7-0.3c-0.2-0.1-0.4-0.4-0.4-0.6
		c0-0.3,0.2-0.7,0.4-0.8c0.2-0.2,0.6-0.3,0.9-0.3c0.7,0,1.3-0.1,2,0c4.1,0.6,8.2,0.9,12.3,1c1.7,0,3.5,0.3,5.2,0.4
		c0.2,0,0.5,0.3,0.5,0.4c-0.1,0.3-0.2,0.6-0.4,0.7c-0.3,0.2-0.6,0.1-1,0.2C381.9,385.6,380.1,385.7,378.3,385.8z"/>
	<path class="st18" d="M383.5,393.7c0.3,0.7,0,1.1-0.5,1.2c-1.4,0.3-2.7,0.6-4.1,0.7c-4,0.1-8,0-12.1,0c-0.2,0-0.5,0-0.7,0
		c-0.5-0.1-1-0.2-1.1-0.8c-0.1-0.5,0.4-0.9,1.2-1c1-0.1,2-0.1,3-0.1c2.4,0,4.8,0,7.1,0c1.9,0,3.8,0,5.7,0
		C382.5,393.6,383,393.7,383.5,393.7z"/>
	<path class="st18" d="M184.1,216.5c-4.5,6-9.3,10.8-14.4,15.5c-3.2,2.9-6.2,5.9-8.9,9.3c-1.5,1.9-3.3,3.7-5,5.5
		c-2.5,2.6-5.1,5.2-7.5,7.9c-2.1,2.4-4.1,4.9-5.4,7.9c-0.4,1-1,1.9-1.6,2.8c-0.3,0.4-1,0.6-1.3,0.3c-0.3-0.3-0.5-0.7-0.5-1
		c0-0.4,0.2-0.8,0.3-1.2c2.1-4.3,4.7-8.3,8.1-11.8c2.1-2.1,4.2-4.2,6.2-6.4c2.2-2.4,4.4-4.9,6.6-7.3c1.2-1.3,2.4-2.7,3.7-4
		c2.6-2.4,5.3-4.7,7.9-7.2c2.8-2.6,5.4-5.3,8.1-8c0.6-0.6,1.3-1.3,2-1.8C182.9,216.8,183.3,216.8,184.1,216.5z"/>
	<path class="st18" d="M253.3,350.8c-0.9-0.3-1-1-0.8-1.6c0.5-1.9,1-3.9,1.7-5.7c1-2.4,2.8-4.5,4.5-6.5c0.2-0.2,0.5-0.3,0.7-0.4
		c0.5,0.4,0.2,0.7,0.1,0.9c-0.7,1.2-1.4,2.4-2.1,3.7c-1.1,2-1.9,4-2.4,6.2C254.8,348.7,254.4,349.9,253.3,350.8z"/>
	<path class="st18" d="M247.8,361c0.1-1.3-0.7-2.6,0-3.9c0.9,0.4,1,1.2,1.2,1.9c0.3,0.8,0.5,1.6,0.6,2.4c0,0.3-0.3,0.8-0.5,1
		c-0.3,0.3-0.8,0.5-1.4,0.8c0.1,0.4,0.1,0.8,0.2,1.2c0,0.4,0,0.8,0,1.4c-1.1-0.7-1.1-1.6-1.2-2.4C246.4,362.1,247.5,361.7,247.8,361
		z"/>
	<path class="st18" d="M266.8,310.4c0,0.4,0,0.8-0.2,1.1c-0.2,0.6-0.1,1.4-1,1.5c-0.1,0-0.2,0-0.2-0.1c-0.5-0.8,0.1-1.4,0.4-2
		c0.2-0.3,0.3-0.6,0.5-0.8C266.6,310.2,266.7,310.3,266.8,310.4z"/>
	<path class="st18" d="M264.3,306.7c0,1.1-0.3,1.6-1.2,2C263,307.7,263.4,307.2,264.3,306.7z"/>
	<path class="st18" d="M268.1,370.1c-0.9-0.7-1.1-1.5-1.3-2.4c-0.5-3-0.5-5.9,0.5-8.8c0.8-2.3,1.7-4.4,2.6-6.7
		c0.4-1.1,1.1-2,2.2-2.6c1.1-0.6,1.7-1.7,2.2-2.9c0.6-1.5,1.1-1.9,2.9-2.7c-0.5,0.8-0.9,1.4-1.4,1.9c-2,2.5-3.4,5.2-4.4,8.2
		c-1,3-2.2,6-2.4,9.3c-0.1,1.6-0.1,3.1-0.2,4.7C268.8,368.9,268.9,369.6,268.1,370.1z"/>
	<path class="st18" d="M125.1,281.6c-1.4,0-2.7-0.4-3.9-0.7c-3-0.9-6-1.2-9-1.1c-4.9,0.2-9.9,0.4-14.7,1.5c-3.1,0.7-6.2,1.6-9.3,2.5
		c-0.2,0.1-0.5,0.2-0.7,0.2c-0.3,0-0.7-0.2-0.8-0.4c-0.1-0.2,0.1-0.7,0.3-0.8c0.4-0.3,0.8-0.6,1.2-0.8c0.5-0.2,1.1-0.4,1.6-0.6
		c2.3-0.6,4.6-1.3,6.9-1.8c2.1-0.5,4.2-0.9,6.3-1.1c4.9-0.4,9.8-1,14.8-0.2c2.2,0.3,4.3,1,6.4,1.9
		C124.7,280.3,125.2,280.5,125.1,281.6z"/>
	<path class="st18" d="M121.3,355c-2.1,2-4.6,3.5-7.5,3.9c-2.6,0.4-5.2,0.6-7.9,0.8c-0.8,0.1-1.7,0-2.4-0.3
		c-2.1-0.8-4.1-1.7-6.2-2.6c1.3-0.4,1.3-0.3,2.3-0.1c1.8,0.3,3.5,0.8,5.3,1c1.4,0.2,2.8,0.1,4.2,0c1.1,0,2.1-0.2,3.2-0.2
		c2.4,0,4.7-0.7,6.8-1.9c0.6-0.4,1.3-0.7,1.9-1C121.2,354.7,121.3,354.8,121.3,355z"/>
	<path class="st18" d="M76.8,316.9c0.4-2.9,1.7-5.3,3.4-7.5c3.1-3.9,6.7-7.3,11.3-9.5c0.8-0.4,0.8-0.4,2.3-0.4
		c-0.1,0.3-0.2,0.7-0.3,0.8c-0.4,0.4-0.9,0.7-1.4,1c-4.7,2.5-8.3,6.2-11.5,10.3C79.2,313.4,78,315.2,76.8,316.9z"/>
	<path class="st18" d="M84.4,348.8c-1.6-0.5-2-0.7-3.5-2.3c-3.4-3.3-6-7.2-7.7-11.7c-0.7-1.9-1.3-3.9-0.9-6c0.6,0,0.6,0.5,0.8,0.9
		c0.7,1.9,1.3,3.9,2.1,5.8c1.9,4.3,4.5,8.1,7.7,11.4C83.5,347.5,84.1,347.9,84.4,348.8z"/>
	<path class="st18" d="M129.4,350.4c-0.5-1.1-0.5-2-0.3-3c0.8-0.3,0.9,0.3,1,0.8C130.4,349,130.5,349.8,129.4,350.4z"/>
	<path class="st18" d="M132.2,345.5c0.9-0.1,1,0.7,1.1,1.3c0.1,0.3-0.2,0.7-0.3,1.1C132.2,346.7,132.2,346.7,132.2,345.5z"/>
	<path class="st18" d="M127.4,350.3c-0.2,0.1-0.3,0.2-0.4,0.3c-0.1-0.3-0.2-0.5-0.3-0.8c0.1,0,0.3-0.1,0.3-0.1
		C127.2,349.9,127.3,350.1,127.4,350.3z"/>
	<path class="st18" d="M293.1,161.3c0.5-0.2,1-0.6,1.2-0.5c1.4,0.9,3,0.9,4.4,1.4c0.5,0.2,1,0.4,1.4,0.4c2.4-0.1,4.7,0.2,7.1-0.6
		c2.5-0.9,5.1-1.4,7.6-2.1c1.2-0.3,2.4-0.6,3.2-1.7c0.4-0.5,1-0.6,1.6-0.5c1.6,0.3,3,0.9,4,2.2c0.2,0.2,0.2,0.6,0.2,0.8
		c-0.6,0.7-1.2,0.2-1.8,0.2c-0.1,0.2-0.4,0.3-0.4,0.5c-0.5,1.5-0.9,3-1.4,4.5c-0.2,0.7-0.5,1.4-0.7,2.1c-0.7,2.2-1.7,4.1-3.7,5.4
		c-2.3,2.8-5.6,3.5-8.9,3.7c-3.2,0.2-6-0.9-7.9-3.7c-0.7-1-1.4-2-2.1-3.1c-0.8-1.3-1.4-2.6-1.6-4.1
		C295.1,164.4,294.7,162.7,293.1,161.3z M297.2,163.8c-0.1,0.6-0.3,1-0.3,1.3c0,0.6,0.1,1.2,0.3,1.7c0.7,1.4,1.4,2.8,2.2,4.1
		c2,3.3,5.2,4.3,8.8,4.6c0.2,0,0.5,0,0.7-0.1c2.4-0.7,4.6-1.9,6.2-3.9c1.6-2.1,2.5-4.6,3.2-7.5c-0.7,0.3-1,0.4-1.3,0.6
		c-1.4,0.8-2.7,1.6-4.1,2.3c-3.9,1.7-7.9,2.5-11.8,0.1c-0.7-0.4-1.5-0.7-2.1-1.2C298.3,165.3,297.9,164.6,297.2,163.8z M318.5,161.2
		c-0.5,0-0.8-0.1-1,0c-2.4,0.8-4.9,1.5-7.3,2.3c-2.6,0.8-5.2,1.6-8,1.2c-0.3,0-0.8-0.2-1,0.5c1,0.5,2,1.1,3.1,1.5
		c0.5,0.2,1.1,0.4,1.7,0.3c2-0.1,4-0.5,5.7-1.4c2-1.1,4-2.3,6-3.5C317.9,162,318.1,161.6,318.5,161.2z"/>
	<path class="st18" d="M295.6,146.4c-0.1-0.5-0.1-1.2-0.2-2c-0.2-0.7-1.1-1-1.6-0.5c-0.5,0.6-0.9,1.3-1.3,2
		c-0.3,0.5-0.5,1.1-0.8,1.5c-0.1,0.2-0.6,0.2-0.9,0.2c-0.2,0-0.4-0.3-0.5-0.5c-0.4-1.8,1.5-5,3.3-5.5c1.7-0.5,2.9-0.1,3.7,1.5
		c0.9,1.6,0.8,3.3,0.2,5c-0.2,0.6-0.8,1-1.3,0.9c-0.5-0.1-0.8-0.6-0.8-1.4C295.5,147.3,295.6,147,295.6,146.4z"/>
	<path class="st18" d="M303.2,154c0.2,1.3,1.4,2,1.3,3.4c-1.1,0.1-2.1,0-2.8-1c-0.7-0.9-1.2-1.9-0.7-3.2c0.9-2.6,1.7-5.3,2.6-8
		c0.1-0.4,0.4-0.9,0.8-1.2c0.3-0.4,1.2-0.1,1.2,0.4c0.1,0.6,0.1,1.2-0.1,1.7c-0.5,1.9-1.1,3.8-1.6,5.7
		C303.6,152.6,303.4,153.4,303.2,154z"/>
	<path class="st18" d="M316.8,148.3c-1.3,0.1-2,0.8-2.3,1.8c-0.1,0.4-0.1,0.9-0.3,1.2c-0.2,0.3-0.7,0.5-1,0.5
		c-0.3-0.1-0.8-0.5-0.8-0.8c-0.1-1.5,0.2-3,1.6-3.9c0.5-0.3,1-0.6,1.5-0.8c1.7-0.7,3.1-0.1,3.7,1.7c0.5,1.5,0.8,3,0.3,4.6
		c-0.1,0.4-0.3,0.8-0.5,1.1c-0.2,0.2-0.6,0.4-0.9,0.3c-0.3-0.1-0.7-0.5-0.8-0.8c-0.1-0.5,0.1-1.1,0.1-1.7
		C317.5,150.4,317.6,149.3,316.8,148.3z"/>
	<path class="st18" d="M297.4,137.5c-1.8-1.4-3.5-1.4-5.3-0.8c-0.4,0.1-0.8,0-1.1-0.4c-0.2-0.4-0.1-1,0.3-1.3
		c0.2-0.1,0.4-0.3,0.6-0.4c1.5-0.3,2.9-0.5,4.4,0.1C297.6,135.1,297.7,135.4,297.4,137.5z"/>
	<path class="st18" d="M323.2,141.4c-0.2,0.3-0.3,0.6-0.5,0.6c-2,0-4.1-0.1-6.1-0.2c-0.2,0-0.4,0-0.5-0.1c-0.2-0.2-0.5-0.5-0.5-0.8
		c0.1-0.3,0.4-0.9,0.6-0.9c1.2-0.1,2.4-0.1,3.7-0.1C321.2,139.9,322.2,140.5,323.2,141.4z"/>
	<path class="st18" d="M322.8,414.6c-0.5,0.6-0.7,0.9-1,1.1c-2.7,2-5.6,3.4-9,3.6c-1.8,0.1-3.6,0.2-5.4,0.4c-3,0.3-5.7-0.3-8.4-1.4
		c-1.1-0.4-2.2-0.8-3.2-1.2c-0.4-0.1-0.7-0.3-1.2-0.6c1.2-0.3,2.1-0.1,2.9,0.1c4.3,1.2,8.7,1.6,13.2,1c0.5-0.1,1-0.1,1.5-0.1
		c2.9,0,5.5-0.7,8.1-2C320.9,415.2,321.6,414.8,322.8,414.6z"/>
	<path class="st18" d="M267.4,387.7c1,2.6,2,5.2,3.1,7.7c1.1,2.6,2.7,4.9,4.5,7.1c1.7,2.1,3.8,4,5.8,6.2c-1.1,0.2-1.6-0.2-2-0.6
		c-3.7-3.1-6.9-6.6-9.1-10.9C268,394.2,267.1,391.1,267.4,387.7z"/>
	<path class="st18" d="M331.6,406.9c0.4,0.8,0.9,1.3,1.1,2c0.1,0.4-0.1,0.9-0.2,1.4c-0.1,0.3-0.7,0.4-0.8,0.2
		c-0.3-0.5-0.6-1-0.7-1.5C330.8,408.4,330.7,407.7,331.6,406.9z"/>
	<path class="st18" d="M335.8,408.3c-0.9-0.9-1.1-1.8-1.4-2.7c0.8-0.5,1.2,0,1.5,0.5C336.3,406.7,336.6,407.4,335.8,408.3z"/>
	<path class="st18" d="M328.6,409.7c0.1,0.1,0.3,0.1,0.4,0.3c0.1,0.3,0.1,0.6,0.2,0.9c-0.1,0-0.3,0.1-0.4,0.1
		c-0.4-0.3-0.5-0.6-0.3-1C328.4,409.8,328.5,409.7,328.6,409.7z"/>
	<path class="st18" d="M325.3,117.4c1.8-0.1,3.6,0,5.3,0.7c1.6,0.7,3.2,1.3,4.7,2.2c1.6,0.9,2.3,2.6,1.9,4.4c-0.3,1.4-0.7,2.7-1.2,4
		c-0.5,1.4-1.3,1.9-2.8,1.8c-2.3-0.1-4.6,0.1-6.9-0.5c-2-0.6-4-1-6-1.5c-1.1-0.3-1.6-0.9-1.9-2c-0.6-2.7,0.4-5.1,1.5-7.4
		c0.5-1,1.3-1.6,2.6-1.6C323.5,117.6,324.4,117.4,325.3,117.4z M334.7,122.7c-1.4-0.8-2.7-1.8-4.2-2.5c-2.2-1.1-4.6-1-7-0.8
		c-1.3,0.1-2.1,0.8-2.3,2.1c-0.2,0.9-0.5,1.7-0.7,2.6c-0.2,1.1,0.2,1.9,1.2,2.5c0.4,0.2,0.7,0.3,1.1,0.5c1.9,0.8,4,1,6,1.1
		c1.1,0,2.1,0.1,3.2,0.1c1.3,0,2.1-0.7,2.6-2C335,125.2,335.2,124.1,334.7,122.7z"/>
	<path class="st18" d="M295.6,110c2.5,0,5,1.1,7.4,1.9c0.7,0.2,1.3,0.8,1.8,1.3c0.8,0.7,1.1,1.7,0.9,2.7c-0.4,2.4-1.5,4.6-3.1,6.3
		c-1.5,1.6-3.8,2.1-5.9,1.7c-3.2-0.5-6.5-1.2-9.6-2.3c-1.9-0.7-2.2-1-2.3-3c-0.3-3.9,2.1-7.2,6-8.1
		C292.3,110.1,293.8,109.8,295.6,110z M297.8,121.8c2.6-0.2,3.5-0.8,4.3-2.8c0.1-0.4,0.5-0.7,0.6-1c0.3-0.6,0.5-1.2,0.7-1.8
		c0.3-1,0.1-1.5-0.9-2.1c-0.2-0.1-0.4-0.3-0.6-0.4c-3.3-1.2-6.7-2.2-10.3-1.5c-2.1,0.4-3.3,1.7-4.3,3.3c-0.5,0.7-0.7,1.7-0.6,2.6
		c0.1,0.7,0.4,1.2,1.1,1.5c3,1.2,6.2,1.5,9.3,2.2C297.3,121.8,297.5,121.8,297.8,121.8z"/>
</g>
<text transform="matrix(-0.9539 -0.3001 -0.3001 0.9539 391.9135 282.0842)"><tspan x="0" y="0" class="st19 st20 st21">Delivery</tspan><tspan x="3.8" y="19.3" class="st19 st20 st21">Service</tspan></text>
</svg>
