<?xml version="1.0" encoding="utf-8"?>
<!-- Generator: Adobe Illustrator 22.1.0, SVG Export Plug-In . SVG Version: 6.00 Build 0)  -->
<svg version="1.1" id="Objects" xmlns="http://www.w3.org/2000/svg" xmlns:xlink="http://www.w3.org/1999/xlink" x="0px" y="0px"
	 viewBox="0 0 65 62" style="enable-background:new 0 0 65 62;" xml:space="preserve">
<style type="text/css">
	.st0{fill:#FFFFFF;}
	.st1{fill:none;stroke:#FFA803;stroke-width:1.8662;stroke-miterlimit:10;}
</style>
<g>
	<g id="XMLID_4_">
		<g>
			<rect x="53.1" y="52.1" class="st0" width="2.1" height="2.1"/>
			<rect x="53.1" y="49.9" class="st0" width="2.1" height="2.1"/>
			<rect x="53.1" y="47.8" class="st0" width="2.1" height="2.1"/>
			<rect x="53.1" y="45.7" class="st0" width="2.1" height="2.1"/>
			<rect x="53.1" y="43.6" class="st0" width="2.1" height="2.1"/>
			<rect x="53.1" y="41.5" class="st0" width="2.1" height="2.1"/>
			<rect x="53.1" y="39.3" class="st0" width="2.1" height="2.1"/>
			<rect x="53.1" y="37.2" class="st0" width="2.1" height="2.1"/>
			<rect x="53.1" y="35.1" class="st0" width="2.1" height="2.1"/>
			<rect x="53.1" y="33" class="st0" width="2.1" height="2.1"/>
			<rect x="53.1" y="30.9" class="st0" width="2.1" height="2.1"/>
			<rect x="53.1" y="28.7" class="st0" width="2.1" height="2.1"/>
			<rect x="53.1" y="26.6" class="st0" width="2.1" height="2.1"/>
			<rect x="53.1" y="24.5" class="st0" width="2.1" height="2.1"/>
			<rect x="53.1" y="22.4" class="st0" width="2.1" height="2.1"/>
			<rect x="53.1" y="20.3" class="st0" width="2.1" height="2.1"/>
			<rect x="53.1" y="18.1" class="st0" width="2.1" height="2.1"/>
			<rect x="53.1" y="16" class="st0" width="2.1" height="2.1"/>
			<rect x="53.1" y="13.9" class="st0" width="2.1" height="2.1"/>
			<rect x="53.1" y="11.8" class="st0" width="2.1" height="2.1"/>
			<rect x="53.1" y="9.6" class="st0" width="2.1" height="2.1"/>
			<rect x="53.1" y="7.5" class="st0" width="2.1" height="2.1"/>
			<rect x="51" y="52.1" class="st0" width="2.1" height="2.1"/>
			<rect x="51" y="49.9" width="2.1" height="2.1"/>
			<rect x="51" y="47.8" width="2.1" height="2.1"/>
			<rect x="51" y="45.7" width="2.1" height="2.1"/>
			<rect x="51" y="43.6" class="st0" width="2.1" height="2.1"/>
			<rect x="51" y="41.5" width="2.1" height="2.1"/>
			<rect x="51" y="39.3" width="2.1" height="2.1"/>
			<rect x="51" y="37.2" width="2.1" height="2.1"/>
			<rect x="51" y="35.1" width="2.1" height="2.1"/>
			<rect x="51" y="33" class="st0" width="2.1" height="2.1"/>
			<rect x="51" y="30.9" width="2.1" height="2.1"/>
			<rect x="51" y="28.7" width="2.1" height="2.1"/>
			<rect x="51" y="26.6" class="st0" width="2.1" height="2.1"/>
			<rect x="51" y="24.5" width="2.1" height="2.1"/>
			<rect x="51" y="22.4" width="2.1" height="2.1"/>
			<rect x="51" y="20.3" class="st0" width="2.1" height="2.1"/>
			<rect x="51" y="18.1" width="2.1" height="2.1"/>
			<rect x="51" y="16" width="2.1" height="2.1"/>
			<rect x="51" y="13.9" width="2.1" height="2.1"/>
			<rect x="51" y="11.8" width="2.1" height="2.1"/>
			<rect x="51" y="9.6" width="2.1" height="2.1"/>
			<rect x="51" y="7.5" class="st0" width="2.1" height="2.1"/>
			<rect x="48.9" y="52.1" class="st0" width="2.1" height="2.1"/>
			<rect x="48.9" y="49.9" class="st0" width="2.1" height="2.1"/>
			<rect x="48.9" y="47.8" class="st0" width="2.1" height="2.1"/>
			<rect x="48.9" y="45.7" class="st0" width="2.1" height="2.1"/>
			<rect x="48.9" y="43.6" width="2.1" height="2.1"/>
			<rect x="48.9" y="41.5" class="st0" width="2.1" height="2.1"/>
			<rect x="48.9" y="39.3" class="st0" width="2.1" height="2.1"/>
			<rect x="48.9" y="37.2" class="st0" width="2.1" height="2.1"/>
			<rect x="48.9" y="35.1" width="2.1" height="2.1"/>
			<rect x="48.9" y="33" class="st0" width="2.1" height="2.1"/>
			<rect x="48.9" y="30.9" class="st0" width="2.1" height="2.1"/>
			<rect x="48.9" y="28.7" width="2.1" height="2.1"/>
			<rect x="48.9" y="26.6" class="st0" width="2.1" height="2.1"/>
			<rect x="48.9" y="24.5" width="2.1" height="2.1"/>
			<rect x="48.9" y="22.4" class="st0" width="2.1" height="2.1"/>
			<rect x="48.9" y="20.3" class="st0" width="2.1" height="2.1"/>
			<rect x="48.9" y="18.1" width="2.1" height="2.1"/>
			<rect x="48.9" y="16" class="st0" width="2.1" height="2.1"/>
			<rect x="48.9" y="13.9" class="st0" width="2.1" height="2.1"/>
			<rect x="48.9" y="11.8" class="st0" width="2.1" height="2.1"/>
			<rect x="48.9" y="9.6" width="2.1" height="2.1"/>
			<rect x="48.9" y="7.5" class="st0" width="2.1" height="2.1"/>
			<rect x="46.7" y="52.1" class="st0" width="2.1" height="2.1"/>
			<rect x="46.7" y="49.9" width="2.1" height="2.1"/>
			<rect x="46.7" y="47.8" class="st0" width="2.1" height="2.1"/>
			<rect x="46.7" y="45.7" width="2.1" height="2.1"/>
			<rect x="46.7" y="43.6" class="st0" width="2.1" height="2.1"/>
			<rect x="46.7" y="41.5" width="2.1" height="2.1"/>
			<rect x="46.7" y="39.3" class="st0" width="2.1" height="2.1"/>
			<rect x="46.7" y="37.2" class="st0" width="2.1" height="2.1"/>
			<rect x="46.7" y="35.1" width="2.1" height="2.1"/>
			<rect x="46.7" y="33" width="2.1" height="2.1"/>
			<rect x="46.7" y="30.9" width="2.1" height="2.1"/>
			<rect x="46.7" y="28.7" width="2.1" height="2.1"/>
			<rect x="46.7" y="26.6" width="2.1" height="2.1"/>
			<rect x="46.7" y="24.5" width="2.1" height="2.1"/>
			<rect x="46.7" y="22.4" class="st0" width="2.1" height="2.1"/>
			<rect x="46.7" y="20.3" class="st0" width="2.1" height="2.1"/>
			<rect x="46.7" y="18.1" width="2.1" height="2.1"/>
			<rect x="46.7" y="16" class="st0" width="2.1" height="2.1"/>
			<rect x="46.7" y="13.9" width="2.1" height="2.1"/>
			<rect x="46.7" y="11.8" class="st0" width="2.1" height="2.1"/>
			<rect x="46.7" y="9.6" width="2.1" height="2.1"/>
			<rect x="46.7" y="7.5" class="st0" width="2.1" height="2.1"/>
			<rect x="44.6" y="52.1" class="st0" width="2.1" height="2.1"/>
			<rect x="44.6" y="49.9" width="2.1" height="2.1"/>
			<rect x="44.6" y="47.8" class="st0" width="2.1" height="2.1"/>
			<rect x="44.6" y="45.7" class="st0" width="2.1" height="2.1"/>
			<rect x="44.6" y="43.6" class="st0" width="2.1" height="2.1"/>
			<rect x="44.6" y="41.5" class="st0" width="2.1" height="2.1"/>
			<rect x="44.6" y="39.3" class="st0" width="2.1" height="2.1"/>
			<rect x="44.6" y="37.2" class="st0" width="2.1" height="2.1"/>
			<rect x="44.6" y="35.1" class="st0" width="2.1" height="2.1"/>
			<rect x="44.6" y="33" class="st0" width="2.1" height="2.1"/>
			<rect x="44.6" y="30.9" class="st0" width="2.1" height="2.1"/>
			<rect x="44.6" y="28.7" class="st0" width="2.1" height="2.1"/>
			<rect x="44.6" y="26.6" class="st0" width="2.1" height="2.1"/>
			<rect x="44.6" y="24.5" width="2.1" height="2.1"/>
			<rect x="44.6" y="22.4" class="st0" width="2.1" height="2.1"/>
			<rect x="44.6" y="20.3" class="st0" width="2.1" height="2.1"/>
			<rect x="44.6" y="18.1" width="2.1" height="2.1"/>
			<rect x="44.6" y="16" class="st0" width="2.1" height="2.1"/>
			<rect x="44.6" y="13.9" class="st0" width="2.1" height="2.1"/>
			<rect x="44.6" y="11.8" class="st0" width="2.1" height="2.1"/>
			<rect x="44.6" y="9.6" width="2.1" height="2.1"/>
			<rect x="44.6" y="7.5" class="st0" width="2.1" height="2.1"/>
			<rect x="42.5" y="52.1" class="st0" width="2.1" height="2.1"/>
			<rect x="42.5" y="49.9" width="2.1" height="2.1"/>
			<rect x="42.5" y="47.8" class="st0" width="2.1" height="2.1"/>
			<rect x="42.5" y="45.7" width="2.1" height="2.1"/>
			<rect x="42.5" y="43.6" class="st0" width="2.1" height="2.1"/>
			<rect x="42.5" y="41.5" class="st0" width="2.1" height="2.1"/>
			<rect x="42.5" y="39.3" class="st0" width="2.1" height="2.1"/>
			<rect x="42.5" y="37.2" class="st0" width="2.1" height="2.1"/>
			<rect x="42.5" y="35.1" class="st0" width="2.1" height="2.1"/>
			<rect x="42.5" y="33" class="st0" width="2.1" height="2.1"/>
			<rect x="42.5" y="30.9" width="2.1" height="2.1"/>
			<rect x="42.5" y="28.7" width="2.1" height="2.1"/>
			<rect x="42.5" y="26.6" class="st0" width="2.1" height="2.1"/>
			<rect x="42.5" y="24.5" width="2.1" height="2.1"/>
			<rect x="42.5" y="22.4" width="2.1" height="2.1"/>
			<rect x="42.5" y="20.3" class="st0" width="2.1" height="2.1"/>
			<rect x="42.5" y="18.1" width="2.1" height="2.1"/>
			<rect x="42.5" y="16" width="2.1" height="2.1"/>
			<rect x="42.5" y="13.9" width="2.1" height="2.1"/>
			<rect x="42.5" y="11.8" width="2.1" height="2.1"/>
			<rect x="42.5" y="9.6" width="2.1" height="2.1"/>
			<rect x="42.5" y="7.5" class="st0" width="2.1" height="2.1"/>
			<rect x="40.4" y="52.1" class="st0" width="2.1" height="2.1"/>
			<rect x="40.4" y="49.9" width="2.1" height="2.1"/>
			<rect x="40.4" y="47.8" class="st0" width="2.1" height="2.1"/>
			<rect x="40.4" y="45.7" width="2.1" height="2.1"/>
			<rect x="40.4" y="43.6" class="st0" width="2.1" height="2.1"/>
			<rect x="40.4" y="41.5" class="st0" width="2.1" height="2.1"/>
			<rect x="40.4" y="39.3" width="2.1" height="2.1"/>
			<rect x="40.4" y="37.2" width="2.1" height="2.1"/>
			<rect x="40.4" y="35.1" class="st0" width="2.1" height="2.1"/>
			<rect x="40.4" y="33" class="st0" width="2.1" height="2.1"/>
			<rect x="40.4" y="30.9" width="2.1" height="2.1"/>
			<rect x="40.4" y="28.7" class="st0" width="2.1" height="2.1"/>
			<rect x="40.4" y="26.6" class="st0" width="2.1" height="2.1"/>
			<rect x="40.4" y="24.5" class="st0" width="2.1" height="2.1"/>
			<rect x="40.4" y="22.4" class="st0" width="2.1" height="2.1"/>
			<rect x="40.4" y="20.3" class="st0" width="2.1" height="2.1"/>
			<rect x="40.4" y="18.1" class="st0" width="2.1" height="2.1"/>
			<rect x="40.4" y="16" class="st0" width="2.1" height="2.1"/>
			<rect x="40.4" y="13.9" class="st0" width="2.1" height="2.1"/>
			<rect x="40.4" y="11.8" class="st0" width="2.1" height="2.1"/>
			<rect x="40.4" y="9.6" class="st0" width="2.1" height="2.1"/>
			<rect x="40.4" y="7.5" class="st0" width="2.1" height="2.1"/>
			<rect x="38.3" y="52.1" class="st0" width="2.1" height="2.1"/>
			<rect x="38.3" y="49.9" width="2.1" height="2.1"/>
			<rect x="38.3" y="47.8" class="st0" width="2.1" height="2.1"/>
			<rect x="38.3" y="45.7" width="2.1" height="2.1"/>
			<rect x="38.3" y="43.6" class="st0" width="2.1" height="2.1"/>
			<rect x="38.3" y="41.5" width="2.1" height="2.1"/>
			<rect x="38.3" y="39.3" width="2.1" height="2.1"/>
			<rect x="38.3" y="37.2" width="2.1" height="2.1"/>
			<rect x="38.3" y="35.1" width="2.1" height="2.1"/>
			<rect x="38.3" y="33" class="st0" width="2.1" height="2.1"/>
			<rect x="38.3" y="30.9" width="2.1" height="2.1"/>
			<rect x="38.3" y="28.7" width="2.1" height="2.1"/>
			<rect x="38.3" y="26.6" class="st0" width="2.1" height="2.1"/>
			<rect x="38.3" y="24.5" class="st0" width="2.1" height="2.1"/>
			<rect x="38.3" y="22.4" width="2.1" height="2.1"/>
			<rect x="38.3" y="20.3" class="st0" width="2.1" height="2.1"/>
			<rect x="38.3" y="18.1" class="st0" width="2.1" height="2.1"/>
			<rect x="38.3" y="16" width="2.1" height="2.1"/>
			<rect x="38.3" y="13.9" class="st0" width="2.1" height="2.1"/>
			<rect x="38.3" y="11.8" class="st0" width="2.1" height="2.1"/>
			<rect x="38.3" y="9.6" width="2.1" height="2.1"/>
			<rect x="38.3" y="7.5" class="st0" width="2.1" height="2.1"/>
			<rect x="36.1" y="52.1" class="st0" width="2.1" height="2.1"/>
			<rect x="36.1" y="49.9" class="st0" width="2.1" height="2.1"/>
			<rect x="36.1" y="47.8" class="st0" width="2.1" height="2.1"/>
			<rect x="36.1" y="45.7" width="2.1" height="2.1"/>
			<rect x="36.1" y="43.6" class="st0" width="2.1" height="2.1"/>
			<rect x="36.1" y="41.5" width="2.1" height="2.1"/>
			<rect x="36.1" y="39.3" class="st0" width="2.1" height="2.1"/>
			<rect x="36.1" y="37.2" class="st0" width="2.1" height="2.1"/>
			<rect x="36.1" y="35.1" width="2.1" height="2.1"/>
			<rect x="36.1" y="33" class="st0" width="2.1" height="2.1"/>
			<rect x="36.1" y="30.9" class="st0" width="2.1" height="2.1"/>
			<rect x="36.1" y="28.7" class="st0" width="2.1" height="2.1"/>
			<rect x="36.1" y="26.6" class="st0" width="2.1" height="2.1"/>
			<rect x="36.1" y="24.5" class="st0" width="2.1" height="2.1"/>
			<rect x="36.1" y="22.4" width="2.1" height="2.1"/>
			<rect x="36.1" y="20.3" width="2.1" height="2.1"/>
			<rect x="36.1" y="18.1" class="st0" width="2.1" height="2.1"/>
			<rect x="36.1" y="16" class="st0" width="2.1" height="2.1"/>
			<rect x="36.1" y="13.9" width="2.1" height="2.1"/>
			<rect x="36.1" y="11.8" width="2.1" height="2.1"/>
			<rect x="36.1" y="9.6" width="2.1" height="2.1"/>
			<rect x="36.1" y="7.5" class="st0" width="2.1" height="2.1"/>
			<rect x="34" y="52.1" class="st0" width="2.1" height="2.1"/>
			<rect x="34" y="49.9" width="2.1" height="2.1"/>
			<rect x="34" y="47.8" class="st0" width="2.1" height="2.1"/>
			<rect x="34" y="45.7" class="st0" width="2.1" height="2.1"/>
			<rect x="34" y="43.6" class="st0" width="2.1" height="2.1"/>
			<rect x="34" y="41.5" class="st0" width="2.1" height="2.1"/>
			<rect x="34" y="39.3" width="2.1" height="2.1"/>
			<rect x="34" y="37.2" class="st0" width="2.1" height="2.1"/>
			<rect x="34" y="35.1" class="st0" width="2.1" height="2.1"/>
			<rect x="34" y="33" width="2.1" height="2.1"/>
			<rect x="34" y="30.9" width="2.1" height="2.1"/>
			<rect x="34" y="28.7" width="2.1" height="2.1"/>
			<rect x="34" y="26.6" width="2.1" height="2.1"/>
			<rect x="34" y="24.5" class="st0" width="2.1" height="2.1"/>
			<rect x="34" y="22.4" width="2.1" height="2.1"/>
			<rect x="34" y="20.3" class="st0" width="2.1" height="2.1"/>
			<rect x="34" y="18.1" width="2.1" height="2.1"/>
			<rect x="34" y="16" class="st0" width="2.1" height="2.1"/>
			<rect x="34" y="13.9" width="2.1" height="2.1"/>
			<rect x="34" y="11.8" class="st0" width="2.1" height="2.1"/>
			<rect x="34" y="9.6" width="2.1" height="2.1"/>
			<rect x="34" y="7.5" class="st0" width="2.1" height="2.1"/>
			<rect x="31.9" y="52.1" class="st0" width="2.1" height="2.1"/>
			<rect x="31.9" y="49.9" class="st0" width="2.1" height="2.1"/>
			<rect x="31.9" y="47.8" width="2.1" height="2.1"/>
			<rect x="31.9" y="45.7" width="2.1" height="2.1"/>
			<rect x="31.9" y="43.6" width="2.1" height="2.1"/>
			<rect x="31.9" y="41.5" width="2.1" height="2.1"/>
			<rect x="31.9" y="39.3" width="2.1" height="2.1"/>
			<rect x="31.9" y="37.2" class="st0" width="2.1" height="2.1"/>
			<rect x="31.9" y="35.1" class="st0" width="2.1" height="2.1"/>
			<rect x="31.9" y="33" class="st0" width="2.1" height="2.1"/>
			<rect x="31.9" y="30.9" class="st0" width="2.1" height="2.1"/>
			<rect x="31.9" y="28.7" class="st0" width="2.1" height="2.1"/>
			<rect x="31.9" y="26.6" class="st0" width="2.1" height="2.1"/>
			<rect x="31.9" y="24.5" class="st0" width="2.1" height="2.1"/>
			<rect x="31.9" y="22.4" class="st0" width="2.1" height="2.1"/>
			<rect x="31.9" y="20.3" class="st0" width="2.1" height="2.1"/>
			<rect x="31.9" y="18.1" class="st0" width="2.1" height="2.1"/>
			<rect x="31.9" y="16" class="st0" width="2.1" height="2.1"/>
			<rect x="31.9" y="13.9" class="st0" width="2.1" height="2.1"/>
			<rect x="31.9" y="11.8" class="st0" width="2.1" height="2.1"/>
			<rect x="31.9" y="9.6" width="2.1" height="2.1"/>
			<rect x="31.9" y="7.5" class="st0" width="2.1" height="2.1"/>
			<rect x="29.8" y="52.1" class="st0" width="2.1" height="2.1"/>
			<rect x="29.8" y="49.9" width="2.1" height="2.1"/>
			<rect x="29.8" y="47.8" class="st0" width="2.1" height="2.1"/>
			<rect x="29.8" y="45.7" class="st0" width="2.1" height="2.1"/>
			<rect x="29.8" y="43.6" class="st0" width="2.1" height="2.1"/>
			<rect x="29.8" y="41.5" class="st0" width="2.1" height="2.1"/>
			<rect x="29.8" y="39.3" class="st0" width="2.1" height="2.1"/>
			<rect x="29.8" y="37.2" class="st0" width="2.1" height="2.1"/>
			<rect x="29.8" y="35.1" class="st0" width="2.1" height="2.1"/>
			<rect x="29.8" y="33" class="st0" width="2.1" height="2.1"/>
			<rect x="29.8" y="30.9" class="st0" width="2.1" height="2.1"/>
			<rect x="29.8" y="28.7" class="st0" width="2.1" height="2.1"/>
			<rect x="29.8" y="26.6" width="2.1" height="2.1"/>
			<rect x="29.8" y="24.5" class="st0" width="2.1" height="2.1"/>
			<rect x="29.8" y="22.4" class="st0" width="2.1" height="2.1"/>
			<rect x="29.8" y="20.3" width="2.1" height="2.1"/>
			<rect x="29.8" y="18.1" width="2.1" height="2.1"/>
			<rect x="29.8" y="16" class="st0" width="2.1" height="2.1"/>
			<rect x="29.8" y="13.9" class="st0" width="2.1" height="2.1"/>
			<rect x="29.8" y="11.8" width="2.1" height="2.1"/>
			<rect x="29.8" y="9.6" class="st0" width="2.1" height="2.1"/>
			<rect x="29.8" y="7.5" class="st0" width="2.1" height="2.1"/>
			<rect x="27.7" y="52.1" class="st0" width="2.1" height="2.1"/>
			<rect x="27.7" y="49.9" width="2.1" height="2.1"/>
			<rect x="27.7" y="47.8" class="st0" width="2.1" height="2.1"/>
			<rect x="27.7" y="45.7" class="st0" width="2.1" height="2.1"/>
			<rect x="27.7" y="43.6" class="st0" width="2.1" height="2.1"/>
			<rect x="27.7" y="41.5" width="2.1" height="2.1"/>
			<rect x="27.7" y="39.3" class="st0" width="2.1" height="2.1"/>
			<rect x="27.7" y="37.2" class="st0" width="2.1" height="2.1"/>
			<rect x="27.7" y="35.1" class="st0" width="2.1" height="2.1"/>
			<rect x="27.7" y="33" width="2.1" height="2.1"/>
			<rect x="27.7" y="30.9" class="st0" width="2.1" height="2.1"/>
			<rect x="27.7" y="28.7" width="2.1" height="2.1"/>
			<rect x="27.7" y="26.6" class="st0" width="2.1" height="2.1"/>
			<rect x="27.7" y="24.5" class="st0" width="2.1" height="2.1"/>
			<rect x="27.7" y="22.4" width="2.1" height="2.1"/>
			<rect x="27.7" y="20.3" width="2.1" height="2.1"/>
			<rect x="27.7" y="18.1" width="2.1" height="2.1"/>
			<rect x="27.7" y="16" width="2.1" height="2.1"/>
			<rect x="27.7" y="13.9" width="2.1" height="2.1"/>
			<rect x="27.7" y="11.8" width="2.1" height="2.1"/>
			<rect x="27.7" y="9.6" width="2.1" height="2.1"/>
			<rect x="27.7" y="7.5" class="st0" width="2.1" height="2.1"/>
			<rect x="25.5" y="52.1" class="st0" width="2.1" height="2.1"/>
			<rect x="25.5" y="49.9" class="st0" width="2.1" height="2.1"/>
			<rect x="25.5" y="47.8" class="st0" width="2.1" height="2.1"/>
			<rect x="25.5" y="45.7" class="st0" width="2.1" height="2.1"/>
			<rect x="25.5" y="43.6" class="st0" width="2.1" height="2.1"/>
			<rect x="25.5" y="41.5" width="2.1" height="2.1"/>
			<rect x="25.5" y="39.3" width="2.1" height="2.1"/>
			<rect x="25.5" y="37.2" width="2.1" height="2.1"/>
			<rect x="25.5" y="35.1" width="2.1" height="2.1"/>
			<rect x="25.5" y="33" class="st0" width="2.1" height="2.1"/>
			<rect x="25.5" y="30.9" width="2.1" height="2.1"/>
			<rect x="25.5" y="28.7" width="2.1" height="2.1"/>
			<rect x="25.5" y="26.6" width="2.1" height="2.1"/>
			<rect x="25.5" y="24.5" class="st0" width="2.1" height="2.1"/>
			<rect x="25.5" y="22.4" width="2.1" height="2.1"/>
			<rect x="25.5" y="20.3" class="st0" width="2.1" height="2.1"/>
			<rect x="25.5" y="18.1" width="2.1" height="2.1"/>
			<rect x="25.5" y="16" class="st0" width="2.1" height="2.1"/>
			<rect x="25.5" y="13.9" class="st0" width="2.1" height="2.1"/>
			<rect x="25.5" y="11.8" width="2.1" height="2.1"/>
			<rect x="25.5" y="9.6" class="st0" width="2.1" height="2.1"/>
			<rect x="25.5" y="7.5" class="st0" width="2.1" height="2.1"/>
			<rect x="23.4" y="52.1" class="st0" width="2.1" height="2.1"/>
			<rect x="23.4" y="49.9" width="2.1" height="2.1"/>
			<rect x="23.4" y="47.8" width="2.1" height="2.1"/>
			<rect x="23.4" y="45.7" width="2.1" height="2.1"/>
			<rect x="23.4" y="43.6" width="2.1" height="2.1"/>
			<rect x="23.4" y="41.5" width="2.1" height="2.1"/>
			<rect x="23.4" y="39.3" class="st0" width="2.1" height="2.1"/>
			<rect x="23.4" y="37.2" class="st0" width="2.1" height="2.1"/>
			<rect x="23.4" y="35.1" class="st0" width="2.1" height="2.1"/>
			<rect x="23.4" y="33" class="st0" width="2.1" height="2.1"/>
			<rect x="23.4" y="30.9" class="st0" width="2.1" height="2.1"/>
			<rect x="23.4" y="28.7" class="st0" width="2.1" height="2.1"/>
			<rect x="23.4" y="26.6" class="st0" width="2.1" height="2.1"/>
			<rect x="23.4" y="24.5" class="st0" width="2.1" height="2.1"/>
			<rect x="23.4" y="22.4" width="2.1" height="2.1"/>
			<rect x="23.4" y="20.3" class="st0" width="2.1" height="2.1"/>
			<rect x="23.4" y="18.1" class="st0" width="2.1" height="2.1"/>
			<rect x="23.4" y="16" width="2.1" height="2.1"/>
			<rect x="23.4" y="13.9" class="st0" width="2.1" height="2.1"/>
			<rect x="23.4" y="11.8" width="2.1" height="2.1"/>
			<rect x="23.4" y="9.6" class="st0" width="2.1" height="2.1"/>
			<rect x="23.4" y="7.5" class="st0" width="2.1" height="2.1"/>
			<rect x="21.3" y="52.1" class="st0" width="2.1" height="2.1"/>
			<rect x="21.3" y="49.9" class="st0" width="2.1" height="2.1"/>
			<rect x="21.3" y="47.8" class="st0" width="2.1" height="2.1"/>
			<rect x="21.3" y="45.7" class="st0" width="2.1" height="2.1"/>
			<rect x="21.3" y="43.6" class="st0" width="2.1" height="2.1"/>
			<rect x="21.3" y="41.5" class="st0" width="2.1" height="2.1"/>
			<rect x="21.3" y="39.3" class="st0" width="2.1" height="2.1"/>
			<rect x="21.3" y="37.2" width="2.1" height="2.1"/>
			<rect x="21.3" y="35.1" width="2.1" height="2.1"/>
			<rect x="21.3" y="33" width="2.1" height="2.1"/>
			<rect x="21.3" y="30.9" class="st0" width="2.1" height="2.1"/>
			<rect x="21.3" y="28.7" class="st0" width="2.1" height="2.1"/>
			<rect x="21.3" y="26.6" width="2.1" height="2.1"/>
			<rect x="21.3" y="24.5" width="2.1" height="2.1"/>
			<rect x="21.3" y="22.4" width="2.1" height="2.1"/>
			<rect x="21.3" y="20.3" class="st0" width="2.1" height="2.1"/>
			<rect x="21.3" y="18.1" class="st0" width="2.1" height="2.1"/>
			<rect x="21.3" y="16" class="st0" width="2.1" height="2.1"/>
			<rect x="21.3" y="13.9" class="st0" width="2.1" height="2.1"/>
			<rect x="21.3" y="11.8" class="st0" width="2.1" height="2.1"/>
			<rect x="21.3" y="9.6" class="st0" width="2.1" height="2.1"/>
			<rect x="21.3" y="7.5" class="st0" width="2.1" height="2.1"/>
			<rect x="19.2" y="52.1" class="st0" width="2.1" height="2.1"/>
			<rect x="19.2" y="49.9" width="2.1" height="2.1"/>
			<rect x="19.2" y="47.8" width="2.1" height="2.1"/>
			<rect x="19.2" y="45.7" width="2.1" height="2.1"/>
			<rect x="19.2" y="43.6" width="2.1" height="2.1"/>
			<rect x="19.2" y="41.5" width="2.1" height="2.1"/>
			<rect x="19.2" y="39.3" class="st0" width="2.1" height="2.1"/>
			<rect x="19.2" y="37.2" class="st0" width="2.1" height="2.1"/>
			<rect x="19.2" y="35.1" class="st0" width="2.1" height="2.1"/>
			<rect x="19.2" y="33" width="2.1" height="2.1"/>
			<rect x="19.2" y="30.9" class="st0" width="2.1" height="2.1"/>
			<rect x="19.2" y="28.7" class="st0" width="2.1" height="2.1"/>
			<rect x="19.2" y="26.6" class="st0" width="2.1" height="2.1"/>
			<rect x="19.2" y="24.5" class="st0" width="2.1" height="2.1"/>
			<rect x="19.2" y="22.4" width="2.1" height="2.1"/>
			<rect x="19.2" y="20.3" class="st0" width="2.1" height="2.1"/>
			<rect x="19.2" y="18.1" width="2.1" height="2.1"/>
			<rect x="19.2" y="16" width="2.1" height="2.1"/>
			<rect x="19.2" y="13.9" width="2.1" height="2.1"/>
			<rect x="19.2" y="11.8" width="2.1" height="2.1"/>
			<rect x="19.2" y="9.6" width="2.1" height="2.1"/>
			<rect x="19.2" y="7.5" class="st0" width="2.1" height="2.1"/>
			<rect x="17.1" y="52.1" class="st0" width="2.1" height="2.1"/>
			<rect x="17.1" y="49.9" width="2.1" height="2.1"/>
			<rect x="17.1" y="47.8" class="st0" width="2.1" height="2.1"/>
			<rect x="17.1" y="45.7" class="st0" width="2.1" height="2.1"/>
			<rect x="17.1" y="43.6" class="st0" width="2.1" height="2.1"/>
			<rect x="17.1" y="41.5" width="2.1" height="2.1"/>
			<rect x="17.1" y="39.3" class="st0" width="2.1" height="2.1"/>
			<rect x="17.1" y="37.2" class="st0" width="2.1" height="2.1"/>
			<rect x="17.1" y="35.1" class="st0" width="2.1" height="2.1"/>
			<rect x="17.1" y="33" width="2.1" height="2.1"/>
			<rect x="17.1" y="30.9" class="st0" width="2.1" height="2.1"/>
			<rect x="17.1" y="28.7" width="2.1" height="2.1"/>
			<rect x="17.1" y="26.6" class="st0" width="2.1" height="2.1"/>
			<rect x="17.1" y="24.5" class="st0" width="2.1" height="2.1"/>
			<rect x="17.1" y="22.4" width="2.1" height="2.1"/>
			<rect x="17.1" y="20.3" class="st0" width="2.1" height="2.1"/>
			<rect x="17.1" y="18.1" width="2.1" height="2.1"/>
			<rect x="17.1" y="16" class="st0" width="2.1" height="2.1"/>
			<rect x="17.1" y="13.9" class="st0" width="2.1" height="2.1"/>
			<rect x="17.1" y="11.8" class="st0" width="2.1" height="2.1"/>
			<rect x="17.1" y="9.6" width="2.1" height="2.1"/>
			<rect x="17.1" y="7.5" class="st0" width="2.1" height="2.1"/>
			<rect x="14.9" y="52.1" class="st0" width="2.1" height="2.1"/>
			<rect x="14.9" y="49.9" width="2.1" height="2.1"/>
			<rect x="14.9" y="47.8" class="st0" width="2.1" height="2.1"/>
			<rect x="14.9" y="45.7" width="2.1" height="2.1"/>
			<rect x="14.9" y="43.6" class="st0" width="2.1" height="2.1"/>
			<rect x="14.9" y="41.5" width="2.1" height="2.1"/>
			<rect x="14.9" y="39.3" class="st0" width="2.1" height="2.1"/>
			<rect x="14.9" y="37.2" width="2.1" height="2.1"/>
			<rect x="14.9" y="35.1" class="st0" width="2.1" height="2.1"/>
			<rect x="14.9" y="33" width="2.1" height="2.1"/>
			<rect x="14.9" y="30.9" class="st0" width="2.1" height="2.1"/>
			<rect x="14.9" y="28.7" width="2.1" height="2.1"/>
			<rect x="14.9" y="26.6" class="st0" width="2.1" height="2.1"/>
			<rect x="14.9" y="24.5" class="st0" width="2.1" height="2.1"/>
			<rect x="14.9" y="22.4" class="st0" width="2.1" height="2.1"/>
			<rect x="14.9" y="20.3" class="st0" width="2.1" height="2.1"/>
			<rect x="14.9" y="18.1" width="2.1" height="2.1"/>
			<rect x="14.9" y="16" class="st0" width="2.1" height="2.1"/>
			<rect x="14.9" y="13.9" width="2.1" height="2.1"/>
			<rect x="14.9" y="11.8" class="st0" width="2.1" height="2.1"/>
			<rect x="14.9" y="9.6" width="2.1" height="2.1"/>
			<rect x="14.9" y="7.5" class="st0" width="2.1" height="2.1"/>
			<rect x="12.8" y="52.1" class="st0" width="2.1" height="2.1"/>
			<rect x="12.8" y="49.9" width="2.1" height="2.1"/>
			<rect x="12.8" y="47.8" class="st0" width="2.1" height="2.1"/>
			<rect x="12.8" y="45.7" class="st0" width="2.1" height="2.1"/>
			<rect x="12.8" y="43.6" class="st0" width="2.1" height="2.1"/>
			<rect x="12.8" y="41.5" width="2.1" height="2.1"/>
			<rect x="12.8" y="39.3" class="st0" width="2.1" height="2.1"/>
			<rect x="12.8" y="37.2" class="st0" width="2.1" height="2.1"/>
			<rect x="12.8" y="35.1" width="2.1" height="2.1"/>
			<rect x="12.8" y="33" width="2.1" height="2.1"/>
			<rect x="12.8" y="30.9" class="st0" width="2.1" height="2.1"/>
			<rect x="12.8" y="28.7" width="2.1" height="2.1"/>
			<rect x="12.8" y="26.6" class="st0" width="2.1" height="2.1"/>
			<rect x="12.8" y="24.5" width="2.1" height="2.1"/>
			<rect x="12.8" y="22.4" width="2.1" height="2.1"/>
			<rect x="12.8" y="20.3" class="st0" width="2.1" height="2.1"/>
			<rect x="12.8" y="18.1" width="2.1" height="2.1"/>
			<rect x="12.8" y="16" class="st0" width="2.1" height="2.1"/>
			<rect x="12.8" y="13.9" class="st0" width="2.1" height="2.1"/>
			<rect x="12.8" y="11.8" class="st0" width="2.1" height="2.1"/>
			<rect x="12.8" y="9.6" width="2.1" height="2.1"/>
			<rect x="12.8" y="7.5" class="st0" width="2.1" height="2.1"/>
			<rect x="10.7" y="52.1" class="st0" width="2.1" height="2.1"/>
			<rect x="10.7" y="49.9" width="2.1" height="2.1"/>
			<rect x="10.7" y="47.8" width="2.1" height="2.1"/>
			<rect x="10.7" y="45.7" width="2.1" height="2.1"/>
			<rect x="10.7" y="43.6" width="2.1" height="2.1"/>
			<rect x="10.7" y="41.5" width="2.1" height="2.1"/>
			<rect x="10.7" y="39.3" class="st0" width="2.1" height="2.1"/>
			<rect x="10.7" y="37.2" width="2.1" height="2.1"/>
			<rect x="10.7" y="35.1" class="st0" width="2.1" height="2.1"/>
			<rect x="10.7" y="33" class="st0" width="2.1" height="2.1"/>
			<rect x="10.7" y="30.9" width="2.1" height="2.1"/>
			<rect x="10.7" y="28.7" width="2.1" height="2.1"/>
			<rect x="10.7" y="26.6" class="st0" width="2.1" height="2.1"/>
			<rect x="10.7" y="24.5" width="2.1" height="2.1"/>
			<rect x="10.7" y="22.4" width="2.1" height="2.1"/>
			<rect x="10.7" y="20.3" class="st0" width="2.1" height="2.1"/>
			<rect x="10.7" y="18.1" width="2.1" height="2.1"/>
			<rect x="10.7" y="16" width="2.1" height="2.1"/>
			<rect x="10.7" y="13.9" width="2.1" height="2.1"/>
			<rect x="10.7" y="11.8" width="2.1" height="2.1"/>
			<rect x="10.7" y="9.6" width="2.1" height="2.1"/>
			<rect x="10.7" y="7.5" class="st0" width="2.1" height="2.1"/>
			<rect x="8.6" y="52.1" class="st0" width="2.1" height="2.1"/>
			<rect x="8.6" y="49.9" class="st0" width="2.1" height="2.1"/>
			<rect x="8.6" y="47.8" class="st0" width="2.1" height="2.1"/>
			<rect x="8.6" y="45.7" class="st0" width="2.1" height="2.1"/>
			<rect x="8.6" y="43.6" class="st0" width="2.1" height="2.1"/>
			<rect x="8.6" y="41.5" class="st0" width="2.1" height="2.1"/>
			<rect x="8.6" y="39.3" class="st0" width="2.1" height="2.1"/>
			<rect x="8.6" y="37.2" class="st0" width="2.1" height="2.1"/>
			<rect x="8.6" y="35.1" class="st0" width="2.1" height="2.1"/>
			<rect x="8.6" y="33" class="st0" width="2.1" height="2.1"/>
			<rect x="8.6" y="30.9" class="st0" width="2.1" height="2.1"/>
			<rect x="8.6" y="28.7" class="st0" width="2.1" height="2.1"/>
			<rect x="8.6" y="26.6" class="st0" width="2.1" height="2.1"/>
			<rect x="8.6" y="24.5" class="st0" width="2.1" height="2.1"/>
			<rect x="8.6" y="22.4" class="st0" width="2.1" height="2.1"/>
			<rect x="8.6" y="20.3" class="st0" width="2.1" height="2.1"/>
			<rect x="8.6" y="18.1" class="st0" width="2.1" height="2.1"/>
			<rect x="8.6" y="16" class="st0" width="2.1" height="2.1"/>
			<rect x="8.6" y="13.9" class="st0" width="2.1" height="2.1"/>
			<rect x="8.6" y="11.8" class="st0" width="2.1" height="2.1"/>
			<rect x="8.6" y="9.6" class="st0" width="2.1" height="2.1"/>
			<rect x="8.6" y="7.5" class="st0" width="2.1" height="2.1"/>
		</g>
		<g>
		</g>
	</g>
</g>
<polyline class="st1" points="3.9,12.6 3.9,2.9 13.5,2.9 "/>
<polyline class="st1" points="59.9,12.4 59.9,2.7 50.3,2.7 "/>
<polyline class="st1" points="3.9,49.2 3.9,58.9 13.5,58.9 "/>
<polyline class="st1" points="59.9,49.4 59.9,59.1 50.3,59.1 "/>
</svg>
