<?xml version="1.0" encoding="utf-8"?>
<!-- Generator: Adobe Illustrator 22.1.0, SVG Export Plug-In . SVG Version: 6.00 Build 0)  -->
<svg version="1.1" id="Capa_1" xmlns="http://www.w3.org/2000/svg" xmlns:xlink="http://www.w3.org/1999/xlink" x="0px" y="0px"
	 viewBox="0 0 512 512" style="enable-background:new 0 0 512 512;" xml:space="preserve">
<style type="text/css">
	.st0{fill:#FFA803;}
	.st1{fill:#EF980C;}
</style>
<path class="st0" d="M256,7.5C151,7.5,65.9,92.6,65.9,197.6C65.9,357.4,256,504.5,256,504.5s190.1-147.1,190.1-306.9
	C446.1,92.6,361,7.5,256,7.5z M256,273.4c-41.9,0-75.8-33.9-75.8-75.8s33.9-75.8,75.8-75.8s75.8,33.9,75.8,75.8
	S297.9,273.4,256,273.4z"/>
<path class="st1" d="M256,7.5c-6.1,0-12.1,0.3-18,0.9c96.5,9.1,172.1,90.3,172.1,189.2c0,129.5-124.7,250.5-172.1,291.9
	c11.1,9.7,18,15,18,15s190.1-147.1,190.1-306.9C446.1,92.6,361,7.5,256,7.5z"/>
<path d="M256,512c-1.6,0-3.2-0.5-4.6-1.6c-3.7-2.9-92.1-71.9-148.3-167.8c-2.1-3.6-0.9-8.2,2.7-10.3c3.6-2.1,8.2-0.9,10.3,2.7
	c47.5,81.2,121,144.3,140,159.9c13-10.6,51.5-43.5,89.5-88.9c27.2-32.5,48.8-64.9,64.2-96.4c19.1-39,28.9-76.7,28.9-111.9
	c0-27.8-6.1-54.4-18.1-79.3c-1.8-3.7-0.2-8.2,3.5-10c3.7-1.8,8.2-0.2,10,3.5c13,26.9,19.5,55.7,19.5,85.8
	c0,37.6-10.3,77.6-30.5,118.7c-16,32.6-38.3,66.1-66.3,99.5c-47.5,56.7-94.2,93.1-96.2,94.6C259.2,511.5,257.6,512,256,512z
	 M95.3,319.8c-2.8,0-5.4-1.5-6.7-4.2c-20-40.9-30.1-80.6-30.1-118C58.4,88.6,147.1,0,256,0c64.7,0,125.4,31.8,162.4,85
	c2.4,3.4,1.5,8.1-1.9,10.4c-3.4,2.4-8.1,1.5-10.4-1.9C371.9,44.4,315.8,15,256,15C155.3,15,73.4,96.9,73.4,197.6
	c0,35.1,9.6,72.6,28.6,111.4c1.8,3.7,0.3,8.2-3.4,10C97.5,319.5,96.4,319.8,95.3,319.8z M256,280.9c-45.9,0-83.3-37.4-83.3-83.3
	c0-15.4,4.2-30.5,12.3-43.6c2.2-3.5,6.8-4.6,10.3-2.5c3.5,2.2,4.6,6.8,2.5,10.3c-6.6,10.7-10.1,23.1-10.1,35.7
	c0,37.7,30.6,68.3,68.3,68.3s68.3-30.6,68.3-68.3s-30.6-68.3-68.3-68.3c-14.4,0-28.1,4.4-39.7,12.7c-3.4,2.4-8.1,1.6-10.5-1.7
	s-1.6-8.1,1.7-10.5c14.2-10.2,30.9-15.5,48.4-15.5c45.9,0,83.3,37.4,83.3,83.3C339.3,243.5,301.9,280.9,256,280.9z"/>
</svg>
