<?xml version="1.0" encoding="utf-8"?>
<!-- Generator: Adobe Illustrator 22.1.0, SVG Export Plug-In . SVG Version: 6.00 Build 0)  -->
<svg version="1.1" id="Capa_1" xmlns="http://www.w3.org/2000/svg" xmlns:xlink="http://www.w3.org/1999/xlink" x="0px" y="0px"
	 viewBox="0 0 512 512" style="enable-background:new 0 0 512 512;" xml:space="preserve">
<style type="text/css">
	.st0{fill:#FFA803;}
	.st1{fill:#EF980C;}
</style>
<path class="st0" d="M165.4,173.1l27.8-27.8c10.3-10.3,10.3-26.9,0-37.2l-93-93C89.9,4.9,73.3,4.9,63,15.2L17.8,60.4
	C7.5,70.6,4.5,86.3,10.6,99.5c32.7,70.8,91.9,153.5,170.1,231.8s161,137.4,231.8,170.1c13.2,6.1,28.8,3.1,39.1-7.2l45.2-45.2
	c10.3-10.3,10.3-26.9,0-37.2l-93-93c-10.3-10.3-26.9-10.3-37.2,0l-27.8,27.8c-9.6,9.6-25,10.3-35.5,1.6
	c-24.5-20.2-49-42.5-73.1-66.6S184,233,163.7,208.6C155.1,198.1,155.7,182.8,165.4,173.1z"/>
<path class="st1" d="M432.6,481.4c-70.8-32.7-153.5-91.9-231.8-170.1S63.3,150.2,30.6,79.4c-6.1-13.2-3.1-28.8,7.2-39.1l-20,20
	C7.5,70.6,4.5,86.3,10.6,99.5c32.7,70.8,91.8,153.5,170.1,231.8s161,137.4,231.8,170.1c13.2,6.1,28.8,3.1,39.1-7.2l20-20
	C461.4,484.4,445.8,487.5,432.6,481.4z"/>
<path d="M502.1,406.5l-93-93c-13.2-13.2-34.6-13.2-47.8,0l-27.8,27.8c-6.9,6.9-17.8,7.4-25.4,1.1c-24.8-20.5-49.2-42.8-72.6-66.1
	s-45.6-47.8-66.1-72.6c-6.3-7.6-5.8-18.5,1.1-25.4l27.8-27.8c13.2-13.2,13.2-34.6,0-47.8l-93-93C92.3-3.3,70.9-3.3,57.7,9.9
	L12.5,55.1C0,67.6-3.5,86.7,3.8,102.6c34.5,74.6,95.4,157.7,171.7,234c76.2,76.2,159.3,137.2,234,171.7c5.5,2.6,11.5,3.8,17.4,3.8
	c11,0,22-4.3,30.2-12.5l45.2-45.2C515.3,441.1,515.3,419.7,502.1,406.5z M491.5,443.7L478.2,457l-87.7-87.7c-2.9-2.9-7.7-2.9-10.6,0
	c-2.9,2.9-2.9,7.7,0,10.6l87.7,87.7l-21.3,21.3c-8.1,8.1-20.5,10.4-30.7,5.7c-73.1-33.7-154.6-93.6-229.6-168.6
	S51.2,169.4,17.4,96.3c-4.7-10.2-2.4-22.5,5.7-30.7l21.3-21.3l7.1,7.1c1.5,1.5,3.4,2.2,5.3,2.2s3.8-0.7,5.3-2.2
	c2.9-2.9,2.9-7.7,0-10.6L55,33.8l13.3-13.3C72,16.8,76.8,15,81.6,15c4.8,0,9.6,1.8,13.3,5.5l93,93c3.5,3.5,5.5,8.3,5.5,13.3
	c0,5-2,9.7-5.5,13.3l-13.3,13.3L86.9,65.7c-2.9-2.9-7.7-2.9-10.6,0c-2.9,2.9-2.9,7.7,0,10.6l87.7,87.7l-3.9,3.9
	c-12.4,12.4-13.3,32-2.1,45.6c20.8,25.2,43.4,49.9,67.1,73.6s48.4,46.2,73.6,67.1c13.6,11.2,33.1,10.3,45.6-2.1l3.9-3.9l7.1,7.1
	c1.5,1.5,3.4,2.2,5.3,2.2s3.8-0.7,5.3-2.2c2.9-2.9,2.9-7.7,0-10.6l-7.1-7.1l13.3-13.3c3.5-3.5,8.3-5.5,13.3-5.5c5,0,9.7,2,13.3,5.5
	l93,93C498.8,424.4,498.8,436.4,491.5,443.7z"/>
<path d="M265.3,111c32.8,8,62.8,24.9,86.8,48.9s40.9,54,48.9,86.8c0.8,3.4,3.9,5.7,7.3,5.7c0.6,0,1.2-0.1,1.8-0.2c4-1,6.5-5,5.5-9.1
	c-8.6-35.5-26.9-67.9-52.9-93.9c-25.9-25.9-58.4-44.2-93.9-52.9c-4-1-8.1,1.5-9.1,5.5C258.8,105.9,261.3,110,265.3,111z"/>
<path d="M253.8,157.9c24.4,5.9,46.7,18.4,64.3,36c17.6,17.6,30.1,39.8,36,64.3c0.8,3.4,3.9,5.7,7.3,5.7c0.6,0,1.2-0.1,1.8-0.2
	c4-1,6.5-5,5.5-9.1c-6.6-27.1-20.4-51.8-40-71.3c-19.6-19.6-44.2-33.4-71.3-40c-4-1-8.1,1.5-9.1,5.5
	C247.4,152.8,249.8,156.9,253.8,157.9z"/>
<path d="M177.5,470.2c-32.8-8-62.8-24.9-86.8-48.9s-40.9-54-48.9-86.8c-1-4-5-6.5-9.1-5.5c-4,1-6.5,5-5.5,9.1
	C35.8,373.6,54.1,406,80,432c25.9,25.9,58.4,44.2,93.9,52.9c0.6,0.1,1.2,0.2,1.8,0.2c3.4,0,6.4-2.3,7.3-5.7
	C184,475.3,181.5,471.2,177.5,470.2z"/>
<path d="M188.9,423.4c-24.4-5.9-46.7-18.4-64.3-36c-17.6-17.6-30.1-39.8-36-64.3c-1-4-5-6.5-9.1-5.5c-4,1-6.5,5-5.5,9.1
	c6.6,27.1,20.4,51.8,40,71.3c19.6,19.6,44.2,33.4,71.3,40c0.6,0.1,1.2,0.2,1.8,0.2c3.4,0,6.4-2.3,7.3-5.7
	C195.4,428.4,193,424.3,188.9,423.4z"/>
</svg>
