<?xml version="1.0" encoding="utf-8"?>
<!-- Generator: Adobe Illustrator 22.1.0, SVG Export Plug-In . SVG Version: 6.00 Build 0)  -->
<svg version="1.1" id="Capa_1" xmlns="http://www.w3.org/2000/svg" xmlns:xlink="http://www.w3.org/1999/xlink" x="0px" y="0px"
	 viewBox="0 0 512 512" style="enable-background:new 0 0 512 512;" xml:space="preserve">
<style type="text/css">
	.st0{fill:#FFA803;}
	.st1{fill:#EF980C;}
	.st2{fill:#FFFFFF;}
	.st3{fill:#F0C874;}
	.st4{fill:#F6F6F7;}
	.st5{fill:#D9DADE;}
</style>
<path class="st0" d="M504.5,256c0-66.4-25.8-128.8-72.8-175.7C384.8,33.4,322.4,7.5,256,7.5S127.2,33.4,80.3,80.3
	C33.4,127.2,7.5,189.6,7.5,256s25.8,128.8,72.8,175.7l0,0l34.1-34.1C78.1,361.3,55.6,311.2,55.6,256c0-110.5,89.9-200.4,200.4-200.4
	S456.4,145.5,456.4,256c0,43.7-14.1,85.7-40.1,120.2v-48.1h-48.1v104.2c0,13.3,10.8,24,24,24h112.2v-48.1h-52.1
	C486.1,364.9,504.5,311.5,504.5,256z"/>
<rect x="167.8" y="111.7" class="st1" width="176.3" height="160.3"/>
<rect x="167.8" y="111.7" class="st2" width="24" height="160.3"/>
<rect x="240" y="111.7" class="st3" width="32.1" height="40.1"/>
<rect x="167.8" y="207.9" class="st4" width="104.2" height="32.1"/>
<rect x="167.8" y="207.9" class="st5" width="24" height="32.1"/>
<path d="M344.2,104.2H167.8c-4.1,0-7.5,3.4-7.5,7.5V272c0,4.2,3.4,7.5,7.5,7.5h176.3c4.1,0,7.5-3.4,7.5-7.5V111.7
	C351.7,107.6,348.3,104.2,344.2,104.2z M264.5,119.2v25h-17v-25H264.5z M175.3,215.4h89.2v17h-89.2L175.3,215.4L175.3,215.4z
	 M336.7,264.5H175.3v-17H272c4.1,0,7.5-3.4,7.5-7.5v-32.1c0-4.2-3.4-7.5-7.5-7.5h-96.7v-81.2h57.1v32.6c0,4.2,3.4,7.5,7.5,7.5H272
	c4.1,0,7.5-3.4,7.5-7.5v-32.6h57.1L336.7,264.5L336.7,264.5z"/>
<path d="M223.9,176.3h-32.1c-4.1,0-7.5,3.4-7.5,7.5s3.4,7.5,7.5,7.5h32.1c4.1,0,7.5-3.4,7.5-7.5S228.1,176.3,223.9,176.3z"/>
<path d="M272,176.3h-16c-4.1,0-7.5,3.4-7.5,7.5s3.4,7.5,7.5,7.5h16c4.1,0,7.5-3.4,7.5-7.5S276.2,176.3,272,176.3z"/>
<path d="M239.5,336.2c0-21.1-18.5-39.6-39.6-39.6c-21.8,0-39.6,17.8-39.6,39.6c0,4.2,3.4,7.5,7.5,7.5s7.5-3.4,7.5-7.5
	c0-13.5,11-24.5,24.5-24.5c13.8,0,24.5,13.2,24.5,24.5c0,11.5-31.5,38.9-60.7,57.8c-2.8,1.8-4.1,5.4-3.1,8.6c1,3.1,3.9,5.3,7.2,5.3
	H232c4.1,0,7.5-3.4,7.5-7.5s-3.4-7.5-7.5-7.5h-40.4c4.1-3.1,8.6-6.5,13.1-10.2C228.1,363.2,239.5,348.1,239.5,336.2z"/>
<path d="M328.1,368.7h-8.5v-64.6c0-3.1-1.9-5.9-4.8-7c-3.1-1.2-6.6-0.2-8.6,2.4l-56.1,72.1c-3.8,4.8-0.2,12.1,5.9,12.1h48.6v16.5
	c0,4.2,3.4,7.5,7.5,7.5s7.5-3.4,7.5-7.5v-16.5h8.5c4.1,0,7.5-3.4,7.5-7.5S332.3,368.7,328.1,368.7z M304.6,368.7h-33.2l33.2-42.7
	V368.7z"/>
<path d="M15,256c0-64.4,25.1-124.9,70.6-170.4C131.1,40.1,191.6,15,256,15c32.4,0,63.8,6.3,93.3,18.6c3.8,1.6,8.2-0.2,9.8-4
	c1.6-3.8-0.2-8.2-4-9.8C323.8,6.7,290.4,0,256,0C187.6,0,123.3,26.6,75,75C26.6,123.3,0,187.6,0,256s26.6,132.7,75,181
	c3.1,3.1,8.2,2.9,11-0.4c2.5-2.9,2.3-7.5-0.4-10.2C40.1,380.9,15,320.4,15,256z"/>
<path d="M504.5,400.8h-37.3C496.5,358.1,512,308.4,512,256c0-68.4-26.6-132.7-75-181c-15-15-31.7-28-49.7-38.8
	c-3.6-2.1-8.2-1-10.3,2.6c-2.1,3.6-1,8.2,2.6,10.3c16.9,10.1,32.6,22.4,46.8,36.6c45.5,45.5,70.6,106,70.6,170.4
	c0,54-17.5,105.1-50.6,147.7c-3.8,4.8-0.2,12.1,5.9,12.1H497v33.1H392.3c-9.1,0-16.5-7.4-16.5-16.5v-96.7h33.1v40.6
	c0,3.2,2.1,6.1,5.1,7.1c3.1,1,6.4,0,8.4-2.6c27.2-36.2,41.6-79.3,41.6-124.8c0-114.6-93.3-207.9-207.9-207.9S48.1,141.4,48.1,256
	c0,55.4,21.6,107.6,61,146.9c2.9,2.9,7.7,2.9,10.6,0c2.9-2.9,2.9-7.7,0-10.6C83.2,355.8,63.1,307.4,63.1,256
	c0-106.4,86.5-192.9,192.9-192.9S448.9,149.6,448.9,256c0,33.8-8.6,66.3-25,95.2v-23c0-4.2-3.4-7.5-7.5-7.5h-48.1
	c-4.1,0-7.5,3.4-7.5,7.5v104.2c0,17.4,14.2,31.6,31.6,31.6h112.2c4.1,0,7.5-3.4,7.5-7.5v-48.1C512,404.1,508.6,400.8,504.5,400.8z"
	/>
<path d="M256,456.9c-4.1,0-7.5,3.4-7.5,7.5v40.1c0,4.2,3.4,7.5,7.5,7.5s7.5-3.4,7.5-7.5v-40.1C263.5,460.3,260.1,456.9,256,456.9z"
	/>
<path d="M204,450c-4-1.1-8.1,1.3-9.2,5.3l-10.4,38.7c-1.1,4,1.3,8.1,5.3,9.2c0.7,0.2,1.3,0.3,1.9,0.3c3.3,0,6.4-2.2,7.3-5.6
	l10.4-38.7C210.4,455.2,208,451.1,204,450z"/>
<path d="M155.6,430c-3.6-2.1-8.2-0.8-10.3,2.8l-20,34.7c-1.9,3.3-1,7.6,2,9.8c3.6,2.6,8.8,1.5,11-2.3l20-34.7
	C160.4,436.6,159.1,432.1,155.6,430z"/>
</svg>
