<?xml version="1.0" encoding="utf-8"?>
<!-- Generator: Adobe Illustrator 22.1.0, SVG Export Plug-In . SVG Version: 6.00 Build 0)  -->
<svg version="1.1" id="Layer_1" xmlns="http://www.w3.org/2000/svg" xmlns:xlink="http://www.w3.org/1999/xlink" x="0px" y="0px"
	 viewBox="0 0 512 394.4" style="enable-background:new 0 0 512 394.4;" xml:space="preserve">
<style type="text/css">
	.st0{fill:#F2F2F2;}
	.st1{fill:#FFA803;}
</style>
<g>
	<polygon class="st0" points="445.2,100.3 445.2,385.2 66.8,385.2 66.8,100.3 256,238.2 	"/>
	<polygon class="st0" points="466.1,9.2 256,162.3 45.9,9.2 256,9.2 	"/>
</g>
<g>
	<path class="st1" d="M66.8,100.3v284.9H32.5c-12.8,0-23.3-10.4-23.3-23.3V58.3L66.8,100.3z"/>
	<path class="st1" d="M502.8,32.5v25.9l-57.6,42L256,238.2L66.8,100.3l-57.6-42V32.5c0-12.8,10.4-23.3,23.3-23.3h13.5L256,162.3
		L466.1,9.2h13.5C492.4,9.2,502.8,19.6,502.8,32.5z"/>
</g>
<path class="st1" d="M502.8,58.3V362c0,12.8-10.4,23.3-23.3,23.3h-34.3V100.3L502.8,58.3z"/>
<path d="M479.5,0H32.5C14.6,0,0,14.6,0,32.5V362c0,17.9,14.6,32.5,32.5,32.5h447.1c17.9,0,32.5-14.6,32.5-32.5V32.5
	C512,14.6,497.4,0,479.5,0z M437.9,18.4L256,150.9L74.1,18.4H437.9z M18.4,362V76.4L57.6,105V376H32.5C24.7,376,18.4,369.7,18.4,362
	z M436.1,376H75.9V118.4l174.6,127.3c1.6,1.2,3.5,1.8,5.4,1.8c1.9,0,3.8-0.6,5.4-1.8l174.6-127.3V376z M493.6,362
	c0,7.8-6.3,14.1-14.1,14.1h-25.1V105l39.2-28.6V362z M493.6,53.7L256,226.9L18.4,53.7V32.5c0-7.8,6.3-14.1,14.1-14.1h10.5
	l207.6,151.3c1.6,1.2,3.5,1.8,5.4,1.8c1.9,0,3.8-0.6,5.4-1.8L469.1,18.4h10.5c7.8,0,14.1,6.3,14.1,14.1L493.6,53.7L493.6,53.7z"/>
</svg>
