<?xml version="1.0" encoding="utf-8"?>
<!-- Generator: Adobe Illustrator 22.1.0, SVG Export Plug-In . SVG Version: 6.00 Build 0)  -->
<svg version="1.1" id="Layer_1" xmlns="http://www.w3.org/2000/svg" xmlns:xlink="http://www.w3.org/1999/xlink" x="0px" y="0px"
	 viewBox="0 0 512 512" style="enable-background:new 0 0 512 512;" xml:space="preserve">
<style type="text/css">
	.st0{fill:#D3DAE0;}
	.st1{fill:#FEAF50;}
	.st2{fill:#699E69;}
</style>
<path class="st0" d="M256,503.9C3.3,407.4,11.3,143.9,23.8,45.7C26.5,24.2,44.9,8.1,66.5,8.1H256h189.5c21.7,0,40,16.1,42.8,37.6
	C500.7,143.9,508.7,407.4,256,503.9z"/>
<path class="st0" d="M256,503.9V8.1h189.5c21.7,0,40,16.1,42.8,37.6C500.7,143.9,508.7,407.4,256,503.9z"/>
<path class="st1" d="M85.9,62h340.3c5.6,0,10.2,4.2,10.7,9.8c9.1,98.7,1.2,291.8-180.9,373.8C73.9,363.6,66,170.5,75.1,71.8
	C75.6,66.2,80.3,62,85.9,62z"/>
<path class="st1" d="M436.9,71.8c9.1,98.7,1.2,291.8-180.9,373.8V62h170.1C431.7,62,436.4,66.2,436.9,71.8z"/>
<path class="st2" d="M370.3,161.1L257.1,312.1c-4.1,5.4-10.5,8.6-17.2,8.6s-13.2-3.2-17.2-8.6l-48.5-64.7c-7.1-9.5-5.2-23,4.3-30.2
	c9.5-7.1,23-5.2,30.2,4.3l31.3,41.7l95.9-127.9c7.1-9.5,20.7-11.5,30.2-4.3C375.5,138.1,377.4,151.6,370.3,161.1z"/>
<path d="M444.9,71c4.6,49.7,5,124.1-19.1,196.5c-28.7,86.2-84.7,148.6-166.5,185.4c-1.1,0.5-2.2,0.7-3.3,0.7s-2.3-0.2-3.3-0.7
	c-81.8-36.8-137.8-99.2-166.5-185.4C62.1,195.1,62.5,120.7,67.1,71c0.9-9.8,9-17.1,18.8-17.1h40.8c4.5,0,8.1,3.6,8.1,8.1
	s-3.6,8.1-8.1,8.1H85.9c-1.4,0-2.6,1.1-2.7,2.5c-9.4,102,0.6,284.4,172.8,364.2c172.2-79.8,182.3-262.1,172.8-364.2
	c-0.1-1.4-1.3-2.5-2.7-2.5H159c-4.5,0-8.1-3.6-8.1-8.1s3.6-8.1,8.1-8.1h267.2C435.9,53.9,444,61.3,444.9,71z M479.3,277.9
	c-15.9,51-40.3,95.7-72.5,132.9c-38.2,44-88,77.9-147.9,100.7c-0.9,0.4-1.9,0.5-2.9,0.5c-1,0-2-0.2-2.9-0.5
	c-59.9-22.9-109.6-56.8-147.9-100.7C73,373.6,48.6,328.9,32.7,277.9C3.9,185.2,9.7,92,15.8,44.7C19,19.2,40.8,0,66.5,0h378.9
	c25.7,0,47.5,19.2,50.8,44.7C502.3,92,508.1,185.2,479.3,277.9z M480.2,46.7L480.2,46.7c-2.2-17.4-17.2-30.5-34.7-30.5H66.5
	c-17.6,0-32.5,13.1-34.7,30.5C18.6,150.4,14.2,400.9,256,495.3C497.8,400.9,493.4,150.4,480.2,46.7z M216.1,316.9l-48.5-64.7
	c-9.8-13.1-7.1-31.7,5.9-41.5c6.3-4.8,14.1-6.8,22-5.6s14.8,5.2,19.5,11.6l24.8,33.1l89.5-119.3c9.8-13.1,28.4-15.7,41.5-5.9
	c13.1,9.8,15.7,28.4,5.9,41.5L263.5,316.9c-5.6,7.4-14.4,11.9-23.7,11.9C230.6,328.8,221.7,324.3,216.1,316.9z M180.5,242.5
	l48.5,64.7c2.5,3.4,6.6,5.4,10.8,5.4c4.2,0,8.2-2,10.8-5.4l113.2-150.9c4.5-5.9,3.2-14.4-2.7-18.9c-5.9-4.5-14.4-3.3-18.9,2.7
	L246.3,268c-1.5,2-3.9,3.2-6.5,3.2s-4.9-1.2-6.5-3.2l-31.3-41.7c-2.2-2.9-5.3-4.7-8.9-5.3c-0.6-0.1-1.3-0.1-1.9-0.1
	c-2.9,0-5.7,0.9-8.1,2.7C177.3,228.1,176.1,236.6,180.5,242.5z"/>
</svg>
