<?xml version="1.0" encoding="utf-8"?>
<!-- Generator: Adobe Illustrator 22.1.0, SVG Export Plug-In . SVG Version: 6.00 Build 0)  -->
<svg version="1.1" id="Capa_1" xmlns="http://www.w3.org/2000/svg" xmlns:xlink="http://www.w3.org/1999/xlink" x="0px" y="0px"
	 viewBox="0 0 512 512" style="enable-background:new 0 0 512 512;" xml:space="preserve">
<style type="text/css">
	.st0{fill:#D3DAE0;}
	.st1{fill:#899EA8;}
	.st2{fill:#FEAF50;}
	.st3{fill:#E48900;}
	.st4{fill:#3E3D4C;}
</style>
<path class="st0" d="M399.4,231.1V151C399.4,71.8,335.2,7.6,256,7.6c-79.2,0-143.4,64.2-143.4,143.4v80.1 M164.3,231.1V151
	c0-50.6,41.1-91.7,91.7-91.7s91.7,41.1,91.7,91.7v80.1"/>
<g>
	<path class="st1" d="M264.4,7.9c-2.8-0.2-5.6-0.2-8.4-0.2c-79.2,0-143.4,64.2-143.4,143.4v80.1h16.7V151
		C129.4,74.6,189.1,12.2,264.4,7.9z"/>
	<path class="st1" d="M272.7,59.3c-2.8,0-5.6,0.1-8.4,0.4c46.6,4.2,83.3,43.5,83.3,91.3v80.1h16.7V151
		C364.4,100.4,323.3,59.3,272.7,59.3z"/>
</g>
<rect x="65.2" y="231.1" class="st2" width="381.6" height="273.3"/>
<rect x="65.2" y="231.1" class="st3" width="33.4" height="273.3"/>
<path class="st4" d="M297.1,342.1c0-22.7-18.4-41.1-41.1-41.1s-41.1,18.4-41.1,41.1c0,15.6,8.7,29.2,21.6,36.1l-6.6,50.5h52.2
	l-6.6-50.5C288.3,371.3,297.1,357.7,297.1,342.1z"/>
<path d="M446.8,223.5H407v-28.9c0-4.2-3.4-7.6-7.6-7.6l0,0c-4.2,0-7.6,3.4-7.6,7.6v28.9h-36.5v-71.3c0-54.7-43.6-100-98.3-100.5
	c-55.2-0.5-100.2,44.2-100.2,99.3v72.5h-36.5v-71c0-74.9,60.1-136.8,135-137.3c75.2-0.4,136.6,60.6,136.6,135.8v8.2
	c0,4.2,3.4,7.6,7.6,7.6l0,0c4.2,0,7.6-3.4,7.6-7.6v-6.7C407,69,339.9,0.2,256.4,0C173-0.2,105,67.6,105,151v72.5H65.2
	c-4.2,0-7.6,3.4-7.6,7.6v198.7c0,4.2,3.4,7.6,7.6,7.6l0,0c4.2,0,7.6-3.4,7.6-7.6V238.7h366.4v258.1H72.8v-31.5
	c0-4.2-3.4-7.6-7.6-7.6l0,0c-4.2,0-7.6,3.4-7.6,7.6v39.1c0,4.2,3.4,7.6,7.6,7.6h381.6c4.2,0,7.6-3.4,7.6-7.6V231.1
	C454.4,226.9,451,223.5,446.8,223.5z M171.9,151c0-46.4,37.7-84.1,84.1-84.1c46.3,0,84.1,37.7,84.1,84.1v72.5H171.9V151z"/>
<path d="M304.7,342.1c0-26.8-21.8-48.7-48.7-48.7s-48.7,21.8-48.7,48.7c0,16.1,7.9,31,21,40l-6,45.7c-0.3,2.2,0.4,4.4,1.8,6
	c1.4,1.6,3.5,2.6,5.7,2.6h52.2c2.2,0,4.3-0.9,5.7-2.6c1.4-1.6,2.1-3.8,1.8-6l-6-45.7C296.7,373.1,304.7,358.2,304.7,342.1z
	 M271.9,371.5c-2.8,1.5-4.3,4.5-3.9,7.7l5.5,41.9h-34.9l5.5-41.9c0.4-3.1-1.2-6.2-3.9-7.7c-10.8-5.9-17.6-17.1-17.6-29.4
	c0-18.4,15-33.5,33.5-33.5s33.5,15,33.5,33.5C289.5,354.4,282.7,365.7,271.9,371.5z"/>
</svg>
