<svg xmlns="http://www.w3.org/2000/svg" xmlns:xlink="http://www.w3.org/1999/xlink" preserveAspectRatio="xMidYMid" width="21" height="30" viewBox="0 0 21 30">
  <defs>
    <style>
      .cls-1 {
        fill: #000;
        fill-rule: evenodd;
      }
    </style>
  </defs>
  <path d="M19.388,17.271 C18.542,19.186 17.364,21.256 15.887,23.424 C13.379,27.105 10.835,29.838 10.810,29.865 C10.643,30.043 10.357,30.043 10.190,29.865 C10.165,29.838 7.621,27.105 5.113,23.424 C3.636,21.256 2.458,19.186 1.612,17.271 C0.542,14.850 -0.000,12.664 -0.000,10.773 C-0.000,4.832 4.710,-0.001 10.500,-0.001 C16.290,-0.001 21.000,4.832 21.000,10.773 C21.000,12.664 20.457,14.850 19.388,17.271 ZM10.500,0.880 C5.183,0.880 0.858,5.318 0.858,10.773 C0.858,13.956 2.570,18.153 5.809,22.909 C7.770,25.789 9.753,28.079 10.500,28.914 C11.247,28.079 13.230,25.789 15.190,22.909 C18.429,18.153 20.141,13.956 20.141,10.773 C20.141,5.318 15.816,0.880 10.500,0.880 ZM8.011,16.409 C7.396,16.409 6.895,15.895 6.895,15.264 L6.895,6.105 C6.895,5.862 7.087,5.665 7.324,5.665 L7.553,5.665 C8.925,5.665 10.042,6.811 10.042,8.219 L10.042,11.272 C10.042,11.515 9.850,11.712 9.613,11.712 L9.127,11.712 L9.127,15.264 C9.127,15.895 8.626,16.409 8.011,16.409 ZM9.184,10.832 L9.184,10.832 L9.184,8.219 C9.184,7.366 8.558,6.660 7.753,6.558 L7.753,15.264 C7.753,15.410 7.869,15.528 8.011,15.528 C8.153,15.528 8.268,15.410 8.268,15.264 L8.268,11.272 C8.268,11.028 8.461,10.832 8.697,10.832 L9.184,10.832 ZM14.191,5.665 C14.428,5.665 14.620,5.862 14.620,6.105 L14.620,8.923 C14.620,9.431 14.350,9.886 13.933,10.126 L13.933,15.264 C13.933,15.895 13.433,16.409 12.817,16.409 C12.202,16.409 11.702,15.895 11.702,15.264 L11.702,10.126 C11.285,9.886 11.015,9.431 11.015,8.923 L11.015,6.105 C11.015,5.862 11.207,5.665 11.444,5.665 C11.681,5.665 11.873,5.862 11.873,6.105 L11.873,8.014 L12.388,8.014 L12.388,6.105 C12.388,5.862 12.580,5.665 12.817,5.665 C13.054,5.665 13.247,5.862 13.247,6.105 L13.247,8.014 L13.761,8.014 L13.761,6.105 C13.761,5.862 13.954,5.665 14.191,5.665 ZM11.873,8.894 L11.873,8.923 C11.873,9.150 12.023,9.349 12.238,9.405 C12.427,9.455 12.560,9.631 12.560,9.832 L12.560,15.264 C12.560,15.410 12.675,15.528 12.817,15.528 C12.959,15.528 13.075,15.410 13.075,15.264 L13.075,9.832 C13.075,9.631 13.207,9.455 13.397,9.405 C13.611,9.349 13.761,9.150 13.761,8.923 L13.762,8.923 L13.762,8.894 L11.873,8.894 ZM10.500,19.256 C5.941,19.256 2.232,15.451 2.232,10.773 C2.232,6.095 5.941,2.289 10.500,2.289 C11.865,2.289 13.219,2.638 14.414,3.298 C14.622,3.413 14.701,3.680 14.588,3.894 C14.476,4.108 14.216,4.189 14.007,4.073 C12.937,3.482 11.724,3.170 10.500,3.170 C6.414,3.170 3.090,6.580 3.090,10.773 C3.090,14.965 6.414,18.376 10.500,18.376 C14.586,18.376 17.910,14.965 17.910,10.773 C17.910,8.756 17.148,6.856 15.765,5.423 C15.598,5.250 15.600,4.971 15.768,4.800 C15.936,4.629 16.208,4.630 16.375,4.803 C17.918,6.402 18.768,8.522 18.768,10.773 C18.768,15.451 15.059,19.256 10.500,19.256 Z" class="cls-1"/>
</svg>
