<svg xmlns="http://www.w3.org/2000/svg" xmlns:xlink="http://www.w3.org/1999/xlink" preserveAspectRatio="xMidYMid" width="24" height="30" viewBox="0 0 24 30">
  <defs>
    <style>
      .cls-1 {
        fill: #000;
        fill-rule: evenodd;
      }
    </style>
  </defs>
  <path d="M22.850,6.976 L22.286,6.976 L21.966,9.259 C22.063,9.316 22.152,9.388 22.227,9.476 C22.419,9.701 22.505,9.999 22.464,10.294 L20.330,25.528 C20.271,25.948 19.960,26.281 19.568,26.379 L19.264,28.548 C19.148,29.376 18.440,29.999 17.618,29.999 L6.382,29.999 C5.559,29.999 4.852,29.376 4.736,28.548 L4.432,26.379 C4.040,26.281 3.729,25.948 3.670,25.528 L1.536,10.294 C1.495,9.999 1.581,9.701 1.773,9.476 C1.848,9.388 1.937,9.316 2.033,9.259 L1.714,6.976 L1.150,6.976 C0.516,6.976 -0.000,6.452 -0.000,5.808 L-0.000,3.877 C-0.000,3.234 0.516,2.709 1.150,2.709 L2.585,2.709 L2.984,0.745 C3.072,0.313 3.451,-0.001 3.885,-0.001 L20.115,-0.001 C20.549,-0.001 20.928,0.313 21.016,0.745 L21.414,2.709 L22.850,2.709 C23.484,2.709 24.000,3.234 24.000,3.877 L24.000,5.808 C24.000,6.452 23.484,6.976 22.850,6.976 ZM4.527,25.404 C4.538,25.476 4.599,25.530 4.671,25.530 L13.170,25.530 C13.409,25.530 13.603,25.727 13.603,25.969 C13.603,26.213 13.409,26.410 13.170,26.410 L5.311,26.410 L5.593,28.424 C5.649,28.821 5.988,29.120 6.382,29.120 L17.618,29.120 C18.012,29.120 18.351,28.821 18.406,28.424 L18.689,26.410 L15.185,26.410 C14.946,26.410 14.752,26.213 14.752,25.969 C14.752,25.727 14.946,25.530 15.185,25.530 L19.329,25.530 C19.400,25.530 19.462,25.476 19.472,25.404 L21.606,10.170 C21.614,10.112 21.589,10.072 21.572,10.052 C21.557,10.034 21.523,10.005 21.470,10.003 C21.464,10.003 21.459,10.002 21.453,10.001 L2.547,10.001 C2.541,10.002 2.535,10.003 2.529,10.003 C2.477,10.005 2.443,10.034 2.427,10.052 C2.411,10.072 2.385,10.112 2.393,10.170 L4.527,25.404 ZM21.411,6.976 L2.589,6.976 L2.889,9.122 L21.111,9.122 L21.411,6.976 ZM23.134,3.877 C23.134,3.718 23.007,3.589 22.850,3.589 L7.039,3.589 C6.800,3.589 6.606,3.392 6.606,3.149 C6.606,2.906 6.800,2.709 7.039,2.709 L20.530,2.709 L20.168,0.923 C20.162,0.897 20.140,0.879 20.115,0.879 L3.885,0.879 C3.860,0.879 3.837,0.897 3.832,0.923 L3.469,2.709 L5.024,2.709 C5.263,2.709 5.457,2.906 5.457,3.149 C5.457,3.392 5.263,3.589 5.024,3.589 L1.150,3.589 C0.993,3.589 0.866,3.718 0.866,3.877 L0.866,5.808 C0.866,5.967 0.993,6.097 1.150,6.097 L22.850,6.097 C23.007,6.097 23.134,5.967 23.134,5.808 L23.134,3.877 ZM9.394,14.811 C11.186,12.989 13.808,12.689 15.248,14.136 C15.251,14.139 15.254,14.142 15.257,14.145 C15.257,14.146 15.258,14.146 15.259,14.147 C16.696,15.606 16.402,18.279 14.606,20.105 C13.749,20.975 12.679,21.530 11.591,21.667 C11.416,21.690 11.243,21.700 11.074,21.700 C10.158,21.700 9.345,21.379 8.745,20.772 C8.744,20.771 8.743,20.770 8.742,20.769 C8.741,20.769 8.741,20.769 8.741,20.769 C8.030,20.046 7.716,19.018 7.856,17.872 C7.992,16.768 8.538,15.681 9.394,14.811 ZM11.484,20.794 C12.381,20.681 13.272,20.215 13.993,19.483 C15.357,18.098 15.702,16.161 14.845,15.002 C14.294,15.300 13.087,16.066 12.782,17.203 C12.408,18.597 10.697,19.897 9.804,20.496 C10.272,20.769 10.851,20.874 11.484,20.794 ZM9.137,19.888 C10.027,19.316 11.647,18.084 11.946,16.972 C12.290,15.693 13.419,14.830 14.146,14.391 C13.782,14.191 13.362,14.093 12.918,14.093 C11.951,14.093 10.870,14.555 10.006,15.432 C9.286,16.165 8.827,17.070 8.716,17.981 C8.625,18.718 8.775,19.382 9.137,19.888 Z" class="cls-1"/>
</svg>
