<svg xmlns="http://www.w3.org/2000/svg" xmlns:xlink="http://www.w3.org/1999/xlink" preserveAspectRatio="xMidYMid" width="35" height="30" viewBox="0 0 35 30">
  <defs>
    <style>
      .cls-1 {
        fill: #000;
        fill-rule: evenodd;
      }
    </style>
  </defs>
  <path d="M3.167,17.931 C2.925,18.088 2.611,18.015 2.458,17.777 C1.947,16.977 2.051,16.467 2.051,14.310 C2.052,12.875 3.205,11.725 4.614,11.725 C4.749,11.725 4.881,11.779 4.976,11.875 C5.185,12.086 5.127,11.715 5.127,18.448 C5.127,18.733 4.897,18.965 4.614,18.965 C4.331,18.965 4.102,18.733 4.102,18.448 L4.102,12.847 C3.885,12.924 3.692,13.047 3.527,13.214 C3.237,13.507 3.076,13.897 3.076,14.310 C3.076,16.493 3.005,16.723 3.320,17.216 C3.474,17.460 3.403,17.777 3.167,17.931 ZM7.698,21.034 C7.981,21.034 8.211,20.802 8.211,20.517 C8.211,20.231 8.440,20.000 8.724,20.000 C9.698,20.000 9.226,22.069 7.698,22.069 C6.850,22.069 6.160,21.372 6.160,20.517 L6.160,10.172 C6.160,8.642 8.211,8.141 8.211,9.138 C8.211,9.424 7.981,9.655 7.698,9.655 C7.415,9.655 7.185,9.887 7.185,10.172 L7.185,20.517 C7.185,20.802 7.415,21.034 7.698,21.034 ZM11.792,21.034 C12.075,21.034 12.305,20.802 12.305,20.517 C12.305,20.231 12.534,20.000 12.817,20.000 C13.792,20.000 13.320,22.069 11.792,22.069 C10.944,22.069 10.254,21.372 10.254,20.517 L10.254,10.172 C10.254,8.642 12.305,8.141 12.305,9.138 C12.305,9.424 12.075,9.655 11.792,9.655 C11.509,9.655 11.279,9.887 11.279,10.172 L11.279,20.517 C11.279,20.802 11.509,21.034 11.792,21.034 ZM30.898,25.833 L30.898,26.379 C30.898,28.375 29.288,29.999 27.309,29.999 L19.106,29.999 C17.127,29.999 15.517,28.375 15.517,26.379 L15.517,25.171 L7.690,25.171 C6.734,25.171 5.828,24.792 5.153,24.111 C3.971,22.919 4.102,21.547 4.102,21.005 C1.785,20.746 -0.000,18.766 -0.000,16.379 L-0.000,14.310 C-0.000,11.922 1.787,9.941 4.102,9.684 L4.102,8.104 C4.102,7.688 4.261,7.299 4.552,7.007 C4.843,6.713 5.229,6.552 5.640,6.552 L14.673,6.552 L14.673,6.552 C14.956,6.552 15.185,6.784 15.185,7.069 C15.185,7.354 14.955,7.586 14.673,7.586 L5.640,7.586 C5.357,7.586 5.128,7.819 5.127,8.104 C5.127,10.328 5.177,10.336 4.976,10.538 C4.881,10.634 4.749,10.689 4.614,10.689 C2.614,10.690 1.025,12.327 1.025,14.310 L1.025,16.379 C1.025,18.384 2.636,20.000 4.614,20.000 C4.898,20.000 5.127,20.233 5.127,20.517 L5.127,21.551 C5.127,22.986 6.278,24.137 7.690,24.137 L15.517,24.137 L15.517,20.084 C14.371,19.844 13.507,18.815 13.507,17.586 L13.507,12.931 C13.507,11.843 13.998,10.820 14.834,10.142 L14.834,9.979 C14.834,9.019 15.408,8.168 16.240,7.799 C16.196,7.589 16.190,7.383 16.219,7.159 C16.192,7.006 16.234,6.860 16.321,6.749 C16.836,5.366 18.647,5.082 19.555,6.240 C19.742,6.045 19.946,5.869 20.161,5.712 C19.828,5.183 19.266,4.846 18.641,4.828 C17.844,4.805 17.698,5.237 17.291,4.985 C17.143,4.893 17.051,4.733 17.047,4.558 C16.953,0.977 12.359,-0.257 10.456,2.675 C10.197,3.073 9.586,2.935 9.519,2.464 C9.456,2.012 9.052,1.688 8.599,1.727 C7.992,1.780 7.605,2.478 7.949,3.038 C8.144,3.356 7.950,3.772 7.583,3.823 C6.910,3.918 6.454,4.509 6.454,5.151 C6.454,5.437 6.224,5.668 5.941,5.668 C5.658,5.668 5.428,5.437 5.428,5.151 C5.428,4.192 6.002,3.340 6.834,2.971 C6.604,1.854 7.402,0.792 8.513,0.697 C9.164,0.641 9.770,0.928 10.150,1.412 C12.788,-1.334 17.370,0.156 18.005,3.852 C19.200,3.606 20.411,4.137 21.054,5.200 C23.812,4.014 26.909,5.759 27.411,8.679 C27.627,8.635 27.850,8.615 28.076,8.622 C29.632,8.666 30.898,10.002 30.898,11.600 C30.898,11.797 30.789,11.968 30.629,12.055 C30.968,12.553 30.898,12.834 30.898,14.511 C33.202,14.769 35.000,16.746 35.000,19.137 L35.000,21.207 C35.000,23.598 33.202,25.575 30.898,25.833 ZM28.047,9.656 C27.746,9.647 27.455,9.709 27.185,9.839 C27.029,9.914 26.845,9.905 26.697,9.813 C26.549,9.721 26.457,9.561 26.452,9.385 C26.359,5.805 21.765,4.571 19.862,7.502 C19.603,7.901 18.992,7.762 18.925,7.291 C18.862,6.840 18.459,6.516 18.005,6.555 C17.398,6.607 17.011,7.306 17.355,7.866 C17.549,8.182 17.358,8.595 16.994,8.650 C16.994,8.650 16.976,8.652 16.975,8.652 C16.339,8.746 15.859,9.316 15.859,9.979 L15.859,10.402 C15.859,10.573 15.776,10.732 15.636,10.828 C14.945,11.305 14.533,12.092 14.533,12.931 L14.533,17.586 C14.533,18.240 14.943,18.799 15.517,19.012 L15.517,12.931 C15.517,12.075 16.207,11.380 17.055,11.380 C30.324,11.380 29.516,11.342 29.868,11.466 C29.802,10.483 29.010,9.684 28.047,9.656 ZM33.974,19.137 C33.974,17.141 32.365,15.517 30.386,15.517 C30.102,15.517 29.873,15.286 29.873,15.000 L29.873,12.931 C29.873,12.646 29.643,12.414 29.360,12.414 L17.055,12.414 C16.772,12.414 16.542,12.646 16.542,12.931 L16.542,26.379 C16.542,27.804 17.692,28.965 19.106,28.965 L27.309,28.965 C28.723,28.965 29.873,27.804 29.873,26.379 L29.873,25.344 C29.873,25.058 30.102,24.827 30.386,24.827 C32.365,24.827 33.974,23.203 33.974,21.207 L33.974,19.137 ZM30.386,23.792 C30.103,23.792 29.873,23.561 29.873,23.275 C29.873,22.990 30.103,22.758 30.386,22.758 C31.240,22.758 31.924,22.055 31.924,21.207 L31.924,19.137 C31.924,18.456 31.488,17.886 30.898,17.674 L30.898,21.206 C30.898,21.492 30.669,21.723 30.386,21.723 C30.103,21.723 29.873,21.492 29.873,21.206 L29.873,17.069 C29.873,16.782 30.104,16.552 30.386,16.552 C31.070,16.552 31.713,16.821 32.198,17.310 C32.682,17.798 32.948,18.447 32.949,19.137 L32.949,21.207 C32.948,22.641 31.795,23.792 30.386,23.792 ZM27.309,26.896 C25.792,26.896 25.296,24.827 26.284,24.827 C26.567,24.827 26.797,25.058 26.797,25.344 C26.797,25.630 27.027,25.862 27.309,25.862 C27.592,25.862 27.822,25.630 27.822,25.344 L27.822,15.000 C27.822,14.714 27.592,14.482 27.309,14.482 C27.026,14.482 26.797,14.251 26.797,13.966 C26.797,12.971 28.848,13.466 28.848,15.000 L28.848,25.344 C28.848,26.200 28.158,26.896 27.309,26.896 ZM23.208,26.896 C21.690,26.896 21.194,24.827 22.182,24.827 C22.466,24.827 22.695,25.058 22.695,25.344 C22.695,25.630 22.925,25.862 23.208,25.862 C23.490,25.862 23.720,25.630 23.720,25.344 L23.720,15.000 C23.720,14.714 23.490,14.482 23.208,14.482 C22.924,14.482 22.695,14.251 22.695,13.966 C22.695,13.680 22.924,13.449 23.208,13.449 C24.056,13.449 24.746,14.144 24.746,15.000 L24.746,25.344 C24.746,26.200 24.056,26.896 23.208,26.896 ZM19.106,26.896 C17.588,26.896 17.092,24.827 18.080,24.827 C18.364,24.827 18.593,25.058 18.593,25.344 C18.593,25.630 18.823,25.862 19.106,25.862 C19.389,25.862 19.618,25.630 19.618,25.344 L19.618,15.000 C19.618,14.714 19.389,14.482 19.106,14.482 C18.823,14.482 18.593,14.251 18.593,13.966 C18.593,12.971 20.644,13.466 20.644,15.000 L20.644,25.344 C20.644,26.200 19.954,26.896 19.106,26.896 Z" class="cls-1"/>
</svg>
