<svg xmlns="http://www.w3.org/2000/svg" xmlns:xlink="http://www.w3.org/1999/xlink" preserveAspectRatio="xMidYMid" width="32" height="30" viewBox="0 0 32 30">
  <defs>
    <style>
      .cls-1 {
        fill: #000;
        fill-rule: evenodd;
      }
    </style>
  </defs>
  <path d="M30.378,29.999 L2.985,29.999 C2.091,29.999 1.364,29.265 1.364,28.362 L1.364,16.045 C0.494,15.280 -0.000,14.189 -0.000,13.015 C-0.000,10.796 1.789,8.990 3.987,8.990 C5.549,8.990 6.961,9.916 7.607,11.329 L8.595,11.329 C8.689,10.559 8.978,9.635 9.382,8.841 C10.022,7.585 10.837,6.893 11.676,6.893 C12.515,6.893 13.330,7.585 13.970,8.841 C14.375,9.635 14.663,10.559 14.757,11.329 L16.503,11.329 L16.503,6.535 C16.503,6.192 16.659,5.884 16.903,5.682 C16.652,5.352 16.503,4.941 16.503,4.494 C16.503,4.045 16.667,3.012 16.942,2.060 C17.348,0.654 17.823,-0.001 18.438,-0.001 C19.052,-0.001 19.527,0.654 19.933,2.060 C20.208,3.012 20.372,4.045 20.372,4.494 C20.372,4.941 20.223,5.352 19.972,5.682 C20.216,5.884 20.372,6.192 20.372,6.535 L20.372,11.329 L22.118,11.329 C22.213,10.559 22.501,9.635 22.905,8.841 C23.545,7.585 24.360,6.893 25.199,6.893 C26.038,6.893 26.853,7.585 27.493,8.841 C27.898,9.635 28.186,10.559 28.280,11.329 L30.413,11.329 C31.288,11.329 32.000,12.047 32.000,12.930 L32.000,28.362 C32.000,29.265 31.272,29.999 30.378,29.999 ZM11.676,7.911 C10.799,7.911 9.823,9.921 9.612,11.329 L13.740,11.329 C13.529,9.921 12.554,7.911 11.676,7.911 ZM19.024,2.554 C18.788,1.670 18.563,1.246 18.438,1.081 C18.312,1.246 18.088,1.670 17.852,2.554 C17.641,3.342 17.511,4.175 17.511,4.494 C17.511,5.011 17.926,5.430 18.438,5.430 C18.949,5.430 19.365,5.011 19.365,4.494 C19.365,4.175 19.234,3.342 19.024,2.554 ZM19.365,6.535 C19.365,6.488 19.324,6.448 19.278,6.448 L17.597,6.448 C17.551,6.448 17.511,6.488 17.511,6.535 L17.511,7.444 L19.365,7.444 L19.365,6.535 ZM19.365,8.462 L17.511,8.462 L17.511,9.592 L19.365,9.592 L19.365,8.462 ZM19.365,10.610 L17.511,10.610 L17.511,11.329 L19.365,11.329 L19.365,10.610 ZM25.199,7.911 C24.322,7.911 23.346,9.921 23.135,11.329 L27.264,11.329 C27.052,9.921 26.077,7.911 25.199,7.911 ZM30.992,12.930 C30.992,12.608 30.733,12.346 30.414,12.346 L7.269,12.346 C7.056,12.346 6.866,12.211 6.794,12.008 C6.373,10.812 5.245,10.007 3.987,10.007 C2.344,10.007 1.008,11.357 1.008,13.015 C1.008,13.957 1.433,14.827 2.174,15.401 C2.299,15.498 2.371,15.647 2.371,15.805 L2.371,28.362 C2.371,28.704 2.647,28.982 2.985,28.982 L4.952,28.982 L4.952,15.694 C4.952,14.791 5.680,14.056 6.574,14.056 L30.992,14.056 L30.992,12.930 ZM30.992,15.074 L6.574,15.074 C6.236,15.074 5.960,15.352 5.960,15.694 L5.960,17.785 L30.992,17.785 L30.992,15.074 ZM30.992,18.802 L5.960,18.802 L5.960,25.226 L30.992,25.226 L30.992,18.802 ZM30.992,26.243 L5.960,26.243 L5.960,28.982 L30.378,28.982 C30.716,28.982 30.992,28.704 30.992,28.362 L30.992,26.243 ZM10.633,22.924 L12.585,22.924 C12.863,22.924 13.089,23.151 13.089,23.432 C13.089,23.713 12.863,23.941 12.585,23.941 L10.633,23.941 C10.354,23.941 10.129,23.713 10.129,23.432 C10.129,23.151 10.354,22.924 10.633,22.924 ZM16.184,21.148 C16.462,21.148 16.688,21.376 16.688,21.657 C16.688,22.012 16.974,22.302 17.326,22.302 C17.678,22.302 17.965,22.012 17.965,21.657 C17.965,21.376 18.191,21.148 18.469,21.148 C18.747,21.148 18.973,21.376 18.973,21.657 C18.973,22.012 19.259,22.302 19.611,22.302 C19.963,22.302 20.250,22.012 20.250,21.657 C20.250,21.376 20.475,21.148 20.754,21.148 C21.032,21.148 21.258,21.376 21.258,21.657 C21.258,22.573 20.519,23.319 19.611,23.319 C19.168,23.319 18.765,23.141 18.469,22.852 C18.173,23.141 17.770,23.319 17.327,23.319 C16.419,23.319 15.680,22.573 15.680,21.657 C15.680,21.376 15.906,21.148 16.184,21.148 ZM24.715,22.924 L26.667,22.924 C26.946,22.924 27.171,23.151 27.171,23.432 C27.171,23.713 26.946,23.941 26.667,23.941 L24.715,23.941 C24.437,23.941 24.211,23.713 24.211,23.432 C24.211,23.151 24.437,22.924 24.715,22.924 ZM25.691,21.657 C25.187,21.657 24.779,21.244 24.779,20.736 C24.779,20.227 25.187,19.814 25.691,19.814 C26.195,19.814 26.604,20.227 26.604,20.736 C26.604,21.244 26.195,21.657 25.691,21.657 ZM11.609,21.657 C11.105,21.657 10.696,21.244 10.696,20.736 C10.696,20.227 11.105,19.814 11.609,19.814 C12.113,19.814 12.521,20.227 12.521,20.736 C12.521,21.244 12.113,21.657 11.609,21.657 Z" class="cls-1"/>
</svg>
