<svg xmlns="http://www.w3.org/2000/svg" xmlns:xlink="http://www.w3.org/1999/xlink" preserveAspectRatio="xMidYMid" width="35" height="30" viewBox="0 0 35 30">
  <defs>
    <style>
      .cls-1 {
        fill: #000;
        fill-rule: evenodd;
      }
    </style>
  </defs>
  <path d="M23.531,16.860 C24.684,16.860 25.622,17.817 25.622,18.994 C25.622,20.171 24.684,21.128 23.531,21.128 C22.378,21.128 21.440,20.171 21.440,18.994 C21.440,17.817 22.378,16.860 23.531,16.860 ZM23.531,20.082 C24.119,20.082 24.597,19.594 24.597,18.994 C24.597,18.394 24.119,17.906 23.531,17.906 C22.943,17.906 22.465,18.394 22.465,18.994 C22.465,19.594 22.943,20.082 23.531,20.082 ZM23.531,11.654 C24.684,11.654 25.622,12.611 25.622,13.788 C25.622,14.965 24.684,15.922 23.531,15.922 C22.378,15.922 21.440,14.965 21.440,13.788 C21.440,12.611 22.378,11.654 23.531,11.654 ZM23.531,14.876 C24.119,14.876 24.597,14.388 24.597,13.788 C24.597,13.188 24.119,12.700 23.531,12.700 C22.943,12.700 22.465,13.188 22.465,13.788 C22.465,14.388 22.943,14.876 23.531,14.876 ZM8.653,18.225 L7.899,18.994 L8.653,19.763 C8.853,19.967 8.853,20.299 8.653,20.503 C8.552,20.606 8.421,20.656 8.290,20.656 C8.159,20.656 8.027,20.606 7.927,20.503 L7.174,19.734 L6.420,20.503 C6.320,20.606 6.189,20.656 6.057,20.656 C5.926,20.656 5.795,20.606 5.695,20.503 C5.495,20.299 5.495,19.967 5.695,19.763 L6.449,18.994 L5.695,18.225 C5.495,18.020 5.495,17.689 5.695,17.485 C5.895,17.281 6.220,17.281 6.420,17.485 L7.174,18.254 L7.928,17.485 C8.128,17.281 8.452,17.281 8.653,17.485 C8.853,17.689 8.853,18.020 8.653,18.225 ZM5.695,22.691 C5.895,22.487 6.220,22.487 6.420,22.691 L7.174,23.460 L7.927,22.691 C8.128,22.487 8.452,22.487 8.653,22.691 C8.853,22.895 8.853,23.226 8.653,23.431 L7.899,24.200 L8.653,24.969 C8.853,25.173 8.853,25.504 8.653,25.709 C8.552,25.811 8.421,25.862 8.290,25.862 C8.159,25.862 8.027,25.811 7.927,25.709 L7.174,24.940 L6.420,25.709 C6.320,25.811 6.188,25.862 6.057,25.862 C5.926,25.862 5.795,25.811 5.695,25.709 C5.495,25.504 5.495,25.173 5.695,24.969 L6.448,24.200 L5.695,23.431 C5.495,23.226 5.495,22.895 5.695,22.691 ZM5.695,12.279 C5.895,12.074 6.220,12.075 6.420,12.279 L7.174,13.048 L7.928,12.279 C8.128,12.074 8.452,12.075 8.653,12.279 C8.853,12.484 8.853,12.815 8.653,13.019 L7.899,13.788 L8.653,14.557 C8.853,14.762 8.853,15.093 8.653,15.297 C8.552,15.399 8.421,15.450 8.290,15.450 C8.159,15.450 8.027,15.399 7.927,15.297 L7.174,14.528 L6.420,15.297 C6.320,15.399 6.189,15.450 6.057,15.450 C5.926,15.450 5.795,15.399 5.695,15.297 C5.495,15.093 5.495,14.761 5.695,14.557 L6.449,13.788 L5.695,13.019 C5.495,12.815 5.495,12.484 5.695,12.279 ZM33.221,28.584 L24.608,28.584 L23.372,29.846 C23.274,29.946 23.142,29.999 23.009,29.999 L16.549,29.999 C16.266,29.999 16.036,29.765 16.036,29.476 C16.036,29.187 16.266,28.952 16.549,28.952 L22.497,28.952 L22.497,23.080 C22.497,22.276 23.137,21.623 23.924,21.623 L29.680,21.623 L29.680,8.998 L1.025,8.998 L1.025,28.542 C1.025,28.768 1.206,28.952 1.428,28.952 L14.156,28.952 C14.439,28.952 14.669,29.187 14.669,29.476 C14.669,29.765 14.439,29.999 14.156,29.999 L1.428,29.999 C0.640,29.999 -0.000,29.346 -0.000,28.542 L-0.000,3.662 C-0.000,2.859 0.640,2.205 1.428,2.204 L5.921,2.204 L5.921,0.522 C5.921,0.233 6.151,-0.001 6.434,-0.001 C6.717,-0.001 6.947,0.233 6.947,0.522 L6.947,2.204 L10.380,2.204 L10.380,0.522 C10.380,0.233 10.610,-0.001 10.893,-0.001 C11.176,-0.001 11.406,0.233 11.406,0.522 L11.406,2.204 L14.840,2.204 L14.840,0.522 C14.840,0.233 15.069,-0.001 15.352,-0.001 C15.636,-0.001 15.865,0.233 15.865,0.522 L15.865,2.204 L19.299,2.204 L19.299,0.522 C19.299,0.233 19.529,-0.001 19.812,-0.001 C20.095,-0.001 20.324,0.233 20.324,0.522 L20.324,2.204 L23.758,2.204 L23.758,0.522 C23.758,0.233 23.988,-0.001 24.271,-0.001 C24.554,-0.001 24.784,0.233 24.784,0.522 L24.784,2.205 L29.277,2.205 C30.042,2.205 30.667,2.822 30.702,3.595 L33.119,16.574 C33.171,16.858 32.989,17.132 32.711,17.186 C32.433,17.240 32.164,17.053 32.111,16.770 L30.705,9.218 L30.705,22.146 C30.705,22.290 30.645,22.424 30.555,22.516 L25.633,27.538 L33.221,27.538 C33.695,27.538 34.042,27.141 33.964,26.721 L32.566,19.212 C32.513,18.927 32.696,18.654 32.974,18.600 C33.252,18.546 33.521,18.732 33.573,19.017 L34.972,26.526 C35.171,27.595 34.335,28.584 33.221,28.584 ZM29.680,3.662 C29.680,3.435 29.499,3.251 29.277,3.251 L24.784,3.251 L24.784,5.602 C24.784,5.891 24.554,6.125 24.271,6.125 C23.988,6.125 23.758,5.891 23.758,5.602 L23.758,3.251 L20.324,3.251 L20.324,5.602 C20.324,5.891 20.095,6.125 19.812,6.125 C19.529,6.125 19.299,5.891 19.299,5.602 L19.299,3.251 L15.865,3.251 L15.865,5.602 C15.865,5.891 15.636,6.125 15.352,6.125 C15.069,6.125 14.840,5.891 14.840,5.602 L14.840,3.251 L11.406,3.251 L11.406,5.602 C11.406,5.891 11.176,6.125 10.893,6.125 C10.610,6.125 10.380,5.891 10.380,5.602 L10.380,3.251 L6.947,3.251 L6.947,5.602 C6.947,5.891 6.717,6.125 6.434,6.125 C6.151,6.125 5.921,5.891 5.921,5.602 L5.921,3.251 L1.428,3.251 C1.206,3.251 1.025,3.435 1.025,3.662 L1.025,7.952 L29.680,7.952 L29.680,3.662 ZM28.954,22.669 L23.924,22.669 C23.703,22.669 23.522,22.854 23.522,23.080 L23.522,28.213 C24.036,27.688 28.441,23.193 28.954,22.669 ZM12.626,26.335 C11.473,26.335 10.535,25.377 10.535,24.200 C10.535,23.023 11.473,22.066 12.626,22.066 C13.779,22.066 14.718,23.023 14.718,24.200 C14.718,25.377 13.779,26.335 12.626,26.335 ZM12.626,23.112 C12.038,23.112 11.560,23.600 11.560,24.200 C11.560,24.800 12.038,25.288 12.626,25.288 C13.214,25.288 13.692,24.800 13.692,24.200 C13.692,23.600 13.214,23.112 12.626,23.112 ZM12.626,15.922 C11.473,15.922 10.535,14.965 10.535,13.788 C10.535,12.611 11.473,11.654 12.626,11.654 C13.779,11.654 14.718,12.611 14.718,13.788 C14.718,14.965 13.779,15.922 12.626,15.922 ZM12.626,12.700 C12.038,12.700 11.560,13.188 11.560,13.788 C11.560,14.388 12.038,14.876 12.626,14.876 C13.214,14.876 13.692,14.388 13.692,13.788 C13.692,13.188 13.214,12.700 12.626,12.700 ZM12.626,21.128 C11.473,21.128 10.535,20.171 10.535,18.994 C10.535,17.817 11.473,16.860 12.626,16.860 C13.779,16.860 14.718,17.817 14.718,18.994 C14.718,20.171 13.779,21.128 12.626,21.128 ZM12.626,17.906 C12.038,17.906 11.560,18.394 11.560,18.994 C11.560,19.594 12.038,20.082 12.626,20.082 C13.214,20.082 13.692,19.594 13.692,18.994 C13.692,18.394 13.214,17.906 12.626,17.906 ZM18.079,11.654 C19.232,11.654 20.170,12.611 20.170,13.788 C20.170,14.965 19.232,15.922 18.079,15.922 C16.925,15.922 15.987,14.965 15.987,13.788 C15.987,12.611 16.925,11.654 18.079,11.654 ZM18.079,14.876 C18.666,14.876 19.145,14.388 19.145,13.788 C19.145,13.188 18.666,12.700 18.079,12.700 C17.491,12.700 17.013,13.188 17.013,13.788 C17.013,14.388 17.491,14.876 18.079,14.876 ZM18.079,22.066 C19.232,22.066 20.170,23.023 20.170,24.200 C20.170,25.377 19.232,26.335 18.079,26.335 C16.925,26.335 15.987,25.377 15.987,24.200 C15.987,23.023 16.925,22.066 18.079,22.066 ZM18.079,25.288 C18.666,25.288 19.145,24.800 19.145,24.200 C19.145,23.600 18.666,23.112 18.079,23.112 C17.491,23.112 17.013,23.600 17.013,24.200 C17.013,24.800 17.491,25.288 18.079,25.288 ZM18.079,16.860 C19.232,16.860 20.170,17.817 20.170,18.994 C20.170,20.171 19.232,21.128 18.079,21.128 C16.925,21.128 15.987,20.171 15.987,18.994 C15.987,17.817 16.925,16.860 18.079,16.860 ZM18.079,20.082 C18.666,20.082 19.145,19.594 19.145,18.994 C19.145,18.394 18.666,17.906 18.079,17.906 C17.491,17.906 17.013,18.394 17.013,18.994 C17.013,19.594 17.491,20.082 18.079,20.082 Z" class="cls-1"/>
</svg>
