<svg xmlns="http://www.w3.org/2000/svg" xmlns:xlink="http://www.w3.org/1999/xlink" preserveAspectRatio="xMidYMid" width="38" height="30" viewBox="0 0 38 30">
  <defs>
    <style>
      .cls-1 {
        fill: #000;
        fill-rule: evenodd;
      }
    </style>
  </defs>
  <path d="M6.568,21.295 L6.568,18.332 C6.568,16.801 7.817,15.555 9.351,15.555 C10.886,15.555 12.134,16.801 12.134,18.332 L12.134,21.295 C12.134,22.827 10.886,24.073 9.351,24.073 C7.817,24.073 6.568,22.827 6.568,21.295 ZM11.021,21.295 L11.021,18.332 C11.021,17.413 10.272,16.666 9.351,16.666 C8.430,16.666 7.681,17.413 7.681,18.332 L7.681,21.295 C7.681,22.214 8.430,22.962 9.351,22.962 C10.272,22.962 11.021,22.214 11.021,21.295 ZM13.804,24.073 C13.497,24.073 13.248,23.824 13.248,23.518 L13.248,16.111 C13.248,15.804 13.497,15.555 13.804,15.555 L16.031,15.555 C17.566,15.555 18.814,16.801 18.814,18.332 C18.814,19.864 17.566,21.110 16.031,21.110 L14.361,21.110 L14.361,23.518 C14.361,23.824 14.112,24.073 13.804,24.073 ZM16.031,19.999 C16.952,19.999 17.701,19.251 17.701,18.332 C17.701,17.413 16.952,16.666 16.031,16.666 L14.361,16.666 L14.361,19.999 L16.031,19.999 ZM24.195,22.962 C24.503,22.962 24.752,23.211 24.752,23.518 C24.752,23.824 24.503,24.073 24.195,24.073 L20.484,24.073 C20.177,24.073 19.927,23.824 19.927,23.518 L19.927,16.111 C19.927,15.804 20.177,15.555 20.484,15.555 L24.195,15.555 C24.503,15.555 24.752,15.804 24.752,16.111 C24.752,16.417 24.503,16.666 24.195,16.666 L21.041,16.666 L21.041,19.258 L23.453,19.258 C23.760,19.258 24.010,19.507 24.010,19.814 C24.010,20.121 23.760,20.370 23.453,20.370 L21.041,20.370 L21.041,22.962 L24.195,22.962 ZM31.930,11.851 L34.475,11.851 C34.621,11.851 34.765,11.910 34.869,12.014 C34.972,12.117 35.031,12.260 35.031,12.407 C35.031,12.508 35.115,12.591 35.217,12.592 C35.364,12.592 35.507,12.651 35.611,12.754 C35.714,12.858 35.773,13.001 35.773,13.147 L35.773,26.481 C35.773,26.627 35.714,26.770 35.611,26.873 C35.507,26.977 35.364,27.036 35.217,27.036 C35.115,27.036 35.031,27.120 35.031,27.221 C35.031,27.368 34.972,27.511 34.869,27.615 C34.765,27.718 34.621,27.777 34.475,27.777 L3.525,27.777 C3.379,27.777 3.235,27.718 3.132,27.615 C3.028,27.511 2.969,27.368 2.969,27.221 C2.969,27.120 2.886,27.036 2.783,27.036 C2.636,27.036 2.493,26.977 2.390,26.874 C2.286,26.770 2.226,26.627 2.226,26.481 L2.226,13.147 C2.226,13.001 2.286,12.858 2.390,12.754 C2.493,12.651 2.637,12.592 2.783,12.592 C2.886,12.591 2.969,12.508 2.969,12.407 C2.969,12.260 3.028,12.117 3.132,12.014 C3.235,11.910 3.379,11.851 3.525,11.851 L29.704,11.851 C30.011,11.851 30.260,12.100 30.260,12.407 C30.260,12.713 30.011,12.963 29.704,12.963 L3.956,12.963 C3.829,13.231 3.610,13.450 3.340,13.578 L3.340,26.050 C3.610,26.179 3.829,26.397 3.956,26.666 L34.043,26.666 C34.172,26.397 34.391,26.179 34.660,26.050 L34.660,13.578 C34.391,13.450 34.171,13.231 34.043,12.963 L31.930,12.963 C31.624,12.963 31.374,12.713 31.374,12.407 C31.374,12.100 31.624,11.851 31.930,11.851 ZM30.875,15.555 C31.182,15.555 31.431,15.804 31.431,16.111 L31.431,23.518 C31.431,23.522 31.431,23.526 31.431,23.530 C31.431,23.541 31.430,23.551 31.429,23.562 C31.429,23.570 31.428,23.579 31.427,23.587 C31.425,23.596 31.424,23.605 31.423,23.614 C31.421,23.624 31.419,23.633 31.417,23.643 C31.415,23.650 31.413,23.658 31.411,23.665 C31.408,23.675 31.405,23.685 31.402,23.695 C31.400,23.702 31.397,23.709 31.394,23.716 C31.390,23.725 31.387,23.735 31.383,23.744 C31.379,23.752 31.376,23.760 31.372,23.767 C31.368,23.775 31.364,23.783 31.359,23.791 C31.354,23.799 31.349,23.807 31.344,23.815 C31.340,23.822 31.336,23.829 31.331,23.835 C31.325,23.844 31.319,23.852 31.312,23.860 C31.308,23.866 31.303,23.872 31.299,23.878 C31.292,23.885 31.284,23.894 31.277,23.901 C31.272,23.907 31.267,23.912 31.261,23.917 C31.254,23.924 31.247,23.931 31.239,23.937 C31.232,23.943 31.226,23.949 31.219,23.954 C31.212,23.959 31.205,23.964 31.198,23.969 C31.189,23.976 31.181,23.982 31.172,23.987 C31.168,23.989 31.165,23.992 31.161,23.994 C31.159,23.996 31.157,23.996 31.154,23.998 C31.115,24.021 31.073,24.038 31.028,24.051 C31.022,24.053 31.016,24.054 31.009,24.056 C30.994,24.060 30.978,24.063 30.962,24.065 C30.955,24.067 30.948,24.068 30.941,24.069 C30.921,24.071 30.902,24.073 30.882,24.073 C30.880,24.073 30.877,24.073 30.875,24.073 C30.874,24.073 30.873,24.073 30.872,24.073 C30.851,24.073 30.830,24.072 30.810,24.069 C30.804,24.068 30.799,24.067 30.793,24.066 C30.776,24.064 30.760,24.061 30.744,24.057 C30.739,24.056 30.733,24.054 30.727,24.053 C30.710,24.048 30.694,24.043 30.677,24.036 C30.673,24.035 30.669,24.034 30.665,24.032 C30.645,24.024 30.626,24.015 30.607,24.004 C30.603,24.003 30.600,24.000 30.596,23.998 C30.582,23.990 30.567,23.981 30.553,23.971 C30.547,23.966 30.541,23.961 30.535,23.957 C30.523,23.948 30.512,23.938 30.501,23.929 C30.496,23.924 30.491,23.919 30.485,23.914 C30.470,23.900 30.456,23.884 30.443,23.868 C30.440,23.864 30.437,23.860 30.434,23.856 C30.423,23.842 30.412,23.827 30.403,23.811 C30.401,23.808 30.399,23.806 30.397,23.804 L26.978,18.116 L26.978,23.518 C26.978,23.824 26.729,24.073 26.422,24.073 C26.114,24.073 25.865,23.824 25.865,23.518 L25.865,16.111 C25.865,16.106 25.865,16.103 25.866,16.098 C25.866,16.087 25.866,16.077 25.867,16.066 C25.868,16.058 25.869,16.049 25.870,16.041 C25.871,16.032 25.872,16.023 25.874,16.014 C25.876,16.005 25.878,15.995 25.880,15.986 C25.881,15.978 25.883,15.970 25.886,15.963 C25.888,15.953 25.891,15.943 25.894,15.934 C25.897,15.926 25.900,15.919 25.902,15.912 C25.906,15.903 25.910,15.893 25.914,15.884 C25.917,15.876 25.921,15.869 25.925,15.861 C25.929,15.853 25.933,15.845 25.937,15.837 C25.942,15.829 25.947,15.821 25.952,15.812 C25.957,15.805 25.961,15.799 25.965,15.793 C25.971,15.784 25.978,15.776 25.984,15.767 C25.989,15.762 25.993,15.756 25.998,15.751 C26.005,15.743 26.012,15.735 26.019,15.727 C26.025,15.722 26.030,15.716 26.035,15.711 C26.042,15.704 26.050,15.697 26.057,15.691 C26.064,15.685 26.071,15.679 26.078,15.674 C26.085,15.669 26.092,15.664 26.099,15.658 C26.107,15.652 26.116,15.647 26.125,15.641 C26.128,15.639 26.132,15.636 26.135,15.634 C26.138,15.632 26.141,15.631 26.144,15.629 C26.154,15.624 26.164,15.618 26.174,15.614 C26.181,15.610 26.187,15.607 26.194,15.604 C26.204,15.599 26.213,15.595 26.223,15.592 C26.231,15.589 26.239,15.586 26.246,15.583 C26.255,15.580 26.264,15.578 26.273,15.575 C26.282,15.573 26.291,15.570 26.301,15.568 C26.308,15.566 26.316,15.565 26.324,15.564 C26.335,15.562 26.345,15.560 26.356,15.559 C26.363,15.558 26.370,15.557 26.378,15.557 C26.389,15.556 26.401,15.556 26.412,15.556 C26.415,15.556 26.418,15.555 26.422,15.555 C26.426,15.555 26.430,15.556 26.434,15.556 C26.445,15.556 26.455,15.556 26.466,15.557 C26.475,15.558 26.483,15.558 26.491,15.559 C26.500,15.561 26.509,15.562 26.519,15.564 C26.528,15.565 26.537,15.567 26.547,15.569 C26.554,15.571 26.562,15.573 26.570,15.575 C26.580,15.578 26.590,15.581 26.599,15.584 C26.607,15.587 26.614,15.589 26.621,15.593 C26.630,15.595 26.640,15.599 26.649,15.603 C26.657,15.607 26.664,15.611 26.672,15.615 C26.680,15.619 26.688,15.623 26.696,15.627 C26.704,15.632 26.712,15.637 26.720,15.642 C26.727,15.646 26.734,15.650 26.740,15.655 C26.749,15.661 26.757,15.667 26.766,15.674 C26.771,15.678 26.777,15.683 26.782,15.687 C26.790,15.694 26.798,15.701 26.806,15.709 C26.811,15.714 26.817,15.719 26.822,15.725 C26.829,15.732 26.836,15.739 26.842,15.747 C26.848,15.753 26.853,15.760 26.859,15.767 C26.864,15.774 26.869,15.781 26.875,15.788 C26.881,15.796 26.886,15.805 26.892,15.814 C26.894,15.817 26.897,15.821 26.899,15.825 L30.318,21.512 L30.318,16.111 C30.318,15.804 30.567,15.555 30.875,15.555 ZM37.401,29.401 C37.016,29.785 36.504,29.998 35.959,29.999 L11.571,29.999 C11.264,29.999 11.015,29.750 11.015,29.444 C11.015,29.138 11.264,28.888 11.571,28.888 L35.959,28.888 C36.205,28.888 36.437,28.791 36.613,28.615 C36.789,28.439 36.887,28.207 36.887,27.962 L36.887,11.666 C36.887,11.421 36.789,11.189 36.613,11.013 C36.437,10.837 36.205,10.740 35.959,10.740 L2.041,10.740 C1.795,10.740 1.563,10.837 1.386,11.013 C1.210,11.189 1.113,11.421 1.113,11.666 L1.113,27.962 C1.113,28.207 1.210,28.439 1.386,28.615 C1.563,28.791 1.795,28.888 2.041,28.888 L9.345,28.888 C9.651,28.888 9.901,29.138 9.901,29.444 C9.901,29.750 9.651,29.999 9.345,29.999 L2.041,29.999 C1.496,29.998 0.984,29.785 0.599,29.401 C0.214,29.017 0.001,28.506 -0.000,27.962 L-0.000,11.666 C0.001,11.122 0.214,10.611 0.599,10.227 C0.984,9.842 1.496,9.630 2.041,9.629 L4.748,9.629 L17.021,2.537 C16.981,2.377 16.959,2.209 16.959,2.036 C16.959,0.913 17.874,-0.001 19.000,-0.001 C20.125,-0.001 21.041,0.913 21.041,2.036 C21.041,2.209 21.019,2.377 20.978,2.537 L33.251,9.629 L35.959,9.629 C36.504,9.630 37.016,9.842 37.401,10.227 C37.786,10.611 37.999,11.122 38.000,11.666 L38.000,27.962 C37.999,28.506 37.786,29.017 37.401,29.401 ZM19.000,1.110 C18.488,1.110 18.072,1.526 18.072,2.036 C18.072,2.192 18.111,2.339 18.180,2.467 C18.186,2.478 18.193,2.488 18.200,2.499 C18.205,2.507 18.208,2.516 18.213,2.525 C18.377,2.787 18.668,2.962 19.000,2.962 C19.511,2.962 19.927,2.547 19.927,2.036 C19.927,1.526 19.511,1.110 19.000,1.110 ZM20.419,3.498 C20.051,3.854 19.551,4.073 19.000,4.073 C18.449,4.073 17.948,3.854 17.581,3.498 L6.970,9.629 L31.029,9.629 L20.419,3.498 Z" class="cls-1"/>
</svg>
