<?xml version="1.0" encoding="utf-8"?>
<!-- Generator: Adobe Illustrator 22.1.0, SVG Export Plug-In . SVG Version: 6.00 Build 0)  -->
<svg version="1.1" id="Capa_1" xmlns="http://www.w3.org/2000/svg" xmlns:xlink="http://www.w3.org/1999/xlink" x="0px" y="0px"
	 viewBox="0 0 512 512" style="enable-background:new 0 0 512 512;" xml:space="preserve">
<style type="text/css">
	.st0{fill:#4DBBEB;}
	.st1{fill:#FD6244;}
	.st2{fill:#FED42D;}
	.st3{fill:#E3E3E3;}
</style>
<path class="st0" d="M53,209v293h406V209L53,209z"/>
<path class="st1" d="M496.6,186c-4.6-7.9-45.6-77.8-51.8-90h-75.5l27.5,90l0.2,0.7v23.5c0,25.9,23.9,47,49.8,47
	c4.1,0,8.2-0.5,12.2-1.5c20.9-5.3,38-23.6,38-45.4v-23.5C497,186.7,496.9,186.5,496.6,186z"/>
<path class="st0" d="M446,50v46h-1.3h-75.5h-75.5h-75.5h-75.5H67.2H66V50c0-22.1,17.9-40,40-40h300C428.1,10,446,27.9,446,50z"/>
<g>
	<path class="st2" d="M396.8,186l-27.5-90h-75.5l9.1,90l0.1,0.7v23.5c0,25.9,21,47,47,47c25.9,0,47.1-21,47.1-47v-23.5L396.8,186z"
		/>
	<path class="st2" d="M326,399h-70c0,22.1,17.9,40,40,40h60c22.1,0,40-17.9,40-40H326z"/>
	<path class="st2" d="M376,349v-30H276v30c0,27.6,22.4,50,50,50S376,376.6,376,349z"/>
</g>
<path class="st1" d="M302.9,186l-9.1-90h-75.5l-9.1,90l-0.1,0.7v23.5c0,25.9,21,47,47,47s47-21,47-47v-23.5L302.9,186z"/>
<path class="st3" d="M216,502H96V299h120C216,302.7,216,496.6,216,502z"/>
<path class="st2" d="M142.7,96l-27.4,90l-0.2,0.7v23.5c0,25.9,21,47,47,47s47-21,47-47v-23.5l0.1-0.7l9.1-90H142.7z"/>
<path class="st1" d="M67.2,96c-6.2,12.2-47.1,82.1-51.8,90c-0.3,0.5-0.4,0.7-0.4,0.7v23.5c0,21.8,17.1,40.2,38,45.4
	c3.9,1,8,1.5,12.1,1.5c25.9,0,50-21,50-47v-23.5l0.2-0.7l27.4-90H67.2z"/>
<path d="M136,429c5.5,0,10-4.5,10-10s-4.5-10-10-10s-10,4.5-10,10S130.5,429,136,429z"/>
<path d="M502,492h-33V262.9c22.4-8.8,38-29.9,38-52.7v-23.5c0-2.2-0.8-5.2-2.7-7.3c-24.6-41.9-41.7-71.5-48.3-83.6V50
	c0-27.6-22.4-50-50-50H106C78.4,0,56,22.4,56,50v45.7c-7.7,14-29,50.7-48.2,83.5c-1.9,2.1-2.8,5-2.8,7.5v23.5
	c0,22.8,15.6,43.9,38,52.7V492H10c-5.5,0-10,4.5-10,10s4.5,10,10,10h492c5.5,0,10-4.5,10-10S507.5,492,502,492z M457,245.8
	c-0.3,0.1-0.6,0.1-0.9,0.2c-3.1,0.8-6.2,1.1-9.3,1.1c-21.2,0-39.8-17.3-39.8-37V196h80v14.2C487,226.3,474.4,241.2,457,245.8z
	 M73.2,106h56l-21.3,70h-75C45.6,154.2,65.1,120.8,73.2,106z M207.2,106l-7.1,70h-71.2l21.3-70H207.2z M284.7,106l7.1,70h-71.6
	l7.1-70H284.7z M438.8,106c7.7,14,25.9,45.2,40.4,70h-75l-21.4-70H438.8z M361.9,106l21.4,70h-71.4l-7.1-70H361.9z M125.1,196H199
	v14.2c0,20.4-16.6,37-37,37c-20.4,0-37-16.6-37-37C125.1,210.2,125.1,196,125.1,196z M219,196h73.9l0,14.2c0,20.4-16.6,37-37,37
	s-37-16.6-37-37L219,196L219,196z M312.9,196H387v14.2c0,20.4-16.6,37-37.1,37c-20.4,0-37-16.6-37-37V196z M76,50
	c0-16.5,13.5-30,30-30h300c16.5,0,30,13.5,30,30v36c-12.1,0-336.3,0-360,0V50z M25,210.2V196h80.1v14.2c0,19.7-18.7,37-40,37
	c-3.1,0-6.1-0.4-9.2-1.1c-0.3-0.1-0.7-0.2-1-0.2C37.6,241.2,25,226.3,25,210.2z M63,267.1c0.7,0,1.4,0,2.1,0c15,0,30.1-6,41.5-16.4
	c3-2.8,5.7-5.8,8.1-9c10.2,15.3,27.6,25.4,47.4,25.4c19.5,0,36.7-9.8,47-24.8c10.3,14.9,27.5,24.8,47,24.8s36.7-9.8,47-24.8
	c10.3,14.9,27.5,24.8,47,24.8c19.8,0,37.2-10.1,47.5-25.4c10.9,15.2,29.2,25.4,49.4,25.4c0.7,0,1.4,0,2.2,0V492H226V299
	c0-5.5-4.5-10-10-10H96c-5.5,0-10,4.5-10,10v193H63V267.1z M206,409h-30c-5.5,0-10,4.5-10,10s4.5,10,10,10h30v63H106V309h100V409z"
	/>
<path d="M296,449h60c13.4,0,25.9-5.2,35.4-14.6c9.4-9.4,14.6-22,14.6-35.4c0-5.5-4.5-10-10-10h-25.3c5.2-5.8,9.2-12.5,11.9-20H396
	c8,0,15.5-3.1,21.2-8.8c5.7-5.7,8.8-13.2,8.8-21.2c0-16.5-13.5-30-30-30h-20H276c-5.5,0-10,4.5-10,10v30c0,15.4,5.8,29.4,15.3,40
	H256c-5.5,0-10,4.5-10,10C246,426.6,268.4,449,296,449z M406,339c0,2.7-1,5.2-2.9,7.1c-1.9,1.9-4.4,2.9-7.1,2.9h-10v-20h10
	C401.5,329,406,333.5,406,339z M286,349v-20h80v20c0,22.1-17.9,40-40,40S286,371.1,286,349z M384.3,409c-1.5,4.2-3.9,8-7.1,11.2
	c-5.7,5.7-13.2,8.8-21.2,8.8h-60c-13,0-24.2-8.4-28.3-20H384.3z"/>
</svg>
