<?xml version="1.0" encoding="utf-8"?>
<!-- Generator: Adobe Illustrator 22.1.0, SVG Export Plug-In . SVG Version: 6.00 Build 0)  -->
<svg version="1.1" id="Capa_1" xmlns="http://www.w3.org/2000/svg" xmlns:xlink="http://www.w3.org/1999/xlink" x="0px" y="0px"
	 viewBox="0 0 512 512" style="enable-background:new 0 0 512 512;" xml:space="preserve">
<style type="text/css">
	.st0{fill:#FFC66C;}
	.st1{fill:#4DBAF6;}
	.st2{fill:#FFFFFF;}
	.st3{fill:#898998;}
</style>
<path class="st0" d="M289,448h71c22.1,0,40-17.9,40-40V266c0-79.5-64.5-144-144-144l0,0c-79.5,0-144,64.5-144,144v142
	c0,22.1,17.9,40,40,40h71H289z"/>
<g>
	<path class="st1" d="M256,318L256,318c-40.5,0-73.3,32.8-73.3,73.3l0,0c0,13.5,10.9,24.4,24.4,24.4h97.7
		c13.5,0,24.4-10.9,24.4-24.4l0,0C329.3,350.8,296.5,318,256,318z"/>
	<path class="st1" d="M192,88H94.3c-3.5,0-6.3-2.8-6.3-6.3V50.3c0-3.5,2.8-6.3,6.3-6.3H192h128h97.7c3.5,0,6.3,2.8,6.3,6.3v31.3
		c0,3.5-2.8,6.3-6.3,6.3H320L192,88L192,88z"/>
</g>
<circle class="st2" cx="256" cy="66" r="56"/>
<path class="st3" d="M256.1,502L256.1,502c-17.7,0-32-14.3-32-32v-54.3h64V470C288.1,487.7,273.8,502,256.1,502z"/>
<path d="M417.7,34h-104C302.4,13.7,280.8,0,256,0s-46.4,13.7-57.7,34h-104c-9,0-16.3,7.3-16.3,16.3v31.3c0,9,7.3,16.3,16.3,16.3h104
	c4.2,7.6,9.9,14.2,16.6,19.6c-65,18-112.9,77.7-112.9,148.4v142c0,27.6,22.4,50,50,50h62.1v12c0,23.2,18.8,42,42,42s42-18.8,42-42
	v-12H360c27.6,0,50-22.4,50-50v-31.7c0-5.5-4.5-10-10-10s-10,4.5-10,10V408c0,16.5-13.5,30-30,30h-61.9v-12.3h6.7
	c19,0,34.4-15.4,34.4-34.4c0-42.5-32-77.7-73.3-82.6v-101c0-5.5-4.5-10-10-10s-10,4.5-10,10v101c-41.2,5-73.3,40.1-73.3,82.6
	c0,19,15.4,34.4,34.4,34.4h7V438H152c-16.5,0-30-13.5-30-30V266c0-73.9,60.1-134,134-134s134,60.1,134,134v24.3c0,5.5,4.5,10,10,10
	s10-4.5,10-10V266c0-70.7-47.9-130.4-112.9-148.4c6.7-5.4,12.4-12,16.6-19.6h104c9,0,16.3-7.3,16.3-16.3V50.3
	C434,41.3,426.7,34,417.7,34z M192.8,391.3c0-34.9,28.4-63.3,63.3-63.3s63.3,28.4,63.3,63.3c0,7.9-6.5,14.4-14.4,14.4h-16.7h-64h-17
	C199.2,405.7,192.8,399.2,192.8,391.3z M278.1,425.7V470c0,12.1-9.9,22-22,22s-22-9.9-22-22v-44.3H278.1z M98,54h18v24H98V54z
	 M136,78V54h55.1c-0.7,3.9-1.1,7.9-1.1,12s0.4,8.1,1.1,12H136z M210,66c0-25.4,20.6-46,46-46s46,20.6,46,46s-20.6,46-46,46
	S210,91.4,210,66z M320.9,54H376v24h-55.1c0.7-3.9,1.1-7.9,1.1-12S321.6,57.9,320.9,54z M414,78h-18V54h18V78z"/>
<path d="M400,325c-2.6,0-5.2,1.1-7.1,2.9c-1.9,1.9-2.9,4.4-2.9,7.1s1.1,5.2,2.9,7.1s4.4,2.9,7.1,2.9s5.2-1.1,7.1-2.9
	c1.9-1.9,2.9-4.4,2.9-7.1s-1.1-5.2-2.9-7.1C405.2,326.1,402.6,325,400,325z"/>
<path d="M248.9,161.3c-1.9,1.9-2.9,4.4-2.9,7.1c0,2.6,1.1,5.2,2.9,7.1c1.9,1.9,4.4,2.9,7.1,2.9s5.2-1.1,7.1-2.9
	c1.9-1.9,2.9-4.4,2.9-7.1c0-2.6-1.1-5.2-2.9-7.1c-1.9-1.9-4.4-2.9-7.1-2.9S250.8,159.4,248.9,161.3z"/>
<path d="M256,33.8c-5.5,0-10,4.5-10,10s4.5,10,10,10c6.7,0,12.2,5.5,12.2,12.2c0,5.5,4.5,10,10,10s10-4.5,10-10
	C288.2,48.3,273.7,33.8,256,33.8z"/>
</svg>
